G04*
G04 #@! TF.GenerationSoftware,Altium Limited,Altium Designer,22.2.1 (43)*
G04*
G04 Layer_Physical_Order=3*
G04 Layer_Color=16440176*
%FSLAX25Y25*%
%MOIN*%
G70*
G04*
G04 #@! TF.SameCoordinates,5BB0EFD5-3206-4E1C-A6FC-55E40B3CF44B*
G04*
G04*
G04 #@! TF.FilePolarity,Positive*
G04*
G01*
G75*
%ADD51C,0.05000*%
%ADD53O,0.08268X0.03937*%
%ADD54O,0.06299X0.03937*%
%ADD56C,0.01800*%
G36*
X171318Y45920D02*
X172547Y45411D01*
X173602Y44602D01*
X174411Y43547D01*
X174920Y42318D01*
X175089Y41034D01*
X175082Y41000D01*
Y-41000D01*
X175089Y-41034D01*
X174920Y-42318D01*
X174411Y-43547D01*
X173602Y-44602D01*
X172547Y-45411D01*
X171318Y-45920D01*
X170478Y-46031D01*
X170000Y-46082D01*
X169504Y-46082D01*
X169502Y-46082D01*
X496D01*
X0Y-46082D01*
X-478Y-46031D01*
X-1318Y-45920D01*
X-2547Y-45411D01*
X-3602Y-44602D01*
X-4411Y-43547D01*
X-4920Y-42318D01*
X-5089Y-41034D01*
X-5082Y-41000D01*
Y24258D01*
X-4582Y24357D01*
X-4502Y24164D01*
X-4136Y23798D01*
X-3659Y23600D01*
X-3141D01*
X-2664Y23798D01*
X-2298Y24164D01*
X-2100Y24641D01*
Y25159D01*
X-2298Y25636D01*
X-2664Y26002D01*
X-2898Y26464D01*
X-2850Y26579D01*
X-2700Y26941D01*
Y27459D01*
X-2898Y27936D01*
X-3264Y28302D01*
X-3741Y28500D01*
X-4259D01*
X-4582Y28366D01*
X-5082Y28609D01*
Y41000D01*
X-5089Y41034D01*
X-4920Y42318D01*
X-4411Y43547D01*
X-3602Y44602D01*
X-2547Y45411D01*
X-1318Y45920D01*
X-34Y46089D01*
X0Y46082D01*
X170000D01*
X170034Y46089D01*
X171318Y45920D01*
D02*
G37*
%LPC*%
G36*
X103959Y45100D02*
X103441D01*
X102964Y44902D01*
X102598Y44536D01*
X102400Y44059D01*
Y43541D01*
X102494Y43314D01*
X102070Y43031D01*
X101781Y43321D01*
X101119Y43702D01*
X100382Y43900D01*
X99618D01*
X98881Y43702D01*
X98219Y43321D01*
X97679Y42781D01*
X97298Y42119D01*
X97100Y41382D01*
Y40618D01*
X97298Y39881D01*
X97679Y39219D01*
X98219Y38679D01*
X98881Y38298D01*
X99618Y38100D01*
X100382D01*
X101119Y38298D01*
X101781Y38679D01*
X102321Y39219D01*
X102702Y39881D01*
X102900Y40618D01*
Y41382D01*
X102702Y42119D01*
X102521Y42433D01*
X102921Y42740D01*
X102964Y42698D01*
X103441Y42500D01*
X103959D01*
X104436Y42698D01*
X104802Y43064D01*
X105000Y43541D01*
Y44059D01*
X104802Y44536D01*
X104436Y44902D01*
X103959Y45100D01*
D02*
G37*
G36*
X170382Y43900D02*
X169618D01*
X168881Y43702D01*
X168219Y43321D01*
X167679Y42781D01*
X167298Y42119D01*
X167100Y41382D01*
Y40618D01*
X167298Y39881D01*
X167679Y39219D01*
X168219Y38679D01*
X168881Y38298D01*
X169618Y38100D01*
X170382D01*
X171119Y38298D01*
X171781Y38679D01*
X172321Y39219D01*
X172702Y39881D01*
X172900Y40618D01*
Y41382D01*
X172702Y42119D01*
X172321Y42781D01*
X171781Y43321D01*
X171119Y43702D01*
X170382Y43900D01*
D02*
G37*
G36*
X160382D02*
X159618D01*
X158881Y43702D01*
X158219Y43321D01*
X157679Y42781D01*
X157298Y42119D01*
X157100Y41382D01*
Y40618D01*
X157298Y39881D01*
X157679Y39219D01*
X158219Y38679D01*
X158881Y38298D01*
X159618Y38100D01*
X160382D01*
X161119Y38298D01*
X161781Y38679D01*
X162321Y39219D01*
X162702Y39881D01*
X162900Y40618D01*
Y41382D01*
X162702Y42119D01*
X162321Y42781D01*
X161781Y43321D01*
X161119Y43702D01*
X160382Y43900D01*
D02*
G37*
G36*
X150382D02*
X149618D01*
X148881Y43702D01*
X148219Y43321D01*
X147679Y42781D01*
X147298Y42119D01*
X147100Y41382D01*
Y40618D01*
X147298Y39881D01*
X147679Y39219D01*
X148219Y38679D01*
X148881Y38298D01*
X149618Y38100D01*
X150382D01*
X151119Y38298D01*
X151781Y38679D01*
X152321Y39219D01*
X152702Y39881D01*
X152900Y40618D01*
Y41382D01*
X152702Y42119D01*
X152321Y42781D01*
X151781Y43321D01*
X151119Y43702D01*
X150382Y43900D01*
D02*
G37*
G36*
X140382D02*
X139618D01*
X138881Y43702D01*
X138219Y43321D01*
X137679Y42781D01*
X137298Y42119D01*
X137100Y41382D01*
Y40618D01*
X137298Y39881D01*
X137679Y39219D01*
X138219Y38679D01*
X138881Y38298D01*
X139618Y38100D01*
X140382D01*
X141119Y38298D01*
X141781Y38679D01*
X142321Y39219D01*
X142702Y39881D01*
X142900Y40618D01*
Y41382D01*
X142702Y42119D01*
X142321Y42781D01*
X141781Y43321D01*
X141119Y43702D01*
X140382Y43900D01*
D02*
G37*
G36*
X130382D02*
X129618D01*
X128881Y43702D01*
X128219Y43321D01*
X127679Y42781D01*
X127298Y42119D01*
X127100Y41382D01*
Y40618D01*
X127298Y39881D01*
X127679Y39219D01*
X128219Y38679D01*
X128881Y38298D01*
X129618Y38100D01*
X130382D01*
X131119Y38298D01*
X131781Y38679D01*
X132321Y39219D01*
X132702Y39881D01*
X132900Y40618D01*
Y41382D01*
X132702Y42119D01*
X132321Y42781D01*
X131781Y43321D01*
X131119Y43702D01*
X130382Y43900D01*
D02*
G37*
G36*
X120382D02*
X119618D01*
X118881Y43702D01*
X118219Y43321D01*
X117679Y42781D01*
X117298Y42119D01*
X117100Y41382D01*
Y40618D01*
X117298Y39881D01*
X117679Y39219D01*
X118219Y38679D01*
X118881Y38298D01*
X119618Y38100D01*
X120382D01*
X121119Y38298D01*
X121781Y38679D01*
X122321Y39219D01*
X122702Y39881D01*
X122900Y40618D01*
Y41382D01*
X122702Y42119D01*
X122321Y42781D01*
X121781Y43321D01*
X121119Y43702D01*
X120382Y43900D01*
D02*
G37*
G36*
X110382D02*
X109618D01*
X108881Y43702D01*
X108219Y43321D01*
X107679Y42781D01*
X107298Y42119D01*
X107100Y41382D01*
Y40618D01*
X107298Y39881D01*
X107679Y39219D01*
X108219Y38679D01*
X108881Y38298D01*
X109618Y38100D01*
X110382D01*
X111119Y38298D01*
X111781Y38679D01*
X112321Y39219D01*
X112702Y39881D01*
X112900Y40618D01*
Y41382D01*
X112702Y42119D01*
X112321Y42781D01*
X111781Y43321D01*
X111119Y43702D01*
X110382Y43900D01*
D02*
G37*
G36*
X90382D02*
X89618D01*
X88881Y43702D01*
X88219Y43321D01*
X87679Y42781D01*
X87298Y42119D01*
X87100Y41382D01*
Y40618D01*
X87298Y39881D01*
X87679Y39219D01*
X88219Y38679D01*
X88881Y38298D01*
X89618Y38100D01*
X90382D01*
X91119Y38298D01*
X91781Y38679D01*
X92321Y39219D01*
X92702Y39881D01*
X92900Y40618D01*
Y41382D01*
X92702Y42119D01*
X92321Y42781D01*
X91781Y43321D01*
X91119Y43702D01*
X90382Y43900D01*
D02*
G37*
G36*
X80382D02*
X79618D01*
X78881Y43702D01*
X78219Y43321D01*
X77679Y42781D01*
X77298Y42119D01*
X77100Y41382D01*
Y40618D01*
X77298Y39881D01*
X77679Y39219D01*
X78219Y38679D01*
X78881Y38298D01*
X79618Y38100D01*
X80382D01*
X81119Y38298D01*
X81781Y38679D01*
X82321Y39219D01*
X82702Y39881D01*
X82900Y40618D01*
Y41382D01*
X82702Y42119D01*
X82321Y42781D01*
X81781Y43321D01*
X81119Y43702D01*
X80382Y43900D01*
D02*
G37*
G36*
X70382D02*
X69618D01*
X68881Y43702D01*
X68219Y43321D01*
X67679Y42781D01*
X67298Y42119D01*
X67100Y41382D01*
Y40618D01*
X67298Y39881D01*
X67679Y39219D01*
X68219Y38679D01*
X68881Y38298D01*
X69618Y38100D01*
X70382D01*
X71119Y38298D01*
X71781Y38679D01*
X72321Y39219D01*
X72702Y39881D01*
X72900Y40618D01*
Y41382D01*
X72702Y42119D01*
X72321Y42781D01*
X71781Y43321D01*
X71119Y43702D01*
X70382Y43900D01*
D02*
G37*
G36*
X60382D02*
X59618D01*
X58881Y43702D01*
X58219Y43321D01*
X57679Y42781D01*
X57298Y42119D01*
X57100Y41382D01*
Y40618D01*
X57298Y39881D01*
X57679Y39219D01*
X58219Y38679D01*
X58881Y38298D01*
X59618Y38100D01*
X60382D01*
X61119Y38298D01*
X61781Y38679D01*
X62321Y39219D01*
X62702Y39881D01*
X62900Y40618D01*
Y41382D01*
X62702Y42119D01*
X62321Y42781D01*
X61781Y43321D01*
X61119Y43702D01*
X60382Y43900D01*
D02*
G37*
G36*
X50382D02*
X49618D01*
X48881Y43702D01*
X48219Y43321D01*
X47679Y42781D01*
X47298Y42119D01*
X47100Y41382D01*
Y40618D01*
X47298Y39881D01*
X47679Y39219D01*
X48219Y38679D01*
X48881Y38298D01*
X49618Y38100D01*
X50382D01*
X51119Y38298D01*
X51781Y38679D01*
X52321Y39219D01*
X52702Y39881D01*
X52900Y40618D01*
Y41382D01*
X52702Y42119D01*
X52321Y42781D01*
X51781Y43321D01*
X51119Y43702D01*
X50382Y43900D01*
D02*
G37*
G36*
X40382D02*
X39618D01*
X38881Y43702D01*
X38219Y43321D01*
X37679Y42781D01*
X37298Y42119D01*
X37100Y41382D01*
Y40618D01*
X37298Y39881D01*
X37679Y39219D01*
X38219Y38679D01*
X38881Y38298D01*
X39618Y38100D01*
X40382D01*
X41119Y38298D01*
X41781Y38679D01*
X42321Y39219D01*
X42702Y39881D01*
X42900Y40618D01*
Y41382D01*
X42702Y42119D01*
X42321Y42781D01*
X41781Y43321D01*
X41119Y43702D01*
X40382Y43900D01*
D02*
G37*
G36*
X30382D02*
X29618D01*
X28881Y43702D01*
X28219Y43321D01*
X27679Y42781D01*
X27298Y42119D01*
X27100Y41382D01*
Y40618D01*
X27298Y39881D01*
X27679Y39219D01*
X28219Y38679D01*
X28881Y38298D01*
X29618Y38100D01*
X30382D01*
X31119Y38298D01*
X31781Y38679D01*
X32321Y39219D01*
X32702Y39881D01*
X32900Y40618D01*
Y41382D01*
X32702Y42119D01*
X32321Y42781D01*
X31781Y43321D01*
X31119Y43702D01*
X30382Y43900D01*
D02*
G37*
G36*
X20382D02*
X19618D01*
X18881Y43702D01*
X18219Y43321D01*
X17679Y42781D01*
X17298Y42119D01*
X17100Y41382D01*
Y40618D01*
X17298Y39881D01*
X17679Y39219D01*
X18219Y38679D01*
X18881Y38298D01*
X19618Y38100D01*
X20382D01*
X21119Y38298D01*
X21781Y38679D01*
X22321Y39219D01*
X22702Y39881D01*
X22900Y40618D01*
Y41382D01*
X22702Y42119D01*
X22321Y42781D01*
X21781Y43321D01*
X21119Y43702D01*
X20382Y43900D01*
D02*
G37*
G36*
X10382D02*
X9618D01*
X8881Y43702D01*
X8219Y43321D01*
X7679Y42781D01*
X7298Y42119D01*
X7100Y41382D01*
Y40618D01*
X7298Y39881D01*
X7679Y39219D01*
X8219Y38679D01*
X8881Y38298D01*
X9618Y38100D01*
X10382D01*
X11119Y38298D01*
X11781Y38679D01*
X12321Y39219D01*
X12702Y39881D01*
X12900Y40618D01*
Y41382D01*
X12702Y42119D01*
X12321Y42781D01*
X11781Y43321D01*
X11119Y43702D01*
X10382Y43900D01*
D02*
G37*
G36*
X382D02*
X-382D01*
X-1119Y43702D01*
X-1781Y43321D01*
X-2321Y42781D01*
X-2702Y42119D01*
X-2900Y41382D01*
Y40618D01*
X-2702Y39881D01*
X-2321Y39219D01*
X-1781Y38679D01*
X-1119Y38298D01*
X-382Y38100D01*
X382D01*
X1119Y38298D01*
X1781Y38679D01*
X2321Y39219D01*
X2702Y39881D01*
X2900Y40618D01*
Y41382D01*
X2702Y42119D01*
X2321Y42781D01*
X1781Y43321D01*
X1119Y43702D01*
X382Y43900D01*
D02*
G37*
G36*
X84859Y37000D02*
X84341D01*
X83864Y36802D01*
X83498Y36436D01*
X83300Y35959D01*
Y35441D01*
X83498Y34964D01*
X83864Y34598D01*
X84341Y34400D01*
X84859D01*
X85336Y34598D01*
X85702Y34964D01*
X85900Y35441D01*
Y35959D01*
X85702Y36436D01*
X85336Y36802D01*
X84859Y37000D01*
D02*
G37*
G36*
X81859Y35700D02*
X81341D01*
X80864Y35502D01*
X80498Y35136D01*
X80300Y34659D01*
Y34141D01*
X80498Y33664D01*
X80864Y33298D01*
X81341Y33100D01*
X81859D01*
X82336Y33298D01*
X82702Y33664D01*
X82900Y34141D01*
Y34659D01*
X82702Y35136D01*
X82336Y35502D01*
X81859Y35700D01*
D02*
G37*
G36*
X60459Y33700D02*
X59941D01*
X59464Y33502D01*
X59098Y33136D01*
X58900Y32659D01*
Y32141D01*
X59098Y31664D01*
X59464Y31298D01*
X59941Y31100D01*
X60459D01*
X60936Y31298D01*
X61302Y31664D01*
X61500Y32141D01*
Y32659D01*
X61302Y33136D01*
X60936Y33502D01*
X60459Y33700D01*
D02*
G37*
G36*
X87159Y33600D02*
X86641D01*
X86164Y33402D01*
X85798Y33036D01*
X85600Y32559D01*
Y32041D01*
X85798Y31564D01*
X86164Y31198D01*
X86641Y31000D01*
X87159D01*
X87636Y31198D01*
X88002Y31564D01*
X88200Y32041D01*
Y32559D01*
X88002Y33036D01*
X87636Y33402D01*
X87159Y33600D01*
D02*
G37*
G36*
X63597Y33300D02*
X63080D01*
X62602Y33102D01*
X62236Y32736D01*
X62039Y32259D01*
Y31741D01*
X62236Y31264D01*
X62602Y30898D01*
X63080Y30700D01*
X63597D01*
X64075Y30898D01*
X64441Y31264D01*
X64639Y31741D01*
Y32259D01*
X64441Y32736D01*
X64075Y33102D01*
X63597Y33300D01*
D02*
G37*
G36*
X54159Y30200D02*
X53641D01*
X53164Y30002D01*
X52798Y29636D01*
X52721Y29450D01*
X52179D01*
X52102Y29636D01*
X51736Y30002D01*
X51259Y30200D01*
X50741D01*
X50264Y30002D01*
X49898Y29636D01*
X49700Y29159D01*
Y28641D01*
X49898Y28164D01*
X50264Y27798D01*
X50741Y27600D01*
X51259D01*
X51736Y27798D01*
X52102Y28164D01*
X52179Y28350D01*
X52721D01*
X52798Y28164D01*
X53164Y27798D01*
X53641Y27600D01*
X54159D01*
X54636Y27798D01*
X55002Y28164D01*
X55200Y28641D01*
Y29159D01*
X55002Y29636D01*
X54636Y30002D01*
X54159Y30200D01*
D02*
G37*
G36*
X101259Y31900D02*
X100741D01*
X100264Y31702D01*
X99898Y31336D01*
X99700Y30859D01*
Y30341D01*
X99898Y29864D01*
X100261Y29500D01*
X99898Y29136D01*
X99700Y28659D01*
Y28141D01*
X99898Y27664D01*
X100264Y27298D01*
X100741Y27100D01*
X101259D01*
X101736Y27298D01*
X102102Y27664D01*
X102300Y28141D01*
Y28659D01*
X102102Y29136D01*
X101739Y29500D01*
X102102Y29864D01*
X102300Y30341D01*
Y30859D01*
X102102Y31336D01*
X101736Y31702D01*
X101259Y31900D01*
D02*
G37*
G36*
X40359Y27800D02*
X39841D01*
X39364Y27602D01*
X38998Y27236D01*
X38800Y26759D01*
Y26241D01*
X38998Y25764D01*
X39364Y25398D01*
X39841Y25200D01*
X40359D01*
X40836Y25398D01*
X41202Y25764D01*
X41400Y26241D01*
Y26759D01*
X41202Y27236D01*
X40836Y27602D01*
X40359Y27800D01*
D02*
G37*
G36*
X9659Y27300D02*
X9141D01*
X8664Y27102D01*
X8298Y26736D01*
X8100Y26259D01*
Y25741D01*
X8298Y25264D01*
X8664Y24898D01*
X9141Y24700D01*
X9659D01*
X10136Y24898D01*
X10502Y25264D01*
X10700Y25741D01*
Y26259D01*
X10502Y26736D01*
X10136Y27102D01*
X9659Y27300D01*
D02*
G37*
G36*
X50259Y26200D02*
X49741D01*
X49264Y26002D01*
X48898Y25636D01*
X48700Y25159D01*
Y24641D01*
X48898Y24164D01*
X49264Y23798D01*
X49741Y23600D01*
X50259D01*
X50736Y23798D01*
X51102Y24164D01*
X51300Y24641D01*
Y25159D01*
X51102Y25636D01*
X50736Y26002D01*
X50259Y26200D01*
D02*
G37*
G36*
X114159Y24500D02*
X113641D01*
X113164Y24302D01*
X112798Y23936D01*
X112600Y23459D01*
Y22941D01*
X112798Y22464D01*
X113164Y22098D01*
X113641Y21900D01*
X114159D01*
X114636Y22098D01*
X115002Y22464D01*
X115200Y22941D01*
Y23459D01*
X115002Y23936D01*
X114636Y24302D01*
X114159Y24500D01*
D02*
G37*
G36*
X15192Y24058D02*
X14524D01*
X13907Y23802D01*
X13434Y23329D01*
X13179Y22712D01*
Y22044D01*
X13434Y21427D01*
X13907Y20954D01*
X14524Y20698D01*
X15192D01*
X15810Y20954D01*
X16282Y21427D01*
X16538Y22044D01*
Y22712D01*
X16282Y23329D01*
X15810Y23802D01*
X15192Y24058D01*
D02*
G37*
G36*
X10159Y22600D02*
X9641D01*
X9164Y22402D01*
X8798Y22036D01*
X8600Y21559D01*
Y21041D01*
X8798Y20564D01*
X9164Y20198D01*
X9641Y20000D01*
X10159D01*
X10636Y20198D01*
X11002Y20564D01*
X11200Y21041D01*
Y21559D01*
X11002Y22036D01*
X10636Y22402D01*
X10159Y22600D01*
D02*
G37*
G36*
X88259Y24400D02*
X87741D01*
X87264Y24202D01*
X86898Y23836D01*
X86700Y23359D01*
Y22841D01*
X86898Y22364D01*
X87035Y22227D01*
X87211Y21900D01*
X87035Y21573D01*
X86898Y21436D01*
X86700Y20959D01*
Y20441D01*
X86898Y19964D01*
X87264Y19598D01*
X87741Y19400D01*
X88259D01*
X88736Y19598D01*
X89102Y19964D01*
X89300Y20441D01*
Y20959D01*
X89102Y21436D01*
X88965Y21573D01*
X88789Y21900D01*
X88965Y22227D01*
X89102Y22364D01*
X89300Y22841D01*
Y23359D01*
X89102Y23836D01*
X88736Y24202D01*
X88259Y24400D01*
D02*
G37*
G36*
X151310Y22109D02*
X150367D01*
X149497Y21748D01*
X148831Y21082D01*
X148470Y20211D01*
Y19269D01*
X148831Y18398D01*
X149497Y17732D01*
X150367Y17372D01*
X151310D01*
X152180Y17732D01*
X152847Y18398D01*
X153207Y19269D01*
Y20211D01*
X152847Y21082D01*
X152180Y21748D01*
X151310Y22109D01*
D02*
G37*
G36*
X12659Y18700D02*
X12141D01*
X11664Y18502D01*
X11298Y18136D01*
X11100Y17659D01*
Y17141D01*
X11298Y16664D01*
X11664Y16298D01*
X12141Y16100D01*
X12659D01*
X13136Y16298D01*
X13502Y16664D01*
X13700Y17141D01*
Y17659D01*
X13502Y18136D01*
X13136Y18502D01*
X12659Y18700D01*
D02*
G37*
G36*
X40759Y19400D02*
X40241D01*
X39764Y19202D01*
X39398Y18836D01*
X39200Y18359D01*
Y17841D01*
X39398Y17364D01*
X39761Y17000D01*
X39398Y16636D01*
X39200Y16159D01*
Y15641D01*
X39398Y15164D01*
X39764Y14798D01*
X40241Y14600D01*
X40759D01*
X41236Y14798D01*
X41602Y15164D01*
X41800Y15641D01*
Y16159D01*
X41602Y16636D01*
X41238Y17000D01*
X41602Y17364D01*
X41800Y17841D01*
Y18359D01*
X41602Y18836D01*
X41236Y19202D01*
X40759Y19400D01*
D02*
G37*
G36*
X114459Y16700D02*
X113941D01*
X113464Y16502D01*
X113098Y16136D01*
X112900Y15659D01*
Y15141D01*
X113098Y14664D01*
X113464Y14298D01*
X113941Y14100D01*
X114459D01*
X114936Y14298D01*
X115302Y14664D01*
X115500Y15141D01*
Y15659D01*
X115302Y16136D01*
X114936Y16502D01*
X114459Y16700D01*
D02*
G37*
G36*
X46359Y14400D02*
X45841D01*
X45364Y14202D01*
X44998Y13836D01*
X44800Y13359D01*
Y12841D01*
X44998Y12364D01*
X45364Y11998D01*
X45841Y11800D01*
X46338D01*
X46361Y11798D01*
X46800Y11442D01*
Y11241D01*
X46998Y10764D01*
X47364Y10398D01*
X47841Y10200D01*
X48359D01*
X48836Y10398D01*
X49202Y10764D01*
X49400Y11241D01*
Y11759D01*
X49202Y12236D01*
X48836Y12602D01*
X48359Y12800D01*
X47862D01*
X47839Y12802D01*
X47400Y13158D01*
Y13359D01*
X47202Y13836D01*
X46836Y14202D01*
X46359Y14400D01*
D02*
G37*
G36*
X115159Y11100D02*
X114641D01*
X114164Y10902D01*
X113798Y10536D01*
X113600Y10059D01*
Y9541D01*
X113798Y9064D01*
X114164Y8698D01*
X114641Y8500D01*
X115159D01*
X115636Y8698D01*
X116002Y9064D01*
X116200Y9541D01*
Y10059D01*
X116002Y10536D01*
X115636Y10902D01*
X115159Y11100D01*
D02*
G37*
G36*
X146592Y12046D02*
X145637D01*
X144755Y11680D01*
X144079Y11005D01*
X143714Y10123D01*
Y9168D01*
X144079Y8286D01*
X144755Y7611D01*
X145637Y7246D01*
X146592D01*
X147474Y7611D01*
X148149Y8286D01*
X148514Y9168D01*
Y10123D01*
X148149Y11005D01*
X147474Y11680D01*
X146592Y12046D01*
D02*
G37*
G36*
X27759Y9800D02*
X27241D01*
X26764Y9602D01*
X26398Y9236D01*
X26200Y8759D01*
Y8241D01*
X26398Y7764D01*
X26764Y7398D01*
X27241Y7200D01*
X27759D01*
X28236Y7398D01*
X28438Y7600D01*
X28992Y7509D01*
X28998Y7506D01*
X29098Y7264D01*
X29464Y6898D01*
X29941Y6700D01*
X30459D01*
X30936Y6898D01*
X31302Y7264D01*
X31500Y7741D01*
Y8259D01*
X31302Y8736D01*
X30936Y9102D01*
X30459Y9300D01*
X29941D01*
X29464Y9102D01*
X29262Y8900D01*
X28708Y8991D01*
X28702Y8994D01*
X28602Y9236D01*
X28236Y9602D01*
X27759Y9800D01*
D02*
G37*
G36*
X127759Y7100D02*
X127241D01*
X126764Y6902D01*
X126398Y6536D01*
X126200Y6059D01*
Y5541D01*
X126398Y5064D01*
X126764Y4698D01*
X127241Y4500D01*
X127759D01*
X128236Y4698D01*
X128602Y5064D01*
X128800Y5541D01*
Y6059D01*
X128602Y6536D01*
X128236Y6902D01*
X127759Y7100D01*
D02*
G37*
G36*
X46759Y7300D02*
X46241D01*
X45764Y7102D01*
X45398Y6736D01*
X45200Y6259D01*
Y5741D01*
X45398Y5264D01*
X45764Y4898D01*
X46241Y4700D01*
X46759D01*
X47236Y4898D01*
X47423Y5085D01*
X47472Y5091D01*
X47976Y4959D01*
X48098Y4664D01*
X48464Y4298D01*
X48941Y4100D01*
X49459D01*
X49936Y4298D01*
X50302Y4664D01*
X50500Y5141D01*
Y5659D01*
X50302Y6136D01*
X49936Y6502D01*
X49459Y6700D01*
X48941D01*
X48464Y6502D01*
X48277Y6315D01*
X48228Y6309D01*
X47724Y6441D01*
X47602Y6736D01*
X47236Y7102D01*
X46759Y7300D01*
D02*
G37*
G36*
X87359Y9200D02*
X86841D01*
X86364Y9002D01*
X85998Y8636D01*
X85800Y8159D01*
Y7641D01*
X85998Y7164D01*
X86364Y6798D01*
X86430Y6771D01*
Y6229D01*
X86364Y6202D01*
X85998Y5836D01*
X85800Y5359D01*
Y4841D01*
X85998Y4364D01*
X86364Y3998D01*
X86841Y3800D01*
X87359D01*
X87836Y3998D01*
X88202Y4364D01*
X88400Y4841D01*
Y5359D01*
X88202Y5836D01*
X87836Y6202D01*
X87770Y6229D01*
Y6771D01*
X87836Y6798D01*
X88202Y7164D01*
X88400Y7641D01*
Y8159D01*
X88202Y8636D01*
X87836Y9002D01*
X87359Y9200D01*
D02*
G37*
G36*
X136459Y5300D02*
X135941D01*
X135464Y5102D01*
X135098Y4736D01*
X134900Y4259D01*
Y3741D01*
X135098Y3264D01*
X135464Y2898D01*
X135941Y2700D01*
X136459D01*
X136936Y2898D01*
X137302Y3264D01*
X137500Y3741D01*
Y4259D01*
X137302Y4736D01*
X136936Y5102D01*
X136459Y5300D01*
D02*
G37*
G36*
X11906Y6847D02*
X11389D01*
X10911Y6649D01*
X10545Y6284D01*
X10347Y5806D01*
X10347Y5289D01*
X9885Y5200D01*
X9841D01*
X9364Y5002D01*
X8998Y4636D01*
X8800Y4159D01*
Y3641D01*
X8998Y3164D01*
X9364Y2798D01*
X9841Y2600D01*
X10359D01*
X10836Y2798D01*
X11202Y3164D01*
X11400Y3641D01*
X11400Y4159D01*
X11862Y4247D01*
X11906D01*
X12384Y4445D01*
X12749Y4811D01*
X12947Y5289D01*
Y5806D01*
X12749Y6284D01*
X12384Y6649D01*
X11906Y6847D01*
D02*
G37*
G36*
X120159Y4700D02*
X119641D01*
X119164Y4502D01*
X118798Y4136D01*
X118600Y3659D01*
Y3141D01*
X118798Y2664D01*
X119164Y2298D01*
X119641Y2100D01*
X120159D01*
X120636Y2298D01*
X121002Y2664D01*
X121200Y3141D01*
Y3659D01*
X121002Y4136D01*
X120636Y4502D01*
X120159Y4700D01*
D02*
G37*
G36*
X6659Y1300D02*
X6141D01*
X5664Y1102D01*
X5401Y839D01*
X5100Y777D01*
X4799Y839D01*
X4536Y1102D01*
X4059Y1300D01*
X3541D01*
X3064Y1102D01*
X2871Y910D01*
X2550Y791D01*
X2229Y910D01*
X2036Y1102D01*
X1559Y1300D01*
X1041D01*
X564Y1102D01*
X301Y839D01*
X0Y777D01*
X-301Y839D01*
X-564Y1102D01*
X-1041Y1300D01*
X-1559D01*
X-2036Y1102D01*
X-2402Y736D01*
X-2600Y259D01*
Y-259D01*
X-2402Y-736D01*
X-2036Y-1102D01*
X-1559Y-1300D01*
X-1041D01*
X-564Y-1102D01*
X-301Y-839D01*
X0Y-777D01*
X301Y-839D01*
X564Y-1102D01*
X1041Y-1300D01*
X1559D01*
X2036Y-1102D01*
X2229Y-910D01*
X2550Y-791D01*
X2871Y-910D01*
X3064Y-1102D01*
X3541Y-1300D01*
X4059D01*
X4536Y-1102D01*
X4799Y-839D01*
X5100Y-777D01*
X5401Y-839D01*
X5664Y-1102D01*
X6141Y-1300D01*
X6659D01*
X7136Y-1102D01*
X7502Y-736D01*
X7700Y-259D01*
Y259D01*
X7502Y736D01*
X7136Y1102D01*
X6659Y1300D01*
D02*
G37*
G36*
X15192Y1302D02*
X14524D01*
X13907Y1046D01*
X13434Y573D01*
X13179Y-44D01*
Y-712D01*
X13434Y-1329D01*
X13907Y-1802D01*
X14524Y-2057D01*
X15192D01*
X15810Y-1802D01*
X16282Y-1329D01*
X16538Y-712D01*
Y-44D01*
X16282Y573D01*
X15810Y1046D01*
X15192Y1302D01*
D02*
G37*
G36*
X115259Y-500D02*
X114741D01*
X114264Y-698D01*
X113898Y-1064D01*
X113700Y-1541D01*
Y-2059D01*
X113898Y-2536D01*
X114264Y-2902D01*
X114741Y-3100D01*
X115259D01*
X115736Y-2902D01*
X116102Y-2536D01*
X116300Y-2059D01*
Y-1541D01*
X116102Y-1064D01*
X115736Y-698D01*
X115259Y-500D01*
D02*
G37*
G36*
X37759Y100D02*
X37241D01*
X36764Y-98D01*
X36398Y-464D01*
X36200Y-941D01*
Y-1459D01*
X36398Y-1936D01*
X36764Y-2302D01*
X37241Y-2500D01*
X37683D01*
X37907Y-2714D01*
X38050Y-2920D01*
X38000Y-3041D01*
Y-3559D01*
X38198Y-4036D01*
X38564Y-4402D01*
X39041Y-4600D01*
X39559D01*
X40036Y-4402D01*
X40402Y-4036D01*
X40600Y-3559D01*
Y-3041D01*
X40402Y-2564D01*
X40036Y-2198D01*
X39559Y-2000D01*
X39117D01*
X38893Y-1786D01*
X38750Y-1580D01*
X38800Y-1459D01*
Y-941D01*
X38602Y-464D01*
X38236Y-98D01*
X37759Y100D01*
D02*
G37*
G36*
X74621Y-3589D02*
X74104D01*
X73626Y-3787D01*
X73260Y-4153D01*
X73073Y-4605D01*
X73047Y-4639D01*
X72787Y-4788D01*
X72527Y-4639D01*
X72502Y-4605D01*
X72315Y-4153D01*
X71949Y-3787D01*
X71471Y-3589D01*
X70954D01*
X70476Y-3787D01*
X70110Y-4153D01*
X69923Y-4605D01*
X69898Y-4639D01*
X69638Y-4788D01*
X69378Y-4639D01*
X69352Y-4605D01*
X69165Y-4153D01*
X68799Y-3787D01*
X68322Y-3589D01*
X67804D01*
X67327Y-3787D01*
X66961Y-4153D01*
X66763Y-4630D01*
Y-5148D01*
X66961Y-5625D01*
X67327Y-5991D01*
X67804Y-6189D01*
X67876D01*
X68325Y-6275D01*
X68338Y-6651D01*
Y-6795D01*
X68536Y-7273D01*
X68901Y-7638D01*
X69379Y-7836D01*
X69896D01*
X70374Y-7638D01*
X70740Y-7273D01*
X70927Y-6821D01*
X70953Y-6786D01*
X71213Y-6637D01*
X71473Y-6786D01*
X71498Y-6821D01*
X71685Y-7273D01*
X72051Y-7638D01*
X72529Y-7836D01*
X73046D01*
X73524Y-7638D01*
X73889Y-7273D01*
X74077Y-6821D01*
X74102Y-6786D01*
X74362Y-6637D01*
X74622Y-6786D01*
X74648Y-6821D01*
X74835Y-7273D01*
X75201Y-7638D01*
X75678Y-7836D01*
X76196D01*
X76673Y-7638D01*
X77039Y-7273D01*
X77237Y-6795D01*
Y-6278D01*
X77039Y-5800D01*
X76673Y-5434D01*
X76196Y-5236D01*
X76124D01*
X75675Y-5150D01*
X75662Y-4774D01*
Y-4630D01*
X75464Y-4153D01*
X75099Y-3787D01*
X74621Y-3589D01*
D02*
G37*
G36*
X136459Y-2600D02*
X135941D01*
X135464Y-2798D01*
X135098Y-3164D01*
X134900Y-3641D01*
Y-4159D01*
X135098Y-4636D01*
X135464Y-5002D01*
X135941Y-5200D01*
X136459D01*
X136936Y-5002D01*
X137302Y-4636D01*
X137500Y-4159D01*
Y-3641D01*
X137302Y-3164D01*
X136936Y-2798D01*
X136459Y-2600D01*
D02*
G37*
G36*
X47859Y-1000D02*
X47341D01*
X46864Y-1198D01*
X46498Y-1564D01*
X46300Y-2041D01*
Y-2559D01*
X46498Y-3036D01*
X46864Y-3402D01*
X47341Y-3600D01*
X47624D01*
X47968Y-4035D01*
X47974Y-4062D01*
X47900Y-4241D01*
Y-4759D01*
X48098Y-5236D01*
X48464Y-5602D01*
X48941Y-5800D01*
X49459D01*
X49936Y-5602D01*
X50302Y-5236D01*
X50500Y-4759D01*
Y-4241D01*
X50302Y-3764D01*
X49936Y-3398D01*
X49459Y-3200D01*
X49176D01*
X48832Y-2765D01*
X48826Y-2738D01*
X48900Y-2559D01*
Y-2041D01*
X48702Y-1564D01*
X48336Y-1198D01*
X47859Y-1000D01*
D02*
G37*
G36*
X115059Y-5200D02*
X114541D01*
X114064Y-5398D01*
X113698Y-5764D01*
X113500Y-6241D01*
Y-6759D01*
X113698Y-7236D01*
X114064Y-7602D01*
X114541Y-7800D01*
X115059D01*
X115536Y-7602D01*
X115902Y-7236D01*
X116100Y-6759D01*
Y-6241D01*
X115902Y-5764D01*
X115536Y-5398D01*
X115059Y-5200D01*
D02*
G37*
G36*
X84070Y-3589D02*
X83552D01*
X83075Y-3787D01*
X82709Y-4153D01*
X82511Y-4630D01*
Y-4774D01*
X82498Y-5150D01*
X82049Y-5236D01*
X81978D01*
X81500Y-5434D01*
X81134Y-5800D01*
X80936Y-6278D01*
Y-6795D01*
X81134Y-7273D01*
X81500Y-7638D01*
X81978Y-7836D01*
X82495D01*
X82973Y-7638D01*
X83338Y-7273D01*
X83526Y-6821D01*
X83551Y-6786D01*
X83811Y-6637D01*
X84071Y-6786D01*
X84097Y-6821D01*
X84284Y-7273D01*
X84649Y-7638D01*
X85127Y-7836D01*
X85644D01*
X86122Y-7638D01*
X86488Y-7273D01*
X86686Y-6795D01*
Y-6651D01*
X86699Y-6275D01*
X87148Y-6189D01*
X87219D01*
X87697Y-5991D01*
X88063Y-5625D01*
X88261Y-5148D01*
Y-4630D01*
X88063Y-4153D01*
X87697Y-3787D01*
X87219Y-3589D01*
X86702D01*
X86224Y-3787D01*
X85859Y-4153D01*
X85671Y-4605D01*
X85646Y-4639D01*
X85386Y-4788D01*
X85126Y-4639D01*
X85100Y-4605D01*
X84913Y-4153D01*
X84547Y-3787D01*
X84070Y-3589D01*
D02*
G37*
G36*
X56659Y-2400D02*
X56141D01*
X55664Y-2598D01*
X55298Y-2964D01*
X55100Y-3441D01*
Y-3959D01*
X55298Y-4436D01*
X55664Y-4802D01*
X56101Y-4983D01*
X56169Y-5136D01*
X56237Y-5500D01*
X55937Y-5800D01*
X55739Y-6278D01*
Y-6795D01*
X55937Y-7273D01*
X56303Y-7638D01*
X56781Y-7836D01*
X57298D01*
X57776Y-7638D01*
X58141Y-7273D01*
X58329Y-6821D01*
X58354Y-6786D01*
X58614Y-6637D01*
X58874Y-6786D01*
X58900Y-6821D01*
X59087Y-7273D01*
X59453Y-7638D01*
X59930Y-7836D01*
X60448D01*
X60925Y-7638D01*
X61291Y-7273D01*
X61489Y-6795D01*
Y-6278D01*
X61291Y-5800D01*
X60925Y-5434D01*
X60448Y-5236D01*
X60376D01*
X59927Y-5150D01*
X59914Y-4774D01*
Y-4630D01*
X59716Y-4153D01*
X59351Y-3787D01*
X58873Y-3589D01*
X58356D01*
X58200Y-3653D01*
X57707Y-3444D01*
X57671Y-3372D01*
X57502Y-2964D01*
X57136Y-2598D01*
X56659Y-2400D01*
D02*
G37*
G36*
X49559Y-6700D02*
X49041D01*
X48564Y-6898D01*
X48198Y-7264D01*
X48000Y-7741D01*
Y-8259D01*
X48198Y-8736D01*
X48564Y-9102D01*
X49041Y-9300D01*
X49559D01*
X50036Y-9102D01*
X50402Y-8736D01*
X50600Y-8259D01*
Y-7741D01*
X50402Y-7264D01*
X50036Y-6898D01*
X49559Y-6700D01*
D02*
G37*
G36*
X111459Y-8400D02*
X110941D01*
X110464Y-8598D01*
X110098Y-8964D01*
X109900Y-9441D01*
Y-9959D01*
X110098Y-10436D01*
X110464Y-10802D01*
X110941Y-11000D01*
X111459D01*
X111936Y-10802D01*
X112302Y-10436D01*
X112500Y-9959D01*
Y-9441D01*
X112302Y-8964D01*
X111936Y-8598D01*
X111459Y-8400D01*
D02*
G37*
G36*
X89959Y-9900D02*
X89441D01*
X88964Y-10098D01*
X88598Y-10464D01*
X88400Y-10941D01*
Y-11459D01*
X88598Y-11936D01*
X88964Y-12302D01*
X89441Y-12500D01*
X89959D01*
X90436Y-12302D01*
X90802Y-11936D01*
X91000Y-11459D01*
Y-10941D01*
X90802Y-10464D01*
X90436Y-10098D01*
X89959Y-9900D01*
D02*
G37*
G36*
X146592Y-7246D02*
X145637D01*
X144755Y-7611D01*
X144079Y-8286D01*
X143714Y-9168D01*
Y-10123D01*
X144079Y-11005D01*
X144755Y-11680D01*
X145637Y-12046D01*
X146592D01*
X147474Y-11680D01*
X147986Y-11168D01*
X148470Y-11391D01*
Y-12148D01*
X148831Y-13019D01*
X149497Y-13685D01*
X150367Y-14046D01*
X151310D01*
X152180Y-13685D01*
X152847Y-13019D01*
X153207Y-12148D01*
Y-11206D01*
X152847Y-10335D01*
X152180Y-9669D01*
X151310Y-9309D01*
X150367D01*
X149497Y-9669D01*
X148994Y-10172D01*
X148514Y-9945D01*
Y-9168D01*
X148149Y-8286D01*
X147474Y-7611D01*
X146592Y-7246D01*
D02*
G37*
G36*
X131759Y-11000D02*
X131241D01*
X130764Y-11198D01*
X130398Y-11564D01*
X130200Y-12041D01*
Y-12559D01*
X130398Y-13036D01*
X130764Y-13402D01*
X130950Y-13479D01*
Y-14021D01*
X130764Y-14098D01*
X130398Y-14464D01*
X130200Y-14941D01*
Y-15459D01*
X130398Y-15936D01*
X130764Y-16302D01*
X131241Y-16500D01*
X131759D01*
X132236Y-16302D01*
X132602Y-15936D01*
X132800Y-15459D01*
Y-14941D01*
X132602Y-14464D01*
X132236Y-14098D01*
X132050Y-14021D01*
Y-13479D01*
X132236Y-13402D01*
X132602Y-13036D01*
X132800Y-12559D01*
Y-12041D01*
X132602Y-11564D01*
X132236Y-11198D01*
X131759Y-11000D01*
D02*
G37*
G36*
X91459Y-16100D02*
X90941D01*
X90464Y-16298D01*
X90098Y-16664D01*
X90000Y-16900D01*
X89459D01*
X89402Y-16764D01*
X89036Y-16398D01*
X88559Y-16200D01*
X88041D01*
X87564Y-16398D01*
X87198Y-16764D01*
X87000Y-17241D01*
Y-17759D01*
X87198Y-18236D01*
X87564Y-18602D01*
X88041Y-18800D01*
X88559D01*
X89036Y-18602D01*
X89402Y-18236D01*
X89500Y-18000D01*
X90041D01*
X90098Y-18136D01*
X90464Y-18502D01*
X90941Y-18700D01*
X91459D01*
X91936Y-18502D01*
X92302Y-18136D01*
X92500Y-17659D01*
Y-17141D01*
X92302Y-16664D01*
X91936Y-16298D01*
X91459Y-16100D01*
D02*
G37*
G36*
X44459Y-18200D02*
X43941D01*
X43464Y-18398D01*
X43098Y-18764D01*
X42900Y-19241D01*
Y-19759D01*
X43098Y-20236D01*
X43464Y-20602D01*
X43941Y-20800D01*
X44459D01*
X44936Y-20602D01*
X45302Y-20236D01*
X45500Y-19759D01*
Y-19241D01*
X45302Y-18764D01*
X44936Y-18398D01*
X44459Y-18200D01*
D02*
G37*
G36*
X29359D02*
X28841D01*
X28364Y-18398D01*
X27998Y-18764D01*
X27800Y-19241D01*
Y-19759D01*
X27998Y-20236D01*
X28364Y-20602D01*
X28841Y-20800D01*
X29359D01*
X29836Y-20602D01*
X30202Y-20236D01*
X30400Y-19759D01*
Y-19241D01*
X30202Y-18764D01*
X29836Y-18398D01*
X29359Y-18200D01*
D02*
G37*
G36*
X23259Y-19400D02*
X22741D01*
X22264Y-19598D01*
X21898Y-19964D01*
X21700Y-20441D01*
Y-20959D01*
X21898Y-21436D01*
X22264Y-21802D01*
X22741Y-22000D01*
X23259D01*
X23736Y-21802D01*
X24102Y-21436D01*
X24300Y-20959D01*
Y-20441D01*
X24102Y-19964D01*
X23736Y-19598D01*
X23259Y-19400D01*
D02*
G37*
G36*
X55259Y-21200D02*
X54741D01*
X54264Y-21398D01*
X53898Y-21764D01*
X53700Y-22241D01*
Y-22759D01*
X53898Y-23236D01*
X54264Y-23602D01*
X54741Y-23800D01*
X55259D01*
X55736Y-23602D01*
X56102Y-23236D01*
X56300Y-22759D01*
Y-22241D01*
X56102Y-21764D01*
X55736Y-21398D01*
X55259Y-21200D01*
D02*
G37*
G36*
X96759Y-21400D02*
X96241D01*
X95764Y-21598D01*
X95398Y-21964D01*
X95200Y-22441D01*
Y-22959D01*
X95398Y-23436D01*
X95764Y-23802D01*
X96241Y-24000D01*
X96759D01*
X97236Y-23802D01*
X97602Y-23436D01*
X97800Y-22959D01*
Y-22441D01*
X97602Y-21964D01*
X97236Y-21598D01*
X96759Y-21400D01*
D02*
G37*
G36*
X31359Y-21700D02*
X30841D01*
X30364Y-21898D01*
X29998Y-22264D01*
X29800Y-22741D01*
Y-23259D01*
X29998Y-23736D01*
X30364Y-24102D01*
X30841Y-24300D01*
X31359D01*
X31836Y-24102D01*
X32202Y-23736D01*
X32400Y-23259D01*
Y-22741D01*
X32202Y-22264D01*
X31836Y-21898D01*
X31359Y-21700D01*
D02*
G37*
G36*
X117443Y-22015D02*
X116926D01*
X116448Y-22213D01*
X116083Y-22579D01*
X115885Y-23057D01*
Y-23574D01*
X116083Y-24052D01*
X116448Y-24417D01*
X116926Y-24615D01*
X117443D01*
X117921Y-24417D01*
X118287Y-24052D01*
X118485Y-23574D01*
Y-23057D01*
X118287Y-22579D01*
X117921Y-22213D01*
X117443Y-22015D01*
D02*
G37*
G36*
X35659Y-23200D02*
X35141D01*
X34664Y-23398D01*
X34298Y-23764D01*
X34100Y-24241D01*
Y-24759D01*
X34298Y-25236D01*
X34664Y-25602D01*
X35141Y-25800D01*
X35659D01*
X36136Y-25602D01*
X36502Y-25236D01*
X36700Y-24759D01*
Y-24241D01*
X36502Y-23764D01*
X36136Y-23398D01*
X35659Y-23200D01*
D02*
G37*
G36*
X66259Y-23400D02*
X65741D01*
X65264Y-23598D01*
X64898Y-23964D01*
X64700Y-24441D01*
Y-24959D01*
X64898Y-25436D01*
X65264Y-25802D01*
X65741Y-26000D01*
X66259D01*
X66736Y-25802D01*
X67102Y-25436D01*
X67300Y-24959D01*
Y-24441D01*
X67102Y-23964D01*
X66736Y-23598D01*
X66259Y-23400D01*
D02*
G37*
G36*
X81059Y-23500D02*
X80541D01*
X80064Y-23698D01*
X79698Y-24064D01*
X79500Y-24541D01*
Y-25059D01*
X79698Y-25536D01*
X80064Y-25902D01*
X80541Y-26100D01*
X81059D01*
X81536Y-25902D01*
X81902Y-25536D01*
X82100Y-25059D01*
Y-24541D01*
X81902Y-24064D01*
X81536Y-23698D01*
X81059Y-23500D01*
D02*
G37*
G36*
X62759D02*
X62241D01*
X61764Y-23698D01*
X61398Y-24064D01*
X61200Y-24541D01*
Y-25059D01*
X61398Y-25536D01*
X61764Y-25902D01*
X62241Y-26100D01*
X62759D01*
X63236Y-25902D01*
X63602Y-25536D01*
X63800Y-25059D01*
Y-24541D01*
X63602Y-24064D01*
X63236Y-23698D01*
X62759Y-23500D01*
D02*
G37*
G36*
X93059Y-25200D02*
X92541D01*
X92064Y-25398D01*
X91698Y-25764D01*
X91500Y-26241D01*
Y-26759D01*
X91698Y-27236D01*
X92064Y-27602D01*
X92541Y-27800D01*
X93059D01*
X93536Y-27602D01*
X93902Y-27236D01*
X94100Y-26759D01*
Y-26241D01*
X93902Y-25764D01*
X93536Y-25398D01*
X93059Y-25200D01*
D02*
G37*
G36*
X68559Y-26200D02*
X68041D01*
X67564Y-26398D01*
X67198Y-26764D01*
X67000Y-27241D01*
Y-27759D01*
X67198Y-28236D01*
X67564Y-28602D01*
X68041Y-28800D01*
X68559D01*
X69036Y-28602D01*
X69402Y-28236D01*
X69600Y-27759D01*
Y-27241D01*
X69402Y-26764D01*
X69036Y-26398D01*
X68559Y-26200D01*
D02*
G37*
G36*
X23659D02*
X23141D01*
X22664Y-26398D01*
X22298Y-26764D01*
X22100Y-27241D01*
Y-27759D01*
X22298Y-28236D01*
X22664Y-28602D01*
X23141Y-28800D01*
X23659D01*
X24136Y-28602D01*
X24502Y-28236D01*
X24700Y-27759D01*
Y-27241D01*
X24502Y-26764D01*
X24136Y-26398D01*
X23659Y-26200D01*
D02*
G37*
G36*
X76959Y-26700D02*
X76441D01*
X75964Y-26898D01*
X75598Y-27264D01*
X75400Y-27741D01*
Y-28259D01*
X75598Y-28736D01*
X75964Y-29102D01*
X76441Y-29300D01*
X76959D01*
X77436Y-29102D01*
X77802Y-28736D01*
X78000Y-28259D01*
Y-27741D01*
X77802Y-27264D01*
X77436Y-26898D01*
X76959Y-26700D01*
D02*
G37*
G36*
X106259Y-27200D02*
X105741D01*
X105264Y-27398D01*
X104898Y-27764D01*
X104700Y-28241D01*
Y-28759D01*
X104898Y-29236D01*
X105264Y-29602D01*
X105741Y-29800D01*
X106259D01*
X106736Y-29602D01*
X107102Y-29236D01*
X107300Y-28759D01*
Y-28241D01*
X107102Y-27764D01*
X106736Y-27398D01*
X106259Y-27200D01*
D02*
G37*
G36*
X33759Y-27400D02*
X33241D01*
X32764Y-27598D01*
X32398Y-27964D01*
X32200Y-28441D01*
Y-28959D01*
X32398Y-29436D01*
X32764Y-29802D01*
X33241Y-30000D01*
X33759D01*
X34236Y-29802D01*
X34602Y-29436D01*
X34800Y-28959D01*
Y-28441D01*
X34602Y-27964D01*
X34236Y-27598D01*
X33759Y-27400D01*
D02*
G37*
G36*
X88434Y-28924D02*
X87917D01*
X87439Y-29122D01*
X87073Y-29488D01*
X86876Y-29966D01*
Y-30483D01*
X87073Y-30961D01*
X87439Y-31326D01*
X87917Y-31524D01*
X88434D01*
X88912Y-31326D01*
X89278Y-30961D01*
X89476Y-30483D01*
Y-29966D01*
X89278Y-29488D01*
X88912Y-29122D01*
X88434Y-28924D01*
D02*
G37*
G36*
X105159Y-30300D02*
X104641D01*
X104164Y-30498D01*
X103798Y-30864D01*
X103600Y-31341D01*
Y-31859D01*
X103798Y-32336D01*
X104164Y-32702D01*
X104641Y-32900D01*
X105159D01*
X105636Y-32702D01*
X106002Y-32336D01*
X106200Y-31859D01*
Y-31341D01*
X106002Y-30864D01*
X105636Y-30498D01*
X105159Y-30300D01*
D02*
G37*
G36*
X50382Y-28100D02*
X49618D01*
X48881Y-28298D01*
X48219Y-28679D01*
X47679Y-29219D01*
X47298Y-29881D01*
X47100Y-30618D01*
Y-31382D01*
X47298Y-32119D01*
X47679Y-32781D01*
X48219Y-33321D01*
X48881Y-33702D01*
X49618Y-33900D01*
X50382D01*
X51119Y-33702D01*
X51781Y-33321D01*
X52321Y-32781D01*
X52702Y-32119D01*
X52900Y-31382D01*
Y-30618D01*
X52702Y-29881D01*
X52321Y-29219D01*
X51781Y-28679D01*
X51119Y-28298D01*
X50382Y-28100D01*
D02*
G37*
G36*
X25259Y-32200D02*
X24741D01*
X24264Y-32398D01*
X23898Y-32764D01*
X23700Y-33241D01*
Y-33759D01*
X23898Y-34236D01*
X24264Y-34602D01*
X24741Y-34800D01*
X25259D01*
X25736Y-34602D01*
X26102Y-34236D01*
X26300Y-33759D01*
Y-33241D01*
X26102Y-32764D01*
X25736Y-32398D01*
X25259Y-32200D01*
D02*
G37*
G36*
X12659Y-34300D02*
X12141D01*
X11664Y-34498D01*
X11298Y-34864D01*
X11100Y-35341D01*
Y-35859D01*
X11298Y-36336D01*
X11664Y-36702D01*
X12141Y-36900D01*
X12659D01*
X13136Y-36702D01*
X13502Y-36336D01*
X13700Y-35859D01*
Y-35341D01*
X13502Y-34864D01*
X13136Y-34498D01*
X12659Y-34300D01*
D02*
G37*
G36*
X8790D02*
X8273D01*
X7795Y-34498D01*
X7429Y-34864D01*
X7231Y-35341D01*
Y-35859D01*
X7429Y-36336D01*
X7795Y-36702D01*
X8273Y-36900D01*
X8790D01*
X9268Y-36702D01*
X9634Y-36336D01*
X9832Y-35859D01*
Y-35341D01*
X9634Y-34864D01*
X9268Y-34498D01*
X8790Y-34300D01*
D02*
G37*
G36*
X170382Y-38100D02*
X169618D01*
X168881Y-38298D01*
X168219Y-38679D01*
X167679Y-39219D01*
X167298Y-39881D01*
X167100Y-40618D01*
Y-41382D01*
X167298Y-42119D01*
X167679Y-42781D01*
X168219Y-43321D01*
X168881Y-43702D01*
X169618Y-43900D01*
X170382D01*
X171119Y-43702D01*
X171781Y-43321D01*
X172321Y-42781D01*
X172702Y-42119D01*
X172900Y-41382D01*
Y-40618D01*
X172702Y-39881D01*
X172321Y-39219D01*
X171781Y-38679D01*
X171119Y-38298D01*
X170382Y-38100D01*
D02*
G37*
G36*
X160382D02*
X159618D01*
X158881Y-38298D01*
X158219Y-38679D01*
X157679Y-39219D01*
X157298Y-39881D01*
X157100Y-40618D01*
Y-41382D01*
X157298Y-42119D01*
X157679Y-42781D01*
X158219Y-43321D01*
X158881Y-43702D01*
X159618Y-43900D01*
X160382D01*
X161119Y-43702D01*
X161781Y-43321D01*
X162321Y-42781D01*
X162702Y-42119D01*
X162900Y-41382D01*
Y-40618D01*
X162702Y-39881D01*
X162321Y-39219D01*
X161781Y-38679D01*
X161119Y-38298D01*
X160382Y-38100D01*
D02*
G37*
G36*
X150382D02*
X149618D01*
X148881Y-38298D01*
X148219Y-38679D01*
X147679Y-39219D01*
X147298Y-39881D01*
X147100Y-40618D01*
Y-41382D01*
X147298Y-42119D01*
X147679Y-42781D01*
X148219Y-43321D01*
X148881Y-43702D01*
X149618Y-43900D01*
X150382D01*
X151119Y-43702D01*
X151781Y-43321D01*
X152321Y-42781D01*
X152702Y-42119D01*
X152900Y-41382D01*
Y-40618D01*
X152702Y-39881D01*
X152321Y-39219D01*
X151781Y-38679D01*
X151119Y-38298D01*
X150382Y-38100D01*
D02*
G37*
G36*
X140382D02*
X139618D01*
X138881Y-38298D01*
X138219Y-38679D01*
X137679Y-39219D01*
X137298Y-39881D01*
X137100Y-40618D01*
Y-41382D01*
X137298Y-42119D01*
X137679Y-42781D01*
X138219Y-43321D01*
X138881Y-43702D01*
X139618Y-43900D01*
X140382D01*
X141119Y-43702D01*
X141781Y-43321D01*
X142321Y-42781D01*
X142702Y-42119D01*
X142900Y-41382D01*
Y-40618D01*
X142702Y-39881D01*
X142321Y-39219D01*
X141781Y-38679D01*
X141119Y-38298D01*
X140382Y-38100D01*
D02*
G37*
G36*
X130382D02*
X129618D01*
X128881Y-38298D01*
X128219Y-38679D01*
X127679Y-39219D01*
X127298Y-39881D01*
X127100Y-40618D01*
Y-41382D01*
X127298Y-42119D01*
X127679Y-42781D01*
X128219Y-43321D01*
X128881Y-43702D01*
X129618Y-43900D01*
X130382D01*
X131119Y-43702D01*
X131781Y-43321D01*
X132321Y-42781D01*
X132702Y-42119D01*
X132900Y-41382D01*
Y-40618D01*
X132702Y-39881D01*
X132321Y-39219D01*
X131781Y-38679D01*
X131119Y-38298D01*
X130382Y-38100D01*
D02*
G37*
G36*
X120382D02*
X119618D01*
X118881Y-38298D01*
X118219Y-38679D01*
X117679Y-39219D01*
X117298Y-39881D01*
X117100Y-40618D01*
Y-41382D01*
X117298Y-42119D01*
X117679Y-42781D01*
X118219Y-43321D01*
X118881Y-43702D01*
X119618Y-43900D01*
X120382D01*
X121119Y-43702D01*
X121781Y-43321D01*
X122321Y-42781D01*
X122702Y-42119D01*
X122900Y-41382D01*
Y-40618D01*
X122702Y-39881D01*
X122321Y-39219D01*
X121781Y-38679D01*
X121119Y-38298D01*
X120382Y-38100D01*
D02*
G37*
G36*
X110382D02*
X109618D01*
X108881Y-38298D01*
X108219Y-38679D01*
X107679Y-39219D01*
X107298Y-39881D01*
X107100Y-40618D01*
Y-41382D01*
X107298Y-42119D01*
X107679Y-42781D01*
X108219Y-43321D01*
X108881Y-43702D01*
X109618Y-43900D01*
X110382D01*
X111119Y-43702D01*
X111781Y-43321D01*
X112321Y-42781D01*
X112702Y-42119D01*
X112900Y-41382D01*
Y-40618D01*
X112702Y-39881D01*
X112321Y-39219D01*
X111781Y-38679D01*
X111119Y-38298D01*
X110382Y-38100D01*
D02*
G37*
G36*
X100382D02*
X99618D01*
X98881Y-38298D01*
X98219Y-38679D01*
X97679Y-39219D01*
X97298Y-39881D01*
X97100Y-40618D01*
Y-41382D01*
X97298Y-42119D01*
X97679Y-42781D01*
X98219Y-43321D01*
X98881Y-43702D01*
X99618Y-43900D01*
X100382D01*
X101119Y-43702D01*
X101781Y-43321D01*
X102321Y-42781D01*
X102702Y-42119D01*
X102900Y-41382D01*
Y-40618D01*
X102702Y-39881D01*
X102321Y-39219D01*
X101781Y-38679D01*
X101119Y-38298D01*
X100382Y-38100D01*
D02*
G37*
G36*
X90382D02*
X89618D01*
X88881Y-38298D01*
X88219Y-38679D01*
X87679Y-39219D01*
X87298Y-39881D01*
X87100Y-40618D01*
Y-41382D01*
X87298Y-42119D01*
X87679Y-42781D01*
X88219Y-43321D01*
X88881Y-43702D01*
X89618Y-43900D01*
X90382D01*
X91119Y-43702D01*
X91781Y-43321D01*
X92321Y-42781D01*
X92702Y-42119D01*
X92900Y-41382D01*
Y-40618D01*
X92702Y-39881D01*
X92321Y-39219D01*
X91781Y-38679D01*
X91119Y-38298D01*
X90382Y-38100D01*
D02*
G37*
G36*
X80382D02*
X79618D01*
X78881Y-38298D01*
X78219Y-38679D01*
X77679Y-39219D01*
X77298Y-39881D01*
X77100Y-40618D01*
Y-41382D01*
X77298Y-42119D01*
X77679Y-42781D01*
X78219Y-43321D01*
X78881Y-43702D01*
X79618Y-43900D01*
X80382D01*
X81119Y-43702D01*
X81781Y-43321D01*
X82321Y-42781D01*
X82702Y-42119D01*
X82900Y-41382D01*
Y-40618D01*
X82702Y-39881D01*
X82321Y-39219D01*
X81781Y-38679D01*
X81119Y-38298D01*
X80382Y-38100D01*
D02*
G37*
G36*
X70382D02*
X69618D01*
X68881Y-38298D01*
X68219Y-38679D01*
X67679Y-39219D01*
X67298Y-39881D01*
X67100Y-40618D01*
Y-41382D01*
X67298Y-42119D01*
X67679Y-42781D01*
X68219Y-43321D01*
X68881Y-43702D01*
X69618Y-43900D01*
X70382D01*
X71119Y-43702D01*
X71781Y-43321D01*
X72321Y-42781D01*
X72702Y-42119D01*
X72900Y-41382D01*
Y-40618D01*
X72702Y-39881D01*
X72321Y-39219D01*
X71781Y-38679D01*
X71119Y-38298D01*
X70382Y-38100D01*
D02*
G37*
G36*
X60382D02*
X59618D01*
X58881Y-38298D01*
X58219Y-38679D01*
X57679Y-39219D01*
X57298Y-39881D01*
X57100Y-40618D01*
Y-41382D01*
X57298Y-42119D01*
X57679Y-42781D01*
X58219Y-43321D01*
X58881Y-43702D01*
X59618Y-43900D01*
X60382D01*
X61119Y-43702D01*
X61781Y-43321D01*
X62321Y-42781D01*
X62702Y-42119D01*
X62900Y-41382D01*
Y-40618D01*
X62702Y-39881D01*
X62321Y-39219D01*
X61781Y-38679D01*
X61119Y-38298D01*
X60382Y-38100D01*
D02*
G37*
G36*
X50382D02*
X49618D01*
X48881Y-38298D01*
X48219Y-38679D01*
X47679Y-39219D01*
X47298Y-39881D01*
X47100Y-40618D01*
Y-41382D01*
X47298Y-42119D01*
X47679Y-42781D01*
X48219Y-43321D01*
X48881Y-43702D01*
X49618Y-43900D01*
X50382D01*
X51119Y-43702D01*
X51781Y-43321D01*
X52321Y-42781D01*
X52702Y-42119D01*
X52900Y-41382D01*
Y-40618D01*
X52702Y-39881D01*
X52321Y-39219D01*
X51781Y-38679D01*
X51119Y-38298D01*
X50382Y-38100D01*
D02*
G37*
G36*
X40382D02*
X39618D01*
X38881Y-38298D01*
X38219Y-38679D01*
X37679Y-39219D01*
X37298Y-39881D01*
X37100Y-40618D01*
Y-41382D01*
X37298Y-42119D01*
X37679Y-42781D01*
X38219Y-43321D01*
X38881Y-43702D01*
X39618Y-43900D01*
X40382D01*
X41119Y-43702D01*
X41781Y-43321D01*
X42321Y-42781D01*
X42702Y-42119D01*
X42900Y-41382D01*
Y-40618D01*
X42702Y-39881D01*
X42321Y-39219D01*
X41781Y-38679D01*
X41119Y-38298D01*
X40382Y-38100D01*
D02*
G37*
G36*
X30382D02*
X29618D01*
X28881Y-38298D01*
X28219Y-38679D01*
X27679Y-39219D01*
X27298Y-39881D01*
X27100Y-40618D01*
Y-41382D01*
X27298Y-42119D01*
X27679Y-42781D01*
X28219Y-43321D01*
X28881Y-43702D01*
X29618Y-43900D01*
X30382D01*
X31119Y-43702D01*
X31781Y-43321D01*
X32321Y-42781D01*
X32702Y-42119D01*
X32900Y-41382D01*
Y-40618D01*
X32702Y-39881D01*
X32321Y-39219D01*
X31781Y-38679D01*
X31119Y-38298D01*
X30382Y-38100D01*
D02*
G37*
G36*
X20382D02*
X19618D01*
X18881Y-38298D01*
X18219Y-38679D01*
X17679Y-39219D01*
X17298Y-39881D01*
X17100Y-40618D01*
Y-41382D01*
X17298Y-42119D01*
X17679Y-42781D01*
X18219Y-43321D01*
X18881Y-43702D01*
X19618Y-43900D01*
X20382D01*
X21119Y-43702D01*
X21781Y-43321D01*
X22321Y-42781D01*
X22702Y-42119D01*
X22900Y-41382D01*
Y-40618D01*
X22702Y-39881D01*
X22321Y-39219D01*
X21781Y-38679D01*
X21119Y-38298D01*
X20382Y-38100D01*
D02*
G37*
%LPD*%
D51*
X40000Y-31000D02*
D03*
X10000Y-41000D02*
D03*
X0D02*
D03*
D53*
X16827Y28028D02*
D03*
Y-6028D02*
D03*
D54*
X1079Y28028D02*
D03*
Y-6028D02*
D03*
D56*
X41200Y8000D02*
D03*
X40800Y11200D02*
D03*
X32100Y-7700D02*
D03*
X32800Y4400D02*
D03*
X23200Y33300D02*
D03*
X98500Y-36500D02*
D03*
X65000Y-39500D02*
D03*
X74500Y-39000D02*
D03*
X94500Y-38500D02*
D03*
X84500D02*
D03*
X96500Y2000D02*
D03*
X15000Y41000D02*
D03*
Y44000D02*
D03*
X5000Y41000D02*
D03*
Y44000D02*
D03*
X32000Y26500D02*
D03*
X29000D02*
D03*
X32000Y23000D02*
D03*
X34000Y-22000D02*
D03*
X26500Y-10500D02*
D03*
X37000Y-13000D02*
D03*
X33500D02*
D03*
X30000D02*
D03*
X87700Y-12500D02*
D03*
X-3500Y2500D02*
D03*
X0Y3000D02*
D03*
X2000Y5500D02*
D03*
Y8000D02*
D03*
Y10500D02*
D03*
X17500Y-2000D02*
D03*
X22500Y-3000D02*
D03*
X23500Y-5500D02*
D03*
X15500Y14000D02*
D03*
Y11500D02*
D03*
Y9000D02*
D03*
X-3500Y13100D02*
D03*
X98200Y28100D02*
D03*
X97000Y24000D02*
D03*
X42300Y-7900D02*
D03*
X46600Y-17300D02*
D03*
X47800Y-15100D02*
D03*
X66800Y-29700D02*
D03*
X79000Y-4900D02*
D03*
X47300Y29400D02*
D03*
X56100Y34700D02*
D03*
X66000Y35000D02*
D03*
X95000Y36000D02*
D03*
X91000Y31000D02*
D03*
X88000Y37000D02*
D03*
X76000Y34000D02*
D03*
Y37000D02*
D03*
X62000Y8000D02*
D03*
X67000D02*
D03*
X72000D02*
D03*
X77000D02*
D03*
X82000D02*
D03*
Y13000D02*
D03*
X77000D02*
D03*
X72000D02*
D03*
X67000D02*
D03*
X62000D02*
D03*
X82000Y21000D02*
D03*
X77000D02*
D03*
X72000D02*
D03*
X67000D02*
D03*
X62000D02*
D03*
X35500Y4000D02*
D03*
X22500Y-13000D02*
D03*
X19500D02*
D03*
X0D02*
D03*
X8000Y-24500D02*
D03*
X12500D02*
D03*
Y-19000D02*
D03*
X8000D02*
D03*
X16500Y-37000D02*
D03*
X24500Y-37500D02*
D03*
X36000Y-35500D02*
D03*
X55000D02*
D03*
X90000Y-32500D02*
D03*
X97000Y-32000D02*
D03*
X96000Y-26000D02*
D03*
X97000Y-11000D02*
D03*
X104500Y-13000D02*
D03*
X121500D02*
D03*
X125500Y-16500D02*
D03*
X121500D02*
D03*
X117500D02*
D03*
X113500D02*
D03*
Y-26500D02*
D03*
Y-24000D02*
D03*
X117000Y-31500D02*
D03*
X113500D02*
D03*
X131000Y-30000D02*
D03*
Y-25000D02*
D03*
X160000Y-35000D02*
D03*
X157000Y-32000D02*
D03*
X153000D02*
D03*
X139000Y-28000D02*
D03*
Y-24000D02*
D03*
X143000D02*
D03*
Y-20000D02*
D03*
X139000D02*
D03*
X167000Y-21000D02*
D03*
Y-14857D02*
D03*
Y-8714D02*
D03*
Y-2572D02*
D03*
Y3571D02*
D03*
Y9714D02*
D03*
Y15857D02*
D03*
Y22000D02*
D03*
X140000Y11000D02*
D03*
Y15000D02*
D03*
X135000Y17000D02*
D03*
X131000D02*
D03*
Y20000D02*
D03*
X135000D02*
D03*
Y23000D02*
D03*
X131000D02*
D03*
X145000Y30000D02*
D03*
Y33000D02*
D03*
X137000Y30000D02*
D03*
Y33000D02*
D03*
X133000D02*
D03*
Y30000D02*
D03*
X129000D02*
D03*
Y33000D02*
D03*
X125000Y30000D02*
D03*
Y33000D02*
D03*
X121000D02*
D03*
X117000D02*
D03*
X121000Y30000D02*
D03*
X117000D02*
D03*
X113000D02*
D03*
X109000D02*
D03*
X105000D02*
D03*
M02*
