M48
;Layer_Color=9474304
;FILE_FORMAT=2:5
INCH,TZ
;TYPE=PLATED
T1F00S00C0.01000
T3F00S00C0.02559
T4F00S00C0.03200
T5F00S00C0.03937
;TYPE=NON_PLATED
T6F00S00C0.04000
%
T01
X8531Y-35600
X12400
X16500Y-37000
X12500Y-24500
X8000
Y-19000
X12500
X23000Y-20700
X23400Y-27500
X25000Y-33500
X24500Y-37500
X36000Y-35500
X33500Y-28700
X35400Y-24500
X34000Y-22000
X31100Y-23000
X29100Y-19500
X44200
X55000Y-22500
X62500Y-24800
X66000Y-24700
X68300Y-27500
X66800Y-29700
X65000Y-39500
X74500Y-39000
X84500Y-38500
X94500
X98500Y-36500
X97000Y-32000
X96000Y-26000
X92800Y-26500
X96500Y-22700
X106000Y-28500
X104900Y-31600
X113500Y-31500
X117000
X117185Y-23315
X113500Y-24000
Y-26500
X131000Y-25000
Y-30000
X139000Y-28000
Y-24000
X143000
Y-20000
X139000
X153000Y-32000
X157000
X160000Y-35000
X167000Y-21000
X88176Y-30224
X90000Y-32500
X80800Y-24800
X76700Y-28000
X55000Y-35500
X46600Y-17300
X47800Y-15100
X49300Y-8000
X49200Y-4500
X47600Y-2300
X39300Y-3300
X37500Y-1200
X35500Y4000
X30500Y4500
X30200Y8000
X27500Y8500
X22500Y-3000
X23500Y-5500
X26500Y-10500
X30000Y-13000
X33500
X37000
X42300Y-7900
X57039Y-6536
X60189
X58614Y-4889
X56400Y-3700
X68063Y-4889
X71213
X74362
X75937Y-6536
X72787
X69638
X79000Y-4900
X83811Y-4889
X86961Y-4889
X85386Y-6536
X82236Y-6536
X87700Y-12500
X89700Y-11200
X97000Y-11000
X104500Y-13000
X111200Y-9700
X114800Y-6500
X115000Y-1800
X119900Y3400
X127500Y5800
X136200Y4000
Y-3900
X131500Y-12300
Y-15200
X125500Y-16500
X121500
Y-13000
X117500Y-16500
X113500
X91200Y-17400
X88300Y-17500
X87100Y5100
Y7900
X82000Y8000
X77000
X72000
X67000
X62000
Y13000
X67000
X72000
X77000
X82000
Y21000
X77000
X72000
X67000
X62000
X63339Y32000
X60200Y32400
X56100Y34700
X53900Y28900
X51000
X47300Y29400
X50000Y24900
X40100Y26500
X35000
X32000
X29000
X32000Y23000
X40500Y18100
Y15900
X46100Y13100
X48100Y11500
X46500Y6000
X49200Y5400
X22500Y-13000
X23200Y33300
X66000Y35000
X76000Y34000
Y37000
X81600Y34400
X86900Y32300
X91000Y31000
X95000Y36000
X88000Y37000
Y23100
Y20700
X97000Y24000
X98200Y28100
X101000Y28400
Y30600
X105000Y30000
X109000
X113000
X117000
Y33000
X121000
Y30000
X125000
Y33000
X129000
Y30000
X133000
Y33000
X137000
Y30000
X145000
Y33000
X135000Y23000
Y20000
Y17000
X131000
Y20000
Y23000
X140000Y15000
Y11000
X114900Y9800
X114200Y15400
X113900Y23200
X103700Y43800
X96500Y2000
X167000Y3571
Y-2572
Y-8714
Y-14857
Y9714
Y15857
Y22000
X9900Y21300
X9400Y26000
X12400Y17400
X15500Y14000
Y11500
Y9000
X11647Y5547
X10100Y3900
X6400Y0
X3800
X1300
X-1300
X0Y3000
X-3500Y2500
X2000Y5500
Y8000
Y10500
X-3500Y13100
X-3400Y24900
X-4000Y27200
X5000Y41000
Y44000
X15000
Y41000
X17500Y-2000
X19500Y-13000
X0
T03
X14858Y-378
Y22378
T04
X0Y-41000
X10000
X20000
X30000
X40000
Y-31000
X50000
Y-41000
X60000
X70000
X80000
X90000
X100000
X110000
X120000
X130000
X140000
X150000
X160000
X170000
Y41000
X160000
X150000
X140000
X130000
X120000
X110000
X100000
X90000
X80000
X70000
X60000
X50000
X40000
X30000
X20000
X10000
X0
T05
X150839Y-11677
Y19740
T06
X146114Y-9646
Y9646
M30
