G04*
G04 #@! TF.GenerationSoftware,Altium Limited,Altium Designer,22.2.1 (43)*
G04*
G04 Layer_Physical_Order=1*
G04 Layer_Color=255*
%FSLAX25Y25*%
%MOIN*%
G70*
G04*
G04 #@! TF.SameCoordinates,7C3657C9-3B13-42A6-83C1-8FEA204C8C57*
G04*
G04*
G04 #@! TF.FilePolarity,Positive*
G04*
G01*
G75*
%ADD10C,0.01000*%
%ADD12C,0.00400*%
G04:AMPARAMS|DCode=17|XSize=80mil|YSize=80mil|CornerRadius=20mil|HoleSize=0mil|Usage=FLASHONLY|Rotation=90.000|XOffset=0mil|YOffset=0mil|HoleType=Round|Shape=RoundedRectangle|*
%AMROUNDEDRECTD17*
21,1,0.08000,0.04000,0,0,90.0*
21,1,0.04000,0.08000,0,0,90.0*
1,1,0.04000,0.02000,0.02000*
1,1,0.04000,0.02000,-0.02000*
1,1,0.04000,-0.02000,-0.02000*
1,1,0.04000,-0.02000,0.02000*
%
%ADD17ROUNDEDRECTD17*%
G04:AMPARAMS|DCode=18|XSize=20mil|YSize=20mil|CornerRadius=5mil|HoleSize=0mil|Usage=FLASHONLY|Rotation=0.000|XOffset=0mil|YOffset=0mil|HoleType=Round|Shape=RoundedRectangle|*
%AMROUNDEDRECTD18*
21,1,0.02000,0.01000,0,0,0.0*
21,1,0.01000,0.02000,0,0,0.0*
1,1,0.01000,0.00500,-0.00500*
1,1,0.01000,-0.00500,-0.00500*
1,1,0.01000,-0.00500,0.00500*
1,1,0.01000,0.00500,0.00500*
%
%ADD18ROUNDEDRECTD18*%
G04:AMPARAMS|DCode=19|XSize=20mil|YSize=20mil|CornerRadius=5mil|HoleSize=0mil|Usage=FLASHONLY|Rotation=90.000|XOffset=0mil|YOffset=0mil|HoleType=Round|Shape=RoundedRectangle|*
%AMROUNDEDRECTD19*
21,1,0.02000,0.01000,0,0,90.0*
21,1,0.01000,0.02000,0,0,90.0*
1,1,0.01000,0.00500,0.00500*
1,1,0.01000,0.00500,-0.00500*
1,1,0.01000,-0.00500,-0.00500*
1,1,0.01000,-0.00500,0.00500*
%
%ADD19ROUNDEDRECTD19*%
G04:AMPARAMS|DCode=20|XSize=50mil|YSize=70.87mil|CornerRadius=12.5mil|HoleSize=0mil|Usage=FLASHONLY|Rotation=90.000|XOffset=0mil|YOffset=0mil|HoleType=Round|Shape=RoundedRectangle|*
%AMROUNDEDRECTD20*
21,1,0.05000,0.04587,0,0,90.0*
21,1,0.02500,0.07087,0,0,90.0*
1,1,0.02500,0.02293,0.01250*
1,1,0.02500,0.02293,-0.01250*
1,1,0.02500,-0.02293,-0.01250*
1,1,0.02500,-0.02293,0.01250*
%
%ADD20ROUNDEDRECTD20*%
G04:AMPARAMS|DCode=21|XSize=17.72mil|YSize=29.53mil|CornerRadius=4.43mil|HoleSize=0mil|Usage=FLASHONLY|Rotation=180.000|XOffset=0mil|YOffset=0mil|HoleType=Round|Shape=RoundedRectangle|*
%AMROUNDEDRECTD21*
21,1,0.01772,0.02067,0,0,180.0*
21,1,0.00886,0.02953,0,0,180.0*
1,1,0.00886,-0.00443,0.01034*
1,1,0.00886,0.00443,0.01034*
1,1,0.00886,0.00443,-0.01034*
1,1,0.00886,-0.00443,-0.01034*
%
%ADD21ROUNDEDRECTD21*%
G04:AMPARAMS|DCode=22|XSize=17.72mil|YSize=29.53mil|CornerRadius=4.43mil|HoleSize=0mil|Usage=FLASHONLY|Rotation=90.000|XOffset=0mil|YOffset=0mil|HoleType=Round|Shape=RoundedRectangle|*
%AMROUNDEDRECTD22*
21,1,0.01772,0.02067,0,0,90.0*
21,1,0.00886,0.02953,0,0,90.0*
1,1,0.00886,0.01034,0.00443*
1,1,0.00886,0.01034,-0.00443*
1,1,0.00886,-0.01034,-0.00443*
1,1,0.00886,-0.01034,0.00443*
%
%ADD22ROUNDEDRECTD22*%
%ADD23C,0.03543*%
G04:AMPARAMS|DCode=24|XSize=23.62mil|YSize=39.37mil|CornerRadius=5.91mil|HoleSize=0mil|Usage=FLASHONLY|Rotation=180.000|XOffset=0mil|YOffset=0mil|HoleType=Round|Shape=RoundedRectangle|*
%AMROUNDEDRECTD24*
21,1,0.02362,0.02756,0,0,180.0*
21,1,0.01181,0.03937,0,0,180.0*
1,1,0.01181,-0.00591,0.01378*
1,1,0.01181,0.00591,0.01378*
1,1,0.01181,0.00591,-0.01378*
1,1,0.01181,-0.00591,-0.01378*
%
%ADD24ROUNDEDRECTD24*%
G04:AMPARAMS|DCode=25|XSize=27.56mil|YSize=51.18mil|CornerRadius=6.89mil|HoleSize=0mil|Usage=FLASHONLY|Rotation=0.000|XOffset=0mil|YOffset=0mil|HoleType=Round|Shape=RoundedRectangle|*
%AMROUNDEDRECTD25*
21,1,0.02756,0.03740,0,0,0.0*
21,1,0.01378,0.05118,0,0,0.0*
1,1,0.01378,0.00689,-0.01870*
1,1,0.01378,-0.00689,-0.01870*
1,1,0.01378,-0.00689,0.01870*
1,1,0.01378,0.00689,0.01870*
%
%ADD25ROUNDEDRECTD25*%
G04:AMPARAMS|DCode=26|XSize=40mil|YSize=74mil|CornerRadius=10mil|HoleSize=0mil|Usage=FLASHONLY|Rotation=270.000|XOffset=0mil|YOffset=0mil|HoleType=Round|Shape=RoundedRectangle|*
%AMROUNDEDRECTD26*
21,1,0.04000,0.05400,0,0,270.0*
21,1,0.02000,0.07400,0,0,270.0*
1,1,0.02000,-0.02700,-0.01000*
1,1,0.02000,-0.02700,0.01000*
1,1,0.02000,0.02700,0.01000*
1,1,0.02000,0.02700,-0.01000*
%
%ADD26ROUNDEDRECTD26*%
G04:AMPARAMS|DCode=27|XSize=59.06mil|YSize=11.81mil|CornerRadius=2.95mil|HoleSize=0mil|Usage=FLASHONLY|Rotation=0.000|XOffset=0mil|YOffset=0mil|HoleType=Round|Shape=RoundedRectangle|*
%AMROUNDEDRECTD27*
21,1,0.05906,0.00591,0,0,0.0*
21,1,0.05315,0.01181,0,0,0.0*
1,1,0.00591,0.02657,-0.00295*
1,1,0.00591,-0.02657,-0.00295*
1,1,0.00591,-0.02657,0.00295*
1,1,0.00591,0.02657,0.00295*
%
%ADD27ROUNDEDRECTD27*%
G04:AMPARAMS|DCode=28|XSize=15.75mil|YSize=137.8mil|CornerRadius=3.94mil|HoleSize=0mil|Usage=FLASHONLY|Rotation=90.000|XOffset=0mil|YOffset=0mil|HoleType=Round|Shape=RoundedRectangle|*
%AMROUNDEDRECTD28*
21,1,0.01575,0.12992,0,0,90.0*
21,1,0.00787,0.13780,0,0,90.0*
1,1,0.00787,0.06496,0.00394*
1,1,0.00787,0.06496,-0.00394*
1,1,0.00787,-0.06496,-0.00394*
1,1,0.00787,-0.06496,0.00394*
%
%ADD28ROUNDEDRECTD28*%
%ADD29R,0.01968X0.01968*%
%ADD49C,0.01500*%
%ADD50C,0.00600*%
%ADD51C,0.05000*%
%ADD52C,0.02362*%
%ADD53O,0.08268X0.03937*%
%ADD54O,0.06299X0.03937*%
%ADD55C,0.02559*%
%ADD56C,0.01800*%
%ADD57C,0.03937*%
G36*
X171318Y45920D02*
X172547Y45411D01*
X173602Y44602D01*
X174411Y43547D01*
X174920Y42318D01*
X175089Y41034D01*
X175082Y41000D01*
Y-41000D01*
X175089Y-41034D01*
X174920Y-42318D01*
X174411Y-43547D01*
X173602Y-44602D01*
X172547Y-45411D01*
X171318Y-45920D01*
X170478Y-46031D01*
X170000Y-46082D01*
X169504Y-46082D01*
X169502Y-46082D01*
X132514D01*
X132388Y-45582D01*
X132505Y-45505D01*
X135705Y-42305D01*
X135859Y-42073D01*
X135914Y-41800D01*
Y-16932D01*
X135933Y-16889D01*
X135935Y-16786D01*
X135942Y-16712D01*
X136297D01*
X136941Y-16584D01*
X137487Y-16219D01*
X137852Y-15673D01*
X137980Y-15030D01*
Y-12529D01*
X137852Y-11886D01*
X137487Y-11340D01*
X136941Y-10975D01*
X136297Y-10847D01*
X131711D01*
X131067Y-10975D01*
X130521Y-11340D01*
X130156Y-11886D01*
X130084Y-12250D01*
X130035Y-12258D01*
X129957Y-12264D01*
X129851Y-12267D01*
X129808Y-12286D01*
X129151D01*
X129108Y-12267D01*
X129001Y-12264D01*
X128922Y-12258D01*
X128868Y-12250D01*
X128848Y-12149D01*
X128649Y-11851D01*
X128351Y-11652D01*
X128000Y-11582D01*
X127353D01*
X127351Y-11581D01*
X127349Y-11582D01*
X127165D01*
X127120Y-11550D01*
X126927Y-11387D01*
X126815Y-11279D01*
X126771Y-11261D01*
X120101Y-4592D01*
X119824Y-4229D01*
X120097Y-3912D01*
X122767Y-1243D01*
X122809Y-1227D01*
X123033Y-1019D01*
X123115Y-953D01*
X123166Y-918D01*
X123349D01*
X123351Y-919D01*
X123353Y-918D01*
X124000D01*
X124351Y-848D01*
X124649Y-649D01*
X124848Y-351D01*
X124918Y0D01*
Y1000D01*
X124848Y1351D01*
X124649Y1649D01*
X124351Y1848D01*
X124000Y1918D01*
X123000D01*
X122649Y1848D01*
X122351Y1649D01*
X122152Y1351D01*
X122082Y1000D01*
Y353D01*
X122081Y351D01*
X122082Y349D01*
Y166D01*
X122050Y120D01*
X121887Y-73D01*
X121779Y-185D01*
X121761Y-229D01*
X119004Y-2986D01*
X116359D01*
X116210Y-2726D01*
X116123Y-2486D01*
X116300Y-2059D01*
Y-1541D01*
X116102Y-1064D01*
X115736Y-698D01*
X115706Y-685D01*
X115805Y-185D01*
X117232D01*
X117583Y-115D01*
X117881Y83D01*
X119609Y1811D01*
X119645Y1825D01*
X119712Y1891D01*
X119766Y1940D01*
X119869Y2025D01*
X119902Y2049D01*
X119929Y2065D01*
X119944Y2073D01*
X119960Y2077D01*
X119966Y2082D01*
X119970Y2083D01*
X119977Y2090D01*
X119990Y2100D01*
X120159D01*
X120636Y2298D01*
X121002Y2664D01*
X121200Y3141D01*
Y3659D01*
X121002Y4136D01*
X120636Y4502D01*
X120159Y4700D01*
X119641D01*
X119164Y4502D01*
X118798Y4136D01*
X118600Y3659D01*
Y3490D01*
X118590Y3477D01*
X118583Y3470D01*
X118582Y3466D01*
X118577Y3460D01*
X118573Y3444D01*
X118565Y3429D01*
X118549Y3402D01*
X118528Y3373D01*
X118385Y3206D01*
X118325Y3145D01*
X118311Y3109D01*
X116852Y1650D01*
X112906D01*
X112871Y1665D01*
X112715Y1668D01*
X112580Y1674D01*
X112328Y1702D01*
X112228Y1720D01*
X112135Y1742D01*
X112055Y1766D01*
X111987Y1792D01*
X111931Y1819D01*
X111877Y1851D01*
X111821Y2096D01*
X111848Y2373D01*
X111848Y2375D01*
X112068Y2522D01*
X112112Y2588D01*
X112113Y2589D01*
X112115Y2592D01*
X112209Y2733D01*
X112220Y2736D01*
X112289Y2746D01*
X112378Y2753D01*
X112495Y2755D01*
X112539Y2774D01*
X115988D01*
X116261Y2829D01*
X116493Y2984D01*
X120296Y6786D01*
X121849D01*
X121892Y6767D01*
X121999Y6764D01*
X122078Y6758D01*
X122132Y6750D01*
X122152Y6649D01*
X122351Y6351D01*
X122649Y6152D01*
X123000Y6082D01*
X124000D01*
X124351Y6152D01*
X124649Y6351D01*
X124848Y6649D01*
X124918Y7000D01*
Y8000D01*
X124848Y8351D01*
X124677Y8606D01*
X125066Y8925D01*
X125414Y8577D01*
X125432Y8531D01*
X125619Y8341D01*
X125929Y8006D01*
X126082Y7820D01*
Y7651D01*
X126082Y7649D01*
X126082Y7647D01*
Y7000D01*
X126152Y6649D01*
X126328Y6387D01*
Y6366D01*
X126200Y6059D01*
Y5541D01*
X126309Y5279D01*
X126302Y5075D01*
X126152Y4851D01*
X126082Y4500D01*
Y3500D01*
X126152Y3149D01*
X126351Y2851D01*
X126649Y2652D01*
X127000Y2582D01*
X128000D01*
X128351Y2652D01*
X128649Y2851D01*
X128848Y3149D01*
X128918Y3500D01*
Y4500D01*
X128848Y4851D01*
X128721Y5041D01*
X128707Y5318D01*
X128800Y5541D01*
Y6059D01*
X128673Y6366D01*
Y6387D01*
X128848Y6649D01*
X128918Y7000D01*
Y8000D01*
X128848Y8351D01*
X128649Y8649D01*
X128351Y8848D01*
X128000Y8918D01*
X127353D01*
X127351Y8918D01*
X127349Y8918D01*
X127187D01*
X126655Y9385D01*
X126469Y9568D01*
X126423Y9586D01*
X126214Y9796D01*
Y15404D01*
X127058Y16249D01*
X127103Y16266D01*
X127207Y16366D01*
X127296Y16445D01*
X127375Y16508D01*
X127443Y16555D01*
X127491Y16582D01*
X128000D01*
X128351Y16652D01*
X128649Y16851D01*
X128848Y17149D01*
X128918Y17500D01*
Y18500D01*
X128848Y18851D01*
X128649Y19149D01*
X128351Y19348D01*
X128251Y19368D01*
X128242Y19422D01*
X128235Y19501D01*
X128233Y19608D01*
X128214Y19651D01*
Y19849D01*
X128233Y19892D01*
X128235Y19999D01*
X128242Y20078D01*
X128251Y20132D01*
X128351Y20152D01*
X128649Y20351D01*
X128848Y20649D01*
X128918Y21000D01*
Y22000D01*
X128848Y22351D01*
X128649Y22649D01*
X128351Y22848D01*
X128251Y22868D01*
X128242Y22922D01*
X128235Y23001D01*
X128233Y23108D01*
X128214Y23151D01*
Y23349D01*
X128233Y23392D01*
X128235Y23499D01*
X128242Y23578D01*
X128251Y23632D01*
X128351Y23652D01*
X128649Y23851D01*
X128848Y24149D01*
X128918Y24500D01*
Y25500D01*
X128848Y25851D01*
X128649Y26149D01*
X128351Y26348D01*
X128000Y26418D01*
X127000D01*
X126649Y26348D01*
X126351Y26149D01*
X126152Y25851D01*
X126082Y25500D01*
Y24500D01*
X126152Y24149D01*
X126351Y23851D01*
X126649Y23652D01*
X126750Y23632D01*
X126758Y23578D01*
X126765Y23499D01*
X126767Y23392D01*
X126786Y23349D01*
Y23151D01*
X126767Y23108D01*
X126765Y23001D01*
X126758Y22922D01*
X126750Y22868D01*
X126649Y22848D01*
X126351Y22649D01*
X126152Y22351D01*
X126082Y22000D01*
Y21000D01*
X126152Y20649D01*
X126351Y20351D01*
X126649Y20152D01*
X126750Y20132D01*
X126758Y20078D01*
X126765Y19999D01*
X126767Y19892D01*
X126786Y19849D01*
Y19651D01*
X126767Y19608D01*
X126765Y19501D01*
X126758Y19422D01*
X126750Y19368D01*
X126649Y19348D01*
X126351Y19149D01*
X126152Y18851D01*
X126082Y18500D01*
Y17500D01*
X126108Y17374D01*
X125968Y17208D01*
X125863Y17099D01*
X125845Y17054D01*
X124995Y16205D01*
X124955Y16144D01*
X124502Y16087D01*
X124341Y16269D01*
X124451Y16719D01*
X124649Y16851D01*
X124848Y17149D01*
X124918Y17500D01*
Y18500D01*
X124848Y18851D01*
X124649Y19149D01*
X124351Y19348D01*
X124000Y19418D01*
X123000D01*
X122649Y19348D01*
X122351Y19149D01*
X122152Y18851D01*
X122132Y18751D01*
X122078Y18742D01*
X121999Y18735D01*
X121892Y18733D01*
X121849Y18714D01*
X120000D01*
X119727Y18659D01*
X119495Y18505D01*
X115962Y14971D01*
X115702Y15067D01*
X115500Y15216D01*
Y15659D01*
X115312Y16113D01*
X115298Y16169D01*
X115297Y16175D01*
X115419Y16727D01*
X115472Y16763D01*
X119496Y20786D01*
X121849D01*
X121892Y20767D01*
X121999Y20764D01*
X122078Y20758D01*
X122132Y20749D01*
X122152Y20649D01*
X122351Y20351D01*
X122649Y20152D01*
X123000Y20082D01*
X124000D01*
X124351Y20152D01*
X124649Y20351D01*
X124848Y20649D01*
X124918Y21000D01*
Y22000D01*
X124848Y22351D01*
X124649Y22649D01*
X124351Y22848D01*
X124000Y22918D01*
X123000D01*
X122649Y22848D01*
X122351Y22649D01*
X122152Y22351D01*
X122132Y22251D01*
X122078Y22242D01*
X121999Y22235D01*
X121892Y22233D01*
X121849Y22214D01*
X119200D01*
X118927Y22159D01*
X118695Y22005D01*
X114672Y17981D01*
X112539D01*
X112495Y18001D01*
X112378Y18003D01*
X112289Y18010D01*
X112220Y18020D01*
X112209Y18022D01*
X112115Y18164D01*
X112113Y18167D01*
X112112Y18168D01*
X112068Y18234D01*
X111848Y18381D01*
X111823Y18646D01*
X111848Y18911D01*
X112068Y19058D01*
X112112Y19124D01*
X112113Y19124D01*
X112115Y19127D01*
X112209Y19269D01*
X112220Y19271D01*
X112289Y19281D01*
X112378Y19288D01*
X112495Y19291D01*
X112539Y19310D01*
X114724D01*
X114997Y19364D01*
X115228Y19519D01*
X119996Y24286D01*
X121849D01*
X121892Y24267D01*
X121999Y24264D01*
X122078Y24258D01*
X122132Y24249D01*
X122152Y24149D01*
X122351Y23851D01*
X122649Y23652D01*
X123000Y23582D01*
X124000D01*
X124351Y23652D01*
X124649Y23851D01*
X124848Y24149D01*
X124918Y24500D01*
Y25500D01*
X124848Y25851D01*
X124649Y26149D01*
X124351Y26348D01*
X124000Y26418D01*
X123000D01*
X122649Y26348D01*
X122351Y26149D01*
X122152Y25851D01*
X122132Y25750D01*
X122078Y25742D01*
X121999Y25736D01*
X121892Y25733D01*
X121849Y25714D01*
X119700D01*
X119427Y25659D01*
X119195Y25505D01*
X114428Y20737D01*
X112539D01*
X112495Y20756D01*
X112378Y20759D01*
X112289Y20766D01*
X112220Y20776D01*
X112209Y20778D01*
X112115Y20920D01*
X112113Y20923D01*
X112112Y20924D01*
X112068Y20990D01*
X111806Y21165D01*
X111496Y21227D01*
X98504D01*
X98194Y21165D01*
X97932Y20990D01*
X97888Y20924D01*
X97887Y20923D01*
X97885Y20920D01*
X97790Y20778D01*
X97780Y20776D01*
X97711Y20766D01*
X97622Y20759D01*
X97505Y20756D01*
X97461Y20737D01*
X95984D01*
Y22384D01*
X93216D01*
Y19616D01*
X94975D01*
X95072Y19519D01*
X95303Y19364D01*
X95576Y19310D01*
X97461D01*
X97505Y19291D01*
X97622Y19288D01*
X97711Y19281D01*
X97780Y19271D01*
X97790Y19269D01*
X97885Y19127D01*
X97887Y19124D01*
X97888Y19124D01*
X97932Y19058D01*
X98152Y18911D01*
X98177Y18646D01*
X98152Y18381D01*
X97932Y18234D01*
X97888Y18168D01*
X97887Y18167D01*
X97885Y18164D01*
X97790Y18022D01*
X97780Y18020D01*
X97711Y18010D01*
X97622Y18003D01*
X97505Y18001D01*
X97461Y17981D01*
X96226D01*
X96183Y18000D01*
X96080Y18003D01*
X96005Y18010D01*
X95984Y18013D01*
Y18384D01*
X93216D01*
Y15616D01*
X95984D01*
Y16522D01*
X96005Y16526D01*
X96080Y16532D01*
X96183Y16535D01*
X96226Y16554D01*
X97461D01*
X97505Y16535D01*
X97622Y16532D01*
X97711Y16525D01*
X97780Y16515D01*
X97790Y16513D01*
X97885Y16371D01*
X97887Y16368D01*
X97888Y16368D01*
X97932Y16302D01*
X98194Y16126D01*
X98504Y16065D01*
X111496D01*
X111806Y16126D01*
X112068Y16302D01*
X112112Y16368D01*
X112113Y16368D01*
X112577Y16497D01*
X112956Y16322D01*
X113064Y16054D01*
X112900Y15659D01*
Y15141D01*
X113098Y14664D01*
X113464Y14298D01*
X113941Y14100D01*
X114383D01*
X114533Y13898D01*
X114629Y13638D01*
X113460Y12470D01*
X112539D01*
X112495Y12489D01*
X112378Y12491D01*
X112289Y12498D01*
X112220Y12508D01*
X112209Y12511D01*
X112115Y12652D01*
X112113Y12655D01*
X112112Y12656D01*
X112068Y12722D01*
X111806Y12897D01*
X111496Y12959D01*
X98504D01*
X98194Y12897D01*
X97932Y12722D01*
X97756Y12459D01*
X97695Y12150D01*
Y11362D01*
X97756Y11052D01*
X97932Y10790D01*
X98194Y10615D01*
X98504Y10553D01*
X111496D01*
X111806Y10615D01*
X112068Y10790D01*
X112112Y10856D01*
X112113Y10856D01*
X112115Y10859D01*
X112209Y11001D01*
X112220Y11004D01*
X112289Y11014D01*
X112378Y11020D01*
X112495Y11023D01*
X112539Y11042D01*
X113597D01*
X113811Y10628D01*
X113820Y10559D01*
X113798Y10536D01*
X113600Y10059D01*
Y9541D01*
X113798Y9064D01*
X114164Y8698D01*
X114641Y8500D01*
X115159D01*
X115636Y8698D01*
X116002Y9064D01*
X116200Y9541D01*
Y10059D01*
X116002Y10536D01*
X115636Y10902D01*
X115159Y11100D01*
X114816D01*
X114587Y11577D01*
X120296Y17286D01*
X121849D01*
X121892Y17267D01*
X121999Y17265D01*
X122078Y17258D01*
X122132Y17249D01*
X122152Y17149D01*
X122351Y16851D01*
X122649Y16652D01*
X122749Y16632D01*
X122758Y16578D01*
X122765Y16499D01*
X122767Y16392D01*
X122786Y16349D01*
Y16151D01*
X122767Y16108D01*
X122765Y16001D01*
X122758Y15922D01*
X122749Y15868D01*
X122649Y15848D01*
X122351Y15649D01*
X122152Y15351D01*
X122082Y15000D01*
Y14000D01*
X122152Y13649D01*
X122351Y13351D01*
X122649Y13152D01*
X123000Y13082D01*
X124000D01*
X124440Y12750D01*
X124001Y12418D01*
X123995Y12418D01*
X123000D01*
X122649Y12348D01*
X122351Y12149D01*
X122152Y11851D01*
X122132Y11750D01*
X122078Y11742D01*
X121999Y11735D01*
X121892Y11733D01*
X121849Y11714D01*
X119700D01*
X119427Y11659D01*
X119195Y11505D01*
X114648Y6958D01*
X112539D01*
X112495Y6977D01*
X112378Y6980D01*
X112289Y6986D01*
X112220Y6996D01*
X112209Y6999D01*
X112115Y7141D01*
X112113Y7144D01*
X112112Y7144D01*
X112068Y7210D01*
X111806Y7385D01*
X111496Y7447D01*
X98504D01*
X98194Y7385D01*
X97932Y7210D01*
X97756Y6948D01*
X97695Y6638D01*
Y5850D01*
X97756Y5541D01*
X97932Y5278D01*
X98152Y5131D01*
X98177Y4866D01*
X98152Y4601D01*
X97932Y4454D01*
X97756Y4192D01*
X97695Y3882D01*
Y3094D01*
X97756Y2785D01*
X97932Y2522D01*
X98152Y2375D01*
X98177Y2110D01*
X98152Y1845D01*
X97932Y1698D01*
X97756Y1436D01*
X97695Y1126D01*
Y339D01*
X97756Y29D01*
X97932Y-234D01*
X98152Y-381D01*
X98177Y-646D01*
X98152Y-910D01*
X97932Y-1058D01*
X97756Y-1320D01*
X97695Y-1630D01*
Y-2417D01*
X97756Y-2727D01*
X97932Y-2990D01*
X98152Y-3137D01*
X98177Y-3402D01*
X98152Y-3666D01*
X97932Y-3814D01*
X97756Y-4076D01*
X97695Y-4386D01*
Y-5173D01*
X97756Y-5483D01*
X97932Y-5745D01*
X98152Y-5893D01*
X98177Y-6157D01*
X98152Y-6422D01*
X97932Y-6570D01*
X97756Y-6832D01*
X97695Y-7142D01*
Y-7929D01*
X97756Y-8239D01*
X97932Y-8501D01*
X98194Y-8677D01*
X98504Y-8738D01*
X109670D01*
X109984Y-9238D01*
X109900Y-9441D01*
Y-9959D01*
X110098Y-10436D01*
X110464Y-10802D01*
X110941Y-11000D01*
X111459D01*
X111936Y-10802D01*
X112302Y-10436D01*
X112500Y-9959D01*
Y-9441D01*
X112302Y-8964D01*
X112292Y-8953D01*
X112068Y-8501D01*
X112244Y-8239D01*
X112305Y-7929D01*
Y-7142D01*
X112244Y-6832D01*
X112068Y-6570D01*
X111848Y-6422D01*
X111823Y-6157D01*
X111848Y-5893D01*
X112068Y-5745D01*
X112112Y-5679D01*
X112113Y-5679D01*
X112115Y-5676D01*
X112209Y-5534D01*
X112220Y-5532D01*
X112289Y-5522D01*
X112378Y-5515D01*
X112495Y-5512D01*
X112539Y-5493D01*
X113315D01*
X113603Y-5993D01*
X113500Y-6241D01*
Y-6759D01*
X113698Y-7236D01*
X114064Y-7602D01*
X114541Y-7800D01*
X115059D01*
X115536Y-7602D01*
X115902Y-7236D01*
X116100Y-6759D01*
Y-6241D01*
X115997Y-5993D01*
X116285Y-5493D01*
X118984D01*
X125757Y-12267D01*
X125773Y-12309D01*
X125981Y-12533D01*
X126047Y-12615D01*
X126082Y-12665D01*
Y-12849D01*
X126082Y-12851D01*
X126082Y-12853D01*
Y-13500D01*
X126152Y-13851D01*
X126351Y-14149D01*
X126649Y-14348D01*
X127000Y-14418D01*
X128000D01*
X128351Y-14348D01*
X128649Y-14149D01*
X128848Y-13851D01*
X128868Y-13751D01*
X128922Y-13742D01*
X129001Y-13735D01*
X129108Y-13733D01*
X129151Y-13714D01*
X129808D01*
X129851Y-13733D01*
X129955Y-13735D01*
X130028Y-13742D01*
Y-15030D01*
X130156Y-15673D01*
X130521Y-16219D01*
X131067Y-16584D01*
X131711Y-16712D01*
X134458D01*
X134465Y-16786D01*
X134467Y-16889D01*
X134486Y-16932D01*
Y-41504D01*
X131704Y-44286D01*
X130872D01*
X130806Y-43786D01*
X131119Y-43702D01*
X131781Y-43321D01*
X132321Y-42781D01*
X132702Y-42119D01*
X132900Y-41382D01*
Y-40618D01*
X132702Y-39881D01*
X132321Y-39219D01*
X131781Y-38679D01*
X131119Y-38298D01*
X130382Y-38100D01*
X129618D01*
X128881Y-38298D01*
X128219Y-38679D01*
X127679Y-39219D01*
X127298Y-39881D01*
X127100Y-40618D01*
Y-41382D01*
X127298Y-42119D01*
X127679Y-42781D01*
X128219Y-43321D01*
X128881Y-43702D01*
X129194Y-43786D01*
X129128Y-44286D01*
X120872D01*
X120806Y-43786D01*
X121119Y-43702D01*
X121781Y-43321D01*
X122321Y-42781D01*
X122702Y-42119D01*
X122900Y-41382D01*
Y-40618D01*
X122702Y-39881D01*
X122321Y-39219D01*
X121781Y-38679D01*
X121119Y-38298D01*
X120382Y-38100D01*
X119618D01*
X118881Y-38298D01*
X118219Y-38679D01*
X117679Y-39219D01*
X117298Y-39881D01*
X117100Y-40618D01*
Y-41382D01*
X117298Y-42119D01*
X117679Y-42781D01*
X118219Y-43321D01*
X118881Y-43702D01*
X119194Y-43786D01*
X119128Y-44286D01*
X110872D01*
X110806Y-43786D01*
X111119Y-43702D01*
X111781Y-43321D01*
X112321Y-42781D01*
X112702Y-42119D01*
X112900Y-41382D01*
Y-40618D01*
X112702Y-39881D01*
X112321Y-39219D01*
X111781Y-38679D01*
X111119Y-38298D01*
X110382Y-38100D01*
X109618D01*
X108881Y-38298D01*
X108219Y-38679D01*
X107679Y-39219D01*
X107298Y-39881D01*
X107100Y-40618D01*
Y-41382D01*
X107298Y-42119D01*
X107679Y-42781D01*
X108219Y-43321D01*
X108881Y-43702D01*
X109194Y-43786D01*
X109128Y-44286D01*
X100872D01*
X100806Y-43786D01*
X101119Y-43702D01*
X101781Y-43321D01*
X102321Y-42781D01*
X102702Y-42119D01*
X102900Y-41382D01*
Y-40618D01*
X102702Y-39881D01*
X102321Y-39219D01*
X101781Y-38679D01*
X101119Y-38298D01*
X100382Y-38100D01*
X99618D01*
X98881Y-38298D01*
X98219Y-38679D01*
X97679Y-39219D01*
X97298Y-39881D01*
X97100Y-40618D01*
Y-41382D01*
X97298Y-42119D01*
X97679Y-42781D01*
X98219Y-43321D01*
X98881Y-43702D01*
X99194Y-43786D01*
X99128Y-44286D01*
X90872D01*
X90806Y-43786D01*
X91119Y-43702D01*
X91781Y-43321D01*
X92321Y-42781D01*
X92702Y-42119D01*
X92900Y-41382D01*
Y-40618D01*
X92702Y-39881D01*
X92321Y-39219D01*
X91781Y-38679D01*
X91119Y-38298D01*
X90382Y-38100D01*
X89618D01*
X88881Y-38298D01*
X88219Y-38679D01*
X87679Y-39219D01*
X87298Y-39881D01*
X87100Y-40618D01*
Y-41382D01*
X87298Y-42119D01*
X87679Y-42781D01*
X88219Y-43321D01*
X88881Y-43702D01*
X89194Y-43786D01*
X89128Y-44286D01*
X80872D01*
X80806Y-43786D01*
X81119Y-43702D01*
X81781Y-43321D01*
X82321Y-42781D01*
X82702Y-42119D01*
X82900Y-41382D01*
Y-40618D01*
X82702Y-39881D01*
X82321Y-39219D01*
X81781Y-38679D01*
X81119Y-38298D01*
X80382Y-38100D01*
X79618D01*
X78881Y-38298D01*
X78219Y-38679D01*
X77679Y-39219D01*
X77298Y-39881D01*
X77100Y-40618D01*
Y-41382D01*
X77298Y-42119D01*
X77679Y-42781D01*
X78219Y-43321D01*
X78881Y-43702D01*
X79194Y-43786D01*
X79128Y-44286D01*
X70872D01*
X70806Y-43786D01*
X71119Y-43702D01*
X71781Y-43321D01*
X72321Y-42781D01*
X72702Y-42119D01*
X72900Y-41382D01*
Y-40618D01*
X72702Y-39881D01*
X72321Y-39219D01*
X71781Y-38679D01*
X71119Y-38298D01*
X70382Y-38100D01*
X69618D01*
X68881Y-38298D01*
X68219Y-38679D01*
X67679Y-39219D01*
X67298Y-39881D01*
X67100Y-40618D01*
Y-41382D01*
X67298Y-42119D01*
X67679Y-42781D01*
X68219Y-43321D01*
X68881Y-43702D01*
X69194Y-43786D01*
X69128Y-44286D01*
X60872D01*
X60806Y-43786D01*
X61119Y-43702D01*
X61781Y-43321D01*
X62321Y-42781D01*
X62702Y-42119D01*
X62900Y-41382D01*
Y-40618D01*
X62702Y-39881D01*
X62321Y-39219D01*
X61781Y-38679D01*
X61119Y-38298D01*
X60382Y-38100D01*
X59618D01*
X58881Y-38298D01*
X58219Y-38679D01*
X57679Y-39219D01*
X57298Y-39881D01*
X57100Y-40618D01*
Y-41382D01*
X57298Y-42119D01*
X57679Y-42781D01*
X58219Y-43321D01*
X58881Y-43702D01*
X59194Y-43786D01*
X59128Y-44286D01*
X50872D01*
X50806Y-43786D01*
X51119Y-43702D01*
X51781Y-43321D01*
X52321Y-42781D01*
X52702Y-42119D01*
X52900Y-41382D01*
Y-40618D01*
X52702Y-39881D01*
X52321Y-39219D01*
X51781Y-38679D01*
X51119Y-38298D01*
X50382Y-38100D01*
X49618D01*
X48881Y-38298D01*
X48219Y-38679D01*
X47679Y-39219D01*
X47298Y-39881D01*
X47100Y-40618D01*
Y-41382D01*
X47298Y-42119D01*
X47679Y-42781D01*
X48219Y-43321D01*
X48881Y-43702D01*
X49194Y-43786D01*
X49128Y-44286D01*
X40872D01*
X40806Y-43786D01*
X41119Y-43702D01*
X41781Y-43321D01*
X42321Y-42781D01*
X42702Y-42119D01*
X42900Y-41382D01*
Y-40618D01*
X42702Y-39881D01*
X42321Y-39219D01*
X41781Y-38679D01*
X41119Y-38298D01*
X40382Y-38100D01*
X39618D01*
X38881Y-38298D01*
X38219Y-38679D01*
X37679Y-39219D01*
X37298Y-39881D01*
X37100Y-40618D01*
Y-41382D01*
X37298Y-42119D01*
X37679Y-42781D01*
X38219Y-43321D01*
X38881Y-43702D01*
X39194Y-43786D01*
X39128Y-44286D01*
X30872D01*
X30806Y-43786D01*
X31119Y-43702D01*
X31781Y-43321D01*
X32321Y-42781D01*
X32702Y-42119D01*
X32900Y-41382D01*
Y-40618D01*
X32702Y-39881D01*
X32321Y-39219D01*
X32090Y-38988D01*
X32057Y-38910D01*
X31789Y-38640D01*
X31342Y-38141D01*
X31169Y-37922D01*
X31024Y-37717D01*
X30910Y-37530D01*
X30826Y-37365D01*
X30771Y-37223D01*
X30743Y-37107D01*
X30731Y-36979D01*
X30714Y-36946D01*
Y-35151D01*
X30733Y-35108D01*
X30735Y-35001D01*
X30742Y-34922D01*
X30751Y-34868D01*
X30851Y-34848D01*
X31149Y-34649D01*
X31348Y-34351D01*
X31418Y-34000D01*
Y-33000D01*
X31348Y-32649D01*
X31149Y-32351D01*
X30851Y-32152D01*
X30649Y-32112D01*
Y-31388D01*
X30851Y-31348D01*
X31149Y-31149D01*
X31348Y-30851D01*
X31418Y-30500D01*
Y-29500D01*
X31348Y-29149D01*
X31149Y-28851D01*
X30851Y-28652D01*
X30500Y-28582D01*
X29766D01*
X29628Y-28418D01*
X29862Y-27918D01*
X30500D01*
X30851Y-27848D01*
X31149Y-27649D01*
X31348Y-27351D01*
X31388Y-27149D01*
X32559D01*
X32677Y-27408D01*
X32712Y-27649D01*
X32398Y-27964D01*
X32200Y-28441D01*
Y-28959D01*
X32398Y-29436D01*
X32764Y-29802D01*
X33241Y-30000D01*
X33759D01*
X34236Y-29802D01*
X34368Y-29671D01*
X34445Y-29640D01*
X34522Y-29565D01*
X34588Y-29506D01*
X34649Y-29457D01*
X34706Y-29417D01*
X34757Y-29387D01*
X34802Y-29364D01*
X34838Y-29349D01*
X35700D01*
X36159Y-29159D01*
X38569Y-26749D01*
X52040D01*
X52300Y-27227D01*
X52154Y-27528D01*
X52030Y-27637D01*
X51907Y-27720D01*
X51760Y-27798D01*
X51588Y-27868D01*
X51391Y-27929D01*
X51168Y-27980D01*
X50926Y-28019D01*
X50345Y-28064D01*
X50021Y-28067D01*
X49944Y-28100D01*
X49618D01*
X48881Y-28298D01*
X48219Y-28679D01*
X47679Y-29219D01*
X47298Y-29881D01*
X47100Y-30618D01*
Y-31382D01*
X47298Y-32119D01*
X47679Y-32781D01*
X48219Y-33321D01*
X48881Y-33702D01*
X49618Y-33900D01*
X50382D01*
X51119Y-33702D01*
X51781Y-33321D01*
X52321Y-32781D01*
X52702Y-32119D01*
X52900Y-31382D01*
Y-31061D01*
X52933Y-30988D01*
X52952Y-30347D01*
X52980Y-30079D01*
X53020Y-29832D01*
X53071Y-29609D01*
X53132Y-29412D01*
X53202Y-29240D01*
X53280Y-29093D01*
X53364Y-28970D01*
X53472Y-28846D01*
X53482Y-28815D01*
X53880Y-28418D01*
X66970D01*
X67006Y-28433D01*
X67099Y-28434D01*
X67173Y-28437D01*
X67306Y-28450D01*
X67346Y-28457D01*
X67377Y-28464D01*
X67393Y-28469D01*
X67407Y-28478D01*
X67414Y-28479D01*
X67419Y-28480D01*
X67428Y-28481D01*
X67444Y-28483D01*
X67564Y-28602D01*
X68041Y-28800D01*
X68559D01*
X68570Y-28795D01*
X68649Y-28848D01*
X69000Y-28918D01*
X70000D01*
X70351Y-28848D01*
X70649Y-28649D01*
X70848Y-28351D01*
X70918Y-28000D01*
Y-27000D01*
X70848Y-26649D01*
X70649Y-26351D01*
X70351Y-26152D01*
X70000Y-26082D01*
X69000D01*
X68649Y-26152D01*
X68570Y-26205D01*
X68559Y-26200D01*
X68041D01*
X67564Y-26398D01*
X67444Y-26517D01*
X67428Y-26519D01*
X67419Y-26520D01*
X67414Y-26521D01*
X67407Y-26522D01*
X67393Y-26531D01*
X67377Y-26536D01*
X67346Y-26543D01*
X67311Y-26549D01*
X67092Y-26566D01*
X67006Y-26567D01*
X66970Y-26582D01*
X62801D01*
X62759Y-26100D01*
X63236Y-25902D01*
X63602Y-25536D01*
X63800Y-25059D01*
Y-24541D01*
X63602Y-24064D01*
X63483Y-23945D01*
X63481Y-23928D01*
X63481Y-23919D01*
X63479Y-23914D01*
X63477Y-23907D01*
X63469Y-23893D01*
X63464Y-23877D01*
X63457Y-23846D01*
X63451Y-23810D01*
X63434Y-23592D01*
X63433Y-23506D01*
X63418Y-23470D01*
Y-22580D01*
X66909Y-19089D01*
X66987Y-19108D01*
X67141Y-19662D01*
X65351Y-21451D01*
X65152Y-21749D01*
X65082Y-22100D01*
Y-23370D01*
X65067Y-23406D01*
X65066Y-23499D01*
X65063Y-23573D01*
X65050Y-23706D01*
X65043Y-23746D01*
X65036Y-23777D01*
X65030Y-23793D01*
X65022Y-23807D01*
X65021Y-23814D01*
X65020Y-23819D01*
X65019Y-23828D01*
X65017Y-23844D01*
X64898Y-23964D01*
X64700Y-24441D01*
Y-24959D01*
X64898Y-25436D01*
X65264Y-25802D01*
X65741Y-26000D01*
X66259D01*
X66736Y-25802D01*
X67102Y-25436D01*
X67300Y-24959D01*
Y-24441D01*
X67102Y-23964D01*
X66983Y-23844D01*
X66981Y-23828D01*
X66980Y-23819D01*
X66979Y-23814D01*
X66978Y-23807D01*
X66970Y-23793D01*
X66964Y-23777D01*
X66957Y-23746D01*
X66951Y-23710D01*
X66934Y-23492D01*
X66933Y-23406D01*
X66918Y-23370D01*
Y-22480D01*
X68258Y-21140D01*
X68351Y-21149D01*
X68649Y-21348D01*
X69000Y-21418D01*
X70000D01*
X70351Y-21348D01*
X70649Y-21149D01*
X70848Y-20851D01*
X70918Y-20500D01*
Y-20301D01*
X71418Y-20080D01*
X71582Y-20231D01*
Y-20414D01*
X71582Y-20417D01*
X71582Y-20419D01*
Y-20500D01*
X71652Y-20851D01*
X71851Y-21149D01*
X72149Y-21348D01*
X72500Y-21418D01*
X73500D01*
X73851Y-21348D01*
X74149Y-21149D01*
X74348Y-20851D01*
X74418Y-20500D01*
Y-19500D01*
X74348Y-19149D01*
X74149Y-18851D01*
X73851Y-18652D01*
X73500Y-18582D01*
X73419D01*
X73417Y-18582D01*
X73414Y-18582D01*
X73018D01*
X72974Y-18557D01*
X72843Y-18465D01*
X72500Y-18174D01*
X72303Y-17984D01*
X72221Y-17736D01*
X72532Y-17249D01*
X79800D01*
X80082Y-17132D01*
X80111Y-17135D01*
X80506Y-17367D01*
X80533Y-17401D01*
X80404Y-17876D01*
X80386Y-17880D01*
X80203Y-18002D01*
X80200Y-18003D01*
X80200Y-18004D01*
X80026Y-18120D01*
X79909Y-18296D01*
X79351D01*
X79234Y-18120D01*
X78874Y-17880D01*
X78449Y-17795D01*
X77071D01*
X76646Y-17880D01*
X76286Y-18120D01*
X76045Y-18481D01*
X75961Y-18905D01*
Y-22646D01*
X76045Y-23071D01*
X76286Y-23431D01*
X76320Y-23454D01*
X76390Y-24092D01*
X74541Y-25941D01*
X74041Y-26058D01*
X73768Y-25874D01*
X73811Y-25356D01*
X73851Y-25348D01*
X74149Y-25149D01*
X74348Y-24851D01*
X74418Y-24500D01*
Y-23500D01*
X74348Y-23149D01*
X74149Y-22851D01*
X73851Y-22652D01*
X73500Y-22582D01*
X72500D01*
X72149Y-22652D01*
X71851Y-22851D01*
X71652Y-23149D01*
X71612Y-23351D01*
X70888D01*
X70848Y-23149D01*
X70649Y-22851D01*
X70351Y-22652D01*
X70000Y-22582D01*
X69000D01*
X68649Y-22652D01*
X68351Y-22851D01*
X68152Y-23149D01*
X68082Y-23500D01*
Y-24500D01*
X68152Y-24851D01*
X68351Y-25149D01*
X68649Y-25348D01*
X69000Y-25418D01*
X70000D01*
X70351Y-25348D01*
X70649Y-25149D01*
X70848Y-24851D01*
X70888Y-24649D01*
X71612D01*
X71652Y-24851D01*
X71851Y-25149D01*
X72149Y-25348D01*
X72351Y-25388D01*
Y-26112D01*
X72149Y-26152D01*
X71851Y-26351D01*
X71652Y-26649D01*
X71582Y-27000D01*
Y-28000D01*
X71652Y-28351D01*
X71851Y-28649D01*
X72149Y-28848D01*
X72500Y-28918D01*
X73500D01*
X74022Y-29289D01*
X74056Y-29525D01*
X73499Y-30082D01*
X73434D01*
X73432Y-30081D01*
X73430Y-30082D01*
X72500D01*
X72149Y-30152D01*
X71851Y-30351D01*
X71652Y-30649D01*
X71582Y-31000D01*
Y-32000D01*
X71652Y-32351D01*
X71837Y-32627D01*
X71812Y-32751D01*
X71667Y-33127D01*
X71186D01*
X70673Y-32614D01*
Y-32613D01*
X70848Y-32351D01*
X70918Y-32000D01*
Y-31000D01*
X70848Y-30649D01*
X70649Y-30351D01*
X70351Y-30152D01*
X70000Y-30082D01*
X69000D01*
X68649Y-30152D01*
X68351Y-30351D01*
X68152Y-30649D01*
X68082Y-31000D01*
Y-32000D01*
X68152Y-32351D01*
X68327Y-32613D01*
Y-33100D01*
X68417Y-33549D01*
X68671Y-33929D01*
X69871Y-35129D01*
X70251Y-35383D01*
X70700Y-35473D01*
X75800D01*
X76249Y-35383D01*
X76629Y-35129D01*
X77060Y-34698D01*
X77084Y-34688D01*
X78139Y-33679D01*
X78506Y-33366D01*
X78643Y-33261D01*
X78748Y-33190D01*
X78807Y-33158D01*
X78856Y-33141D01*
X78895Y-33106D01*
X79234Y-32880D01*
X79351Y-32704D01*
X79909D01*
X80026Y-32880D01*
X80386Y-33120D01*
X80811Y-33205D01*
X82189D01*
X82614Y-33120D01*
X82974Y-32880D01*
X83091Y-32704D01*
X83649D01*
X83766Y-32880D01*
X84126Y-33120D01*
X84551Y-33205D01*
X85929D01*
X86354Y-33120D01*
X86714Y-32880D01*
X86955Y-32519D01*
X87039Y-32094D01*
Y-31634D01*
X87195Y-31514D01*
X87539Y-31368D01*
X87917Y-31524D01*
X88434D01*
X88912Y-31326D01*
X89278Y-30961D01*
X89476Y-30483D01*
Y-29966D01*
X89278Y-29488D01*
X88912Y-29122D01*
X88434Y-28924D01*
X87917D01*
X87539Y-29081D01*
X87195Y-28935D01*
X87039Y-28815D01*
Y-28354D01*
X86955Y-27929D01*
X86714Y-27569D01*
X86354Y-27329D01*
X85929Y-27244D01*
X84551D01*
X84126Y-27329D01*
X83766Y-27569D01*
X83649Y-27744D01*
X83091D01*
X82974Y-27569D01*
X82614Y-27329D01*
X82189Y-27244D01*
X80811D01*
X80386Y-27329D01*
X80026Y-27569D01*
X79909Y-27744D01*
X79351D01*
X79234Y-27569D01*
X78874Y-27329D01*
X78449Y-27244D01*
X77782D01*
X77436Y-26898D01*
X76959Y-26700D01*
X76441D01*
X76244Y-26782D01*
X75960Y-26358D01*
X78219Y-24099D01*
X78361Y-23756D01*
X78449D01*
X78874Y-23671D01*
X79171Y-23473D01*
X79358Y-23452D01*
X79769Y-23525D01*
X79907Y-23753D01*
X79848Y-23913D01*
X79698Y-24064D01*
X79500Y-24541D01*
Y-25059D01*
X79698Y-25536D01*
X80064Y-25902D01*
X80541Y-26100D01*
X81059D01*
X81536Y-25902D01*
X81656Y-25783D01*
X81672Y-25781D01*
X81681Y-25780D01*
X81686Y-25779D01*
X81693Y-25778D01*
X81707Y-25769D01*
X81723Y-25764D01*
X81754Y-25757D01*
X81789Y-25751D01*
X82008Y-25734D01*
X82094Y-25733D01*
X82130Y-25718D01*
X86274D01*
X90527Y-29970D01*
X90534Y-29996D01*
X90552Y-30006D01*
X90560Y-30025D01*
X90715Y-30187D01*
X90843Y-30334D01*
X90949Y-30470D01*
X91034Y-30595D01*
X91097Y-30706D01*
X91140Y-30803D01*
X91159Y-30863D01*
Y-32283D01*
X91236Y-32670D01*
X91455Y-32998D01*
X91783Y-33217D01*
X92169Y-33293D01*
X93350D01*
X93737Y-33217D01*
X94064Y-32998D01*
X94283Y-32670D01*
X94360Y-32283D01*
Y-31910D01*
X94407Y-31892D01*
X94489Y-31871D01*
X94598Y-31854D01*
X94734Y-31843D01*
X94905Y-31838D01*
X94976Y-31807D01*
X95246Y-31753D01*
X95543Y-31554D01*
X98434Y-28663D01*
X98823Y-28982D01*
X98716Y-29141D01*
X98640Y-29528D01*
Y-32283D01*
X98716Y-32670D01*
X98936Y-32998D01*
X99263Y-33217D01*
X99650Y-33293D01*
X100831D01*
X101217Y-33217D01*
X101545Y-32998D01*
X101764Y-32670D01*
X101783Y-32576D01*
X101795Y-32554D01*
X101798Y-32530D01*
X101822Y-32516D01*
X101883Y-32493D01*
X101975Y-32469D01*
X102096Y-32450D01*
X102246Y-32438D01*
X102431Y-32433D01*
X102466Y-32418D01*
X103476D01*
X103496Y-32429D01*
X103522Y-32422D01*
X103547Y-32433D01*
X103635Y-32434D01*
X103782Y-32445D01*
X103829Y-32452D01*
X103868Y-32460D01*
X103893Y-32467D01*
X103900Y-32469D01*
X103908Y-32475D01*
X103916Y-32477D01*
X103925Y-32482D01*
X103943Y-32484D01*
X103946Y-32484D01*
X104164Y-32702D01*
X104641Y-32900D01*
X105159D01*
X105241Y-32866D01*
X105500Y-32918D01*
X106500D01*
X106851Y-32848D01*
X107149Y-32649D01*
X107303Y-32418D01*
X107959D01*
X107994Y-32433D01*
X108159Y-32436D01*
X108300Y-32445D01*
X108424Y-32460D01*
X108529Y-32479D01*
X108616Y-32502D01*
X108684Y-32526D01*
X108733Y-32550D01*
X108764Y-32570D01*
X108780Y-32585D01*
X108811Y-32623D01*
X108833Y-32635D01*
X108842Y-32658D01*
X108902Y-32683D01*
X109149Y-32848D01*
X109500Y-32918D01*
X110500D01*
X110851Y-32848D01*
X111149Y-32649D01*
X111348Y-32351D01*
X111418Y-32000D01*
Y-31000D01*
X111348Y-30649D01*
X111332Y-30625D01*
X111390Y-30472D01*
X111640Y-30186D01*
X111800Y-30218D01*
X118700D01*
X119051Y-30148D01*
X119349Y-29949D01*
X120707Y-28591D01*
X120741Y-28577D01*
X120858Y-28468D01*
X120961Y-28382D01*
X121059Y-28312D01*
X121151Y-28256D01*
X121237Y-28215D01*
X121316Y-28186D01*
X121390Y-28168D01*
X121460Y-28159D01*
X121526Y-28159D01*
X121543Y-28161D01*
X121568Y-28172D01*
X121667D01*
X121673Y-28174D01*
X121679Y-28172D01*
X122432D01*
X123230Y-27841D01*
X123841Y-27230D01*
X124171Y-26432D01*
Y-25568D01*
X123841Y-24770D01*
X123230Y-24159D01*
X122432Y-23828D01*
X121568D01*
X120770Y-24159D01*
X120159Y-24770D01*
X119828Y-25568D01*
Y-26321D01*
X119825Y-26327D01*
X119828Y-26333D01*
Y-26432D01*
X119838Y-26457D01*
X119840Y-26473D01*
X119840Y-26540D01*
X119832Y-26610D01*
X119814Y-26683D01*
X119785Y-26763D01*
X119743Y-26849D01*
X119688Y-26941D01*
X119618Y-27039D01*
X119532Y-27142D01*
X119422Y-27258D01*
X119409Y-27293D01*
X118320Y-28382D01*
X117728D01*
X117679Y-27882D01*
X117956Y-27827D01*
X118235Y-27641D01*
X118422Y-27362D01*
X118487Y-27033D01*
Y-24966D01*
X118422Y-24637D01*
X118235Y-24359D01*
X118287Y-24052D01*
X118485Y-23574D01*
Y-23391D01*
X118517Y-23316D01*
X118519Y-23241D01*
X118525Y-23184D01*
X118533Y-23133D01*
X118545Y-23085D01*
X118560Y-23042D01*
X118578Y-23000D01*
X118599Y-22962D01*
X118623Y-22924D01*
X118652Y-22888D01*
X118697Y-22839D01*
X118712Y-22797D01*
X119611Y-21899D01*
X119873D01*
X119917Y-21918D01*
X120026Y-21921D01*
X120108Y-21927D01*
X120168Y-21937D01*
X120173Y-21957D01*
X120359Y-22236D01*
X120638Y-22422D01*
X120966Y-22487D01*
X123033D01*
X123362Y-22422D01*
X123641Y-22236D01*
X123828Y-21957D01*
X123831Y-21937D01*
X123892Y-21927D01*
X123974Y-21921D01*
X124083Y-21918D01*
X124127Y-21899D01*
X124589D01*
X126101Y-23410D01*
Y-23873D01*
X126082Y-23916D01*
X126079Y-24026D01*
X126073Y-24108D01*
X126063Y-24168D01*
X126043Y-24172D01*
X125764Y-24359D01*
X125578Y-24637D01*
X125512Y-24966D01*
Y-27033D01*
X125578Y-27362D01*
X125764Y-27641D01*
X125852Y-27700D01*
X125915Y-28248D01*
X125902Y-28289D01*
X124289Y-29902D01*
X124248Y-29914D01*
X123699Y-29852D01*
X123641Y-29764D01*
X123362Y-29578D01*
X123033Y-29513D01*
X120966D01*
X120638Y-29578D01*
X120359Y-29764D01*
X120173Y-30043D01*
X120107Y-30372D01*
Y-31258D01*
X120173Y-31587D01*
X120359Y-31866D01*
X120638Y-32052D01*
X120966Y-32117D01*
X123033D01*
X123362Y-32052D01*
X123641Y-31866D01*
X123828Y-31587D01*
X123831Y-31567D01*
X123892Y-31557D01*
X123974Y-31550D01*
X124083Y-31548D01*
X124127Y-31529D01*
X124385D01*
X124658Y-31474D01*
X124890Y-31320D01*
X127319Y-28890D01*
X127474Y-28659D01*
X127528Y-28385D01*
Y-28126D01*
X127548Y-28083D01*
X127550Y-27973D01*
X127557Y-27892D01*
X127566Y-27831D01*
X127586Y-27827D01*
X127865Y-27641D01*
X128051Y-27362D01*
X128117Y-27033D01*
Y-24966D01*
X128051Y-24637D01*
X127865Y-24359D01*
X127586Y-24172D01*
X127566Y-24168D01*
X127557Y-24108D01*
X127550Y-24026D01*
X127548Y-23916D01*
X127528Y-23873D01*
Y-23115D01*
X127474Y-22841D01*
X127319Y-22610D01*
X125390Y-20680D01*
X125158Y-20526D01*
X124885Y-20471D01*
X124127D01*
X124083Y-20452D01*
X123974Y-20449D01*
X123892Y-20443D01*
X123831Y-20434D01*
X123828Y-20413D01*
X123641Y-20134D01*
X123362Y-19948D01*
X123033Y-19883D01*
X120966D01*
X120638Y-19948D01*
X120359Y-20134D01*
X120173Y-20413D01*
X120168Y-20434D01*
X120108Y-20443D01*
X120026Y-20449D01*
X119917Y-20452D01*
X119873Y-20471D01*
X119315D01*
X119042Y-20526D01*
X118810Y-20680D01*
X117703Y-21788D01*
X117661Y-21803D01*
X117612Y-21848D01*
X117576Y-21877D01*
X117538Y-21901D01*
X117500Y-21922D01*
X117459Y-21940D01*
X117415Y-21955D01*
X117367Y-21967D01*
X117316Y-21975D01*
X117259Y-21981D01*
X117184Y-21982D01*
X117109Y-22015D01*
X116926D01*
X116448Y-22213D01*
X116083Y-22579D01*
X115885Y-23057D01*
Y-23574D01*
X116083Y-24052D01*
X116134Y-24359D01*
X115948Y-24637D01*
X115882Y-24966D01*
Y-27033D01*
X115948Y-27362D01*
X116134Y-27641D01*
X116413Y-27827D01*
X116691Y-27882D01*
X116641Y-28382D01*
X112180D01*
X112034Y-28237D01*
X112022Y-28203D01*
X111662Y-27816D01*
X111538Y-27662D01*
X111443Y-27526D01*
X111418Y-27483D01*
Y-27086D01*
X111418Y-27083D01*
X111418Y-27081D01*
Y-27000D01*
X111348Y-26649D01*
X111183Y-26402D01*
X111158Y-26342D01*
X111135Y-26333D01*
X111123Y-26311D01*
X111084Y-26280D01*
X111070Y-26263D01*
X111050Y-26233D01*
X111026Y-26184D01*
X111002Y-26116D01*
X110979Y-26029D01*
X110961Y-25929D01*
X110943Y-25733D01*
X110945Y-25700D01*
X110960Y-25576D01*
X110979Y-25471D01*
X111002Y-25384D01*
X111026Y-25316D01*
X111050Y-25267D01*
X111070Y-25236D01*
X111084Y-25220D01*
X111123Y-25189D01*
X111135Y-25168D01*
X111158Y-25158D01*
X111183Y-25098D01*
X111348Y-24851D01*
X111418Y-24500D01*
Y-23500D01*
X111348Y-23149D01*
X111149Y-22851D01*
X110851Y-22652D01*
X110500Y-22582D01*
X109500D01*
X109149Y-22652D01*
X108649Y-22385D01*
Y-21615D01*
X109149Y-21348D01*
X109500Y-21418D01*
X110500D01*
X110851Y-21348D01*
X111149Y-21149D01*
X111348Y-20851D01*
X111418Y-20500D01*
Y-19500D01*
X111348Y-19149D01*
X111149Y-18851D01*
X110851Y-18652D01*
X110628Y-18608D01*
X110505Y-18422D01*
X107477Y-15395D01*
X107246Y-15241D01*
X106973Y-15186D01*
X98596D01*
X95014Y-11604D01*
Y-4900D01*
X94959Y-4627D01*
X94805Y-4395D01*
X89005Y1405D01*
X88773Y1559D01*
X88500Y1614D01*
X57868D01*
X50514Y8968D01*
Y23354D01*
X50521Y23363D01*
X50514Y23407D01*
X50533Y23447D01*
X50535Y23513D01*
X50541Y23553D01*
X50549Y23587D01*
X50559Y23616D01*
X50572Y23641D01*
X50587Y23665D01*
X50606Y23689D01*
X50630Y23713D01*
X50660Y23738D01*
X50714Y23775D01*
X50727Y23794D01*
X50736Y23798D01*
X51102Y24164D01*
X51300Y24641D01*
Y25159D01*
X51102Y25636D01*
X50736Y26002D01*
X50259Y26200D01*
X49741D01*
X49264Y26002D01*
X48898Y25636D01*
X48700Y25159D01*
Y24641D01*
X48860Y24254D01*
X48868Y24197D01*
X48952Y24051D01*
X48979Y23996D01*
X49003Y23938D01*
X49023Y23881D01*
X49039Y23825D01*
X49051Y23771D01*
X49060Y23717D01*
X49065Y23664D01*
X49067Y23598D01*
X49086Y23556D01*
Y13005D01*
X48586Y12706D01*
X48359Y12800D01*
X47862D01*
X47839Y12802D01*
X47400Y13158D01*
Y13359D01*
X47202Y13836D01*
X46836Y14202D01*
X46359Y14400D01*
X45841D01*
X45364Y14202D01*
X44998Y13836D01*
X44800Y13359D01*
Y12841D01*
X44998Y12364D01*
X45129Y12232D01*
X45160Y12155D01*
X45235Y12078D01*
X45294Y12012D01*
X45343Y11951D01*
X45382Y11894D01*
X45413Y11843D01*
X45436Y11798D01*
X45451Y11762D01*
Y10800D01*
X45641Y10341D01*
X48820Y7162D01*
X48682Y6593D01*
X48464Y6502D01*
X48277Y6315D01*
X48228Y6309D01*
X47724Y6441D01*
X47602Y6736D01*
X47236Y7102D01*
X46759Y7300D01*
X46241D01*
X45764Y7102D01*
X45398Y6736D01*
X45200Y6259D01*
Y5741D01*
X45398Y5264D01*
X45764Y4898D01*
X46241Y4700D01*
X46759D01*
X47236Y4898D01*
X47423Y5085D01*
X47472Y5091D01*
X47976Y4959D01*
X48098Y4664D01*
X48464Y4298D01*
X48941Y4100D01*
X49110D01*
X49123Y4090D01*
X49130Y4083D01*
X49134Y4082D01*
X49140Y4077D01*
X49156Y4073D01*
X49171Y4065D01*
X49198Y4049D01*
X49227Y4028D01*
X49394Y3885D01*
X49455Y3825D01*
X49491Y3811D01*
X55351Y-2049D01*
X55478Y-2134D01*
X55523Y-2247D01*
X55555Y-2640D01*
X55534Y-2727D01*
X55298Y-2964D01*
X55100Y-3441D01*
Y-3959D01*
X55298Y-4436D01*
X55664Y-4802D01*
X56101Y-4983D01*
X56169Y-5136D01*
X56237Y-5500D01*
X55937Y-5800D01*
X55739Y-6278D01*
Y-6795D01*
X55937Y-7273D01*
X56303Y-7638D01*
X56781Y-7836D01*
X57298D01*
X57776Y-7638D01*
X58141Y-7273D01*
X58329Y-6821D01*
X58354Y-6786D01*
X58614Y-6637D01*
X58874Y-6786D01*
X58900Y-6821D01*
X59087Y-7273D01*
X59453Y-7638D01*
X59930Y-7836D01*
X60448D01*
X60925Y-7638D01*
X61291Y-7273D01*
X61489Y-6795D01*
Y-6278D01*
X61291Y-5800D01*
X60925Y-5434D01*
X60448Y-5236D01*
X60376D01*
X59927Y-5150D01*
X59914Y-4774D01*
Y-4630D01*
X59716Y-4153D01*
X59351Y-3787D01*
X58873Y-3589D01*
X58356D01*
X58200Y-3653D01*
X57707Y-3444D01*
X57671Y-3372D01*
X57502Y-2964D01*
X57356Y-2818D01*
X57563Y-2318D01*
X87591D01*
X91382Y-6109D01*
Y-10558D01*
X90882Y-10657D01*
X90802Y-10464D01*
X90436Y-10098D01*
X89959Y-9900D01*
X89441D01*
X89395Y-9919D01*
X89356Y-9913D01*
X89350Y-9917D01*
X89342Y-9916D01*
X89129Y-9973D01*
X88863Y-10033D01*
X88760Y-10051D01*
X86790D01*
X86598Y-9589D01*
X87420Y-8767D01*
X87610Y-8308D01*
Y-6227D01*
X87625Y-6191D01*
X87647Y-6146D01*
X87678Y-6095D01*
X87715Y-6043D01*
X87830Y-5907D01*
X87900Y-5834D01*
X87931Y-5757D01*
X88063Y-5625D01*
X88261Y-5148D01*
Y-4630D01*
X88063Y-4153D01*
X87697Y-3787D01*
X87219Y-3589D01*
X86702D01*
X86224Y-3787D01*
X85859Y-4153D01*
X85671Y-4605D01*
X85646Y-4639D01*
X85386Y-4788D01*
X85126Y-4639D01*
X85100Y-4605D01*
X84913Y-4153D01*
X84547Y-3787D01*
X84070Y-3589D01*
X83552D01*
X83075Y-3787D01*
X82709Y-4153D01*
X82511Y-4630D01*
Y-4774D01*
X82498Y-5150D01*
X82049Y-5236D01*
X81978D01*
X81500Y-5434D01*
X81134Y-5800D01*
X80936Y-6278D01*
Y-6795D01*
X81134Y-7273D01*
X81265Y-7404D01*
X81297Y-7481D01*
X81371Y-7558D01*
X81430Y-7624D01*
X81479Y-7685D01*
X81519Y-7742D01*
X81550Y-7793D01*
X81572Y-7838D01*
X81587Y-7875D01*
Y-9369D01*
X78405Y-12551D01*
X65100D01*
X64641Y-12741D01*
X58531Y-18851D01*
X53700D01*
X53241Y-19041D01*
X51731Y-20551D01*
X45641D01*
X45379Y-20051D01*
X45500Y-19759D01*
Y-19241D01*
X45302Y-18764D01*
X44936Y-18398D01*
X44459Y-18200D01*
X43941D01*
X43464Y-18398D01*
X43098Y-18764D01*
X42900Y-19241D01*
Y-19759D01*
X43021Y-20051D01*
X42759Y-20551D01*
X38969D01*
X34359Y-15941D01*
X33900Y-15751D01*
X25221D01*
X25030Y-15289D01*
X33469Y-6849D01*
X43700D01*
X44159Y-6659D01*
X47113Y-3706D01*
X47149Y-3690D01*
X47197Y-3674D01*
X47255Y-3660D01*
X47317Y-3649D01*
X47495Y-3634D01*
X47596Y-3633D01*
X47614Y-3625D01*
X47737Y-3694D01*
X47967Y-4032D01*
X47974Y-4062D01*
X47900Y-4241D01*
Y-4759D01*
X48098Y-5236D01*
X48464Y-5602D01*
X48941Y-5800D01*
X49459D01*
X49936Y-5602D01*
X50302Y-5236D01*
X50500Y-4759D01*
Y-4241D01*
X50302Y-3764D01*
X49936Y-3398D01*
X49459Y-3200D01*
X49176D01*
X48832Y-2765D01*
X48826Y-2738D01*
X48900Y-2559D01*
Y-2041D01*
X48702Y-1564D01*
X48336Y-1198D01*
X47859Y-1000D01*
X47341D01*
X46864Y-1198D01*
X46498Y-1564D01*
X46300Y-2041D01*
Y-2227D01*
X46267Y-2304D01*
X46266Y-2411D01*
X46261Y-2499D01*
X46252Y-2577D01*
X46240Y-2645D01*
X46226Y-2703D01*
X46210Y-2751D01*
X46194Y-2787D01*
X43431Y-5551D01*
X33200D01*
X32741Y-5741D01*
X19541Y-18941D01*
X19351Y-19400D01*
Y-26131D01*
X18041Y-27440D01*
X17700Y-27373D01*
X12300D01*
X11754Y-27481D01*
X11291Y-27791D01*
X10981Y-28254D01*
X10873Y-28800D01*
Y-30800D01*
X10981Y-31346D01*
X11291Y-31809D01*
X11754Y-32119D01*
X12300Y-32227D01*
X17700D01*
X18246Y-32119D01*
X18709Y-31809D01*
X19019Y-31346D01*
X19127Y-30800D01*
Y-28800D01*
X19026Y-28292D01*
X20459Y-26859D01*
X20649Y-26400D01*
Y-26321D01*
X21111Y-26130D01*
X21994Y-27013D01*
X22010Y-27049D01*
X22026Y-27097D01*
X22040Y-27155D01*
X22051Y-27217D01*
X22066Y-27395D01*
X22067Y-27496D01*
X22100Y-27573D01*
Y-27759D01*
X22298Y-28236D01*
X22664Y-28602D01*
X23141Y-28800D01*
X23659D01*
X24136Y-28602D01*
X24502Y-28236D01*
X25035Y-28083D01*
X25131Y-28146D01*
X25139Y-28362D01*
X25069Y-28705D01*
X24851Y-28851D01*
X24652Y-29149D01*
X24582Y-29500D01*
Y-30500D01*
X24652Y-30851D01*
X24851Y-31149D01*
X25149Y-31348D01*
X25500Y-31418D01*
X26500D01*
X26851Y-31348D01*
X27149Y-31149D01*
X27348Y-30851D01*
X27418Y-30500D01*
Y-29500D01*
X27348Y-29149D01*
X27149Y-28851D01*
X26895Y-28681D01*
X26830Y-28410D01*
X26806Y-28133D01*
X26878Y-28065D01*
X27149Y-27962D01*
X27388Y-28090D01*
X27541Y-28459D01*
X28582Y-29501D01*
Y-29566D01*
X28582Y-29568D01*
X28582Y-29570D01*
Y-30500D01*
X28652Y-30851D01*
X28851Y-31149D01*
X29149Y-31348D01*
X29351Y-31388D01*
Y-32112D01*
X29149Y-32152D01*
X28851Y-32351D01*
X28652Y-32649D01*
X28582Y-33000D01*
Y-34000D01*
X28652Y-34351D01*
X28851Y-34649D01*
X29149Y-34848D01*
X29250Y-34868D01*
X29258Y-34922D01*
X29265Y-35001D01*
X29267Y-35108D01*
X29286Y-35151D01*
Y-36946D01*
X29269Y-36979D01*
X29257Y-37107D01*
X29228Y-37223D01*
X29173Y-37365D01*
X29090Y-37530D01*
X28976Y-37717D01*
X28836Y-37914D01*
X28207Y-38643D01*
X27943Y-38910D01*
X27910Y-38988D01*
X27679Y-39219D01*
X27298Y-39881D01*
X27100Y-40618D01*
Y-41382D01*
X27298Y-42119D01*
X27679Y-42781D01*
X28219Y-43321D01*
X28881Y-43702D01*
X29194Y-43786D01*
X29128Y-44286D01*
X24296D01*
X23371Y-43362D01*
X23360Y-43326D01*
X23278Y-43227D01*
X23216Y-43125D01*
X23155Y-42986D01*
X23097Y-42810D01*
X23046Y-42597D01*
X23005Y-42359D01*
X22934Y-41399D01*
X22933Y-41023D01*
X22900Y-40945D01*
Y-40618D01*
X22702Y-39881D01*
X22321Y-39219D01*
X21781Y-38679D01*
X21119Y-38298D01*
X20382Y-38100D01*
X19618D01*
X18881Y-38298D01*
X18219Y-38679D01*
X17679Y-39219D01*
X17298Y-39881D01*
X17100Y-40618D01*
Y-41382D01*
X17298Y-42119D01*
X17679Y-42781D01*
X18219Y-43321D01*
X18881Y-43702D01*
X19618Y-43900D01*
X19945D01*
X20023Y-43933D01*
X20404Y-43934D01*
X21073Y-43970D01*
X21350Y-44003D01*
X21597Y-44046D01*
X21810Y-44097D01*
X21986Y-44155D01*
X22125Y-44216D01*
X22227Y-44278D01*
X22326Y-44360D01*
X22362Y-44371D01*
X23495Y-45505D01*
X23612Y-45582D01*
X23486Y-46082D01*
X496D01*
X0Y-46082D01*
X-478Y-46031D01*
X-1318Y-45920D01*
X-2547Y-45411D01*
X-3602Y-44602D01*
X-4411Y-43547D01*
X-4920Y-42318D01*
X-5089Y-41034D01*
X-5082Y-41000D01*
Y-33589D01*
X-4620Y-33398D01*
X-159Y-37859D01*
X300Y-38049D01*
X10600D01*
X11059Y-37859D01*
X11913Y-37005D01*
X11949Y-36990D01*
X11997Y-36974D01*
X12055Y-36960D01*
X12117Y-36949D01*
X12295Y-36934D01*
X12396Y-36933D01*
X12473Y-36900D01*
X12659D01*
X13136Y-36702D01*
X13502Y-36336D01*
X13700Y-35859D01*
Y-35341D01*
X13502Y-34864D01*
X13288Y-34649D01*
X13495Y-34149D01*
X23662D01*
X23698Y-34164D01*
X23743Y-34187D01*
X23794Y-34218D01*
X23846Y-34254D01*
X23982Y-34369D01*
X24055Y-34440D01*
X24132Y-34471D01*
X24264Y-34602D01*
X24741Y-34800D01*
X25077D01*
X25149Y-34848D01*
X25500Y-34918D01*
X26500D01*
X26851Y-34848D01*
X27149Y-34649D01*
X27348Y-34351D01*
X27418Y-34000D01*
Y-33000D01*
X27348Y-32649D01*
X27149Y-32351D01*
X26851Y-32152D01*
X26500Y-32082D01*
X25500D01*
X25149Y-32152D01*
X25077Y-32200D01*
X24741D01*
X24264Y-32398D01*
X24132Y-32529D01*
X24055Y-32560D01*
X23978Y-32635D01*
X23912Y-32693D01*
X23851Y-32743D01*
X23794Y-32783D01*
X23743Y-32813D01*
X23698Y-32836D01*
X23662Y-32851D01*
X5469D01*
X5101Y-32483D01*
X5165Y-31839D01*
X5209Y-31809D01*
X5519Y-31346D01*
X5627Y-30800D01*
Y-28800D01*
X5519Y-28254D01*
X5209Y-27791D01*
X4746Y-27481D01*
X4200Y-27373D01*
X-1200D01*
X-1746Y-27481D01*
X-2209Y-27791D01*
X-2519Y-28254D01*
X-2627Y-28800D01*
Y-30800D01*
X-2519Y-31346D01*
X-2209Y-31809D01*
X-1746Y-32119D01*
X-1200Y-32227D01*
X2918D01*
X2918Y-32228D01*
X2950Y-32229D01*
X2961Y-32231D01*
X2975Y-32235D01*
X2995Y-32242D01*
X3019Y-32254D01*
X3047Y-32270D01*
X3060Y-32278D01*
X4741Y-33959D01*
X5200Y-34149D01*
X7376D01*
X7620Y-34573D01*
X7586Y-34660D01*
X7510Y-34735D01*
X7444Y-34793D01*
X7382Y-34843D01*
X7326Y-34883D01*
X7275Y-34913D01*
X7230Y-34936D01*
X7193Y-34951D01*
X-100D01*
X-3151Y-31900D01*
Y-12300D01*
X-2000Y-11149D01*
X23700D01*
X24159Y-10959D01*
X32959Y-2159D01*
X33149Y-1700D01*
Y1199D01*
X33611Y1391D01*
X35911Y-909D01*
X35925Y-945D01*
X35991Y-1012D01*
X36040Y-1066D01*
X36125Y-1169D01*
X36149Y-1202D01*
X36165Y-1229D01*
X36173Y-1244D01*
X36177Y-1260D01*
X36182Y-1266D01*
X36183Y-1270D01*
X36190Y-1277D01*
X36200Y-1290D01*
Y-1459D01*
X36398Y-1936D01*
X36764Y-2302D01*
X37241Y-2500D01*
X37410D01*
X37423Y-2510D01*
X37430Y-2517D01*
X37434Y-2518D01*
X37440Y-2523D01*
X37456Y-2527D01*
X37471Y-2535D01*
X37498Y-2551D01*
X37527Y-2572D01*
X37694Y-2715D01*
X37755Y-2775D01*
X37784Y-2786D01*
X37795Y-2814D01*
X37914Y-2942D01*
X37949Y-2985D01*
X37977Y-3025D01*
X37995Y-3053D01*
X38000Y-3063D01*
Y-3559D01*
X38198Y-4036D01*
X38564Y-4402D01*
X39041Y-4600D01*
X39559D01*
X40036Y-4402D01*
X40402Y-4036D01*
X40600Y-3559D01*
Y-3041D01*
X40402Y-2564D01*
X40036Y-2198D01*
X39713Y-2064D01*
X39709Y-2055D01*
X39698Y-2045D01*
X39695Y-2040D01*
X39692Y-2038D01*
X39689Y-2036D01*
X39684Y-2032D01*
X39401Y-1781D01*
X39337Y-1718D01*
X39301Y-1703D01*
X39089Y-1491D01*
X39075Y-1455D01*
X39009Y-1388D01*
X38960Y-1334D01*
X38875Y-1231D01*
X38851Y-1198D01*
X38835Y-1171D01*
X38827Y-1156D01*
X38823Y-1140D01*
X38818Y-1134D01*
X38817Y-1130D01*
X38810Y-1123D01*
X38800Y-1110D01*
Y-941D01*
X38602Y-464D01*
X38236Y-98D01*
X37759Y100D01*
X37590D01*
X37577Y110D01*
X37570Y117D01*
X37566Y118D01*
X37560Y123D01*
X37544Y127D01*
X37529Y135D01*
X37502Y151D01*
X37473Y172D01*
X37306Y315D01*
X37245Y375D01*
X37209Y389D01*
X34618Y2980D01*
Y19720D01*
X39809Y24911D01*
X39845Y24925D01*
X39912Y24991D01*
X39966Y25040D01*
X40069Y25125D01*
X40102Y25149D01*
X40129Y25166D01*
X40144Y25173D01*
X40160Y25177D01*
X40166Y25182D01*
X40170Y25183D01*
X40177Y25190D01*
X40190Y25200D01*
X40359D01*
X40836Y25398D01*
X41202Y25764D01*
X41400Y26241D01*
Y26410D01*
X41410Y26423D01*
X41417Y26430D01*
X41418Y26434D01*
X41423Y26440D01*
X41427Y26456D01*
X41435Y26471D01*
X41451Y26498D01*
X41472Y26527D01*
X41615Y26694D01*
X41675Y26755D01*
X41689Y26791D01*
X46380Y31482D01*
X58870D01*
X58906Y31467D01*
X58999Y31466D01*
X59073Y31463D01*
X59206Y31450D01*
X59246Y31443D01*
X59277Y31436D01*
X59293Y31431D01*
X59307Y31422D01*
X59314Y31421D01*
X59319Y31420D01*
X59328Y31419D01*
X59345Y31417D01*
X59464Y31298D01*
X59941Y31100D01*
X60459D01*
X60936Y31298D01*
X61302Y31664D01*
X61500Y32141D01*
Y32659D01*
X61302Y33136D01*
X60936Y33502D01*
X60459Y33700D01*
X59941D01*
X59464Y33502D01*
X59345Y33383D01*
X59328Y33381D01*
X59319Y33380D01*
X59314Y33379D01*
X59307Y33378D01*
X59293Y33369D01*
X59277Y33364D01*
X59246Y33357D01*
X59210Y33351D01*
X58992Y33334D01*
X58906Y33333D01*
X58870Y33318D01*
X46000D01*
X45649Y33248D01*
X45351Y33049D01*
X40391Y28089D01*
X40355Y28075D01*
X40288Y28010D01*
X40234Y27960D01*
X40131Y27875D01*
X40098Y27851D01*
X40071Y27835D01*
X40056Y27827D01*
X40040Y27823D01*
X40034Y27818D01*
X40030Y27817D01*
X40023Y27810D01*
X40010Y27800D01*
X39841D01*
X39364Y27602D01*
X38998Y27236D01*
X38800Y26759D01*
Y26590D01*
X38790Y26577D01*
X38783Y26570D01*
X38782Y26566D01*
X38777Y26560D01*
X38773Y26544D01*
X38765Y26529D01*
X38749Y26502D01*
X38728Y26473D01*
X38585Y26306D01*
X38525Y26245D01*
X38511Y26209D01*
X33051Y20749D01*
X32852Y20451D01*
X32782Y20100D01*
Y9789D01*
X32320Y9598D01*
X27507Y14412D01*
X27047Y14602D01*
X24571D01*
X24357Y15102D01*
X24519Y15272D01*
X25021D01*
X25480Y15462D01*
X26559Y16541D01*
X26749Y17000D01*
Y27200D01*
X26559Y27659D01*
X22559Y31659D01*
X22100Y31849D01*
X12200D01*
X11741Y31659D01*
X8941Y28859D01*
X8751Y28400D01*
Y27338D01*
X8736Y27302D01*
X8713Y27257D01*
X8682Y27206D01*
X8646Y27154D01*
X8531Y27018D01*
X8460Y26945D01*
X8429Y26868D01*
X8298Y26736D01*
X8100Y26259D01*
Y25741D01*
X8298Y25264D01*
X8462Y25100D01*
X8307Y24559D01*
X8249Y24548D01*
X7951Y24349D01*
X4651Y21049D01*
X4452Y20751D01*
X4382Y20400D01*
Y4380D01*
X1591Y1589D01*
X1555Y1575D01*
X1488Y1510D01*
X1434Y1460D01*
X1331Y1375D01*
X1298Y1351D01*
X1271Y1335D01*
X1256Y1327D01*
X1240Y1323D01*
X1234Y1318D01*
X1230Y1317D01*
X1223Y1310D01*
X1210Y1300D01*
X1041D01*
X564Y1102D01*
X445Y983D01*
X428Y981D01*
X419Y981D01*
X414Y979D01*
X407Y977D01*
X393Y970D01*
X377Y964D01*
X346Y957D01*
X310Y951D01*
X92Y934D01*
X6Y933D01*
X0Y930D01*
X-6Y933D01*
X-99Y934D01*
X-173Y937D01*
X-306Y950D01*
X-346Y957D01*
X-377Y964D01*
X-393Y970D01*
X-407Y977D01*
X-414Y979D01*
X-419Y981D01*
X-428Y981D01*
X-445Y983D01*
X-564Y1102D01*
X-1041Y1300D01*
X-1559D01*
X-2036Y1102D01*
X-2402Y736D01*
X-2600Y259D01*
Y-259D01*
X-2402Y-736D01*
X-2036Y-1102D01*
X-1559Y-1300D01*
X-1041D01*
X-564Y-1102D01*
X-445Y-983D01*
X-428Y-981D01*
X-419Y-981D01*
X-414Y-979D01*
X-407Y-977D01*
X-393Y-970D01*
X-377Y-964D01*
X-346Y-957D01*
X-310Y-951D01*
X-92Y-934D01*
X-6Y-933D01*
X0Y-930D01*
X6Y-933D01*
X99Y-934D01*
X173Y-937D01*
X306Y-950D01*
X346Y-957D01*
X377Y-964D01*
X393Y-970D01*
X407Y-977D01*
X414Y-979D01*
X419Y-981D01*
X428Y-981D01*
X445Y-983D01*
X564Y-1102D01*
X1041Y-1300D01*
X1559D01*
X2036Y-1102D01*
X2156Y-983D01*
X2172Y-981D01*
X2181Y-981D01*
X2186Y-979D01*
X2193Y-977D01*
X2207Y-970D01*
X2223Y-964D01*
X2254Y-957D01*
X2290Y-951D01*
X2508Y-934D01*
X2550Y-934D01*
X2599Y-934D01*
X2673Y-937D01*
X2806Y-950D01*
X2846Y-957D01*
X2877Y-964D01*
X2893Y-970D01*
X2907Y-977D01*
X2914Y-979D01*
X2919Y-981D01*
X2928Y-981D01*
X2944Y-983D01*
X3064Y-1102D01*
X3541Y-1300D01*
X4059D01*
X4536Y-1102D01*
X4656Y-983D01*
X4672Y-981D01*
X4681Y-981D01*
X4686Y-979D01*
X4693Y-977D01*
X4707Y-970D01*
X4723Y-964D01*
X4754Y-957D01*
X4789Y-951D01*
X5008Y-934D01*
X5094Y-933D01*
X5100Y-930D01*
X5106Y-933D01*
X5199Y-934D01*
X5273Y-937D01*
X5406Y-950D01*
X5446Y-957D01*
X5477Y-964D01*
X5493Y-970D01*
X5507Y-977D01*
X5514Y-979D01*
X5519Y-981D01*
X5528Y-981D01*
X5545Y-983D01*
X5664Y-1102D01*
X6141Y-1300D01*
X6659D01*
X7136Y-1102D01*
X7255Y-983D01*
X7272Y-981D01*
X7281Y-981D01*
X7286Y-979D01*
X7293Y-977D01*
X7307Y-970D01*
X7323Y-964D01*
X7354Y-957D01*
X7389Y-951D01*
X7608Y-934D01*
X7694Y-933D01*
X7730Y-918D01*
X9700D01*
X10051Y-848D01*
X10349Y-649D01*
X12222Y1224D01*
X13378D01*
X13585Y724D01*
X13434Y573D01*
X13179Y-44D01*
Y-712D01*
X13434Y-1329D01*
X13907Y-1802D01*
X14524Y-2057D01*
X15192D01*
X15810Y-1802D01*
X16282Y-1329D01*
X16538Y-712D01*
Y-44D01*
X16536Y-40D01*
X16888Y284D01*
X16939Y295D01*
X17211Y113D01*
X17563Y43D01*
X17944D01*
X17992Y10D01*
X18264Y-43D01*
X23579D01*
X23850Y10D01*
X24080Y164D01*
X24234Y394D01*
X24288Y665D01*
Y1256D01*
X24234Y1527D01*
X24218Y1551D01*
X24234Y1575D01*
X24288Y1846D01*
Y2437D01*
X24234Y2708D01*
X24080Y2938D01*
Y3314D01*
X24234Y3544D01*
X24288Y3815D01*
Y4405D01*
X24234Y4677D01*
X24080Y4907D01*
Y5282D01*
X24234Y5512D01*
X24288Y5784D01*
Y6287D01*
X24496Y6433D01*
X24770Y6511D01*
X30351Y931D01*
Y-1431D01*
X22731Y-9051D01*
X-2600D01*
X-3059Y-9241D01*
X-4620Y-10802D01*
X-5082Y-10611D01*
Y23739D01*
X-4582Y24175D01*
X-4502Y24164D01*
X-4136Y23798D01*
X-3659Y23600D01*
X-3141D01*
X-2664Y23798D01*
X-2298Y24164D01*
X-2100Y24641D01*
Y25159D01*
X-2298Y25636D01*
X-2664Y26002D01*
X-2827Y26070D01*
Y26634D01*
X-2700Y26941D01*
Y27459D01*
X-2898Y27936D01*
X-3264Y28302D01*
X-3741Y28500D01*
X-4259D01*
X-4582Y28366D01*
X-5082Y28609D01*
Y41000D01*
X-5089Y41034D01*
X-4920Y42318D01*
X-4411Y43547D01*
X-3602Y44602D01*
X-2547Y45411D01*
X-1318Y45920D01*
X-34Y46089D01*
X0Y46082D01*
X170000D01*
X170034Y46089D01*
X171318Y45920D01*
D02*
G37*
G36*
X59557Y31770D02*
X59528Y31795D01*
X59491Y31817D01*
X59446Y31836D01*
X59393Y31853D01*
X59332Y31868D01*
X59264Y31879D01*
X59103Y31895D01*
X59011Y31899D01*
X58912Y31900D01*
Y32900D01*
X59011Y32901D01*
X59264Y32921D01*
X59332Y32932D01*
X59393Y32947D01*
X59446Y32964D01*
X59491Y32983D01*
X59528Y33005D01*
X59557Y33030D01*
Y31770D01*
D02*
G37*
G36*
X9604Y27346D02*
X9617Y27273D01*
X9639Y27199D01*
X9669Y27124D01*
X9708Y27047D01*
X9755Y26969D01*
X9811Y26890D01*
X9875Y26809D01*
X9948Y26726D01*
X10030Y26643D01*
X8770D01*
X8852Y26726D01*
X8989Y26890D01*
X9045Y26969D01*
X9093Y27047D01*
X9131Y27124D01*
X9161Y27199D01*
X9183Y27273D01*
X9196Y27346D01*
X9200Y27417D01*
X9600D01*
X9604Y27346D01*
D02*
G37*
G36*
X41364Y27057D02*
X41295Y26986D01*
X41130Y26794D01*
X41090Y26737D01*
X41057Y26684D01*
X41032Y26635D01*
X41014Y26589D01*
X41003Y26547D01*
X41000Y26509D01*
X40109Y27400D01*
X40147Y27403D01*
X40189Y27414D01*
X40235Y27432D01*
X40284Y27457D01*
X40337Y27490D01*
X40394Y27530D01*
X40518Y27633D01*
X40586Y27695D01*
X40657Y27764D01*
X41364Y27057D01*
D02*
G37*
G36*
X40091Y25600D02*
X40053Y25597D01*
X40011Y25586D01*
X39965Y25568D01*
X39916Y25543D01*
X39863Y25510D01*
X39806Y25470D01*
X39682Y25367D01*
X39614Y25305D01*
X39543Y25236D01*
X38835Y25943D01*
X38905Y26014D01*
X39070Y26206D01*
X39110Y26263D01*
X39143Y26316D01*
X39168Y26365D01*
X39186Y26411D01*
X39197Y26453D01*
X39200Y26491D01*
X40091Y25600D01*
D02*
G37*
G36*
X122534Y24402D02*
X122528Y24459D01*
X122509Y24509D01*
X122477Y24554D01*
X122433Y24593D01*
X122376Y24626D01*
X122307Y24652D01*
X122225Y24673D01*
X122130Y24688D01*
X122022Y24697D01*
X121902Y24700D01*
Y25300D01*
X122022Y25303D01*
X122130Y25312D01*
X122225Y25327D01*
X122307Y25348D01*
X122376Y25374D01*
X122433Y25407D01*
X122477Y25446D01*
X122509Y25490D01*
X122528Y25541D01*
X122534Y25598D01*
Y24402D01*
D02*
G37*
G36*
X50471Y24133D02*
X50401Y24086D01*
X50338Y24034D01*
X50282Y23977D01*
X50234Y23917D01*
X50193Y23852D01*
X50159Y23783D01*
X50133Y23710D01*
X50115Y23633D01*
X50104Y23551D01*
X50100Y23466D01*
X49500Y23612D01*
X49497Y23692D01*
X49490Y23772D01*
X49477Y23853D01*
X49459Y23933D01*
X49436Y24013D01*
X49408Y24093D01*
X49374Y24173D01*
X49336Y24253D01*
X49243Y24413D01*
X50471Y24133D01*
D02*
G37*
G36*
X128041Y24028D02*
X127990Y24009D01*
X127946Y23977D01*
X127907Y23933D01*
X127874Y23876D01*
X127848Y23807D01*
X127827Y23725D01*
X127812Y23630D01*
X127803Y23523D01*
X127800Y23402D01*
X127200D01*
X127197Y23523D01*
X127188Y23630D01*
X127173Y23725D01*
X127152Y23807D01*
X127126Y23876D01*
X127093Y23933D01*
X127054Y23977D01*
X127009Y24009D01*
X126959Y24028D01*
X126902Y24034D01*
X128098D01*
X128041Y24028D01*
D02*
G37*
G36*
X127803Y22977D02*
X127812Y22870D01*
X127827Y22775D01*
X127848Y22693D01*
X127874Y22624D01*
X127907Y22567D01*
X127946Y22523D01*
X127990Y22491D01*
X128041Y22472D01*
X128098Y22466D01*
X126902D01*
X126959Y22472D01*
X127009Y22491D01*
X127054Y22523D01*
X127093Y22567D01*
X127126Y22624D01*
X127152Y22693D01*
X127173Y22775D01*
X127188Y22870D01*
X127197Y22977D01*
X127200Y23098D01*
X127800D01*
X127803Y22977D01*
D02*
G37*
G36*
X122534Y20902D02*
X122528Y20959D01*
X122509Y21010D01*
X122477Y21054D01*
X122433Y21093D01*
X122376Y21126D01*
X122307Y21152D01*
X122225Y21173D01*
X122130Y21188D01*
X122022Y21197D01*
X121902Y21200D01*
Y21800D01*
X122022Y21803D01*
X122130Y21812D01*
X122225Y21827D01*
X122307Y21848D01*
X122376Y21874D01*
X122433Y21907D01*
X122477Y21946D01*
X122509Y21991D01*
X122528Y22041D01*
X122534Y22098D01*
Y20902D01*
D02*
G37*
G36*
X9891Y20400D02*
X9774Y20399D01*
X9561Y20381D01*
X9466Y20364D01*
X9377Y20342D01*
X9295Y20315D01*
X9221Y20283D01*
X9153Y20246D01*
X9093Y20204D01*
X9039Y20156D01*
X8756Y20439D01*
X8804Y20493D01*
X8846Y20553D01*
X8883Y20621D01*
X8915Y20695D01*
X8942Y20777D01*
X8964Y20866D01*
X8981Y20961D01*
X8992Y21064D01*
X8999Y21174D01*
X9000Y21291D01*
X9891Y20400D01*
D02*
G37*
G36*
X128041Y20528D02*
X127990Y20509D01*
X127946Y20477D01*
X127907Y20433D01*
X127874Y20376D01*
X127848Y20307D01*
X127827Y20225D01*
X127812Y20130D01*
X127803Y20022D01*
X127800Y19902D01*
X127200D01*
X127197Y20022D01*
X127188Y20130D01*
X127173Y20225D01*
X127152Y20307D01*
X127126Y20376D01*
X127093Y20433D01*
X127054Y20477D01*
X127009Y20509D01*
X126959Y20528D01*
X126902Y20534D01*
X128098D01*
X128041Y20528D01*
D02*
G37*
G36*
X111814Y20561D02*
X111834Y20511D01*
X111868Y20467D01*
X111916Y20429D01*
X111977Y20397D01*
X112051Y20371D01*
X112139Y20350D01*
X112241Y20335D01*
X112356Y20327D01*
X112485Y20324D01*
Y19724D01*
X112356Y19721D01*
X112241Y19712D01*
X112139Y19697D01*
X112051Y19677D01*
X111977Y19650D01*
X111916Y19618D01*
X111868Y19580D01*
X111834Y19536D01*
X111814Y19486D01*
X111807Y19430D01*
Y20617D01*
X111814Y20561D01*
D02*
G37*
G36*
X98193Y19430D02*
X98186Y19486D01*
X98166Y19536D01*
X98132Y19580D01*
X98084Y19618D01*
X98023Y19650D01*
X97949Y19677D01*
X97860Y19697D01*
X97759Y19712D01*
X97644Y19721D01*
X97515Y19724D01*
Y20324D01*
X97644Y20327D01*
X97759Y20335D01*
X97860Y20350D01*
X97949Y20371D01*
X98023Y20397D01*
X98084Y20429D01*
X98132Y20467D01*
X98166Y20511D01*
X98186Y20561D01*
X98193Y20617D01*
Y19430D01*
D02*
G37*
G36*
X17674Y20686D02*
X17622Y20624D01*
X17596Y20568D01*
X17597Y20519D01*
X17625Y20476D01*
X17679Y20440D01*
X17759Y20411D01*
X17845Y20392D01*
X18125Y20409D01*
X18153Y20420D01*
Y20362D01*
X18160Y20362D01*
X18347Y20358D01*
X18153Y20271D01*
Y19296D01*
X18125Y19308D01*
X18079Y19319D01*
X18015Y19328D01*
X17833Y19343D01*
X17251Y19358D01*
X17060Y19359D01*
Y19775D01*
X16140Y19358D01*
X14933Y20358D01*
X15130Y20365D01*
X15321Y20387D01*
X15506Y20422D01*
X15686Y20471D01*
X15859Y20535D01*
X16027Y20613D01*
X16189Y20705D01*
X16345Y20811D01*
X16495Y20931D01*
X16640Y21065D01*
X17674Y20686D01*
D02*
G37*
G36*
X127803Y19478D02*
X127812Y19370D01*
X127827Y19275D01*
X127848Y19193D01*
X127874Y19124D01*
X127907Y19067D01*
X127946Y19023D01*
X127990Y18991D01*
X128041Y18972D01*
X128098Y18966D01*
X126902D01*
X126959Y18972D01*
X127009Y18991D01*
X127054Y19023D01*
X127093Y19067D01*
X127126Y19124D01*
X127152Y19193D01*
X127173Y19275D01*
X127188Y19370D01*
X127197Y19478D01*
X127200Y19598D01*
X127800D01*
X127803Y19478D01*
D02*
G37*
G36*
X122534Y17402D02*
X122528Y17459D01*
X122509Y17510D01*
X122477Y17554D01*
X122433Y17593D01*
X122376Y17626D01*
X122307Y17652D01*
X122225Y17673D01*
X122130Y17688D01*
X122022Y17697D01*
X121902Y17700D01*
Y18300D01*
X122022Y18303D01*
X122130Y18312D01*
X122225Y18327D01*
X122307Y18348D01*
X122376Y18374D01*
X122433Y18407D01*
X122477Y18446D01*
X122509Y18490D01*
X122528Y18541D01*
X122534Y18598D01*
Y17402D01*
D02*
G37*
G36*
X127651Y17014D02*
X127592Y17034D01*
X127527Y17039D01*
X127457Y17031D01*
X127381Y17008D01*
X127299Y16972D01*
X127211Y16921D01*
X127118Y16856D01*
X127018Y16778D01*
X126913Y16685D01*
X126802Y16578D01*
X126174Y16798D01*
X126289Y16918D01*
X126465Y17127D01*
X126526Y17217D01*
X126569Y17297D01*
X126594Y17367D01*
X126601Y17428D01*
X126591Y17479D01*
X126561Y17520D01*
X126514Y17551D01*
X127651Y17014D01*
D02*
G37*
G36*
X111814Y17805D02*
X111834Y17755D01*
X111868Y17711D01*
X111916Y17673D01*
X111977Y17641D01*
X112051Y17615D01*
X112139Y17594D01*
X112241Y17579D01*
X112356Y17571D01*
X112485Y17568D01*
Y16968D01*
X112356Y16965D01*
X112241Y16956D01*
X112139Y16941D01*
X112051Y16921D01*
X111977Y16894D01*
X111916Y16862D01*
X111868Y16824D01*
X111834Y16780D01*
X111814Y16730D01*
X111807Y16674D01*
Y17861D01*
X111814Y17805D01*
D02*
G37*
G36*
X98193Y16674D02*
X98186Y16730D01*
X98166Y16780D01*
X98132Y16824D01*
X98084Y16862D01*
X98023Y16894D01*
X97949Y16921D01*
X97860Y16941D01*
X97759Y16956D01*
X97644Y16965D01*
X97515Y16968D01*
Y17568D01*
X97644Y17571D01*
X97759Y17579D01*
X97860Y17594D01*
X97949Y17615D01*
X98023Y17641D01*
X98084Y17673D01*
X98132Y17711D01*
X98166Y17755D01*
X98186Y17805D01*
X98193Y17861D01*
Y16674D01*
D02*
G37*
G36*
X95566Y17811D02*
X95585Y17760D01*
X95615Y17715D01*
X95658Y17676D01*
X95713Y17643D01*
X95781Y17616D01*
X95860Y17595D01*
X95952Y17580D01*
X96056Y17571D01*
X96172Y17568D01*
Y16968D01*
X96056Y16965D01*
X95952Y16956D01*
X95860Y16941D01*
X95781Y16920D01*
X95713Y16893D01*
X95658Y16860D01*
X95615Y16821D01*
X95585Y16776D01*
X95566Y16725D01*
X95560Y16668D01*
Y17868D01*
X95566Y17811D01*
D02*
G37*
G36*
X25451Y26931D02*
Y17269D01*
X24752Y16571D01*
X24178D01*
X24080Y16718D01*
Y17093D01*
X24234Y17323D01*
X24288Y17594D01*
Y18185D01*
X24234Y18456D01*
X24080Y18686D01*
Y19062D01*
X24234Y19292D01*
X24288Y19563D01*
Y20154D01*
X24234Y20425D01*
X24218Y20449D01*
X24234Y20473D01*
X24288Y20744D01*
Y21335D01*
X24234Y21606D01*
X24080Y21836D01*
X23850Y21990D01*
X23579Y22043D01*
X18264D01*
X17992Y21990D01*
X17944Y21957D01*
X17321D01*
X17000Y21893D01*
X16930Y21916D01*
X16538Y22200D01*
Y22712D01*
X16282Y23329D01*
X15810Y23802D01*
X15192Y24058D01*
X14524D01*
X13907Y23802D01*
X13475Y23370D01*
X13236Y23342D01*
X12907Y23362D01*
X12849Y23449D01*
X11949Y24349D01*
X11651Y24548D01*
X11300Y24618D01*
X10563D01*
X10356Y25118D01*
X10502Y25264D01*
X10700Y25741D01*
Y26259D01*
X10502Y26736D01*
X10371Y26868D01*
X10340Y26945D01*
X10265Y27022D01*
X10206Y27088D01*
X10157Y27149D01*
X10118Y27206D01*
X10087Y27257D01*
X10064Y27302D01*
X10049Y27338D01*
Y28131D01*
X12469Y30551D01*
X21831D01*
X25451Y26931D01*
D02*
G37*
G36*
X124041Y17028D02*
X123990Y17009D01*
X123946Y16977D01*
X123907Y16933D01*
X123874Y16876D01*
X123848Y16807D01*
X123827Y16725D01*
X123812Y16630D01*
X123803Y16522D01*
X123800Y16402D01*
X123200D01*
X123197Y16522D01*
X123188Y16630D01*
X123173Y16725D01*
X123152Y16807D01*
X123126Y16876D01*
X123093Y16933D01*
X123054Y16977D01*
X123010Y17009D01*
X122959Y17028D01*
X122902Y17034D01*
X124098D01*
X124041Y17028D01*
D02*
G37*
G36*
X23839Y16281D02*
X23852Y16248D01*
X23874Y16218D01*
X23904Y16192D01*
X23943Y16171D01*
X23991Y16153D01*
X24047Y16139D01*
X24112Y16129D01*
X24185Y16123D01*
X24268Y16121D01*
Y15721D01*
X24185Y15719D01*
X24112Y15713D01*
X24047Y15703D01*
X23991Y15690D01*
X23943Y15672D01*
X23904Y15650D01*
X23874Y15624D01*
X23852Y15595D01*
X23839Y15561D01*
X23835Y15524D01*
Y16319D01*
X23839Y16281D01*
D02*
G37*
G36*
X123803Y15978D02*
X123812Y15870D01*
X123827Y15775D01*
X123848Y15693D01*
X123874Y15624D01*
X123907Y15567D01*
X123946Y15523D01*
X123990Y15491D01*
X124041Y15472D01*
X124098Y15466D01*
X122902D01*
X122959Y15472D01*
X123010Y15491D01*
X123054Y15523D01*
X123093Y15567D01*
X123126Y15624D01*
X123152Y15693D01*
X123173Y15775D01*
X123188Y15870D01*
X123197Y15978D01*
X123200Y16098D01*
X123800D01*
X123803Y15978D01*
D02*
G37*
G36*
X23839Y14313D02*
X23852Y14279D01*
X23874Y14250D01*
X23904Y14224D01*
X23943Y14202D01*
X23991Y14184D01*
X24047Y14171D01*
X24112Y14161D01*
X24185Y14155D01*
X24268Y14153D01*
Y13753D01*
X24185Y13751D01*
X24112Y13745D01*
X24047Y13735D01*
X23991Y13721D01*
X23943Y13703D01*
X23904Y13682D01*
X23874Y13656D01*
X23852Y13626D01*
X23839Y13593D01*
X23835Y13555D01*
Y14350D01*
X23839Y14313D01*
D02*
G37*
G36*
X46648Y12374D02*
X46511Y12211D01*
X46455Y12131D01*
X46407Y12053D01*
X46369Y11976D01*
X46339Y11901D01*
X46317Y11827D01*
X46304Y11754D01*
X46300Y11682D01*
X45900D01*
X45896Y11754D01*
X45883Y11827D01*
X45861Y11901D01*
X45831Y11976D01*
X45792Y12053D01*
X45745Y12131D01*
X45689Y12211D01*
X45625Y12291D01*
X45552Y12374D01*
X45470Y12457D01*
X46730D01*
X46648Y12374D01*
D02*
G37*
G36*
X23839Y12344D02*
X23852Y12311D01*
X23874Y12281D01*
X23904Y12255D01*
X23943Y12234D01*
X23991Y12216D01*
X24047Y12202D01*
X24112Y12192D01*
X24185Y12186D01*
X24268Y12184D01*
Y11784D01*
X24185Y11782D01*
X24112Y11776D01*
X24047Y11767D01*
X23991Y11753D01*
X23943Y11735D01*
X23904Y11713D01*
X23874Y11687D01*
X23852Y11658D01*
X23839Y11624D01*
X23835Y11587D01*
Y12382D01*
X23839Y12344D01*
D02*
G37*
G36*
X111814Y12293D02*
X111834Y12244D01*
X111868Y12200D01*
X111916Y12162D01*
X111977Y12129D01*
X112051Y12103D01*
X112139Y12082D01*
X112241Y12068D01*
X112356Y12059D01*
X112485Y12056D01*
Y11456D01*
X112356Y11453D01*
X112241Y11444D01*
X112139Y11429D01*
X112051Y11409D01*
X111977Y11383D01*
X111916Y11350D01*
X111868Y11312D01*
X111834Y11268D01*
X111814Y11218D01*
X111807Y11163D01*
Y12349D01*
X111814Y12293D01*
D02*
G37*
G36*
X122534Y10402D02*
X122528Y10459D01*
X122509Y10509D01*
X122477Y10554D01*
X122433Y10593D01*
X122376Y10626D01*
X122307Y10652D01*
X122225Y10673D01*
X122130Y10688D01*
X122022Y10697D01*
X121902Y10700D01*
Y11300D01*
X122022Y11303D01*
X122130Y11312D01*
X122225Y11327D01*
X122307Y11348D01*
X122376Y11374D01*
X122433Y11407D01*
X122477Y11446D01*
X122509Y11490D01*
X122528Y11541D01*
X122534Y11598D01*
Y10402D01*
D02*
G37*
G36*
X23843Y10159D02*
X23840Y10116D01*
X23846Y10070D01*
X23861Y10019D01*
X23886Y9964D01*
X23920Y9906D01*
X23964Y9843D01*
X24017Y9777D01*
X24150Y9633D01*
X24017Y9200D01*
X23934Y9280D01*
X23791Y9402D01*
X23729Y9445D01*
X23674Y9475D01*
X23626Y9493D01*
X23585Y9499D01*
X23551Y9493D01*
X23523Y9474D01*
X23503Y9444D01*
X23855Y10198D01*
X23843Y10159D01*
D02*
G37*
G36*
X27704Y9846D02*
X27717Y9773D01*
X27739Y9699D01*
X27769Y9624D01*
X27808Y9547D01*
X27855Y9469D01*
X27911Y9390D01*
X27975Y9309D01*
X28048Y9226D01*
X28130Y9143D01*
X26870D01*
X26952Y9226D01*
X27089Y9390D01*
X27145Y9469D01*
X27193Y9547D01*
X27231Y9624D01*
X27261Y9699D01*
X27283Y9773D01*
X27296Y9846D01*
X27300Y9917D01*
X27700D01*
X27704Y9846D01*
D02*
G37*
G36*
X23858Y8316D02*
X23867Y8302D01*
X23882Y8289D01*
X23903Y8278D01*
X23930Y8269D01*
X23963Y8261D01*
X24001Y8255D01*
X24046Y8251D01*
X24153Y8247D01*
Y7847D01*
X24096Y7846D01*
X24001Y7840D01*
X23963Y7834D01*
X23930Y7826D01*
X23903Y7817D01*
X23882Y7806D01*
X23867Y7793D01*
X23858Y7778D01*
X23855Y7762D01*
Y8332D01*
X23858Y8316D01*
D02*
G37*
G36*
X126360Y9067D02*
X126981Y8522D01*
X127039Y8489D01*
X127118Y8455D01*
X127189Y8437D01*
X127252Y8437D01*
X127305Y8453D01*
X127351Y8486D01*
X127220Y8355D01*
X127243Y8341D01*
X127343Y8290D01*
X127428Y8260D01*
X127500Y8250D01*
X126750Y7500D01*
X126740Y7572D01*
X126710Y7657D01*
X126659Y7757D01*
X126645Y7779D01*
X126514Y7649D01*
X126547Y7694D01*
X126563Y7748D01*
X126563Y7811D01*
X126546Y7882D01*
X126512Y7961D01*
X126476Y8023D01*
X126256Y8291D01*
X125933Y8640D01*
X125741Y8835D01*
X126165Y9259D01*
X126360Y9067D01*
D02*
G37*
G36*
X122534Y6902D02*
X122528Y6959D01*
X122509Y7010D01*
X122477Y7054D01*
X122433Y7093D01*
X122376Y7126D01*
X122307Y7152D01*
X122225Y7173D01*
X122130Y7188D01*
X122022Y7197D01*
X121902Y7200D01*
Y7800D01*
X122022Y7803D01*
X122130Y7812D01*
X122225Y7827D01*
X122307Y7848D01*
X122376Y7874D01*
X122433Y7907D01*
X122477Y7946D01*
X122509Y7991D01*
X122528Y8041D01*
X122534Y8098D01*
Y6902D01*
D02*
G37*
G36*
X30191Y7100D02*
X30074Y7099D01*
X29862Y7081D01*
X29766Y7064D01*
X29677Y7042D01*
X29595Y7015D01*
X29521Y6983D01*
X29453Y6946D01*
X29393Y6904D01*
X29339Y6856D01*
X29056Y7139D01*
X29104Y7193D01*
X29146Y7253D01*
X29183Y7321D01*
X29215Y7395D01*
X29242Y7477D01*
X29264Y7566D01*
X29281Y7661D01*
X29292Y7764D01*
X29299Y7874D01*
X29300Y7991D01*
X30191Y7100D01*
D02*
G37*
G36*
X111814Y6782D02*
X111834Y6732D01*
X111868Y6688D01*
X111916Y6650D01*
X111977Y6617D01*
X112051Y6591D01*
X112139Y6571D01*
X112241Y6556D01*
X112356Y6547D01*
X112485Y6544D01*
Y5944D01*
X112356Y5941D01*
X112241Y5932D01*
X112139Y5918D01*
X112051Y5897D01*
X111977Y5871D01*
X111916Y5838D01*
X111868Y5800D01*
X111834Y5756D01*
X111814Y5706D01*
X111807Y5651D01*
Y6837D01*
X111814Y6782D01*
D02*
G37*
G36*
X128296Y4875D02*
X126704D01*
X126713Y4884D01*
X126721Y4912D01*
X126728Y4958D01*
X126734Y5023D01*
X126748Y5467D01*
X126750Y5800D01*
X128250D01*
X128296Y4875D01*
D02*
G37*
G36*
X11492Y20440D02*
X11551Y20351D01*
X12693Y19209D01*
X12764Y19162D01*
X12741Y19060D01*
X12555Y18700D01*
X12141D01*
X11664Y18502D01*
X11298Y18136D01*
X11100Y17659D01*
Y17141D01*
X11298Y16664D01*
X11664Y16298D01*
X12141Y16100D01*
X12659D01*
X13136Y16298D01*
X13502Y16664D01*
X13700Y17141D01*
Y17659D01*
X13502Y18136D01*
X13174Y18464D01*
X13193Y18622D01*
X13342Y18941D01*
X16137D01*
X16180Y18927D01*
X16206Y18941D01*
X17023D01*
X17058Y18926D01*
X17244Y18925D01*
X17320Y18923D01*
X17595Y18478D01*
X17601Y18416D01*
X17555Y18185D01*
Y17594D01*
X17609Y17323D01*
X17763Y17093D01*
Y16718D01*
X17609Y16488D01*
X17555Y16217D01*
Y15626D01*
X17609Y15355D01*
X17763Y15125D01*
Y14749D01*
X17609Y14519D01*
X17555Y14248D01*
Y13657D01*
X17609Y13386D01*
X17763Y13156D01*
Y12781D01*
X17609Y12551D01*
X17555Y12280D01*
Y11689D01*
X17609Y11418D01*
X17763Y11188D01*
Y10812D01*
X17609Y10582D01*
X17555Y10311D01*
Y9720D01*
X17609Y9449D01*
X17763Y9219D01*
Y8844D01*
X17609Y8614D01*
X17555Y8343D01*
Y7752D01*
X17609Y7481D01*
X17763Y7251D01*
Y6875D01*
X17609Y6645D01*
X17555Y6374D01*
Y5784D01*
X17609Y5512D01*
X17763Y5282D01*
Y5219D01*
X17323Y4760D01*
X16559D01*
X12759Y8559D01*
X12300Y8749D01*
X9169D01*
X8049Y9869D01*
Y18531D01*
X9413Y19895D01*
X9449Y19910D01*
X9497Y19926D01*
X9555Y19940D01*
X9617Y19951D01*
X9795Y19966D01*
X9896Y19967D01*
X9973Y20000D01*
X10159D01*
X10636Y20198D01*
X10913Y20475D01*
X10919Y20477D01*
X11342Y20478D01*
X11492Y20440D01*
D02*
G37*
G36*
X50103Y5353D02*
X50114Y5311D01*
X50132Y5265D01*
X50157Y5216D01*
X50190Y5163D01*
X50230Y5106D01*
X50333Y4982D01*
X50395Y4914D01*
X50464Y4843D01*
X49757Y4135D01*
X49686Y4205D01*
X49494Y4370D01*
X49437Y4410D01*
X49384Y4443D01*
X49335Y4468D01*
X49289Y4486D01*
X49247Y4497D01*
X49209Y4500D01*
X50100Y5391D01*
X50103Y5353D01*
D02*
G37*
G36*
X11709Y4649D02*
X11674Y4643D01*
X11635Y4631D01*
X11592Y4611D01*
X11545Y4583D01*
X11494Y4549D01*
X11439Y4507D01*
X11316Y4403D01*
X11279Y4368D01*
X11130Y4194D01*
X11090Y4137D01*
X11057Y4084D01*
X11032Y4035D01*
X11014Y3989D01*
X11003Y3947D01*
X11000Y3909D01*
X10109Y4800D01*
X10147Y4803D01*
X10189Y4814D01*
X10235Y4832D01*
X10284Y4857D01*
X10337Y4890D01*
X10394Y4930D01*
X10514Y5029D01*
X10587Y5113D01*
X10634Y5174D01*
X10672Y5232D01*
X10703Y5286D01*
X10727Y5336D01*
X10742Y5384D01*
X10750Y5427D01*
X10751Y5468D01*
X11709Y4649D01*
D02*
G37*
G36*
X18008Y3713D02*
X18003Y3750D01*
X17990Y3784D01*
X17969Y3813D01*
X17938Y3839D01*
X17899Y3861D01*
X17852Y3879D01*
X17796Y3892D01*
X17731Y3902D01*
X17657Y3908D01*
X17575Y3910D01*
Y4310D01*
X17657Y4312D01*
X17731Y4318D01*
X17796Y4328D01*
X17852Y4342D01*
X17899Y4360D01*
X17938Y4381D01*
X17969Y4407D01*
X17990Y4437D01*
X18003Y4470D01*
X18008Y4508D01*
Y3713D01*
D02*
G37*
G36*
X111814Y4026D02*
X111834Y3976D01*
X111868Y3932D01*
X111916Y3894D01*
X111977Y3861D01*
X112051Y3835D01*
X112139Y3815D01*
X112241Y3800D01*
X112356Y3791D01*
X112485Y3788D01*
Y3188D01*
X112356Y3185D01*
X112241Y3176D01*
X112139Y3162D01*
X112051Y3141D01*
X111977Y3115D01*
X111916Y3083D01*
X111868Y3045D01*
X111834Y3001D01*
X111814Y2951D01*
X111807Y2895D01*
Y4081D01*
X111814Y4026D01*
D02*
G37*
G36*
X18153Y1839D02*
X18589Y1642D01*
X18402Y1639D01*
X18242Y1629D01*
X18153Y1618D01*
Y1580D01*
X18125Y1592D01*
X18079Y1602D01*
X18068Y1604D01*
X18001Y1589D01*
X17921Y1560D01*
X17866Y1524D01*
X17839Y1481D01*
X17838Y1432D01*
X17864Y1376D01*
X17916Y1314D01*
X16882Y935D01*
X16737Y1069D01*
X16587Y1189D01*
X16431Y1295D01*
X16269Y1387D01*
X16101Y1465D01*
X15927Y1529D01*
X15748Y1578D01*
X15563Y1613D01*
X15371Y1635D01*
X15174Y1642D01*
X16382Y2642D01*
X17060Y2334D01*
Y2641D01*
X17251Y2642D01*
X18125Y2692D01*
X18153Y2704D01*
Y1839D01*
D02*
G37*
G36*
X119891Y2500D02*
X119853Y2497D01*
X119811Y2486D01*
X119765Y2468D01*
X119716Y2443D01*
X119663Y2410D01*
X119606Y2370D01*
X119482Y2267D01*
X119414Y2205D01*
X119343Y2135D01*
X118635Y2843D01*
X118705Y2914D01*
X118870Y3106D01*
X118910Y3163D01*
X118943Y3216D01*
X118968Y3265D01*
X118986Y3311D01*
X118997Y3353D01*
X119000Y3391D01*
X119891Y2500D01*
D02*
G37*
G36*
X111725Y1437D02*
X111815Y1394D01*
X111914Y1356D01*
X112022Y1323D01*
X112139Y1296D01*
X112266Y1273D01*
X112547Y1242D01*
X112701Y1235D01*
X112864Y1232D01*
Y232D01*
X112701Y230D01*
X112266Y192D01*
X112139Y169D01*
X112022Y141D01*
X111914Y108D01*
X111815Y70D01*
X111725Y27D01*
X111645Y-21D01*
Y1486D01*
X111725Y1437D01*
D02*
G37*
G36*
X123351Y-486D02*
X123305Y-453D01*
X123251Y-437D01*
X123189Y-437D01*
X123118Y-454D01*
X123039Y-489D01*
X122951Y-539D01*
X122855Y-607D01*
X122750Y-691D01*
X122515Y-910D01*
X122090Y-485D01*
X122208Y-364D01*
X122393Y-145D01*
X122461Y-49D01*
X122511Y39D01*
X122546Y118D01*
X122563Y189D01*
X122563Y252D01*
X122547Y305D01*
X122514Y351D01*
X123351Y-486D01*
D02*
G37*
G36*
X7072Y605D02*
X7109Y583D01*
X7154Y564D01*
X7207Y547D01*
X7268Y532D01*
X7336Y521D01*
X7497Y505D01*
X7589Y501D01*
X7688Y500D01*
Y-500D01*
X7589Y-501D01*
X7336Y-521D01*
X7268Y-532D01*
X7207Y-547D01*
X7154Y-564D01*
X7109Y-583D01*
X7072Y-605D01*
X7043Y-630D01*
Y630D01*
X7072Y605D01*
D02*
G37*
G36*
X5757Y-630D02*
X5728Y-605D01*
X5691Y-583D01*
X5646Y-564D01*
X5593Y-547D01*
X5532Y-532D01*
X5464Y-521D01*
X5303Y-505D01*
X5211Y-501D01*
X5112Y-500D01*
Y500D01*
X5211Y501D01*
X5464Y521D01*
X5532Y532D01*
X5593Y547D01*
X5646Y564D01*
X5691Y583D01*
X5728Y605D01*
X5757Y630D01*
Y-630D01*
D02*
G37*
G36*
X4472Y605D02*
X4509Y583D01*
X4554Y564D01*
X4607Y547D01*
X4668Y532D01*
X4736Y521D01*
X4897Y505D01*
X4989Y501D01*
X5088Y500D01*
Y-500D01*
X4989Y-501D01*
X4736Y-521D01*
X4668Y-532D01*
X4607Y-547D01*
X4554Y-564D01*
X4509Y-583D01*
X4472Y-605D01*
X4443Y-630D01*
Y630D01*
X4472Y605D01*
D02*
G37*
G36*
X2565Y557D02*
X2510Y501D01*
X2550Y501D01*
X2611Y501D01*
X2864Y521D01*
X2932Y532D01*
X2993Y547D01*
X3046Y564D01*
X3091Y583D01*
X3128Y605D01*
X3157Y630D01*
Y-630D01*
X3128Y-605D01*
X3091Y-583D01*
X3046Y-564D01*
X2993Y-547D01*
X2932Y-532D01*
X2864Y-521D01*
X2703Y-505D01*
X2611Y-501D01*
X2550Y-501D01*
X2489Y-501D01*
X2236Y-521D01*
X2168Y-532D01*
X2107Y-547D01*
X2054Y-564D01*
X2009Y-583D01*
X1972Y-605D01*
X1943Y-630D01*
Y266D01*
X1309Y900D01*
X1347Y903D01*
X1389Y914D01*
X1435Y932D01*
X1484Y957D01*
X1537Y990D01*
X1594Y1030D01*
X1718Y1133D01*
X1786Y1195D01*
X1857Y1264D01*
X2565Y557D01*
D02*
G37*
G36*
X657Y-630D02*
X628Y-605D01*
X591Y-583D01*
X546Y-564D01*
X493Y-547D01*
X432Y-532D01*
X364Y-521D01*
X203Y-505D01*
X111Y-501D01*
X12Y-500D01*
Y500D01*
X111Y501D01*
X364Y521D01*
X432Y532D01*
X493Y547D01*
X546Y564D01*
X591Y583D01*
X628Y605D01*
X657Y630D01*
Y-630D01*
D02*
G37*
G36*
X-628Y605D02*
X-591Y583D01*
X-546Y564D01*
X-493Y547D01*
X-432Y532D01*
X-364Y521D01*
X-203Y505D01*
X-111Y501D01*
X-12Y500D01*
Y-500D01*
X-111Y-501D01*
X-364Y-521D01*
X-432Y-532D01*
X-493Y-547D01*
X-546Y-564D01*
X-591Y-583D01*
X-628Y-605D01*
X-657Y-630D01*
Y630D01*
X-628Y605D01*
D02*
G37*
G36*
X37014Y-5D02*
X37206Y-170D01*
X37263Y-210D01*
X37316Y-243D01*
X37365Y-268D01*
X37411Y-286D01*
X37453Y-297D01*
X37491Y-300D01*
X36600Y-1191D01*
X36597Y-1153D01*
X36586Y-1111D01*
X36568Y-1065D01*
X36543Y-1016D01*
X36510Y-963D01*
X36470Y-906D01*
X36367Y-782D01*
X36305Y-714D01*
X36235Y-643D01*
X36943Y65D01*
X37014Y-5D01*
D02*
G37*
G36*
X38403Y-1247D02*
X38414Y-1289D01*
X38432Y-1335D01*
X38457Y-1384D01*
X38490Y-1437D01*
X38530Y-1494D01*
X38633Y-1618D01*
X38695Y-1686D01*
X38765Y-1757D01*
X38057Y-2465D01*
X37986Y-2395D01*
X37794Y-2230D01*
X37737Y-2190D01*
X37684Y-2157D01*
X37635Y-2132D01*
X37589Y-2114D01*
X37547Y-2103D01*
X37509Y-2100D01*
X38400Y-1209D01*
X38403Y-1247D01*
D02*
G37*
G36*
X111869Y-1523D02*
X111894Y-1574D01*
X111931Y-1633D01*
X111980Y-1702D01*
X112113Y-1865D01*
X112294Y-2063D01*
X112522Y-2297D01*
X112294Y-2919D01*
X112188Y-2816D01*
X112006Y-2668D01*
X111930Y-2622D01*
X111865Y-2594D01*
X111809Y-2585D01*
X111764Y-2594D01*
X111728Y-2622D01*
X111703Y-2668D01*
X111688Y-2733D01*
X111856Y-1481D01*
X111869Y-1523D01*
D02*
G37*
G36*
X39105Y-2097D02*
X39421Y-2378D01*
X39454Y-2400D01*
X39482Y-2415D01*
X39503Y-2423D01*
X38427Y-3079D01*
X38433Y-3038D01*
X38431Y-2994D01*
X38420Y-2947D01*
X38401Y-2896D01*
X38373Y-2842D01*
X38337Y-2784D01*
X38293Y-2723D01*
X38241Y-2658D01*
X38112Y-2519D01*
X39033Y-2025D01*
X39105Y-2097D01*
D02*
G37*
G36*
X47591Y-3200D02*
X47474Y-3201D01*
X47262Y-3219D01*
X47166Y-3236D01*
X47077Y-3258D01*
X46995Y-3285D01*
X46921Y-3317D01*
X46853Y-3354D01*
X46793Y-3396D01*
X46739Y-3444D01*
X46456Y-3161D01*
X46504Y-3107D01*
X46546Y-3047D01*
X46583Y-2979D01*
X46615Y-2905D01*
X46642Y-2823D01*
X46664Y-2734D01*
X46681Y-2639D01*
X46692Y-2536D01*
X46699Y-2426D01*
X46700Y-2309D01*
X47591Y-3200D01*
D02*
G37*
G36*
X111814Y-4242D02*
X111834Y-4292D01*
X111868Y-4336D01*
X111916Y-4374D01*
X111977Y-4406D01*
X112051Y-4433D01*
X112139Y-4453D01*
X112241Y-4468D01*
X112356Y-4477D01*
X112485Y-4479D01*
Y-5080D01*
X112356Y-5082D01*
X112241Y-5091D01*
X112139Y-5106D01*
X112051Y-5126D01*
X111977Y-5153D01*
X111916Y-5185D01*
X111868Y-5223D01*
X111834Y-5267D01*
X111814Y-5317D01*
X111807Y-5373D01*
Y-4186D01*
X111814Y-4242D01*
D02*
G37*
G36*
X84359Y-5615D02*
X84222Y-5779D01*
X84166Y-5858D01*
X84118Y-5936D01*
X84080Y-6013D01*
X84050Y-6088D01*
X84028Y-6162D01*
X84015Y-6235D01*
X84011Y-6306D01*
X83611D01*
X83607Y-6235D01*
X83594Y-6162D01*
X83572Y-6088D01*
X83542Y-6013D01*
X83504Y-5936D01*
X83456Y-5858D01*
X83400Y-5779D01*
X83336Y-5698D01*
X83263Y-5615D01*
X83181Y-5532D01*
X84441D01*
X84359Y-5615D01*
D02*
G37*
G36*
X87509Y-5615D02*
X87371Y-5779D01*
X87315Y-5858D01*
X87268Y-5936D01*
X87229Y-6013D01*
X87199Y-6088D01*
X87178Y-6162D01*
X87165Y-6235D01*
X87161Y-6306D01*
X86761D01*
X86756Y-6235D01*
X86743Y-6162D01*
X86722Y-6088D01*
X86692Y-6013D01*
X86653Y-5936D01*
X86606Y-5858D01*
X86550Y-5779D01*
X86485Y-5698D01*
X86412Y-5615D01*
X86331Y-5532D01*
X87591D01*
X87509Y-5615D01*
D02*
G37*
G36*
X82784Y-7263D02*
X82647Y-7426D01*
X82591Y-7505D01*
X82544Y-7583D01*
X82505Y-7660D01*
X82475Y-7736D01*
X82453Y-7810D01*
X82441Y-7882D01*
X82436Y-7954D01*
X82036D01*
X82032Y-7882D01*
X82019Y-7810D01*
X81998Y-7736D01*
X81967Y-7660D01*
X81929Y-7583D01*
X81881Y-7505D01*
X81826Y-7426D01*
X81761Y-7345D01*
X81688Y-7263D01*
X81606Y-7179D01*
X82866D01*
X82784Y-7263D01*
D02*
G37*
G36*
X85934Y-7263D02*
X85796Y-7426D01*
X85741Y-7505D01*
X85693Y-7583D01*
X85655Y-7660D01*
X85624Y-7736D01*
X85603Y-7810D01*
X85590Y-7882D01*
X85586Y-7954D01*
X85186D01*
X85181Y-7882D01*
X85169Y-7810D01*
X85147Y-7736D01*
X85117Y-7660D01*
X85078Y-7583D01*
X85031Y-7505D01*
X84975Y-7426D01*
X84911Y-7345D01*
X84838Y-7263D01*
X84756Y-7179D01*
X86016D01*
X85934Y-7263D01*
D02*
G37*
G36*
X88816Y-11367D02*
X88795Y-11278D01*
X88767Y-11199D01*
X88733Y-11129D01*
X88693Y-11068D01*
X88646Y-11017D01*
X88592Y-10975D01*
X88532Y-10942D01*
X88465Y-10919D01*
X88391Y-10905D01*
X88311Y-10900D01*
X88594Y-10500D01*
X88652Y-10498D01*
X88787Y-10485D01*
X88946Y-10458D01*
X89233Y-10394D01*
X89455Y-10334D01*
X88816Y-11367D01*
D02*
G37*
G36*
X126636Y-11708D02*
X126855Y-11893D01*
X126951Y-11961D01*
X127039Y-12011D01*
X127118Y-12045D01*
X127189Y-12063D01*
X127252Y-12063D01*
X127305Y-12047D01*
X127351Y-12014D01*
X126514Y-12851D01*
X126547Y-12806D01*
X126563Y-12752D01*
X126563Y-12689D01*
X126546Y-12618D01*
X126512Y-12539D01*
X126461Y-12451D01*
X126393Y-12355D01*
X126309Y-12250D01*
X126090Y-12015D01*
X126515Y-11590D01*
X126636Y-11708D01*
D02*
G37*
G36*
X132392Y-12460D02*
X132401Y-12510D01*
X132420Y-12555D01*
X132450Y-12593D01*
X132490Y-12626D01*
X132540Y-12653D01*
X132601Y-12673D01*
X132672Y-12688D01*
X132754Y-12697D01*
X132846Y-12700D01*
X132606Y-13300D01*
X131577Y-13197D01*
X131500Y-13134D01*
X132394Y-12404D01*
X132392Y-12460D01*
D02*
G37*
G36*
X128472Y-12459D02*
X128491Y-12509D01*
X128523Y-12554D01*
X128567Y-12593D01*
X128624Y-12626D01*
X128693Y-12652D01*
X128775Y-12673D01*
X128870Y-12688D01*
X128978Y-12697D01*
X129098Y-12700D01*
Y-13300D01*
X128978Y-13303D01*
X128870Y-13312D01*
X128775Y-13327D01*
X128693Y-13348D01*
X128624Y-13374D01*
X128567Y-13407D01*
X128523Y-13446D01*
X128491Y-13490D01*
X128472Y-13541D01*
X128466Y-13598D01*
Y-12402D01*
X128472Y-12459D01*
D02*
G37*
G36*
X130488Y-12638D02*
X130510Y-12626D01*
X130550Y-12593D01*
X130580Y-12555D01*
X130599Y-12510D01*
X130608Y-12460D01*
X130606Y-12404D01*
X131500Y-13134D01*
X131423Y-13197D01*
X130478Y-13292D01*
X130474Y-13600D01*
X130469Y-13543D01*
X130451Y-13492D01*
X130421Y-13447D01*
X130378Y-13408D01*
X130323Y-13375D01*
X130256Y-13348D01*
X130176Y-13327D01*
X130084Y-13312D01*
X129979Y-13303D01*
X129862Y-13300D01*
Y-12700D01*
X129981Y-12697D01*
X130087Y-12688D01*
X130181Y-12673D01*
X130262Y-12652D01*
X130332Y-12625D01*
X130388Y-12593D01*
X130432Y-12554D01*
X130464Y-12509D01*
X130484Y-12458D01*
X130491Y-12402D01*
X130488Y-12638D01*
D02*
G37*
G36*
X135743Y-16272D02*
X135692Y-16291D01*
X135647Y-16321D01*
X135608Y-16364D01*
X135575Y-16419D01*
X135548Y-16487D01*
X135527Y-16566D01*
X135512Y-16658D01*
X135503Y-16762D01*
X135500Y-16878D01*
X134900D01*
X134897Y-16762D01*
X134888Y-16658D01*
X134873Y-16566D01*
X134852Y-16487D01*
X134825Y-16419D01*
X134792Y-16364D01*
X134753Y-16321D01*
X134708Y-16291D01*
X134657Y-16272D01*
X134600Y-16266D01*
X135800D01*
X135743Y-16272D01*
D02*
G37*
G36*
X82005Y-17423D02*
X82020Y-17609D01*
X82044Y-17773D01*
X82079Y-17915D01*
X82123Y-18036D01*
X82178Y-18134D01*
X82242Y-18211D01*
X82316Y-18265D01*
X82400Y-18298D01*
X82493Y-18309D01*
X80507D01*
X80600Y-18298D01*
X80684Y-18265D01*
X80758Y-18211D01*
X80822Y-18134D01*
X80877Y-18036D01*
X80921Y-17915D01*
X80956Y-17773D01*
X80980Y-17609D01*
X80995Y-17423D01*
X81000Y-17215D01*
X82000D01*
X82005Y-17423D01*
D02*
G37*
G36*
X23204Y-19354D02*
X23217Y-19427D01*
X23239Y-19501D01*
X23269Y-19576D01*
X23307Y-19653D01*
X23355Y-19731D01*
X23411Y-19811D01*
X23475Y-19891D01*
X23548Y-19974D01*
X23630Y-20057D01*
X22370D01*
X22452Y-19974D01*
X22589Y-19811D01*
X22645Y-19731D01*
X22693Y-19653D01*
X22731Y-19576D01*
X22761Y-19501D01*
X22783Y-19427D01*
X22796Y-19354D01*
X22800Y-19283D01*
X23200D01*
X23204Y-19354D01*
D02*
G37*
G36*
X29283Y-20201D02*
X29632Y-20226D01*
X29576Y-20268D01*
X29453Y-20371D01*
X29568Y-20486D01*
X29539Y-20464D01*
X29504Y-20453D01*
X29463Y-20452D01*
X29418Y-20462D01*
X29368Y-20483D01*
X29312Y-20514D01*
X29252Y-20556D01*
X29186Y-20608D01*
X29114Y-20671D01*
X29038Y-20745D01*
X29006Y-20713D01*
X28470Y-20747D01*
X28525Y-20686D01*
X28568Y-20625D01*
X28598Y-20564D01*
X28617Y-20504D01*
X28623Y-20443D01*
X28616Y-20383D01*
X28598Y-20323D01*
X28568Y-20263D01*
X28525Y-20203D01*
X28470Y-20143D01*
X28991Y-20180D01*
X29017Y-20132D01*
X29038Y-20082D01*
X29048Y-20037D01*
X29047Y-19996D01*
X29036Y-19962D01*
X29014Y-19932D01*
X29283Y-20201D01*
D02*
G37*
G36*
X72209Y-18495D02*
X72578Y-18808D01*
X72741Y-18922D01*
X72889Y-19008D01*
X73024Y-19066D01*
X73143Y-19096D01*
X73249Y-19097D01*
X73340Y-19070D01*
X73417Y-19014D01*
X72014Y-20417D01*
X72070Y-20340D01*
X72097Y-20249D01*
X72096Y-20143D01*
X72066Y-20024D01*
X72008Y-19889D01*
X71922Y-19741D01*
X71808Y-19578D01*
X71665Y-19400D01*
X71295Y-19002D01*
X72002Y-18295D01*
X72209Y-18495D01*
D02*
G37*
G36*
X26362Y-20490D02*
X26328Y-20502D01*
X26298Y-20523D01*
X26272Y-20551D01*
X26250Y-20589D01*
X26232Y-20634D01*
X26218Y-20687D01*
X26208Y-20749D01*
X26202Y-20819D01*
X26200Y-20898D01*
X25800D01*
X25798Y-20819D01*
X25792Y-20749D01*
X25782Y-20687D01*
X25768Y-20634D01*
X25750Y-20589D01*
X25728Y-20551D01*
X25702Y-20523D01*
X25672Y-20502D01*
X25638Y-20490D01*
X25600Y-20486D01*
X26400D01*
X26362Y-20490D01*
D02*
G37*
G36*
X105310Y-20960D02*
X105236Y-20920D01*
X105140Y-20884D01*
X105022Y-20853D01*
X104882Y-20825D01*
X104536Y-20784D01*
X104102Y-20758D01*
X103580Y-20750D01*
Y-19250D01*
X103852Y-19248D01*
X104882Y-19174D01*
X105022Y-19147D01*
X105140Y-19116D01*
X105236Y-19080D01*
X105310Y-19040D01*
Y-20960D01*
D02*
G37*
G36*
X97356Y-19186D02*
X97428Y-19200D01*
X97533Y-19212D01*
X98044Y-19238D01*
X99180Y-19250D01*
Y-20750D01*
X98873Y-20757D01*
X98600Y-20780D01*
X98362Y-20818D01*
X98158Y-20870D01*
X97990Y-20937D01*
X97856Y-21020D01*
X97757Y-21117D01*
X97693Y-21230D01*
X97663Y-21358D01*
X97668Y-21500D01*
X97316Y-19172D01*
X97356Y-19186D01*
D02*
G37*
G36*
X123436Y-20644D02*
X123456Y-20695D01*
X123488Y-20739D01*
X123533Y-20778D01*
X123591Y-20811D01*
X123661Y-20837D01*
X123745Y-20858D01*
X123841Y-20873D01*
X123951Y-20882D01*
X124073Y-20885D01*
Y-21485D01*
X123951Y-21488D01*
X123841Y-21497D01*
X123745Y-21512D01*
X123661Y-21533D01*
X123591Y-21560D01*
X123533Y-21592D01*
X123488Y-21631D01*
X123456Y-21676D01*
X123436Y-21726D01*
X123430Y-21783D01*
Y-20587D01*
X123436Y-20644D01*
D02*
G37*
G36*
X120570Y-21783D02*
X120564Y-21726D01*
X120545Y-21676D01*
X120512Y-21631D01*
X120467Y-21592D01*
X120409Y-21560D01*
X120339Y-21533D01*
X120255Y-21512D01*
X120159Y-21497D01*
X120049Y-21488D01*
X119927Y-21485D01*
Y-20885D01*
X120049Y-20882D01*
X120159Y-20873D01*
X120255Y-20858D01*
X120339Y-20837D01*
X120409Y-20811D01*
X120467Y-20778D01*
X120512Y-20739D01*
X120545Y-20695D01*
X120564Y-20644D01*
X120570Y-20587D01*
Y-21783D01*
D02*
G37*
G36*
X26202Y-21681D02*
X26208Y-21751D01*
X26218Y-21813D01*
X26232Y-21866D01*
X26250Y-21911D01*
X26272Y-21948D01*
X26298Y-21977D01*
X26328Y-21998D01*
X26362Y-22010D01*
X26400Y-22014D01*
X25600D01*
X25638Y-22010D01*
X25672Y-21998D01*
X25702Y-21977D01*
X25728Y-21948D01*
X25750Y-21911D01*
X25768Y-21866D01*
X25782Y-21813D01*
X25792Y-21751D01*
X25798Y-21681D01*
X25800Y-21602D01*
X26200D01*
X26202Y-21681D01*
D02*
G37*
G36*
X86610Y-21643D02*
X86618Y-21698D01*
X86633Y-21753D01*
X86653Y-21808D01*
X86680Y-21865D01*
X86712Y-21921D01*
X86751Y-21979D01*
X86795Y-22037D01*
X86846Y-22096D01*
X86902Y-22155D01*
Y-22720D01*
X86844Y-22666D01*
X86793Y-22623D01*
X86747Y-22591D01*
X86707Y-22572D01*
X86673Y-22565D01*
X86646Y-22569D01*
X86624Y-22586D01*
X86608Y-22614D01*
X86599Y-22654D01*
X86595Y-22706D01*
X86607Y-21589D01*
X86610Y-21643D01*
D02*
G37*
G36*
X118379Y-22546D02*
X118322Y-22607D01*
X118271Y-22672D01*
X118227Y-22739D01*
X118188Y-22811D01*
X118156Y-22885D01*
X118130Y-22963D01*
X118109Y-23044D01*
X118095Y-23128D01*
X118087Y-23215D01*
X118085Y-23306D01*
X117194Y-22415D01*
X117285Y-22413D01*
X117372Y-22405D01*
X117456Y-22391D01*
X117537Y-22370D01*
X117615Y-22344D01*
X117689Y-22312D01*
X117761Y-22273D01*
X117828Y-22229D01*
X117893Y-22178D01*
X117954Y-22121D01*
X118379Y-22546D01*
D02*
G37*
G36*
X95910Y-23062D02*
X96240Y-23136D01*
X96451Y-23202D01*
X96544Y-23260D01*
X96518Y-23310D01*
X96373Y-23353D01*
X96109Y-23388D01*
X95727Y-23415D01*
X93866Y-23450D01*
X93820Y-21950D01*
X94149Y-21942D01*
X94438Y-21920D01*
X94688Y-21882D01*
X94899Y-21830D01*
X95070Y-21763D01*
X95201Y-21680D01*
X95293Y-21583D01*
X95346Y-21470D01*
X95358Y-21342D01*
X95332Y-21200D01*
X95910Y-23062D01*
D02*
G37*
G36*
X78044Y-23327D02*
X78027Y-23336D01*
X78011Y-23352D01*
X77997Y-23374D01*
X77986Y-23403D01*
X77977Y-23438D01*
X77969Y-23479D01*
X77964Y-23526D01*
X77960Y-23640D01*
X77560D01*
X77559Y-23580D01*
X77551Y-23479D01*
X77543Y-23438D01*
X77534Y-23403D01*
X77522Y-23374D01*
X77509Y-23352D01*
X77493Y-23336D01*
X77475Y-23327D01*
X77456Y-23324D01*
X78064D01*
X78044Y-23327D01*
D02*
G37*
G36*
X37909Y-22459D02*
X38369Y-22649D01*
X52331D01*
X52791Y-22459D01*
X53265Y-21985D01*
X53656Y-22215D01*
X53700Y-22257D01*
Y-22759D01*
X53898Y-23236D01*
X54012Y-23351D01*
X53805Y-23851D01*
X36738D01*
X36702Y-23836D01*
X36657Y-23813D01*
X36606Y-23783D01*
X36554Y-23746D01*
X36418Y-23631D01*
X36345Y-23560D01*
X36268Y-23529D01*
X36136Y-23398D01*
X35659Y-23200D01*
X35141D01*
X34664Y-23398D01*
X34298Y-23764D01*
X34100Y-24241D01*
Y-24759D01*
X34298Y-25236D01*
X34412Y-25351D01*
X34205Y-25851D01*
X31388D01*
X31348Y-25649D01*
X31149Y-25351D01*
X30851Y-25152D01*
X30500Y-25082D01*
X29500D01*
X29399Y-25102D01*
X28935Y-24750D01*
X29399Y-24398D01*
X29500Y-24418D01*
X30500D01*
X30851Y-24348D01*
X30923Y-24300D01*
X31359D01*
X31836Y-24102D01*
X32202Y-23736D01*
X32400Y-23259D01*
Y-22741D01*
X32202Y-22264D01*
X31836Y-21898D01*
X31359Y-21700D01*
X30923D01*
X30851Y-21652D01*
X30500Y-21582D01*
X29862D01*
X29628Y-21082D01*
X29766Y-20918D01*
X30500D01*
X30851Y-20848D01*
X31149Y-20649D01*
X31348Y-20351D01*
X31418Y-20000D01*
Y-19000D01*
X31348Y-18649D01*
X31149Y-18351D01*
X31146Y-18349D01*
X31298Y-17849D01*
X33300D01*
X37909Y-22459D01*
D02*
G37*
G36*
X103573Y-21183D02*
X104086Y-21191D01*
X104498Y-21215D01*
X104815Y-21253D01*
X104925Y-21275D01*
X105008Y-21297D01*
X105057Y-21315D01*
X105104Y-21341D01*
X105144Y-21345D01*
X105149Y-21348D01*
X105250Y-21368D01*
X105310Y-21393D01*
X105331Y-21384D01*
X105500Y-21418D01*
X106500D01*
X106851Y-21348D01*
X107351Y-21615D01*
Y-25885D01*
X106851Y-26152D01*
X106500Y-26082D01*
X105500D01*
X105317Y-26119D01*
X105286Y-26108D01*
X104197Y-26168D01*
X104166Y-26182D01*
X98700D01*
X98349Y-26252D01*
X98051Y-26451D01*
X94860Y-29642D01*
X94562Y-29574D01*
X94345Y-29450D01*
X94283Y-29141D01*
X94064Y-28813D01*
X93737Y-28594D01*
X93350Y-28518D01*
X92169D01*
X92156Y-28520D01*
X92111Y-28509D01*
X92026Y-28520D01*
X91967Y-28521D01*
X91906Y-28514D01*
X91840Y-28498D01*
X91768Y-28472D01*
X91690Y-28434D01*
X91605Y-28384D01*
X91515Y-28319D01*
X91419Y-28240D01*
X91310Y-28137D01*
X91276Y-28123D01*
X90756Y-27604D01*
X90912Y-27265D01*
X91009Y-27149D01*
X91462D01*
X91498Y-27164D01*
X91543Y-27187D01*
X91594Y-27218D01*
X91646Y-27254D01*
X91782Y-27369D01*
X91855Y-27440D01*
X91932Y-27471D01*
X92064Y-27602D01*
X92541Y-27800D01*
X93059D01*
X93536Y-27602D01*
X93902Y-27236D01*
X94100Y-26759D01*
Y-26241D01*
X93902Y-25764D01*
X93536Y-25398D01*
X93059Y-25200D01*
X92541D01*
X92064Y-25398D01*
X91932Y-25529D01*
X91855Y-25560D01*
X91778Y-25635D01*
X91712Y-25694D01*
X91651Y-25743D01*
X91594Y-25782D01*
X91543Y-25813D01*
X91498Y-25836D01*
X91462Y-25851D01*
X91234D01*
X89398Y-24015D01*
X89717Y-23626D01*
X89951Y-23783D01*
X90400Y-23873D01*
X93847D01*
X93874Y-23883D01*
X94426Y-23873D01*
X95934D01*
X96241Y-24000D01*
X96759D01*
X97236Y-23802D01*
X97602Y-23436D01*
X97668Y-23278D01*
X97805Y-23187D01*
X98024Y-22859D01*
X98101Y-22472D01*
Y-21486D01*
X98101Y-21484D01*
X98101Y-21468D01*
Y-21389D01*
X98103Y-21384D01*
X98125Y-21363D01*
X98185Y-21326D01*
X98293Y-21282D01*
X98450Y-21242D01*
X98651Y-21210D01*
X98896Y-21190D01*
X99191Y-21183D01*
X99214Y-21172D01*
X103549D01*
X103573Y-21183D01*
D02*
G37*
G36*
X66501Y-23511D02*
X66521Y-23764D01*
X66532Y-23832D01*
X66547Y-23893D01*
X66564Y-23946D01*
X66583Y-23991D01*
X66605Y-24028D01*
X66630Y-24057D01*
X65370D01*
X65395Y-24028D01*
X65417Y-23991D01*
X65436Y-23946D01*
X65453Y-23893D01*
X65468Y-23832D01*
X65479Y-23764D01*
X65495Y-23603D01*
X65499Y-23511D01*
X65500Y-23412D01*
X66500D01*
X66501Y-23511D01*
D02*
G37*
G36*
X82212Y-23317D02*
X82168Y-23341D01*
X82128Y-23380D01*
X82094Y-23436D01*
X82065Y-23507D01*
X82042Y-23594D01*
X82024Y-23697D01*
X82011Y-23815D01*
X82000Y-24100D01*
X81000D01*
X80997Y-23950D01*
X80976Y-23697D01*
X80958Y-23594D01*
X80935Y-23507D01*
X80906Y-23436D01*
X80872Y-23380D01*
X80832Y-23341D01*
X80788Y-23317D01*
X80738Y-23309D01*
X82262D01*
X82212Y-23317D01*
D02*
G37*
G36*
X63001Y-23611D02*
X63021Y-23864D01*
X63033Y-23932D01*
X63047Y-23993D01*
X63064Y-24046D01*
X63083Y-24091D01*
X63105Y-24128D01*
X63130Y-24157D01*
X61870D01*
X61895Y-24128D01*
X61917Y-24091D01*
X61936Y-24046D01*
X61953Y-23993D01*
X61967Y-23932D01*
X61979Y-23864D01*
X61995Y-23703D01*
X61999Y-23611D01*
X62000Y-23512D01*
X63000D01*
X63001Y-23611D01*
D02*
G37*
G36*
X72014Y-24400D02*
X72010Y-24362D01*
X71998Y-24328D01*
X71977Y-24298D01*
X71948Y-24272D01*
X71911Y-24250D01*
X71866Y-24232D01*
X71813Y-24218D01*
X71751Y-24208D01*
X71681Y-24202D01*
X71602Y-24200D01*
Y-23800D01*
X71681Y-23798D01*
X71751Y-23792D01*
X71813Y-23782D01*
X71866Y-23768D01*
X71911Y-23750D01*
X71948Y-23728D01*
X71977Y-23702D01*
X71998Y-23672D01*
X72010Y-23638D01*
X72014Y-23600D01*
Y-24400D01*
D02*
G37*
G36*
X70490Y-23638D02*
X70502Y-23672D01*
X70523Y-23702D01*
X70552Y-23728D01*
X70589Y-23750D01*
X70634Y-23768D01*
X70687Y-23782D01*
X70749Y-23792D01*
X70819Y-23798D01*
X70898Y-23800D01*
Y-24200D01*
X70819Y-24202D01*
X70749Y-24208D01*
X70687Y-24218D01*
X70634Y-24232D01*
X70589Y-24250D01*
X70552Y-24272D01*
X70523Y-24298D01*
X70502Y-24328D01*
X70490Y-24362D01*
X70486Y-24400D01*
Y-23600D01*
X70490Y-23638D01*
D02*
G37*
G36*
X127118Y-24049D02*
X127127Y-24158D01*
X127141Y-24255D01*
X127162Y-24338D01*
X127189Y-24409D01*
X127222Y-24467D01*
X127260Y-24512D01*
X127305Y-24544D01*
X127356Y-24563D01*
X127412Y-24570D01*
X126217D01*
X126274Y-24563D01*
X126324Y-24544D01*
X126369Y-24512D01*
X126408Y-24467D01*
X126440Y-24409D01*
X126467Y-24338D01*
X126488Y-24255D01*
X126503Y-24158D01*
X126512Y-24049D01*
X126515Y-23927D01*
X127115D01*
X127118Y-24049D01*
D02*
G37*
G36*
X117485Y-23958D02*
X117815D01*
X117752Y-24024D01*
X117696Y-24091D01*
X117646Y-24161D01*
X117604Y-24233D01*
X117567Y-24306D01*
X117543Y-24367D01*
X117559Y-24409D01*
X117592Y-24467D01*
X117631Y-24512D01*
X117675Y-24544D01*
X117726Y-24563D01*
X117782Y-24570D01*
X117494D01*
X117488Y-24620D01*
X117485Y-24704D01*
X116885D01*
X116881Y-24620D01*
X116875Y-24570D01*
X116587D01*
X116644Y-24563D01*
X116694Y-24544D01*
X116739Y-24512D01*
X116778Y-24467D01*
X116810Y-24409D01*
X116826Y-24367D01*
X116802Y-24306D01*
X116766Y-24233D01*
X116723Y-24161D01*
X116674Y-24091D01*
X116617Y-24024D01*
X116555Y-23958D01*
X116884D01*
X116885Y-23927D01*
X117485D01*
X117485Y-23958D01*
D02*
G37*
G36*
X36126Y-23952D02*
X36290Y-24089D01*
X36369Y-24145D01*
X36447Y-24193D01*
X36524Y-24231D01*
X36599Y-24261D01*
X36674Y-24283D01*
X36746Y-24296D01*
X36817Y-24300D01*
Y-24700D01*
X36746Y-24704D01*
X36674Y-24717D01*
X36599Y-24739D01*
X36524Y-24769D01*
X36447Y-24807D01*
X36369Y-24855D01*
X36290Y-24911D01*
X36209Y-24975D01*
X36126Y-25048D01*
X36043Y-25130D01*
Y-23870D01*
X36126Y-23952D01*
D02*
G37*
G36*
X73362Y-24990D02*
X73328Y-25002D01*
X73298Y-25023D01*
X73272Y-25052D01*
X73250Y-25089D01*
X73232Y-25134D01*
X73218Y-25187D01*
X73208Y-25249D01*
X73202Y-25319D01*
X73200Y-25398D01*
X72800D01*
X72798Y-25319D01*
X72792Y-25249D01*
X72782Y-25187D01*
X72768Y-25134D01*
X72750Y-25089D01*
X72728Y-25052D01*
X72702Y-25023D01*
X72672Y-25002D01*
X72638Y-24990D01*
X72600Y-24986D01*
X73400D01*
X73362Y-24990D01*
D02*
G37*
G36*
X81472Y-24195D02*
X81509Y-24217D01*
X81554Y-24236D01*
X81607Y-24253D01*
X81668Y-24268D01*
X81736Y-24279D01*
X81897Y-24295D01*
X81989Y-24299D01*
X82088Y-24300D01*
Y-25300D01*
X81989Y-25301D01*
X81736Y-25321D01*
X81668Y-25332D01*
X81607Y-25347D01*
X81554Y-25364D01*
X81509Y-25383D01*
X81472Y-25405D01*
X81443Y-25430D01*
Y-24170D01*
X81472Y-24195D01*
D02*
G37*
G36*
X73202Y-26181D02*
X73208Y-26251D01*
X73218Y-26313D01*
X73232Y-26366D01*
X73250Y-26411D01*
X73272Y-26449D01*
X73298Y-26477D01*
X73328Y-26498D01*
X73362Y-26510D01*
X73400Y-26514D01*
X72600D01*
X72638Y-26510D01*
X72672Y-26498D01*
X72702Y-26477D01*
X72728Y-26449D01*
X72750Y-26411D01*
X72768Y-26366D01*
X72782Y-26313D01*
X72792Y-26251D01*
X72798Y-26181D01*
X72800Y-26102D01*
X73200D01*
X73202Y-26181D01*
D02*
G37*
G36*
X110785Y-24906D02*
X110725Y-24973D01*
X110672Y-25054D01*
X110627Y-25148D01*
X110588Y-25256D01*
X110556Y-25377D01*
X110532Y-25512D01*
X110514Y-25660D01*
X110509Y-25738D01*
X110532Y-25988D01*
X110556Y-26123D01*
X110588Y-26244D01*
X110627Y-26352D01*
X110672Y-26446D01*
X110725Y-26527D01*
X110785Y-26594D01*
X110852Y-26648D01*
X109148D01*
X109215Y-26594D01*
X109275Y-26527D01*
X109328Y-26446D01*
X109373Y-26352D01*
X109412Y-26244D01*
X109444Y-26123D01*
X109468Y-25988D01*
X109486Y-25840D01*
X109491Y-25762D01*
X109468Y-25512D01*
X109444Y-25377D01*
X109412Y-25256D01*
X109373Y-25148D01*
X109328Y-25054D01*
X109275Y-24973D01*
X109215Y-24906D01*
X109148Y-24852D01*
X110852D01*
X110785Y-24906D01*
D02*
G37*
G36*
X30990Y-26138D02*
X31002Y-26172D01*
X31023Y-26202D01*
X31051Y-26228D01*
X31089Y-26250D01*
X31134Y-26268D01*
X31187Y-26282D01*
X31249Y-26292D01*
X31319Y-26298D01*
X31398Y-26300D01*
Y-26700D01*
X31319Y-26702D01*
X31249Y-26708D01*
X31187Y-26718D01*
X31134Y-26732D01*
X31089Y-26750D01*
X31051Y-26772D01*
X31023Y-26798D01*
X31002Y-26828D01*
X30990Y-26862D01*
X30986Y-26900D01*
Y-26100D01*
X30990Y-26138D01*
D02*
G37*
G36*
X92157Y-27130D02*
X92074Y-27048D01*
X91910Y-26911D01*
X91831Y-26855D01*
X91753Y-26807D01*
X91676Y-26769D01*
X91601Y-26739D01*
X91527Y-26717D01*
X91454Y-26704D01*
X91382Y-26700D01*
Y-26300D01*
X91454Y-26296D01*
X91527Y-26283D01*
X91601Y-26261D01*
X91676Y-26231D01*
X91753Y-26193D01*
X91831Y-26145D01*
X91910Y-26089D01*
X91991Y-26025D01*
X92074Y-25952D01*
X92157Y-25870D01*
Y-27130D01*
D02*
G37*
G36*
X22593Y-26404D02*
X22653Y-26446D01*
X22721Y-26483D01*
X22795Y-26515D01*
X22877Y-26542D01*
X22966Y-26564D01*
X23061Y-26581D01*
X23164Y-26592D01*
X23274Y-26599D01*
X23391Y-26600D01*
X22500Y-27491D01*
X22499Y-27374D01*
X22481Y-27161D01*
X22464Y-27066D01*
X22442Y-26977D01*
X22415Y-26895D01*
X22383Y-26821D01*
X22346Y-26753D01*
X22304Y-26693D01*
X22256Y-26639D01*
X22539Y-26356D01*
X22593Y-26404D01*
D02*
G37*
G36*
X121673Y-27741D02*
X121553Y-27726D01*
X121433Y-27726D01*
X121312Y-27741D01*
X121190Y-27771D01*
X121068Y-27816D01*
X120945Y-27875D01*
X120821Y-27950D01*
X120696Y-28039D01*
X120571Y-28143D01*
X120444Y-28262D01*
X119737Y-27555D01*
X119856Y-27429D01*
X119961Y-27304D01*
X120050Y-27179D01*
X120124Y-27055D01*
X120184Y-26932D01*
X120229Y-26809D01*
X120258Y-26688D01*
X120273Y-26567D01*
X120273Y-26446D01*
X120258Y-26327D01*
X121673Y-27741D01*
D02*
G37*
G36*
X18768Y-27914D02*
X18707Y-27979D01*
X18655Y-28039D01*
X18613Y-28095D01*
X18581Y-28147D01*
X18558Y-28195D01*
X18545Y-28239D01*
X18541Y-28278D01*
X18548Y-28314D01*
X18563Y-28346D01*
X18589Y-28374D01*
X17983Y-27861D01*
X18014Y-27882D01*
X18049Y-27893D01*
X18088Y-27895D01*
X18131Y-27888D01*
X18178Y-27871D01*
X18228Y-27846D01*
X18282Y-27811D01*
X18339Y-27767D01*
X18401Y-27714D01*
X18466Y-27652D01*
X18768Y-27914D01*
D02*
G37*
G36*
X26362Y-27490D02*
X26328Y-27502D01*
X26298Y-27523D01*
X26272Y-27551D01*
X26250Y-27589D01*
X26232Y-27634D01*
X26218Y-27687D01*
X26208Y-27749D01*
X26202Y-27819D01*
X26200Y-27898D01*
X25800D01*
X25798Y-27819D01*
X25792Y-27749D01*
X25782Y-27687D01*
X25768Y-27634D01*
X25750Y-27589D01*
X25728Y-27551D01*
X25702Y-27523D01*
X25672Y-27502D01*
X25638Y-27490D01*
X25600Y-27486D01*
X26400D01*
X26362Y-27490D01*
D02*
G37*
G36*
X127356Y-27436D02*
X127305Y-27455D01*
X127260Y-27487D01*
X127222Y-27532D01*
X127189Y-27590D01*
X127162Y-27661D01*
X127141Y-27745D01*
X127127Y-27841D01*
X127118Y-27950D01*
X127115Y-28073D01*
X126515D01*
X126512Y-27950D01*
X126503Y-27841D01*
X126488Y-27745D01*
X126467Y-27661D01*
X126440Y-27590D01*
X126408Y-27532D01*
X126369Y-27487D01*
X126324Y-27455D01*
X126274Y-27436D01*
X126217Y-27430D01*
X127412D01*
X127356Y-27436D01*
D02*
G37*
G36*
X105034Y-28098D02*
X105040Y-28003D01*
X105021Y-27918D01*
X104978Y-27844D01*
X104911Y-27779D01*
X104820Y-27724D01*
X104705Y-27680D01*
X104566Y-27645D01*
X104402Y-27620D01*
X104214Y-27605D01*
X104002Y-27600D01*
X104220Y-26600D01*
X105310Y-26540D01*
X105034Y-28098D01*
D02*
G37*
G36*
X67657Y-28130D02*
X67628Y-28105D01*
X67591Y-28083D01*
X67546Y-28064D01*
X67493Y-28047D01*
X67432Y-28032D01*
X67364Y-28021D01*
X67203Y-28005D01*
X67111Y-28001D01*
X67012Y-28000D01*
Y-27000D01*
X67111Y-26999D01*
X67364Y-26979D01*
X67432Y-26967D01*
X67493Y-26953D01*
X67546Y-26936D01*
X67591Y-26917D01*
X67628Y-26895D01*
X67657Y-26870D01*
Y-28130D01*
D02*
G37*
G36*
X26202Y-28681D02*
X26208Y-28751D01*
X26218Y-28813D01*
X26232Y-28866D01*
X26250Y-28911D01*
X26272Y-28949D01*
X26298Y-28977D01*
X26328Y-28998D01*
X26362Y-29010D01*
X26400Y-29014D01*
X25600D01*
X25638Y-29010D01*
X25672Y-28998D01*
X25702Y-28977D01*
X25728Y-28949D01*
X25750Y-28911D01*
X25768Y-28866D01*
X25782Y-28813D01*
X25792Y-28751D01*
X25798Y-28681D01*
X25800Y-28602D01*
X26200D01*
X26202Y-28681D01*
D02*
G37*
G36*
X110930Y-27160D02*
X110903Y-27251D01*
X110904Y-27357D01*
X110934Y-27476D01*
X110992Y-27611D01*
X111078Y-27759D01*
X111192Y-27922D01*
X111335Y-28100D01*
X111705Y-28498D01*
X110998Y-29205D01*
X110791Y-29006D01*
X110422Y-28692D01*
X110259Y-28578D01*
X110111Y-28492D01*
X109976Y-28434D01*
X109857Y-28404D01*
X109751Y-28403D01*
X109660Y-28430D01*
X109583Y-28486D01*
X110986Y-27083D01*
X110930Y-27160D01*
D02*
G37*
G36*
X34226Y-28152D02*
X34389Y-28289D01*
X34469Y-28345D01*
X34547Y-28392D01*
X34624Y-28431D01*
X34699Y-28461D01*
X34773Y-28483D01*
X34846Y-28496D01*
X34918Y-28500D01*
Y-28900D01*
X34846Y-28904D01*
X34773Y-28917D01*
X34699Y-28939D01*
X34624Y-28969D01*
X34547Y-29008D01*
X34469Y-29055D01*
X34389Y-29111D01*
X34309Y-29175D01*
X34226Y-29248D01*
X34143Y-29330D01*
Y-28070D01*
X34226Y-28152D01*
D02*
G37*
G36*
X80133Y-29448D02*
X80352Y-29467D01*
X80639Y-29474D01*
Y-30974D01*
X80352Y-30982D01*
X80133Y-31001D01*
Y-31724D01*
X80118Y-31582D01*
X80072Y-31454D01*
X79997Y-31342D01*
X79891Y-31244D01*
X79755Y-31162D01*
X79630Y-31111D01*
X79505Y-31162D01*
X79369Y-31244D01*
X79263Y-31342D01*
X79188Y-31454D01*
X79142Y-31582D01*
X79127Y-31724D01*
Y-31001D01*
X78908Y-30982D01*
X78621Y-30974D01*
Y-29474D01*
X78908Y-29467D01*
X79127Y-29448D01*
Y-28724D01*
X79142Y-28867D01*
X79188Y-28994D01*
X79263Y-29107D01*
X79369Y-29204D01*
X79505Y-29287D01*
X79630Y-29338D01*
X79755Y-29287D01*
X79891Y-29204D01*
X79997Y-29107D01*
X80072Y-28994D01*
X80118Y-28867D01*
X80133Y-28724D01*
Y-29448D01*
D02*
G37*
G36*
X29114Y-28829D02*
X29252Y-28944D01*
X29312Y-28986D01*
X29368Y-29017D01*
X29418Y-29038D01*
X29463Y-29048D01*
X29504Y-29047D01*
X29539Y-29036D01*
X29568Y-29014D01*
X29014Y-29568D01*
X29036Y-29539D01*
X29047Y-29504D01*
X29048Y-29463D01*
X29038Y-29418D01*
X29017Y-29368D01*
X28986Y-29312D01*
X28944Y-29252D01*
X28892Y-29186D01*
X28829Y-29114D01*
X28755Y-29038D01*
X29038Y-28755D01*
X29114Y-28829D01*
D02*
G37*
G36*
X87533Y-30854D02*
X87449Y-30773D01*
X87286Y-30635D01*
X87207Y-30579D01*
X87128Y-30532D01*
X87052Y-30493D01*
X86976Y-30463D01*
X86902Y-30442D01*
X86860Y-30434D01*
X86809Y-30442D01*
X86756Y-30456D01*
X86710Y-30474D01*
X86673Y-30496D01*
X86644Y-30522D01*
X86624Y-30552D01*
X86611Y-30586D01*
X86607Y-30624D01*
Y-29824D01*
X86611Y-29862D01*
X86624Y-29896D01*
X86644Y-29926D01*
X86673Y-29952D01*
X86710Y-29974D01*
X86756Y-29992D01*
X86809Y-30006D01*
X86860Y-30015D01*
X86902Y-30007D01*
X86976Y-29986D01*
X87052Y-29956D01*
X87128Y-29917D01*
X87207Y-29870D01*
X87286Y-29814D01*
X87367Y-29749D01*
X87449Y-29676D01*
X87533Y-29594D01*
Y-30854D01*
D02*
G37*
G36*
X74245Y-30538D02*
X74171Y-30614D01*
X74056Y-30751D01*
X74014Y-30812D01*
X73983Y-30868D01*
X73962Y-30918D01*
X73952Y-30964D01*
X73953Y-31004D01*
X73964Y-31038D01*
X73986Y-31068D01*
X73432Y-30514D01*
X73462Y-30536D01*
X73496Y-30547D01*
X73536Y-30548D01*
X73582Y-30538D01*
X73632Y-30517D01*
X73688Y-30486D01*
X73748Y-30444D01*
X73814Y-30392D01*
X73886Y-30329D01*
X73962Y-30255D01*
X74245Y-30538D01*
D02*
G37*
G36*
X53146Y-28561D02*
X53020Y-28705D01*
X52908Y-28870D01*
X52809Y-29057D01*
X52724Y-29266D01*
X52653Y-29496D01*
X52595Y-29749D01*
X52551Y-30023D01*
X52520Y-30318D01*
X52500Y-30975D01*
X50025Y-28500D01*
X50364Y-28497D01*
X50977Y-28449D01*
X51251Y-28405D01*
X51504Y-28347D01*
X51734Y-28276D01*
X51943Y-28191D01*
X52130Y-28092D01*
X52296Y-27980D01*
X52439Y-27854D01*
X53146Y-28561D01*
D02*
G37*
G36*
X91132Y-28564D02*
X91250Y-28662D01*
X91368Y-28746D01*
X91485Y-28816D01*
X91601Y-28872D01*
X91716Y-28913D01*
X91830Y-28941D01*
X91944Y-28954D01*
X92057Y-28953D01*
X92169Y-28938D01*
X91591Y-31139D01*
X91610Y-31026D01*
X91609Y-30907D01*
X91587Y-30781D01*
X91546Y-30649D01*
X91484Y-30510D01*
X91402Y-30366D01*
X91300Y-30215D01*
X91177Y-30058D01*
X91035Y-29895D01*
X90872Y-29725D01*
X91013Y-28451D01*
X91132Y-28564D01*
D02*
G37*
G36*
X30362Y-30990D02*
X30328Y-31002D01*
X30298Y-31023D01*
X30272Y-31051D01*
X30250Y-31089D01*
X30232Y-31134D01*
X30218Y-31187D01*
X30208Y-31249D01*
X30202Y-31319D01*
X30200Y-31398D01*
X29800D01*
X29798Y-31319D01*
X29792Y-31249D01*
X29782Y-31187D01*
X29768Y-31134D01*
X29750Y-31089D01*
X29728Y-31051D01*
X29702Y-31023D01*
X29672Y-31002D01*
X29638Y-30990D01*
X29600Y-30986D01*
X30400D01*
X30362Y-30990D01*
D02*
G37*
G36*
X123436Y-30274D02*
X123456Y-30325D01*
X123488Y-30369D01*
X123533Y-30408D01*
X123591Y-30441D01*
X123661Y-30467D01*
X123745Y-30488D01*
X123841Y-30503D01*
X123951Y-30512D01*
X124073Y-30515D01*
Y-31115D01*
X123951Y-31118D01*
X123841Y-31127D01*
X123745Y-31142D01*
X123661Y-31163D01*
X123591Y-31189D01*
X123533Y-31222D01*
X123488Y-31261D01*
X123456Y-31306D01*
X123436Y-31356D01*
X123430Y-31413D01*
Y-30217D01*
X123436Y-30274D01*
D02*
G37*
G36*
X108141Y-30641D02*
X108021Y-30764D01*
X107664Y-31177D01*
X107606Y-31260D01*
X107561Y-31336D01*
X107528Y-31403D01*
X107508Y-31463D01*
X107500Y-31515D01*
X106985Y-31000D01*
X107037Y-30992D01*
X107097Y-30972D01*
X107164Y-30939D01*
X107240Y-30894D01*
X107323Y-30836D01*
X107513Y-30683D01*
X107736Y-30479D01*
X107859Y-30359D01*
X108141Y-30641D01*
D02*
G37*
G36*
X93938Y-30038D02*
X93967Y-30115D01*
X94015Y-30183D01*
X94083Y-30242D01*
X94170Y-30292D01*
X94276Y-30333D01*
X94402Y-30365D01*
X94547Y-30387D01*
X94711Y-30401D01*
X94894Y-30406D01*
Y-31405D01*
X94711Y-31410D01*
X94547Y-31424D01*
X94402Y-31446D01*
X94276Y-31478D01*
X94170Y-31519D01*
X94083Y-31569D01*
X94015Y-31628D01*
X93967Y-31696D01*
X93938Y-31773D01*
X93928Y-31860D01*
Y-29951D01*
X93938Y-30038D01*
D02*
G37*
G36*
X4020Y-31798D02*
X3979Y-31807D01*
X3949Y-31822D01*
X3932Y-31842D01*
X3926Y-31869D01*
X3932Y-31901D01*
X3949Y-31940D01*
X3979Y-31984D01*
X4020Y-32034D01*
X4073Y-32090D01*
X3507D01*
X3449Y-32034D01*
X3333Y-31940D01*
X3275Y-31901D01*
X3218Y-31869D01*
X3162Y-31842D01*
X3106Y-31822D01*
X3051Y-31807D01*
X2996Y-31798D01*
X2942Y-31795D01*
X4073D01*
X4020Y-31798D01*
D02*
G37*
G36*
X104191Y-32155D02*
X104163Y-32125D01*
X104127Y-32099D01*
X104083Y-32076D01*
X104031Y-32056D01*
X103971Y-32039D01*
X103904Y-32025D01*
X103828Y-32014D01*
X103653Y-32002D01*
X103554Y-32000D01*
X103689Y-31000D01*
X103790Y-30999D01*
X104111Y-30976D01*
X104171Y-30965D01*
X104223Y-30952D01*
X104267Y-30938D01*
X104303Y-30921D01*
X104331Y-30902D01*
X104191Y-32155D01*
D02*
G37*
G36*
X109148Y-32352D02*
X109094Y-32285D01*
X109027Y-32225D01*
X108946Y-32172D01*
X108852Y-32127D01*
X108744Y-32088D01*
X108623Y-32056D01*
X108488Y-32032D01*
X108340Y-32014D01*
X108178Y-32004D01*
X108002Y-32000D01*
Y-31000D01*
X108178Y-30997D01*
X108488Y-30968D01*
X108623Y-30944D01*
X108744Y-30912D01*
X108852Y-30873D01*
X108946Y-30828D01*
X109027Y-30775D01*
X109094Y-30715D01*
X109148Y-30648D01*
Y-32352D01*
D02*
G37*
G36*
X101417Y-30595D02*
X101446Y-30680D01*
X101495Y-30755D01*
X101565Y-30820D01*
X101656Y-30875D01*
X101768Y-30920D01*
X101900Y-30955D01*
X102053Y-30980D01*
X102226Y-30995D01*
X102421Y-31000D01*
Y-32000D01*
X102222Y-32005D01*
X102044Y-32020D01*
X101887Y-32045D01*
X101751Y-32080D01*
X101635Y-32124D01*
X101540Y-32179D01*
X101465Y-32244D01*
X101411Y-32318D01*
X101378Y-32403D01*
X101366Y-32498D01*
X101409Y-30500D01*
X101417Y-30595D01*
D02*
G37*
G36*
X30202Y-32181D02*
X30208Y-32251D01*
X30218Y-32313D01*
X30232Y-32366D01*
X30250Y-32411D01*
X30272Y-32449D01*
X30298Y-32477D01*
X30328Y-32498D01*
X30362Y-32510D01*
X30400Y-32514D01*
X29600D01*
X29638Y-32510D01*
X29672Y-32498D01*
X29702Y-32477D01*
X29728Y-32449D01*
X29750Y-32411D01*
X29768Y-32366D01*
X29782Y-32313D01*
X29792Y-32251D01*
X29798Y-32181D01*
X29800Y-32102D01*
X30200D01*
X30202Y-32181D01*
D02*
G37*
G36*
X30212Y-33288D02*
X29788D01*
X29790Y-33280D01*
X29792Y-33260D01*
X29796Y-33184D01*
X29800Y-32676D01*
X30200D01*
X30212Y-33288D01*
D02*
G37*
G36*
X24357Y-34130D02*
X24274Y-34048D01*
X24111Y-33911D01*
X24031Y-33855D01*
X23953Y-33808D01*
X23876Y-33769D01*
X23801Y-33739D01*
X23727Y-33717D01*
X23654Y-33704D01*
X23583Y-33700D01*
Y-33300D01*
X23654Y-33296D01*
X23727Y-33283D01*
X23801Y-33261D01*
X23876Y-33231D01*
X23953Y-33193D01*
X24031Y-33145D01*
X24111Y-33089D01*
X24191Y-33025D01*
X24274Y-32952D01*
X24357Y-32870D01*
Y-34130D01*
D02*
G37*
G36*
X78713Y-32732D02*
X78630Y-32761D01*
X78522Y-32820D01*
X78390Y-32910D01*
X78234Y-33029D01*
X77848Y-33358D01*
X76785Y-34376D01*
X75472Y-33568D01*
X75773Y-33255D01*
X76237Y-32708D01*
X76399Y-32472D01*
X76515Y-32263D01*
X76583Y-32078D01*
X76606Y-31920D01*
X76581Y-31787D01*
X76510Y-31680D01*
X76393Y-31598D01*
X78713Y-32732D01*
D02*
G37*
G36*
X30541Y-34472D02*
X30490Y-34491D01*
X30446Y-34523D01*
X30407Y-34567D01*
X30374Y-34624D01*
X30348Y-34693D01*
X30327Y-34775D01*
X30312Y-34870D01*
X30303Y-34977D01*
X30300Y-35098D01*
X29700D01*
X29697Y-34977D01*
X29688Y-34870D01*
X29673Y-34775D01*
X29652Y-34693D01*
X29626Y-34624D01*
X29593Y-34567D01*
X29554Y-34523D01*
X29509Y-34491D01*
X29459Y-34472D01*
X29402Y-34466D01*
X30598D01*
X30541Y-34472D01*
D02*
G37*
G36*
X7889Y-36230D02*
X7805Y-36148D01*
X7642Y-36011D01*
X7563Y-35955D01*
X7484Y-35908D01*
X7407Y-35869D01*
X7332Y-35839D01*
X7258Y-35817D01*
X7185Y-35804D01*
X7114Y-35800D01*
Y-35400D01*
X7185Y-35396D01*
X7258Y-35383D01*
X7332Y-35361D01*
X7407Y-35331D01*
X7484Y-35293D01*
X7563Y-35245D01*
X7642Y-35189D01*
X7723Y-35125D01*
X7805Y-35052D01*
X7889Y-34970D01*
Y-36230D01*
D02*
G37*
G36*
X12391Y-36500D02*
X12274Y-36501D01*
X12061Y-36519D01*
X11966Y-36536D01*
X11877Y-36558D01*
X11795Y-36585D01*
X11721Y-36617D01*
X11653Y-36654D01*
X11593Y-36696D01*
X11539Y-36744D01*
X11256Y-36461D01*
X11304Y-36407D01*
X11346Y-36347D01*
X11383Y-36279D01*
X11415Y-36205D01*
X11442Y-36123D01*
X11464Y-36034D01*
X11481Y-35939D01*
X11492Y-35836D01*
X11499Y-35726D01*
X11500Y-35609D01*
X12391Y-36500D01*
D02*
G37*
G36*
X30314Y-37180D02*
X30358Y-37354D01*
X30430Y-37541D01*
X30532Y-37742D01*
X30663Y-37955D01*
X30822Y-38181D01*
X31010Y-38420D01*
X31475Y-38937D01*
X31750Y-39215D01*
X28250D01*
X28526Y-38937D01*
X29178Y-38181D01*
X29337Y-37955D01*
X29468Y-37742D01*
X29570Y-37541D01*
X29642Y-37354D01*
X29686Y-37180D01*
X29700Y-37018D01*
X30300D01*
X30314Y-37180D01*
D02*
G37*
G36*
X22501Y-41416D02*
X22575Y-42412D01*
X22622Y-42685D01*
X22680Y-42928D01*
X22750Y-43141D01*
X22831Y-43325D01*
X22924Y-43479D01*
X23028Y-43604D01*
X22603Y-44028D01*
X22479Y-43924D01*
X22325Y-43831D01*
X22141Y-43750D01*
X21928Y-43680D01*
X21685Y-43622D01*
X21412Y-43575D01*
X21110Y-43539D01*
X20416Y-43501D01*
X20025Y-43500D01*
X22500Y-41025D01*
X22501Y-41416D01*
D02*
G37*
%LPC*%
G36*
X103959Y45100D02*
X103441D01*
X102964Y44902D01*
X102598Y44536D01*
X102400Y44059D01*
Y43541D01*
X102494Y43314D01*
X102070Y43031D01*
X101781Y43321D01*
X101119Y43702D01*
X100382Y43900D01*
X99618D01*
X98881Y43702D01*
X98219Y43321D01*
X97679Y42781D01*
X97298Y42119D01*
X97100Y41382D01*
Y40618D01*
X97298Y39881D01*
X97679Y39219D01*
X98219Y38679D01*
X98881Y38298D01*
X99618Y38100D01*
X100382D01*
X101119Y38298D01*
X101781Y38679D01*
X102321Y39219D01*
X102702Y39881D01*
X102900Y40618D01*
Y41382D01*
X102702Y42119D01*
X102521Y42433D01*
X102921Y42740D01*
X102964Y42698D01*
X103441Y42500D01*
X103959D01*
X104436Y42698D01*
X104802Y43064D01*
X105000Y43541D01*
Y44059D01*
X104802Y44536D01*
X104436Y44902D01*
X103959Y45100D01*
D02*
G37*
G36*
X170382Y43900D02*
X169618D01*
X168881Y43702D01*
X168219Y43321D01*
X167679Y42781D01*
X167298Y42119D01*
X167100Y41382D01*
Y40618D01*
X167298Y39881D01*
X167679Y39219D01*
X168219Y38679D01*
X168881Y38298D01*
X169618Y38100D01*
X170382D01*
X171119Y38298D01*
X171781Y38679D01*
X172321Y39219D01*
X172702Y39881D01*
X172900Y40618D01*
Y41382D01*
X172702Y42119D01*
X172321Y42781D01*
X171781Y43321D01*
X171119Y43702D01*
X170382Y43900D01*
D02*
G37*
G36*
X160382D02*
X159618D01*
X158881Y43702D01*
X158219Y43321D01*
X157679Y42781D01*
X157298Y42119D01*
X157100Y41382D01*
Y40618D01*
X157298Y39881D01*
X157679Y39219D01*
X158219Y38679D01*
X158881Y38298D01*
X159618Y38100D01*
X160382D01*
X161119Y38298D01*
X161781Y38679D01*
X162321Y39219D01*
X162702Y39881D01*
X162900Y40618D01*
Y41382D01*
X162702Y42119D01*
X162321Y42781D01*
X161781Y43321D01*
X161119Y43702D01*
X160382Y43900D01*
D02*
G37*
G36*
X150382D02*
X149618D01*
X148881Y43702D01*
X148219Y43321D01*
X147679Y42781D01*
X147298Y42119D01*
X147100Y41382D01*
Y40618D01*
X147298Y39881D01*
X147679Y39219D01*
X148219Y38679D01*
X148881Y38298D01*
X149618Y38100D01*
X150382D01*
X151119Y38298D01*
X151781Y38679D01*
X152321Y39219D01*
X152702Y39881D01*
X152900Y40618D01*
Y41382D01*
X152702Y42119D01*
X152321Y42781D01*
X151781Y43321D01*
X151119Y43702D01*
X150382Y43900D01*
D02*
G37*
G36*
X140382D02*
X139618D01*
X138881Y43702D01*
X138219Y43321D01*
X137679Y42781D01*
X137298Y42119D01*
X137100Y41382D01*
Y40618D01*
X137298Y39881D01*
X137679Y39219D01*
X138219Y38679D01*
X138881Y38298D01*
X139618Y38100D01*
X140382D01*
X141119Y38298D01*
X141781Y38679D01*
X142321Y39219D01*
X142702Y39881D01*
X142900Y40618D01*
Y41382D01*
X142702Y42119D01*
X142321Y42781D01*
X141781Y43321D01*
X141119Y43702D01*
X140382Y43900D01*
D02*
G37*
G36*
X130382D02*
X129618D01*
X128881Y43702D01*
X128219Y43321D01*
X127679Y42781D01*
X127298Y42119D01*
X127100Y41382D01*
Y40618D01*
X127298Y39881D01*
X127679Y39219D01*
X128219Y38679D01*
X128881Y38298D01*
X129618Y38100D01*
X130382D01*
X131119Y38298D01*
X131781Y38679D01*
X132321Y39219D01*
X132702Y39881D01*
X132900Y40618D01*
Y41382D01*
X132702Y42119D01*
X132321Y42781D01*
X131781Y43321D01*
X131119Y43702D01*
X130382Y43900D01*
D02*
G37*
G36*
X120382D02*
X119618D01*
X118881Y43702D01*
X118219Y43321D01*
X117679Y42781D01*
X117298Y42119D01*
X117100Y41382D01*
Y40618D01*
X117298Y39881D01*
X117679Y39219D01*
X118219Y38679D01*
X118881Y38298D01*
X119618Y38100D01*
X120382D01*
X121119Y38298D01*
X121781Y38679D01*
X122321Y39219D01*
X122702Y39881D01*
X122900Y40618D01*
Y41382D01*
X122702Y42119D01*
X122321Y42781D01*
X121781Y43321D01*
X121119Y43702D01*
X120382Y43900D01*
D02*
G37*
G36*
X110382D02*
X109618D01*
X108881Y43702D01*
X108219Y43321D01*
X107679Y42781D01*
X107298Y42119D01*
X107100Y41382D01*
Y40618D01*
X107298Y39881D01*
X107679Y39219D01*
X108219Y38679D01*
X108881Y38298D01*
X109618Y38100D01*
X110382D01*
X111119Y38298D01*
X111781Y38679D01*
X112321Y39219D01*
X112702Y39881D01*
X112900Y40618D01*
Y41382D01*
X112702Y42119D01*
X112321Y42781D01*
X111781Y43321D01*
X111119Y43702D01*
X110382Y43900D01*
D02*
G37*
G36*
X90382D02*
X89618D01*
X88881Y43702D01*
X88219Y43321D01*
X87679Y42781D01*
X87298Y42119D01*
X87100Y41382D01*
Y40618D01*
X87298Y39881D01*
X87679Y39219D01*
X88219Y38679D01*
X88881Y38298D01*
X89618Y38100D01*
X90382D01*
X91119Y38298D01*
X91781Y38679D01*
X92321Y39219D01*
X92702Y39881D01*
X92900Y40618D01*
Y41382D01*
X92702Y42119D01*
X92321Y42781D01*
X91781Y43321D01*
X91119Y43702D01*
X90382Y43900D01*
D02*
G37*
G36*
X80382D02*
X79618D01*
X78881Y43702D01*
X78219Y43321D01*
X77679Y42781D01*
X77298Y42119D01*
X77100Y41382D01*
Y40618D01*
X77298Y39881D01*
X77679Y39219D01*
X78219Y38679D01*
X78881Y38298D01*
X79618Y38100D01*
X80382D01*
X81119Y38298D01*
X81781Y38679D01*
X82321Y39219D01*
X82702Y39881D01*
X82900Y40618D01*
Y41382D01*
X82702Y42119D01*
X82321Y42781D01*
X81781Y43321D01*
X81119Y43702D01*
X80382Y43900D01*
D02*
G37*
G36*
X70382D02*
X69618D01*
X68881Y43702D01*
X68219Y43321D01*
X67679Y42781D01*
X67298Y42119D01*
X67100Y41382D01*
Y40618D01*
X67298Y39881D01*
X67679Y39219D01*
X68219Y38679D01*
X68881Y38298D01*
X69618Y38100D01*
X70382D01*
X71119Y38298D01*
X71781Y38679D01*
X72321Y39219D01*
X72702Y39881D01*
X72900Y40618D01*
Y41382D01*
X72702Y42119D01*
X72321Y42781D01*
X71781Y43321D01*
X71119Y43702D01*
X70382Y43900D01*
D02*
G37*
G36*
X60382D02*
X59618D01*
X58881Y43702D01*
X58219Y43321D01*
X57679Y42781D01*
X57298Y42119D01*
X57100Y41382D01*
Y40618D01*
X57298Y39881D01*
X57679Y39219D01*
X58219Y38679D01*
X58881Y38298D01*
X59618Y38100D01*
X60382D01*
X61119Y38298D01*
X61781Y38679D01*
X62321Y39219D01*
X62702Y39881D01*
X62900Y40618D01*
Y41382D01*
X62702Y42119D01*
X62321Y42781D01*
X61781Y43321D01*
X61119Y43702D01*
X60382Y43900D01*
D02*
G37*
G36*
X50382D02*
X49618D01*
X48881Y43702D01*
X48219Y43321D01*
X47679Y42781D01*
X47298Y42119D01*
X47100Y41382D01*
Y40618D01*
X47298Y39881D01*
X47679Y39219D01*
X48219Y38679D01*
X48881Y38298D01*
X49618Y38100D01*
X50382D01*
X51119Y38298D01*
X51781Y38679D01*
X52321Y39219D01*
X52702Y39881D01*
X52900Y40618D01*
Y41382D01*
X52702Y42119D01*
X52321Y42781D01*
X51781Y43321D01*
X51119Y43702D01*
X50382Y43900D01*
D02*
G37*
G36*
X40382D02*
X39618D01*
X38881Y43702D01*
X38219Y43321D01*
X37679Y42781D01*
X37298Y42119D01*
X37100Y41382D01*
Y40618D01*
X37298Y39881D01*
X37679Y39219D01*
X38219Y38679D01*
X38881Y38298D01*
X39618Y38100D01*
X40382D01*
X41119Y38298D01*
X41781Y38679D01*
X42321Y39219D01*
X42702Y39881D01*
X42900Y40618D01*
Y41382D01*
X42702Y42119D01*
X42321Y42781D01*
X41781Y43321D01*
X41119Y43702D01*
X40382Y43900D01*
D02*
G37*
G36*
X30382D02*
X29618D01*
X28881Y43702D01*
X28219Y43321D01*
X27679Y42781D01*
X27298Y42119D01*
X27100Y41382D01*
Y40618D01*
X27298Y39881D01*
X27679Y39219D01*
X28219Y38679D01*
X28881Y38298D01*
X29618Y38100D01*
X30382D01*
X31119Y38298D01*
X31781Y38679D01*
X32321Y39219D01*
X32702Y39881D01*
X32900Y40618D01*
Y41382D01*
X32702Y42119D01*
X32321Y42781D01*
X31781Y43321D01*
X31119Y43702D01*
X30382Y43900D01*
D02*
G37*
G36*
X20382D02*
X19618D01*
X18881Y43702D01*
X18219Y43321D01*
X17679Y42781D01*
X17298Y42119D01*
X17100Y41382D01*
Y40618D01*
X17298Y39881D01*
X17679Y39219D01*
X18219Y38679D01*
X18881Y38298D01*
X19618Y38100D01*
X20382D01*
X21119Y38298D01*
X21781Y38679D01*
X22321Y39219D01*
X22702Y39881D01*
X22900Y40618D01*
Y41382D01*
X22702Y42119D01*
X22321Y42781D01*
X21781Y43321D01*
X21119Y43702D01*
X20382Y43900D01*
D02*
G37*
G36*
X10382D02*
X9618D01*
X8881Y43702D01*
X8219Y43321D01*
X7679Y42781D01*
X7298Y42119D01*
X7100Y41382D01*
Y40618D01*
X7298Y39881D01*
X7679Y39219D01*
X8219Y38679D01*
X8881Y38298D01*
X9618Y38100D01*
X10382D01*
X11119Y38298D01*
X11781Y38679D01*
X12321Y39219D01*
X12702Y39881D01*
X12900Y40618D01*
Y41382D01*
X12702Y42119D01*
X12321Y42781D01*
X11781Y43321D01*
X11119Y43702D01*
X10382Y43900D01*
D02*
G37*
G36*
X382D02*
X-382D01*
X-1119Y43702D01*
X-1781Y43321D01*
X-2321Y42781D01*
X-2702Y42119D01*
X-2900Y41382D01*
Y40618D01*
X-2702Y39881D01*
X-2321Y39219D01*
X-1781Y38679D01*
X-1119Y38298D01*
X-382Y38100D01*
X382D01*
X1119Y38298D01*
X1781Y38679D01*
X2321Y39219D01*
X2702Y39881D01*
X2900Y40618D01*
Y41382D01*
X2702Y42119D01*
X2321Y42781D01*
X1781Y43321D01*
X1119Y43702D01*
X382Y43900D01*
D02*
G37*
G36*
X81859Y35700D02*
X81341D01*
X80864Y35502D01*
X80498Y35136D01*
X80300Y34659D01*
Y34141D01*
X80498Y33664D01*
X80864Y33298D01*
X81341Y33100D01*
X81859D01*
X82336Y33298D01*
X82702Y33664D01*
X82900Y34141D01*
Y34659D01*
X82702Y35136D01*
X82336Y35502D01*
X81859Y35700D01*
D02*
G37*
G36*
X87159Y33600D02*
X86641D01*
X86164Y33402D01*
X85798Y33036D01*
X85600Y32559D01*
Y32041D01*
X85798Y31564D01*
X86164Y31198D01*
X86641Y31000D01*
X87159D01*
X87636Y31198D01*
X88002Y31564D01*
X88200Y32041D01*
Y32559D01*
X88002Y33036D01*
X87636Y33402D01*
X87159Y33600D01*
D02*
G37*
G36*
X63597Y33300D02*
X63080D01*
X62602Y33102D01*
X62236Y32736D01*
X62039Y32259D01*
Y31741D01*
X62236Y31264D01*
X62602Y30898D01*
X63080Y30700D01*
X63597D01*
X64075Y30898D01*
X64441Y31264D01*
X64639Y31741D01*
Y32259D01*
X64441Y32736D01*
X64075Y33102D01*
X63597Y33300D01*
D02*
G37*
G36*
X54159Y30200D02*
X53641D01*
X53164Y30002D01*
X52798Y29636D01*
X52721Y29450D01*
X52179D01*
X52102Y29636D01*
X51736Y30002D01*
X51259Y30200D01*
X50741D01*
X50264Y30002D01*
X49898Y29636D01*
X49700Y29159D01*
Y28641D01*
X49898Y28164D01*
X50264Y27798D01*
X50741Y27600D01*
X51259D01*
X51736Y27798D01*
X52102Y28164D01*
X52179Y28350D01*
X52721D01*
X52798Y28164D01*
X53164Y27798D01*
X53641Y27600D01*
X54159D01*
X54636Y27798D01*
X55002Y28164D01*
X55200Y28641D01*
Y29159D01*
X55002Y29636D01*
X54636Y30002D01*
X54159Y30200D01*
D02*
G37*
G36*
X101259Y31900D02*
X100741D01*
X100264Y31702D01*
X99898Y31336D01*
X99700Y30859D01*
Y30341D01*
X99827Y30034D01*
Y28966D01*
X99700Y28659D01*
Y28141D01*
X99898Y27664D01*
X100264Y27298D01*
X100407Y27238D01*
X100308Y26738D01*
X98504D01*
X98194Y26677D01*
X97932Y26501D01*
X97756Y26239D01*
X97695Y25929D01*
Y25142D01*
X97756Y24832D01*
X97932Y24569D01*
X98194Y24394D01*
X98504Y24332D01*
X111496D01*
X111806Y24394D01*
X112068Y24569D01*
X112244Y24832D01*
X112305Y25142D01*
Y25929D01*
X112244Y26239D01*
X112068Y26501D01*
X111806Y26677D01*
X111496Y26738D01*
X101692D01*
X101593Y27238D01*
X101736Y27298D01*
X102102Y27664D01*
X102300Y28141D01*
Y28659D01*
X102173Y28966D01*
Y30034D01*
X102300Y30341D01*
Y30859D01*
X102102Y31336D01*
X101736Y31702D01*
X101259Y31900D01*
D02*
G37*
G36*
X114159Y24500D02*
X113641D01*
X113164Y24302D01*
X112798Y23936D01*
X112600Y23459D01*
Y22941D01*
X112798Y22464D01*
X113164Y22098D01*
X113641Y21900D01*
X114159D01*
X114636Y22098D01*
X115002Y22464D01*
X115200Y22941D01*
Y23459D01*
X115002Y23936D01*
X114636Y24302D01*
X114159Y24500D01*
D02*
G37*
G36*
X151310Y22109D02*
X150367D01*
X149497Y21748D01*
X148831Y21082D01*
X148470Y20211D01*
Y19269D01*
X148831Y18398D01*
X149497Y17732D01*
X150367Y17372D01*
X151310D01*
X152180Y17732D01*
X152847Y18398D01*
X153207Y19269D01*
Y20211D01*
X152847Y21082D01*
X152180Y21748D01*
X151310Y22109D01*
D02*
G37*
G36*
X88259Y24400D02*
X87741D01*
X87264Y24202D01*
X86898Y23836D01*
X86700Y23359D01*
Y22841D01*
X86898Y22364D01*
X87035Y22227D01*
X87211Y21900D01*
X87035Y21573D01*
X86898Y21436D01*
X86700Y20959D01*
Y20441D01*
X86898Y19964D01*
X87264Y19598D01*
X87741Y19400D01*
X88259D01*
X88301Y19418D01*
X88584Y18994D01*
X86595Y17005D01*
X86441Y16773D01*
X86386Y16500D01*
Y9347D01*
X86367Y9306D01*
X86365Y9240D01*
X86359Y9194D01*
X86350Y9150D01*
X86338Y9108D01*
X86321Y9066D01*
X86301Y9025D01*
X86276Y8983D01*
X86245Y8940D01*
X86209Y8896D01*
X86157Y8842D01*
X86128Y8766D01*
X85998Y8636D01*
X85800Y8159D01*
Y7641D01*
X85998Y7164D01*
X86364Y6798D01*
X86430Y6771D01*
Y6229D01*
X86364Y6202D01*
X85998Y5836D01*
X85800Y5359D01*
Y4841D01*
X85998Y4364D01*
X86364Y3998D01*
X86841Y3800D01*
X87359D01*
X87836Y3998D01*
X88202Y4364D01*
X88400Y4841D01*
Y5025D01*
X88433Y5099D01*
X88435Y5175D01*
X88440Y5231D01*
X88449Y5283D01*
X88460Y5330D01*
X88475Y5374D01*
X88493Y5415D01*
X88514Y5454D01*
X88539Y5491D01*
X88567Y5528D01*
X88612Y5576D01*
X88628Y5618D01*
X90305Y7295D01*
X90459Y7527D01*
X90514Y7800D01*
Y15283D01*
X90523Y15287D01*
X90751Y15499D01*
X90835Y15567D01*
X90904Y15616D01*
X91055D01*
X91076Y15607D01*
X91098Y15616D01*
X91132D01*
X91146Y15612D01*
X91152Y15616D01*
X92584D01*
Y18384D01*
X90647D01*
X90456Y18846D01*
X90881Y19272D01*
X90925Y19288D01*
X90926Y19290D01*
X90928Y19291D01*
X91027Y19387D01*
X91113Y19462D01*
X91189Y19522D01*
X91255Y19568D01*
X91309Y19598D01*
X91347Y19616D01*
X92584D01*
Y22384D01*
X89816D01*
Y20729D01*
X89800Y20719D01*
X89311Y20953D01*
X89288Y20988D01*
X89102Y21436D01*
X88965Y21573D01*
X88789Y21900D01*
X88965Y22227D01*
X89102Y22364D01*
X89300Y22841D01*
Y23359D01*
X89102Y23836D01*
X88736Y24202D01*
X88259Y24400D01*
D02*
G37*
G36*
X40759Y19400D02*
X40241D01*
X39764Y19202D01*
X39398Y18836D01*
X39200Y18359D01*
Y17841D01*
X39327Y17534D01*
Y16466D01*
X39200Y16159D01*
Y15641D01*
X39398Y15164D01*
X39764Y14798D01*
X40241Y14600D01*
X40759D01*
X41236Y14798D01*
X41602Y15164D01*
X41800Y15641D01*
Y16159D01*
X41673Y16466D01*
Y17534D01*
X41800Y17841D01*
Y18359D01*
X41602Y18836D01*
X41236Y19202D01*
X40759Y19400D01*
D02*
G37*
G36*
X146592Y12046D02*
X145637D01*
X144755Y11680D01*
X144079Y11005D01*
X143714Y10123D01*
Y9168D01*
X144079Y8286D01*
X144755Y7611D01*
X145637Y7246D01*
X146592D01*
X147474Y7611D01*
X148149Y8286D01*
X148514Y9168D01*
Y10123D01*
X148149Y11005D01*
X147474Y11680D01*
X146592Y12046D01*
D02*
G37*
G36*
X136297Y6869D02*
X131711D01*
X131067Y6741D01*
X130521Y6377D01*
X130156Y5831D01*
X130028Y5187D01*
Y2687D01*
X130156Y2043D01*
X130521Y1497D01*
X131067Y1133D01*
X131711Y1005D01*
X136297D01*
X136941Y1133D01*
X137487Y1497D01*
X137852Y2043D01*
X137980Y2687D01*
Y5187D01*
X137852Y5831D01*
X137487Y6377D01*
X136941Y6741D01*
X136297Y6869D01*
D02*
G37*
G36*
X74621Y-3589D02*
X74104D01*
X73626Y-3787D01*
X73260Y-4153D01*
X73073Y-4605D01*
X73047Y-4639D01*
X72787Y-4788D01*
X72527Y-4639D01*
X72502Y-4605D01*
X72315Y-4153D01*
X71949Y-3787D01*
X71471Y-3589D01*
X70954D01*
X70476Y-3787D01*
X70110Y-4153D01*
X69923Y-4605D01*
X69898Y-4639D01*
X69638Y-4788D01*
X69378Y-4639D01*
X69352Y-4605D01*
X69165Y-4153D01*
X68799Y-3787D01*
X68322Y-3589D01*
X67804D01*
X67327Y-3787D01*
X66961Y-4153D01*
X66763Y-4630D01*
Y-5148D01*
X66961Y-5625D01*
X67327Y-5991D01*
X67804Y-6189D01*
X67876D01*
X68325Y-6275D01*
X68338Y-6651D01*
Y-6795D01*
X68536Y-7273D01*
X68901Y-7638D01*
X69379Y-7836D01*
X69896D01*
X70374Y-7638D01*
X70740Y-7273D01*
X70927Y-6821D01*
X70953Y-6786D01*
X71213Y-6637D01*
X71473Y-6786D01*
X71498Y-6821D01*
X71685Y-7273D01*
X72051Y-7638D01*
X72529Y-7836D01*
X73046D01*
X73524Y-7638D01*
X73889Y-7273D01*
X74077Y-6821D01*
X74102Y-6786D01*
X74362Y-6637D01*
X74622Y-6786D01*
X74648Y-6821D01*
X74835Y-7273D01*
X75201Y-7638D01*
X75678Y-7836D01*
X76196D01*
X76673Y-7638D01*
X77039Y-7273D01*
X77237Y-6795D01*
Y-6278D01*
X77039Y-5800D01*
X76673Y-5434D01*
X76196Y-5236D01*
X76124D01*
X75675Y-5150D01*
X75662Y-4774D01*
Y-4630D01*
X75464Y-4153D01*
X75099Y-3787D01*
X74621Y-3589D01*
D02*
G37*
G36*
X136297Y-1005D02*
X131711D01*
X131067Y-1133D01*
X130521Y-1497D01*
X130156Y-2043D01*
X130028Y-2687D01*
Y-5187D01*
X130156Y-5831D01*
X130521Y-6377D01*
X131067Y-6741D01*
X131711Y-6869D01*
X136297D01*
X136941Y-6741D01*
X137487Y-6377D01*
X137852Y-5831D01*
X137980Y-5187D01*
Y-2687D01*
X137852Y-2043D01*
X137487Y-1497D01*
X136941Y-1133D01*
X136297Y-1005D01*
D02*
G37*
G36*
X49559Y-6700D02*
X49041D01*
X48564Y-6898D01*
X48198Y-7264D01*
X48000Y-7741D01*
Y-8259D01*
X48198Y-8736D01*
X48564Y-9102D01*
X49041Y-9300D01*
X49559D01*
X50036Y-9102D01*
X50402Y-8736D01*
X50600Y-8259D01*
Y-7741D01*
X50402Y-7264D01*
X50036Y-6898D01*
X49559Y-6700D01*
D02*
G37*
G36*
X146592Y-7246D02*
X145637D01*
X144755Y-7611D01*
X144079Y-8286D01*
X143714Y-9168D01*
Y-10123D01*
X144079Y-11005D01*
X144755Y-11680D01*
X145637Y-12046D01*
X146592D01*
X147474Y-11680D01*
X147986Y-11168D01*
X148470Y-11391D01*
Y-12148D01*
X148831Y-13019D01*
X149497Y-13685D01*
X150367Y-14046D01*
X151310D01*
X152180Y-13685D01*
X152847Y-13019D01*
X153207Y-12148D01*
Y-11206D01*
X152847Y-10335D01*
X152180Y-9669D01*
X151310Y-9309D01*
X150367D01*
X149497Y-9669D01*
X148994Y-10172D01*
X148514Y-9945D01*
Y-9168D01*
X148149Y-8286D01*
X147474Y-7611D01*
X146592Y-7246D01*
D02*
G37*
G36*
X170382Y-38100D02*
X169618D01*
X168881Y-38298D01*
X168219Y-38679D01*
X167679Y-39219D01*
X167298Y-39881D01*
X167100Y-40618D01*
Y-41382D01*
X167298Y-42119D01*
X167679Y-42781D01*
X168219Y-43321D01*
X168881Y-43702D01*
X169618Y-43900D01*
X170382D01*
X171119Y-43702D01*
X171781Y-43321D01*
X172321Y-42781D01*
X172702Y-42119D01*
X172900Y-41382D01*
Y-40618D01*
X172702Y-39881D01*
X172321Y-39219D01*
X171781Y-38679D01*
X171119Y-38298D01*
X170382Y-38100D01*
D02*
G37*
G36*
X160382D02*
X159618D01*
X158881Y-38298D01*
X158219Y-38679D01*
X157679Y-39219D01*
X157298Y-39881D01*
X157100Y-40618D01*
Y-41382D01*
X157298Y-42119D01*
X157679Y-42781D01*
X158219Y-43321D01*
X158881Y-43702D01*
X159618Y-43900D01*
X160382D01*
X161119Y-43702D01*
X161781Y-43321D01*
X162321Y-42781D01*
X162702Y-42119D01*
X162900Y-41382D01*
Y-40618D01*
X162702Y-39881D01*
X162321Y-39219D01*
X161781Y-38679D01*
X161119Y-38298D01*
X160382Y-38100D01*
D02*
G37*
G36*
X150382D02*
X149618D01*
X148881Y-38298D01*
X148219Y-38679D01*
X147679Y-39219D01*
X147298Y-39881D01*
X147100Y-40618D01*
Y-41382D01*
X147298Y-42119D01*
X147679Y-42781D01*
X148219Y-43321D01*
X148881Y-43702D01*
X149618Y-43900D01*
X150382D01*
X151119Y-43702D01*
X151781Y-43321D01*
X152321Y-42781D01*
X152702Y-42119D01*
X152900Y-41382D01*
Y-40618D01*
X152702Y-39881D01*
X152321Y-39219D01*
X151781Y-38679D01*
X151119Y-38298D01*
X150382Y-38100D01*
D02*
G37*
G36*
X140382D02*
X139618D01*
X138881Y-38298D01*
X138219Y-38679D01*
X137679Y-39219D01*
X137298Y-39881D01*
X137100Y-40618D01*
Y-41382D01*
X137298Y-42119D01*
X137679Y-42781D01*
X138219Y-43321D01*
X138881Y-43702D01*
X139618Y-43900D01*
X140382D01*
X141119Y-43702D01*
X141781Y-43321D01*
X142321Y-42781D01*
X142702Y-42119D01*
X142900Y-41382D01*
Y-40618D01*
X142702Y-39881D01*
X142321Y-39219D01*
X141781Y-38679D01*
X141119Y-38298D01*
X140382Y-38100D01*
D02*
G37*
%LPD*%
G36*
X91476Y20040D02*
X91413Y20055D01*
X91345Y20057D01*
X91272Y20046D01*
X91194Y20022D01*
X91112Y19985D01*
X91025Y19934D01*
X90933Y19871D01*
X90836Y19795D01*
X90734Y19706D01*
X90628Y19603D01*
X89803Y19628D01*
X89941Y19770D01*
X90154Y20015D01*
X90229Y20119D01*
X90283Y20210D01*
X90316Y20289D01*
X90329Y20355D01*
X90320Y20408D01*
X90290Y20448D01*
X90240Y20476D01*
X91476Y20040D01*
D02*
G37*
G36*
X91076Y16040D02*
X91031Y16072D01*
X90976Y16088D01*
X90913Y16087D01*
X90842Y16069D01*
X90761Y16034D01*
X90672Y15982D01*
X90574Y15913D01*
X90467Y15826D01*
X90228Y15604D01*
X89803Y16028D01*
X89924Y16152D01*
X90113Y16374D01*
X90182Y16472D01*
X90234Y16561D01*
X90269Y16642D01*
X90287Y16713D01*
X90288Y16776D01*
X90272Y16831D01*
X90240Y16876D01*
X91076Y16040D01*
D02*
G37*
G36*
X87403Y9205D02*
X87413Y9124D01*
X87430Y9044D01*
X87453Y8967D01*
X87483Y8891D01*
X87519Y8817D01*
X87562Y8746D01*
X87611Y8676D01*
X87667Y8608D01*
X87730Y8543D01*
X86470D01*
X86533Y8608D01*
X86589Y8676D01*
X86638Y8746D01*
X86681Y8817D01*
X86717Y8891D01*
X86747Y8967D01*
X86770Y9044D01*
X86787Y9124D01*
X86797Y9205D01*
X86800Y9289D01*
X87400D01*
X87403Y9205D01*
D02*
G37*
G36*
X88294Y5870D02*
X88237Y5808D01*
X88187Y5744D01*
X88142Y5676D01*
X88104Y5605D01*
X88071Y5530D01*
X88045Y5452D01*
X88024Y5372D01*
X88010Y5287D01*
X88002Y5200D01*
X88000Y5109D01*
X87109Y6000D01*
X87200Y6002D01*
X87287Y6010D01*
X87371Y6024D01*
X87453Y6045D01*
X87530Y6071D01*
X87605Y6104D01*
X87676Y6142D01*
X87744Y6187D01*
X87808Y6237D01*
X87870Y6294D01*
X88294Y5870D01*
D02*
G37*
D10*
X37500Y-1200D02*
X39300Y-3000D01*
X33700Y2600D02*
X37500Y-1200D01*
X33700Y20100D02*
X40100Y26500D01*
X33700Y2600D02*
Y20100D01*
X39300Y-3300D02*
Y-3000D01*
X40100Y26500D02*
X46000Y32400D01*
X60200D01*
X92300Y-12300D02*
Y-5728D01*
X56000Y-1400D02*
X87972D01*
X92300Y-5728D01*
X89600Y-15000D02*
X92300Y-12300D01*
X100835Y-31500D02*
X104900D01*
X106000D01*
X81500Y-20776D02*
Y-17000D01*
X83500Y-15000D01*
X89600D01*
X86654Y-24800D02*
X92760Y-30906D01*
X80800Y-24800D02*
X86654D01*
X107000Y-31500D02*
X110000D01*
X106000D02*
X107000D01*
X49200Y5400D02*
X56000Y-1400D01*
X62500Y-24800D02*
Y-22200D01*
X66800Y-17900D01*
X70900D01*
X73000Y-20000D01*
X66000Y-24700D02*
Y-22100D01*
X68100Y-20000D01*
X69500D01*
X105600Y-27100D02*
X106000Y-27500D01*
X98700Y-27100D02*
X105600D01*
X94894Y-30906D02*
X98700Y-27100D01*
X92760Y-30906D02*
X94894D01*
X68300Y-27500D02*
X69500D01*
X53500D02*
X68300D01*
X50000Y-31000D02*
X53500Y-27500D01*
X1300Y0D02*
X5300Y4000D01*
Y20400D02*
X8600Y23700D01*
X5300Y4000D02*
Y20400D01*
X117232Y732D02*
X119900Y3400D01*
X105000Y732D02*
X117232D01*
X118700Y-29300D02*
X122000Y-26000D01*
X111800Y-29300D02*
X118700D01*
X110000Y-27500D02*
X111800Y-29300D01*
X110000Y-27500D02*
Y-24000D01*
X100240Y-30906D02*
X100835Y-31500D01*
X80800Y-24800D02*
X81500Y-24100D01*
Y-20776D01*
X8600Y23700D02*
X11300D01*
X12200Y22800D01*
Y21000D02*
Y22800D01*
Y21000D02*
X13342Y19858D01*
X16140D01*
X10100Y3900D02*
X11647Y5447D01*
Y5547D01*
X6400Y0D02*
X9700D01*
X3800D02*
X6400D01*
X1300D02*
X3800D01*
X-1300D02*
X1300D01*
X9700D02*
X11842Y2142D01*
X16382D01*
X16140Y19858D02*
X20921D01*
X16140D02*
X17321Y21039D01*
X20921D01*
X16382Y2142D02*
X20921D01*
X16382D02*
X17563Y961D01*
X20921D01*
D12*
X33569Y-17200D02*
X38369Y-22000D01*
X52331D01*
X52000Y-21200D02*
X53700Y-19500D01*
X52331Y-22000D02*
X53931Y-20400D01*
X33900Y-16400D02*
X38700Y-21200D01*
X52000D01*
X24600Y-17200D02*
X33569D01*
X24131Y-16400D02*
X33900D01*
X32500Y-1700D02*
Y8500D01*
X23700Y-10500D02*
X32500Y-1700D01*
X27047Y13953D02*
X32500Y8500D01*
X28000Y-21500D02*
X30000Y-19500D01*
X33200Y-6200D02*
X43700D01*
X20000Y-19400D02*
X33200Y-6200D01*
X43700D02*
X47600Y-2300D01*
X20000Y-26400D02*
Y-19400D01*
X20800Y-19731D02*
X24131Y-16400D01*
X20800Y-24900D02*
Y-19731D01*
X23000Y-18800D02*
X24600Y-17200D01*
X23000Y-20700D02*
Y-18800D01*
X88127Y0D02*
X93400Y-5273D01*
X56900Y0D02*
X88127D01*
X93400Y-12666D02*
Y-5273D01*
X97534Y-16800D02*
X106600D01*
X93400Y-12666D02*
X97534Y-16800D01*
X86961Y-8308D02*
Y-4889D01*
X82236Y-9638D02*
Y-6536D01*
X65900Y-14800D02*
X79337D01*
X85700Y-10700D02*
X89200D01*
X79469Y-15800D02*
X86961Y-8308D01*
X65431Y-14000D02*
X79006D01*
X78675Y-13200D02*
X82236Y-9638D01*
X66363Y-16600D02*
X79800D01*
X85700Y-10700D01*
X83811Y-9195D02*
Y-4889D01*
X66031Y-15800D02*
X79469D01*
X85386Y-8751D02*
Y-6536D01*
X79337Y-14800D02*
X85386Y-8751D01*
X79006Y-14000D02*
X83811Y-9195D01*
X65100Y-13200D02*
X78675D01*
X59031Y-20400D02*
X65431Y-14000D01*
X58800Y-19500D02*
X65100Y-13200D01*
X56200Y-24500D02*
X65900Y-14800D01*
X53700Y-19500D02*
X58800D01*
X53931Y-20400D02*
X59031D01*
X38300Y-26100D02*
X56863D01*
X35700Y-28700D02*
X38300Y-26100D01*
X36769Y-26500D02*
X37969Y-25300D01*
X56531D01*
X33500Y-28700D02*
X35700D01*
X30000Y-26500D02*
X36769D01*
X20800Y-24900D02*
X23400Y-27500D01*
X16600Y-29800D02*
X20000Y-26400D01*
X15000Y-29800D02*
X16600D01*
X-4700Y-32400D02*
Y-11800D01*
X-2269Y-10500D02*
X23700D01*
X-2600Y-9700D02*
X23000D01*
X-4700Y-11800D02*
X-2600Y-9700D01*
X-3800Y-32169D02*
Y-12031D01*
X-2269Y-10500D01*
X23000Y-9700D02*
X31000Y-1700D01*
X-4700Y-32400D02*
X300Y-37400D01*
X10600D01*
X-369Y-35600D02*
X8531D01*
X-3800Y-32169D02*
X-369Y-35600D01*
X56863Y-26100D02*
X66363Y-16600D01*
X35400Y-24500D02*
X56200D01*
X56531Y-25300D02*
X66031Y-15800D01*
X85240Y-30224D02*
X88176D01*
X90965Y-26500D02*
X92800D01*
X85240Y-20776D02*
X90965Y-26500D01*
X46100Y10800D02*
X56900Y0D01*
X46100Y10800D02*
Y13100D01*
X89200Y-10700D02*
X89700Y-11200D01*
X107000Y-31500D02*
X108000Y-30500D01*
Y-18200D01*
X106600Y-16800D02*
X108000Y-18200D01*
X25000Y-33500D02*
X26000D01*
X5200D02*
X25000D01*
X8900Y8100D02*
X12300D01*
X7400Y9600D02*
Y18800D01*
Y9600D02*
X8900Y8100D01*
X7400Y18800D02*
X9900Y21300D01*
X30000Y-33500D02*
Y-30000D01*
X28000Y-28000D02*
X30000Y-30000D01*
X28000Y-28000D02*
Y-21500D01*
X31000Y-1700D02*
Y1200D01*
X24153Y8047D02*
X31000Y1200D01*
X20921Y13953D02*
X27047D01*
X28900Y6700D02*
X30200Y8000D01*
X26800Y6700D02*
X28900D01*
X23484Y10016D02*
X26800Y6700D01*
X20921Y8047D02*
X24153D01*
X20921Y10016D02*
X23484D01*
X27500Y8500D02*
Y10700D01*
X26216Y11984D02*
X27500Y10700D01*
X20921Y11984D02*
X26216D01*
X10600Y-37400D02*
X12400Y-35600D01*
X73000Y-31500D02*
X75000Y-29500D01*
Y-26400D01*
X77760Y-23640D01*
Y-20776D01*
X73000Y-27500D02*
Y-24000D01*
X69500D02*
X73000D01*
X1500Y-29800D02*
X5200Y-33500D01*
X26000Y-23000D02*
Y-19500D01*
Y-30000D02*
Y-26500D01*
X12300Y8100D02*
X16290Y4110D01*
X20921D01*
X9400Y26000D02*
Y28400D01*
X12200Y31200D01*
X22100D01*
X26100Y27200D01*
Y17000D02*
Y27200D01*
X25021Y15921D02*
X26100Y17000D01*
X20921Y15921D02*
X25021D01*
D17*
X166831Y-30020D02*
D03*
X144783D02*
D03*
X166831Y30020D02*
D03*
X144783D02*
D03*
D18*
X106000Y-24000D02*
D03*
Y-20000D02*
D03*
Y-31500D02*
D03*
Y-27500D02*
D03*
X110000Y-31500D02*
D03*
Y-27500D02*
D03*
Y-20000D02*
D03*
Y-24000D02*
D03*
X73000Y-31500D02*
D03*
Y-27500D02*
D03*
Y-20000D02*
D03*
Y-24000D02*
D03*
X69500Y-20000D02*
D03*
Y-24000D02*
D03*
Y-31500D02*
D03*
Y-27500D02*
D03*
D19*
X123500Y7500D02*
D03*
X127500D02*
D03*
Y14500D02*
D03*
X123500D02*
D03*
Y11000D02*
D03*
X127500D02*
D03*
Y500D02*
D03*
X123500D02*
D03*
Y4000D02*
D03*
X127500D02*
D03*
X123500Y25000D02*
D03*
X127500D02*
D03*
X123500Y21500D02*
D03*
X127500D02*
D03*
X123500Y18000D02*
D03*
X127500D02*
D03*
X30000Y-33500D02*
D03*
X26000D02*
D03*
X123500Y-13000D02*
D03*
X127500D02*
D03*
X26000Y-26500D02*
D03*
X30000D02*
D03*
X26000Y-30000D02*
D03*
X30000D02*
D03*
X26000Y-23000D02*
D03*
X30000D02*
D03*
X26000Y-19500D02*
D03*
X30000D02*
D03*
D20*
X134004Y-13780D02*
D03*
Y-3937D02*
D03*
Y3937D02*
D03*
Y13780D02*
D03*
D21*
X117185Y-26000D02*
D03*
X126815D02*
D03*
D22*
X122000Y-30815D02*
D03*
Y-21185D02*
D03*
D23*
X122000Y-26000D02*
D03*
D24*
X92760Y-30906D02*
D03*
X100240D02*
D03*
X96500Y-21094D02*
D03*
D25*
X85240Y-20776D02*
D03*
X81500D02*
D03*
X77760D02*
D03*
Y-30224D02*
D03*
X81500D02*
D03*
X85240D02*
D03*
D26*
X1500Y-29800D02*
D03*
Y-14200D02*
D03*
X15000Y-29800D02*
D03*
Y-14200D02*
D03*
D27*
X20921Y24189D02*
D03*
Y23008D02*
D03*
Y21039D02*
D03*
Y19858D02*
D03*
Y17890D02*
D03*
Y15921D02*
D03*
Y13953D02*
D03*
Y11984D02*
D03*
Y10016D02*
D03*
Y8047D02*
D03*
Y6079D02*
D03*
Y4110D02*
D03*
Y2142D02*
D03*
Y961D02*
D03*
Y-1008D02*
D03*
Y-2189D02*
D03*
D28*
X105000Y-2024D02*
D03*
Y-4780D02*
D03*
Y6244D02*
D03*
Y3488D02*
D03*
Y14512D02*
D03*
Y11756D02*
D03*
Y22780D02*
D03*
Y20024D02*
D03*
Y-7535D02*
D03*
Y25535D02*
D03*
Y17268D02*
D03*
Y9000D02*
D03*
Y732D02*
D03*
D29*
X94600Y21000D02*
D03*
X91200D02*
D03*
X94600Y17000D02*
D03*
X91200D02*
D03*
D49*
X90400Y-22700D02*
X96500D01*
X101000Y28400D02*
Y30600D01*
X40500Y15900D02*
Y18100D01*
X88300Y-20600D02*
X90400Y-22700D01*
X88300Y-20600D02*
Y-17500D01*
X127500Y5800D02*
Y7500D01*
Y4000D02*
Y5800D01*
X96500Y-21094D02*
X97594Y-20000D01*
X106000D01*
X77760Y-32340D02*
Y-30224D01*
X75800Y-34300D02*
X77760Y-32340D01*
X70700Y-34300D02*
X75800D01*
X69500Y-33100D02*
X70700Y-34300D01*
X69500Y-33100D02*
Y-31500D01*
X77760Y-30224D02*
X81500D01*
X-4000Y25500D02*
Y27200D01*
Y25500D02*
X-3400Y24900D01*
D50*
X127500Y-13000D02*
X133224D01*
X94300Y-11900D02*
Y-4900D01*
X57573Y900D02*
X88500D01*
X94300Y-4900D01*
Y-11900D02*
X98300Y-15900D01*
X30000Y-41000D02*
Y-33500D01*
X134004Y-13780D02*
X135200Y-14976D01*
Y-41800D02*
Y-14976D01*
X132000Y-45000D02*
X135200Y-41800D01*
X24000Y-45000D02*
X132000D01*
X20000Y-41000D02*
X24000Y-45000D01*
X91200Y20600D02*
Y21000D01*
X87100Y16500D02*
X91200Y20600D01*
X87100Y7900D02*
Y16500D01*
X89800Y7800D02*
Y15600D01*
X91383Y17183D01*
X94600Y17268D02*
X105000D01*
X95576Y20024D02*
X105000D01*
X94600Y21000D02*
X95576Y20024D01*
X49800Y8673D02*
X57573Y900D01*
X49800Y8673D02*
Y24700D01*
X50000Y24900D01*
X127500Y21500D02*
Y25000D01*
X122000Y-30815D02*
X124385D01*
X106973Y-15900D02*
X110000Y-18927D01*
Y-20000D02*
Y-18927D01*
X98300Y-15900D02*
X106973D01*
X87100Y5100D02*
X89800Y7800D01*
X119300Y-3700D02*
X123500Y500D01*
X113500Y-3700D02*
X119300D01*
X111824Y-2024D02*
X113500Y-3700D01*
X105000Y-2024D02*
X111824D01*
X133224Y-13000D02*
X134004Y-13780D01*
X119280Y-4780D02*
X127500Y-13000D01*
X105000Y-4780D02*
X119280D01*
X126815Y-26000D02*
Y-23115D01*
Y-28385D02*
Y-26000D01*
X122000Y-21185D02*
X124885D01*
X119315D02*
X122000D01*
X124385Y-30815D02*
X126815Y-28385D01*
X124885Y-21185D02*
X126815Y-23115D01*
X117185Y-23315D02*
X119315Y-21185D01*
X117185Y-26000D02*
Y-23315D01*
X125500Y9500D02*
X127500Y7500D01*
X125500Y9500D02*
Y15700D01*
X127500Y17700D01*
Y18000D01*
Y21500D01*
X120000Y7500D02*
X123500D01*
X115988Y3488D02*
X120000Y7500D01*
X105000Y3488D02*
X115988D01*
X119700Y11000D02*
X123500D01*
X114944Y6244D02*
X119700Y11000D01*
X105000Y6244D02*
X114944D01*
X123500Y14500D02*
Y18000D01*
X120000D02*
X123500D01*
X113756Y11756D02*
X120000Y18000D01*
X105000Y11756D02*
X113756D01*
X119200Y21500D02*
X123500D01*
X114968Y17268D02*
X119200Y21500D01*
X105000Y17268D02*
X114968D01*
X119700Y25000D02*
X123500D01*
X114724Y20024D02*
X119700Y25000D01*
X105000Y20024D02*
X114724D01*
D51*
X50000Y-31000D02*
D03*
X40000D02*
D03*
X60000Y-41000D02*
D03*
X70000D02*
D03*
X50000D02*
D03*
X10000D02*
D03*
X0D02*
D03*
X20000D02*
D03*
X40000D02*
D03*
X30000D02*
D03*
X80000D02*
D03*
X150000D02*
D03*
X160000D02*
D03*
X140000D02*
D03*
X100000D02*
D03*
X90000D02*
D03*
X110000D02*
D03*
X130000D02*
D03*
X120000D02*
D03*
X170000D02*
D03*
X60000Y41000D02*
D03*
X70000D02*
D03*
X50000D02*
D03*
X10000D02*
D03*
X0D02*
D03*
X20000D02*
D03*
X40000D02*
D03*
X30000D02*
D03*
X80000D02*
D03*
X150000D02*
D03*
X160000D02*
D03*
X140000D02*
D03*
X100000D02*
D03*
X90000D02*
D03*
X110000D02*
D03*
X130000D02*
D03*
X120000D02*
D03*
X170000D02*
D03*
D52*
X146114Y9646D02*
D03*
Y-9646D02*
D03*
D53*
X16827Y28028D02*
D03*
Y-6028D02*
D03*
D54*
X1079Y28028D02*
D03*
Y-6028D02*
D03*
D55*
X14858Y-378D02*
D03*
Y22378D02*
D03*
D56*
X23200Y33300D02*
D03*
X98500Y-36500D02*
D03*
X65000Y-39500D02*
D03*
X74500Y-39000D02*
D03*
X94500Y-38500D02*
D03*
X84500D02*
D03*
X96500Y2000D02*
D03*
X15000Y41000D02*
D03*
Y44000D02*
D03*
X5000Y41000D02*
D03*
Y44000D02*
D03*
X35000Y26500D02*
D03*
X32000D02*
D03*
X29000D02*
D03*
X32000Y23000D02*
D03*
X34000Y-22000D02*
D03*
X26500Y-10500D02*
D03*
X37000Y-13000D02*
D03*
X33500D02*
D03*
X30000D02*
D03*
X87700Y-12500D02*
D03*
X-3500Y2500D02*
D03*
X0Y3000D02*
D03*
X2000Y5500D02*
D03*
Y8000D02*
D03*
Y10500D02*
D03*
X17500Y-2000D02*
D03*
X22500Y-3000D02*
D03*
X23500Y-5500D02*
D03*
X15500Y14000D02*
D03*
Y11500D02*
D03*
Y9000D02*
D03*
X-3500Y13100D02*
D03*
X98200Y28100D02*
D03*
X88000Y23100D02*
D03*
X97000Y24000D02*
D03*
X42300Y-7900D02*
D03*
X46600Y-17300D02*
D03*
X47800Y-15100D02*
D03*
X66800Y-29700D02*
D03*
X76700Y-28000D02*
D03*
X79000Y-4900D02*
D03*
X47300Y29400D02*
D03*
X56100Y34700D02*
D03*
X66000Y35000D02*
D03*
X95000Y36000D02*
D03*
X91000Y31000D02*
D03*
X88000Y37000D02*
D03*
X76000Y34000D02*
D03*
Y37000D02*
D03*
X62000Y8000D02*
D03*
X67000D02*
D03*
X72000D02*
D03*
X77000D02*
D03*
X82000D02*
D03*
Y13000D02*
D03*
X77000D02*
D03*
X72000D02*
D03*
X67000D02*
D03*
X62000D02*
D03*
X82000Y21000D02*
D03*
X77000D02*
D03*
X72000D02*
D03*
X67000D02*
D03*
X62000D02*
D03*
X35500Y4000D02*
D03*
X30500Y4500D02*
D03*
X22500Y-13000D02*
D03*
X19500D02*
D03*
X0D02*
D03*
X8000Y-24500D02*
D03*
X12500D02*
D03*
Y-19000D02*
D03*
X8000D02*
D03*
X16500Y-37000D02*
D03*
X24500Y-37500D02*
D03*
X36000Y-35500D02*
D03*
X55000D02*
D03*
X90000Y-32500D02*
D03*
X97000Y-32000D02*
D03*
X96000Y-26000D02*
D03*
X97000Y-11000D02*
D03*
X104500Y-13000D02*
D03*
X121500D02*
D03*
X125500Y-16500D02*
D03*
X121500D02*
D03*
X117500D02*
D03*
X113500D02*
D03*
Y-26500D02*
D03*
Y-24000D02*
D03*
X117000Y-31500D02*
D03*
X113500D02*
D03*
X131000Y-30000D02*
D03*
Y-25000D02*
D03*
X160000Y-35000D02*
D03*
X157000Y-32000D02*
D03*
X153000D02*
D03*
X139000Y-28000D02*
D03*
Y-24000D02*
D03*
X143000D02*
D03*
Y-20000D02*
D03*
X139000D02*
D03*
X167000Y-21000D02*
D03*
Y-14857D02*
D03*
Y-8714D02*
D03*
Y-2572D02*
D03*
Y3571D02*
D03*
Y9714D02*
D03*
Y15857D02*
D03*
Y22000D02*
D03*
X140000Y11000D02*
D03*
Y15000D02*
D03*
X135000Y17000D02*
D03*
X131000D02*
D03*
Y20000D02*
D03*
X135000D02*
D03*
Y23000D02*
D03*
X131000D02*
D03*
X145000Y30000D02*
D03*
Y33000D02*
D03*
X137000Y30000D02*
D03*
Y33000D02*
D03*
X133000D02*
D03*
Y30000D02*
D03*
X129000D02*
D03*
Y33000D02*
D03*
X125000Y30000D02*
D03*
Y33000D02*
D03*
X121000D02*
D03*
X117000D02*
D03*
X121000Y30000D02*
D03*
X117000D02*
D03*
X113000D02*
D03*
X109000D02*
D03*
X105000D02*
D03*
X39300Y-3300D02*
D03*
X37500Y-1200D02*
D03*
X40100Y26500D02*
D03*
X60200Y32400D02*
D03*
X55000Y-22500D02*
D03*
X44200Y-19500D02*
D03*
X88176Y-30224D02*
D03*
X92800Y-26500D02*
D03*
X103700Y43800D02*
D03*
X88000Y20700D02*
D03*
X63339Y32000D02*
D03*
X48100Y11500D02*
D03*
X89700Y-11200D02*
D03*
X111200Y-9700D02*
D03*
X81600Y34400D02*
D03*
X86900Y32300D02*
D03*
X56400Y-3700D02*
D03*
X57039Y-6536D02*
D03*
X60189D02*
D03*
X58614Y-4889D02*
D03*
X104900Y-31600D02*
D03*
X101000Y30600D02*
D03*
Y28400D02*
D03*
X40500Y18100D02*
D03*
Y15900D02*
D03*
X51000Y28900D02*
D03*
X53900D02*
D03*
X46100Y13100D02*
D03*
X50000Y24900D02*
D03*
X49200Y5400D02*
D03*
X29100Y-19500D02*
D03*
X46500Y6000D02*
D03*
X87100Y7900D02*
D03*
Y5100D02*
D03*
X136200Y-3900D02*
D03*
Y4000D02*
D03*
X49300Y-8000D02*
D03*
X49200Y-4500D02*
D03*
X62500Y-24800D02*
D03*
X66000Y-24700D02*
D03*
X96500Y-22700D02*
D03*
X88300Y-17500D02*
D03*
X91200Y-17400D02*
D03*
X68300Y-27500D02*
D03*
X114800Y-6500D02*
D03*
X115000Y-1800D02*
D03*
X114900Y9800D02*
D03*
X114200Y15400D02*
D03*
X113900Y23200D02*
D03*
X68063Y-4889D02*
D03*
X69638Y-6536D02*
D03*
X71213Y-4889D02*
D03*
X72787Y-6536D02*
D03*
X74362Y-4889D02*
D03*
X75937Y-6536D02*
D03*
X131500Y-15200D02*
D03*
Y-12300D02*
D03*
X47600Y-2300D02*
D03*
X23400Y-27500D02*
D03*
X23000Y-20700D02*
D03*
X25000Y-33500D02*
D03*
X35400Y-24500D02*
D03*
X31100Y-23000D02*
D03*
X33500Y-28700D02*
D03*
X117185Y-23315D02*
D03*
X106000Y-28500D02*
D03*
X127500Y5800D02*
D03*
X119900Y3400D02*
D03*
X30200Y8000D02*
D03*
X27500Y8500D02*
D03*
X12400Y-35600D02*
D03*
X8531D02*
D03*
X86961Y-4889D02*
D03*
X85386Y-6536D02*
D03*
X83811Y-4889D02*
D03*
X82236Y-6536D02*
D03*
X80800Y-24800D02*
D03*
X9900Y21300D02*
D03*
X9400Y26000D02*
D03*
X-4000Y27200D02*
D03*
X-3400Y24900D02*
D03*
X12400Y17400D02*
D03*
X11647Y5547D02*
D03*
X10100Y3900D02*
D03*
X6400Y0D02*
D03*
X3800D02*
D03*
X1300D02*
D03*
X-1300D02*
D03*
D57*
X150839Y-11677D02*
D03*
Y19740D02*
D03*
M02*
