G04*
G04 #@! TF.GenerationSoftware,Altium Limited,Altium Designer,22.2.1 (43)*
G04*
G04 Layer_Color=16711935*
%FSLAX25Y25*%
%MOIN*%
G70*
G04*
G04 #@! TF.SameCoordinates,7C3657C9-3B13-42A6-83C1-8FEA204C8C57*
G04*
G04*
G04 #@! TF.FilePolarity,Negative*
G04*
G01*
G75*
G04:AMPARAMS|DCode=31|XSize=26mil|YSize=26mil|CornerRadius=8mil|HoleSize=0mil|Usage=FLASHONLY|Rotation=0.000|XOffset=0mil|YOffset=0mil|HoleType=Round|Shape=RoundedRectangle|*
%AMROUNDEDRECTD31*
21,1,0.02600,0.01000,0,0,0.0*
21,1,0.01000,0.02600,0,0,0.0*
1,1,0.01600,0.00500,-0.00500*
1,1,0.01600,-0.00500,-0.00500*
1,1,0.01600,-0.00500,0.00500*
1,1,0.01600,0.00500,0.00500*
%
%ADD31ROUNDEDRECTD31*%
G04:AMPARAMS|DCode=32|XSize=26mil|YSize=26mil|CornerRadius=8mil|HoleSize=0mil|Usage=FLASHONLY|Rotation=90.000|XOffset=0mil|YOffset=0mil|HoleType=Round|Shape=RoundedRectangle|*
%AMROUNDEDRECTD32*
21,1,0.02600,0.01000,0,0,90.0*
21,1,0.01000,0.02600,0,0,90.0*
1,1,0.01600,0.00500,0.00500*
1,1,0.01600,0.00500,-0.00500*
1,1,0.01600,-0.00500,-0.00500*
1,1,0.01600,-0.00500,0.00500*
%
%ADD32ROUNDEDRECTD32*%
%ADD43C,0.05600*%
%ADD44C,0.02962*%
%ADD45O,0.08868X0.04537*%
%ADD46O,0.06899X0.04537*%
%ADD47C,0.03159*%
%ADD48C,0.04537*%
G04:AMPARAMS|DCode=76|XSize=22mil|YSize=22mil|CornerRadius=11mil|HoleSize=0mil|Usage=FLASHONLY|Rotation=90.000|XOffset=0mil|YOffset=0mil|HoleType=Round|Shape=RoundedRectangle|*
%AMROUNDEDRECTD76*
21,1,0.02200,0.00000,0,0,90.0*
21,1,0.00000,0.02200,0,0,90.0*
1,1,0.02200,0.00000,0.00000*
1,1,0.02200,0.00000,0.00000*
1,1,0.02200,0.00000,0.00000*
1,1,0.02200,0.00000,0.00000*
%
%ADD76ROUNDEDRECTD76*%
G04:AMPARAMS|DCode=77|XSize=65.06mil|YSize=65.06mil|CornerRadius=17.76mil|HoleSize=0mil|Usage=FLASHONLY|Rotation=180.000|XOffset=0mil|YOffset=0mil|HoleType=Round|Shape=RoundedRectangle|*
%AMROUNDEDRECTD77*
21,1,0.06506,0.02953,0,0,180.0*
21,1,0.02953,0.06506,0,0,180.0*
1,1,0.03553,-0.01476,0.01476*
1,1,0.03553,0.01476,0.01476*
1,1,0.03553,0.01476,-0.01476*
1,1,0.03553,-0.01476,-0.01476*
%
%ADD77ROUNDEDRECTD77*%
G04:AMPARAMS|DCode=78|XSize=15.45mil|YSize=37.5mil|CornerRadius=5.36mil|HoleSize=0mil|Usage=FLASHONLY|Rotation=180.000|XOffset=0mil|YOffset=0mil|HoleType=Round|Shape=RoundedRectangle|*
%AMROUNDEDRECTD78*
21,1,0.01545,0.02677,0,0,180.0*
21,1,0.00472,0.03750,0,0,180.0*
1,1,0.01072,-0.00236,0.01339*
1,1,0.01072,0.00236,0.01339*
1,1,0.01072,0.00236,-0.01339*
1,1,0.01072,-0.00236,-0.01339*
%
%ADD78ROUNDEDRECTD78*%
G04:AMPARAMS|DCode=79|XSize=15.45mil|YSize=37.5mil|CornerRadius=5.36mil|HoleSize=0mil|Usage=FLASHONLY|Rotation=90.000|XOffset=0mil|YOffset=0mil|HoleType=Round|Shape=RoundedRectangle|*
%AMROUNDEDRECTD79*
21,1,0.01545,0.02677,0,0,90.0*
21,1,0.00472,0.03750,0,0,90.0*
1,1,0.01072,0.01339,0.00236*
1,1,0.01072,0.01339,-0.00236*
1,1,0.01072,-0.01339,-0.00236*
1,1,0.01072,-0.01339,0.00236*
%
%ADD79ROUNDEDRECTD79*%
G04:AMPARAMS|DCode=80|XSize=33.56mil|YSize=65.06mil|CornerRadius=9.89mil|HoleSize=0mil|Usage=FLASHONLY|Rotation=180.000|XOffset=0mil|YOffset=0mil|HoleType=Round|Shape=RoundedRectangle|*
%AMROUNDEDRECTD80*
21,1,0.03356,0.04528,0,0,180.0*
21,1,0.01378,0.06506,0,0,180.0*
1,1,0.01978,-0.00689,0.02264*
1,1,0.01978,0.00689,0.02264*
1,1,0.01978,0.00689,-0.02264*
1,1,0.01978,-0.00689,-0.02264*
%
%ADD80ROUNDEDRECTD80*%
G04:AMPARAMS|DCode=81|XSize=25.68mil|YSize=29.62mil|CornerRadius=7.92mil|HoleSize=0mil|Usage=FLASHONLY|Rotation=270.000|XOffset=0mil|YOffset=0mil|HoleType=Round|Shape=RoundedRectangle|*
%AMROUNDEDRECTD81*
21,1,0.02568,0.01378,0,0,270.0*
21,1,0.00984,0.02962,0,0,270.0*
1,1,0.01584,-0.00689,-0.00492*
1,1,0.01584,-0.00689,0.00492*
1,1,0.01584,0.00689,0.00492*
1,1,0.01584,0.00689,-0.00492*
%
%ADD81ROUNDEDRECTD81*%
G04:AMPARAMS|DCode=82|XSize=27.65mil|YSize=63.09mil|CornerRadius=8.41mil|HoleSize=0mil|Usage=FLASHONLY|Rotation=0.000|XOffset=0mil|YOffset=0mil|HoleType=Round|Shape=RoundedRectangle|*
%AMROUNDEDRECTD82*
21,1,0.02765,0.04626,0,0,0.0*
21,1,0.01083,0.06309,0,0,0.0*
1,1,0.01683,0.00541,-0.02313*
1,1,0.01683,-0.00541,-0.02313*
1,1,0.01683,-0.00541,0.02313*
1,1,0.01683,0.00541,0.02313*
%
%ADD82ROUNDEDRECTD82*%
G04:AMPARAMS|DCode=83|XSize=27.65mil|YSize=63.09mil|CornerRadius=8.41mil|HoleSize=0mil|Usage=FLASHONLY|Rotation=0.000|XOffset=0mil|YOffset=0mil|HoleType=Round|Shape=RoundedRectangle|*
%AMROUNDEDRECTD83*
21,1,0.02765,0.04626,0,0,0.0*
21,1,0.01083,0.06309,0,0,0.0*
1,1,0.01683,0.00541,-0.02313*
1,1,0.01683,-0.00541,-0.02313*
1,1,0.01683,-0.00541,0.02313*
1,1,0.01683,0.00541,0.02313*
%
%ADD83ROUNDEDRECTD83*%
G04:AMPARAMS|DCode=84|XSize=22mil|YSize=48mil|CornerRadius=8mil|HoleSize=0mil|Usage=FLASHONLY|Rotation=180.000|XOffset=0mil|YOffset=0mil|HoleType=Round|Shape=RoundedRectangle|*
%AMROUNDEDRECTD84*
21,1,0.02200,0.03200,0,0,180.0*
21,1,0.00600,0.04800,0,0,180.0*
1,1,0.01600,-0.00300,0.01600*
1,1,0.01600,0.00300,0.01600*
1,1,0.01600,0.00300,-0.01600*
1,1,0.01600,-0.00300,-0.01600*
%
%ADD84ROUNDEDRECTD84*%
G04:AMPARAMS|DCode=85|XSize=22mil|YSize=48mil|CornerRadius=8mil|HoleSize=0mil|Usage=FLASHONLY|Rotation=270.000|XOffset=0mil|YOffset=0mil|HoleType=Round|Shape=RoundedRectangle|*
%AMROUNDEDRECTD85*
21,1,0.02200,0.03200,0,0,270.0*
21,1,0.00600,0.04800,0,0,270.0*
1,1,0.01600,-0.01600,-0.00300*
1,1,0.01600,-0.01600,0.00300*
1,1,0.01600,0.01600,0.00300*
1,1,0.01600,0.01600,-0.00300*
%
%ADD85ROUNDEDRECTD85*%
%ADD86R,0.11624X0.11230*%
%ADD87O,0.08474X0.03356*%
G04:AMPARAMS|DCode=88|XSize=56mil|YSize=68.99mil|CornerRadius=15.5mil|HoleSize=0mil|Usage=FLASHONLY|Rotation=270.000|XOffset=0mil|YOffset=0mil|HoleType=Round|Shape=RoundedRectangle|*
%AMROUNDEDRECTD88*
21,1,0.05600,0.03799,0,0,270.0*
21,1,0.02500,0.06899,0,0,270.0*
1,1,0.03100,-0.01900,-0.01250*
1,1,0.03100,-0.01900,0.01250*
1,1,0.03100,0.01900,0.01250*
1,1,0.03100,0.01900,-0.01250*
%
%ADD88ROUNDEDRECTD88*%
G04:AMPARAMS|DCode=89|XSize=56mil|YSize=100.49mil|CornerRadius=15.5mil|HoleSize=0mil|Usage=FLASHONLY|Rotation=270.000|XOffset=0mil|YOffset=0mil|HoleType=Round|Shape=RoundedRectangle|*
%AMROUNDEDRECTD89*
21,1,0.05600,0.06949,0,0,270.0*
21,1,0.02500,0.10049,0,0,270.0*
1,1,0.03100,-0.03474,-0.01250*
1,1,0.03100,-0.03474,0.01250*
1,1,0.03100,0.03474,0.01250*
1,1,0.03100,0.03474,-0.01250*
%
%ADD89ROUNDEDRECTD89*%
%ADD90R,0.27135X0.27135*%
%ADD91O,0.04340X0.01387*%
%ADD92O,0.01387X0.04340*%
G36*
X29946Y32474D02*
X29993Y32468D01*
X30035Y32459D01*
X30071Y32451D01*
X30101Y32440D01*
X30122Y32432D01*
X30131Y32427D01*
X30137Y32425D01*
X30139Y32423D01*
X30141D01*
X30180Y32402D01*
X30213Y32377D01*
X30245Y32349D01*
X30273Y32322D01*
X30296Y32296D01*
X30313Y32277D01*
X30319Y32269D01*
X30324Y32262D01*
X30328Y32260D01*
Y32258D01*
X30171Y32137D01*
X30146Y32165D01*
X30122Y32186D01*
X30101Y32205D01*
X30082Y32220D01*
X30067Y32230D01*
X30057Y32237D01*
X30048Y32241D01*
X30046Y32243D01*
X30025Y32254D01*
X30002Y32260D01*
X29978Y32266D01*
X29957Y32269D01*
X29938Y32271D01*
X29923Y32273D01*
X29910D01*
X29879Y32271D01*
X29851Y32264D01*
X29828Y32256D01*
X29806Y32247D01*
X29792Y32239D01*
X29779Y32230D01*
X29772Y32224D01*
X29770Y32222D01*
X29753Y32201D01*
X29741Y32179D01*
X29732Y32156D01*
X29726Y32133D01*
X29722Y32114D01*
X29719Y32097D01*
Y32086D01*
Y32082D01*
X29722Y32048D01*
X29728Y32014D01*
X29734Y31982D01*
X29743Y31955D01*
X29753Y31931D01*
X29760Y31912D01*
X29766Y31902D01*
X29768Y31900D01*
Y31898D01*
X29790Y31864D01*
X29813Y31825D01*
X29840Y31789D01*
X29868Y31753D01*
X29893Y31724D01*
X29915Y31698D01*
X29923Y31690D01*
X29929Y31683D01*
X29932Y31679D01*
X29934Y31677D01*
X29957Y31652D01*
X29982Y31624D01*
X30042Y31565D01*
X30101Y31503D01*
X30160Y31444D01*
X30190Y31416D01*
X30216Y31391D01*
X30239Y31367D01*
X30260Y31348D01*
X30277Y31332D01*
X30290Y31319D01*
X30298Y31310D01*
X30300Y31308D01*
Y31124D01*
X29463D01*
X29438Y31327D01*
X30023D01*
X29985Y31357D01*
X29948Y31387D01*
X29915Y31414D01*
X29883Y31442D01*
X29853Y31467D01*
X29825Y31493D01*
X29802Y31516D01*
X29779Y31535D01*
X29760Y31554D01*
X29743Y31571D01*
X29728Y31586D01*
X29715Y31599D01*
X29707Y31609D01*
X29700Y31616D01*
X29696Y31620D01*
X29694Y31622D01*
X29652Y31671D01*
X29618Y31717D01*
X29588Y31758D01*
X29563Y31794D01*
X29546Y31823D01*
X29533Y31847D01*
X29529Y31855D01*
X29524Y31861D01*
X29522Y31864D01*
Y31866D01*
X29503Y31908D01*
X29491Y31948D01*
X29480Y31987D01*
X29474Y32023D01*
X29469Y32052D01*
X29467Y32074D01*
Y32084D01*
Y32090D01*
Y32093D01*
Y32095D01*
X29469Y32133D01*
X29476Y32169D01*
X29484Y32203D01*
X29493Y32230D01*
X29501Y32254D01*
X29510Y32273D01*
X29516Y32283D01*
X29518Y32288D01*
X29539Y32319D01*
X29563Y32345D01*
X29588Y32370D01*
X29611Y32389D01*
X29633Y32404D01*
X29650Y32417D01*
X29662Y32423D01*
X29664Y32425D01*
X29667D01*
X29705Y32442D01*
X29743Y32455D01*
X29781Y32464D01*
X29817Y32470D01*
X29849Y32474D01*
X29874Y32476D01*
X29895D01*
X29946Y32474D01*
D02*
G37*
G36*
X32567Y32194D02*
X32465Y32025D01*
X32191Y32199D01*
Y31323D01*
X32507D01*
Y31124D01*
X31689D01*
Y31323D01*
X31945D01*
Y32451D01*
X32157D01*
X32567Y32194D01*
D02*
G37*
G36*
X31127Y31124D02*
X30854D01*
X30438Y32451D01*
X30693D01*
X30987Y31367D01*
X31278Y32451D01*
X31543D01*
X31127Y31124D01*
D02*
G37*
G36*
X27448Y31135D02*
X27217D01*
Y31740D01*
X27219Y31820D01*
X27222Y31903D01*
X27226Y31986D01*
X27230Y32026D01*
X27232Y32064D01*
X27234Y32098D01*
X27239Y32132D01*
X27241Y32159D01*
X27243Y32185D01*
X27245Y32206D01*
Y32221D01*
X27247Y32229D01*
Y32234D01*
X26867Y31135D01*
X26552D01*
Y32462D01*
X26783D01*
Y31858D01*
Y31803D01*
X26781Y31752D01*
Y31708D01*
X26779Y31668D01*
X26776Y31636D01*
Y31623D01*
Y31612D01*
X26774Y31602D01*
Y31595D01*
Y31593D01*
Y31591D01*
X26770Y31549D01*
X26768Y31508D01*
X26764Y31470D01*
X26759Y31436D01*
X26757Y31407D01*
X26755Y31383D01*
Y31375D01*
X26753Y31369D01*
Y31367D01*
Y31364D01*
X27132Y32462D01*
X27448D01*
Y31135D01*
D02*
G37*
G36*
X28135Y32484D02*
X28190Y32475D01*
X28239Y32462D01*
X28284Y32448D01*
X28303Y32439D01*
X28320Y32433D01*
X28335Y32427D01*
X28347Y32420D01*
X28358Y32416D01*
X28364Y32412D01*
X28368Y32407D01*
X28371D01*
X28417Y32376D01*
X28460Y32337D01*
X28496Y32299D01*
X28528Y32261D01*
X28551Y32227D01*
X28559Y32212D01*
X28568Y32200D01*
X28574Y32189D01*
X28578Y32181D01*
X28583Y32176D01*
Y32174D01*
X28608Y32115D01*
X28627Y32051D01*
X28640Y31988D01*
X28648Y31930D01*
X28653Y31903D01*
X28655Y31877D01*
X28657Y31856D01*
Y31837D01*
X28659Y31822D01*
Y31812D01*
Y31803D01*
Y31801D01*
X28657Y31740D01*
X28653Y31682D01*
X28646Y31629D01*
X28636Y31578D01*
X28625Y31532D01*
X28614Y31492D01*
X28602Y31453D01*
X28587Y31417D01*
X28574Y31388D01*
X28561Y31362D01*
X28551Y31339D01*
X28538Y31320D01*
X28530Y31307D01*
X28523Y31297D01*
X28519Y31290D01*
X28517Y31288D01*
X28489Y31256D01*
X28457Y31231D01*
X28426Y31207D01*
X28394Y31186D01*
X28360Y31169D01*
X28326Y31155D01*
X28292Y31144D01*
X28260Y31133D01*
X28231Y31127D01*
X28203Y31120D01*
X28178Y31118D01*
X28157Y31114D01*
X28139D01*
X28125Y31112D01*
X28114D01*
X28065Y31114D01*
X28021Y31116D01*
X27981Y31120D01*
X27947Y31127D01*
X27917Y31133D01*
X27896Y31137D01*
X27887Y31140D01*
X27881D01*
X27879Y31142D01*
X27877D01*
X27836Y31155D01*
X27798Y31169D01*
X27762Y31186D01*
X27728Y31201D01*
X27701Y31214D01*
X27679Y31224D01*
X27671Y31229D01*
X27665Y31233D01*
X27663Y31235D01*
X27660D01*
Y31890D01*
X28152D01*
X28127Y31689D01*
X27911D01*
Y31360D01*
X27942Y31345D01*
X27974Y31332D01*
X28006Y31324D01*
X28036Y31320D01*
X28063Y31316D01*
X28084Y31313D01*
X28104D01*
X28129Y31316D01*
X28154Y31318D01*
X28199Y31330D01*
X28237Y31350D01*
X28267Y31371D01*
X28292Y31390D01*
X28309Y31409D01*
X28318Y31422D01*
X28322Y31424D01*
Y31426D01*
X28335Y31449D01*
X28345Y31475D01*
X28356Y31502D01*
X28364Y31532D01*
X28377Y31593D01*
X28385Y31655D01*
X28387Y31684D01*
X28390Y31712D01*
X28392Y31738D01*
Y31759D01*
X28394Y31776D01*
Y31791D01*
Y31799D01*
Y31801D01*
X28392Y31848D01*
X28390Y31890D01*
X28385Y31928D01*
X28379Y31964D01*
X28373Y31998D01*
X28364Y32028D01*
X28356Y32056D01*
X28347Y32079D01*
X28339Y32100D01*
X28332Y32119D01*
X28324Y32134D01*
X28318Y32147D01*
X28311Y32155D01*
X28307Y32162D01*
X28303Y32166D01*
Y32168D01*
X28286Y32189D01*
X28267Y32206D01*
X28248Y32221D01*
X28229Y32234D01*
X28188Y32255D01*
X28152Y32267D01*
X28118Y32276D01*
X28106Y32278D01*
X28093Y32280D01*
X28082Y32282D01*
X28044D01*
X28021Y32278D01*
X27997Y32274D01*
X27981Y32270D01*
X27964Y32265D01*
X27953Y32261D01*
X27944Y32259D01*
X27942Y32257D01*
X27919Y32246D01*
X27898Y32234D01*
X27874Y32221D01*
X27855Y32208D01*
X27839Y32195D01*
X27826Y32185D01*
X27815Y32178D01*
X27813Y32176D01*
X27673Y32320D01*
X27707Y32352D01*
X27739Y32380D01*
X27771Y32401D01*
X27798Y32420D01*
X27821Y32433D01*
X27839Y32443D01*
X27851Y32448D01*
X27853Y32450D01*
X27855D01*
X27891Y32462D01*
X27928Y32471D01*
X27966Y32480D01*
X28000Y32484D01*
X28029Y32486D01*
X28055Y32488D01*
X28076D01*
X28135Y32484D01*
D02*
G37*
G36*
X26302Y31135D02*
X25967D01*
X25918Y31137D01*
X25871Y31142D01*
X25827Y31148D01*
X25784Y31159D01*
X25746Y31169D01*
X25708Y31182D01*
X25676Y31195D01*
X25644Y31210D01*
X25617Y31222D01*
X25593Y31235D01*
X25572Y31248D01*
X25555Y31258D01*
X25540Y31269D01*
X25532Y31275D01*
X25526Y31280D01*
X25523Y31282D01*
X25492Y31311D01*
X25464Y31347D01*
X25441Y31385D01*
X25420Y31426D01*
X25403Y31470D01*
X25388Y31513D01*
X25377Y31557D01*
X25367Y31600D01*
X25360Y31642D01*
X25354Y31680D01*
X25352Y31716D01*
X25348Y31746D01*
Y31771D01*
X25345Y31791D01*
Y31803D01*
Y31807D01*
X25348Y31875D01*
X25354Y31937D01*
X25362Y31994D01*
X25373Y32045D01*
X25386Y32092D01*
X25403Y32134D01*
X25417Y32172D01*
X25434Y32204D01*
X25451Y32231D01*
X25466Y32257D01*
X25481Y32276D01*
X25496Y32293D01*
X25506Y32306D01*
X25515Y32314D01*
X25521Y32318D01*
X25523Y32320D01*
X25557Y32346D01*
X25593Y32367D01*
X25631Y32386D01*
X25670Y32403D01*
X25708Y32416D01*
X25746Y32429D01*
X25820Y32445D01*
X25854Y32450D01*
X25886Y32454D01*
X25914Y32458D01*
X25939Y32460D01*
X25958Y32462D01*
X26302D01*
Y31135D01*
D02*
G37*
G36*
X40202Y32486D02*
X40244Y32480D01*
X40285Y32471D01*
X40323Y32460D01*
X40359Y32448D01*
X40393Y32433D01*
X40425Y32416D01*
X40454Y32401D01*
X40480Y32384D01*
X40503Y32367D01*
X40524Y32352D01*
X40539Y32340D01*
X40554Y32329D01*
X40562Y32320D01*
X40569Y32314D01*
X40571Y32312D01*
X40444Y32174D01*
X40416Y32195D01*
X40391Y32214D01*
X40369Y32229D01*
X40348Y32240D01*
X40334Y32250D01*
X40321Y32257D01*
X40312Y32259D01*
X40310Y32261D01*
X40287Y32270D01*
X40264Y32278D01*
X40240Y32282D01*
X40219Y32284D01*
X40202Y32287D01*
X40187Y32289D01*
X40174D01*
X40143Y32287D01*
X40113Y32282D01*
X40088Y32274D01*
X40066Y32265D01*
X40049Y32257D01*
X40039Y32248D01*
X40030Y32244D01*
X40028Y32242D01*
X40009Y32223D01*
X39994Y32202D01*
X39986Y32181D01*
X39977Y32159D01*
X39973Y32142D01*
X39971Y32125D01*
Y32117D01*
Y32113D01*
X39973Y32081D01*
X39979Y32053D01*
X39990Y32028D01*
X40001Y32009D01*
X40011Y31994D01*
X40022Y31981D01*
X40028Y31975D01*
X40030Y31973D01*
X40054Y31958D01*
X40077Y31945D01*
X40102Y31937D01*
X40126Y31933D01*
X40147Y31928D01*
X40164Y31926D01*
X40274D01*
X40300Y31738D01*
X40170D01*
X40130Y31735D01*
X40094Y31729D01*
X40062Y31718D01*
X40037Y31706D01*
X40013Y31689D01*
X39996Y31672D01*
X39979Y31653D01*
X39969Y31634D01*
X39958Y31615D01*
X39952Y31595D01*
X39946Y31578D01*
X39943Y31561D01*
X39941Y31549D01*
X39939Y31538D01*
Y31532D01*
Y31530D01*
X39941Y31494D01*
X39950Y31462D01*
X39960Y31434D01*
X39971Y31411D01*
X39984Y31392D01*
X39994Y31379D01*
X40003Y31371D01*
X40005Y31369D01*
X40030Y31350D01*
X40060Y31335D01*
X40090Y31326D01*
X40117Y31318D01*
X40143Y31313D01*
X40164Y31311D01*
X40183D01*
X40211Y31313D01*
X40238Y31316D01*
X40264Y31320D01*
X40285Y31326D01*
X40304Y31332D01*
X40317Y31337D01*
X40325Y31339D01*
X40329Y31341D01*
X40355Y31354D01*
X40378Y31369D01*
X40399Y31385D01*
X40418Y31403D01*
X40435Y31417D01*
X40448Y31430D01*
X40456Y31438D01*
X40459Y31441D01*
X40609Y31309D01*
X40577Y31273D01*
X40545Y31241D01*
X40512Y31216D01*
X40482Y31195D01*
X40456Y31180D01*
X40435Y31167D01*
X40427Y31163D01*
X40420Y31161D01*
X40418Y31159D01*
X40416D01*
X40372Y31144D01*
X40329Y31131D01*
X40289Y31123D01*
X40251Y31118D01*
X40217Y31114D01*
X40204D01*
X40191Y31112D01*
X40170D01*
X40119Y31114D01*
X40071Y31120D01*
X40028Y31129D01*
X39990Y31140D01*
X39960Y31148D01*
X39948Y31152D01*
X39937Y31157D01*
X39929Y31161D01*
X39922Y31163D01*
X39920Y31165D01*
X39918D01*
X39878Y31186D01*
X39844Y31210D01*
X39814Y31235D01*
X39791Y31258D01*
X39772Y31280D01*
X39757Y31297D01*
X39748Y31307D01*
X39746Y31311D01*
X39725Y31347D01*
X39710Y31383D01*
X39700Y31420D01*
X39693Y31451D01*
X39687Y31481D01*
X39685Y31502D01*
Y31511D01*
Y31517D01*
Y31519D01*
Y31521D01*
X39689Y31574D01*
X39700Y31621D01*
X39712Y31661D01*
X39729Y31695D01*
X39746Y31723D01*
X39759Y31742D01*
X39770Y31752D01*
X39774Y31756D01*
X39808Y31786D01*
X39844Y31807D01*
X39878Y31822D01*
X39909Y31833D01*
X39939Y31841D01*
X39960Y31844D01*
X39969Y31846D01*
X39982D01*
X39943Y31850D01*
X39909Y31860D01*
X39880Y31875D01*
X39852Y31892D01*
X39831Y31907D01*
X39814Y31922D01*
X39806Y31930D01*
X39801Y31935D01*
X39776Y31969D01*
X39757Y32002D01*
X39744Y32039D01*
X39733Y32072D01*
X39729Y32100D01*
X39727Y32123D01*
X39725Y32132D01*
Y32138D01*
Y32142D01*
Y32144D01*
X39727Y32178D01*
X39733Y32210D01*
X39742Y32240D01*
X39750Y32265D01*
X39761Y32287D01*
X39770Y32304D01*
X39776Y32312D01*
X39778Y32316D01*
X39799Y32344D01*
X39825Y32369D01*
X39850Y32390D01*
X39873Y32410D01*
X39897Y32422D01*
X39914Y32433D01*
X39926Y32439D01*
X39929Y32441D01*
X39931D01*
X39969Y32456D01*
X40007Y32469D01*
X40045Y32477D01*
X40081Y32482D01*
X40111Y32486D01*
X40136Y32488D01*
X40157D01*
X40202Y32486D01*
D02*
G37*
G36*
X37908D02*
X37951Y32480D01*
X37991Y32471D01*
X38029Y32460D01*
X38065Y32448D01*
X38099Y32433D01*
X38131Y32416D01*
X38160Y32401D01*
X38186Y32384D01*
X38209Y32367D01*
X38230Y32352D01*
X38245Y32340D01*
X38260Y32329D01*
X38269Y32320D01*
X38275Y32314D01*
X38277Y32312D01*
X38150Y32174D01*
X38122Y32195D01*
X38097Y32214D01*
X38076Y32229D01*
X38054Y32240D01*
X38040Y32250D01*
X38027Y32257D01*
X38018Y32259D01*
X38016Y32261D01*
X37993Y32270D01*
X37970Y32278D01*
X37946Y32282D01*
X37925Y32284D01*
X37908Y32287D01*
X37893Y32289D01*
X37881D01*
X37849Y32287D01*
X37819Y32282D01*
X37794Y32274D01*
X37773Y32265D01*
X37756Y32257D01*
X37745Y32248D01*
X37736Y32244D01*
X37734Y32242D01*
X37715Y32223D01*
X37700Y32202D01*
X37692Y32181D01*
X37683Y32159D01*
X37679Y32142D01*
X37677Y32125D01*
Y32117D01*
Y32113D01*
X37679Y32081D01*
X37686Y32053D01*
X37696Y32028D01*
X37707Y32009D01*
X37717Y31994D01*
X37728Y31981D01*
X37734Y31975D01*
X37736Y31973D01*
X37760Y31958D01*
X37783Y31945D01*
X37809Y31937D01*
X37832Y31933D01*
X37853Y31928D01*
X37870Y31926D01*
X37980D01*
X38006Y31738D01*
X37876D01*
X37836Y31735D01*
X37800Y31729D01*
X37768Y31718D01*
X37743Y31706D01*
X37720Y31689D01*
X37703Y31672D01*
X37686Y31653D01*
X37675Y31634D01*
X37664Y31615D01*
X37658Y31595D01*
X37652Y31578D01*
X37650Y31561D01*
X37647Y31549D01*
X37645Y31538D01*
Y31532D01*
Y31530D01*
X37647Y31494D01*
X37656Y31462D01*
X37666Y31434D01*
X37677Y31411D01*
X37690Y31392D01*
X37700Y31379D01*
X37709Y31371D01*
X37711Y31369D01*
X37736Y31350D01*
X37766Y31335D01*
X37796Y31326D01*
X37823Y31318D01*
X37849Y31313D01*
X37870Y31311D01*
X37889D01*
X37917Y31313D01*
X37944Y31316D01*
X37970Y31320D01*
X37991Y31326D01*
X38010Y31332D01*
X38023Y31337D01*
X38031Y31339D01*
X38035Y31341D01*
X38061Y31354D01*
X38084Y31369D01*
X38105Y31385D01*
X38124Y31403D01*
X38141Y31417D01*
X38154Y31430D01*
X38163Y31438D01*
X38165Y31441D01*
X38315Y31309D01*
X38283Y31273D01*
X38252Y31241D01*
X38218Y31216D01*
X38188Y31195D01*
X38163Y31180D01*
X38141Y31167D01*
X38133Y31163D01*
X38127Y31161D01*
X38124Y31159D01*
X38122D01*
X38078Y31144D01*
X38035Y31131D01*
X37995Y31123D01*
X37957Y31118D01*
X37923Y31114D01*
X37910D01*
X37898Y31112D01*
X37876D01*
X37826Y31114D01*
X37777Y31120D01*
X37734Y31129D01*
X37696Y31140D01*
X37666Y31148D01*
X37654Y31152D01*
X37643Y31157D01*
X37635Y31161D01*
X37628Y31163D01*
X37626Y31165D01*
X37624D01*
X37584Y31186D01*
X37550Y31210D01*
X37520Y31235D01*
X37497Y31258D01*
X37478Y31280D01*
X37463Y31297D01*
X37455Y31307D01*
X37452Y31311D01*
X37431Y31347D01*
X37416Y31383D01*
X37406Y31420D01*
X37399Y31451D01*
X37393Y31481D01*
X37391Y31502D01*
Y31511D01*
Y31517D01*
Y31519D01*
Y31521D01*
X37395Y31574D01*
X37406Y31621D01*
X37418Y31661D01*
X37435Y31695D01*
X37452Y31723D01*
X37465Y31742D01*
X37476Y31752D01*
X37480Y31756D01*
X37514Y31786D01*
X37550Y31807D01*
X37584Y31822D01*
X37616Y31833D01*
X37645Y31841D01*
X37666Y31844D01*
X37675Y31846D01*
X37688D01*
X37650Y31850D01*
X37616Y31860D01*
X37586Y31875D01*
X37558Y31892D01*
X37537Y31907D01*
X37520Y31922D01*
X37512Y31930D01*
X37508Y31935D01*
X37482Y31969D01*
X37463Y32002D01*
X37450Y32039D01*
X37440Y32072D01*
X37435Y32100D01*
X37433Y32123D01*
X37431Y32132D01*
Y32138D01*
Y32142D01*
Y32144D01*
X37433Y32178D01*
X37440Y32210D01*
X37448Y32240D01*
X37457Y32265D01*
X37467Y32287D01*
X37476Y32304D01*
X37482Y32312D01*
X37484Y32316D01*
X37505Y32344D01*
X37531Y32369D01*
X37556Y32390D01*
X37580Y32410D01*
X37603Y32422D01*
X37620Y32433D01*
X37633Y32439D01*
X37635Y32441D01*
X37637D01*
X37675Y32456D01*
X37713Y32469D01*
X37751Y32477D01*
X37787Y32482D01*
X37817Y32486D01*
X37843Y32488D01*
X37864D01*
X37908Y32486D01*
D02*
G37*
G36*
X39091Y31135D02*
X38818D01*
X38402Y32462D01*
X38657D01*
X38951Y31379D01*
X39242Y32462D01*
X39507D01*
X39091Y31135D01*
D02*
G37*
G36*
X36226Y32486D02*
X36273Y32480D01*
X36316Y32471D01*
X36351Y32462D01*
X36381Y32452D01*
X36402Y32443D01*
X36411Y32439D01*
X36417Y32437D01*
X36419Y32435D01*
X36421D01*
X36460Y32414D01*
X36494Y32388D01*
X36525Y32361D01*
X36553Y32333D01*
X36576Y32308D01*
X36593Y32289D01*
X36599Y32280D01*
X36604Y32274D01*
X36608Y32272D01*
Y32270D01*
X36451Y32149D01*
X36426Y32176D01*
X36402Y32197D01*
X36381Y32217D01*
X36362Y32231D01*
X36347Y32242D01*
X36337Y32248D01*
X36328Y32253D01*
X36326Y32255D01*
X36305Y32265D01*
X36281Y32272D01*
X36258Y32278D01*
X36237Y32280D01*
X36218Y32282D01*
X36203Y32284D01*
X36190D01*
X36159Y32282D01*
X36131Y32276D01*
X36108Y32267D01*
X36086Y32259D01*
X36072Y32250D01*
X36059Y32242D01*
X36053Y32236D01*
X36051Y32234D01*
X36033Y32212D01*
X36021Y32191D01*
X36012Y32168D01*
X36006Y32144D01*
X36002Y32125D01*
X36000Y32109D01*
Y32098D01*
Y32094D01*
X36002Y32060D01*
X36008Y32026D01*
X36014Y31994D01*
X36023Y31966D01*
X36033Y31943D01*
X36040Y31924D01*
X36046Y31913D01*
X36048Y31911D01*
Y31909D01*
X36070Y31875D01*
X36093Y31837D01*
X36120Y31801D01*
X36148Y31765D01*
X36173Y31735D01*
X36195Y31710D01*
X36203Y31701D01*
X36209Y31695D01*
X36212Y31691D01*
X36214Y31689D01*
X36237Y31663D01*
X36263Y31636D01*
X36322Y31576D01*
X36381Y31515D01*
X36441Y31455D01*
X36470Y31428D01*
X36496Y31403D01*
X36519Y31379D01*
X36540Y31360D01*
X36557Y31343D01*
X36570Y31330D01*
X36578Y31322D01*
X36581Y31320D01*
Y31135D01*
X35743D01*
X35718Y31339D01*
X36303D01*
X36265Y31369D01*
X36228Y31398D01*
X36195Y31426D01*
X36163Y31453D01*
X36133Y31479D01*
X36106Y31504D01*
X36082Y31528D01*
X36059Y31547D01*
X36040Y31566D01*
X36023Y31583D01*
X36008Y31598D01*
X35995Y31610D01*
X35987Y31621D01*
X35980Y31627D01*
X35976Y31631D01*
X35974Y31634D01*
X35932Y31682D01*
X35898Y31729D01*
X35868Y31769D01*
X35843Y31805D01*
X35826Y31835D01*
X35813Y31858D01*
X35809Y31867D01*
X35805Y31873D01*
X35802Y31875D01*
Y31877D01*
X35783Y31920D01*
X35771Y31960D01*
X35760Y31998D01*
X35754Y32034D01*
X35749Y32064D01*
X35747Y32085D01*
Y32096D01*
Y32102D01*
Y32104D01*
Y32106D01*
X35749Y32144D01*
X35756Y32181D01*
X35764Y32214D01*
X35773Y32242D01*
X35781Y32265D01*
X35790Y32284D01*
X35796Y32295D01*
X35798Y32299D01*
X35819Y32331D01*
X35843Y32357D01*
X35868Y32382D01*
X35892Y32401D01*
X35913Y32416D01*
X35930Y32429D01*
X35942Y32435D01*
X35945Y32437D01*
X35947D01*
X35985Y32454D01*
X36023Y32467D01*
X36061Y32475D01*
X36097Y32482D01*
X36129Y32486D01*
X36154Y32488D01*
X36176D01*
X36226Y32486D01*
D02*
G37*
G36*
X34202Y31763D02*
X34024D01*
X33986Y31778D01*
X33969Y31784D01*
X33956Y31788D01*
X33943Y31793D01*
X33935Y31795D01*
X33931Y31797D01*
X33928D01*
X33896Y31803D01*
X33871Y31805D01*
X33860Y31807D01*
X33846D01*
X33814Y31805D01*
X33786Y31799D01*
X33763Y31788D01*
X33742Y31780D01*
X33727Y31769D01*
X33714Y31759D01*
X33708Y31752D01*
X33706Y31750D01*
X33689Y31727D01*
X33676Y31699D01*
X33665Y31670D01*
X33659Y31640D01*
X33655Y31612D01*
X33653Y31591D01*
Y31583D01*
Y31576D01*
Y31572D01*
Y31570D01*
X33655Y31525D01*
X33663Y31487D01*
X33672Y31453D01*
X33685Y31426D01*
X33695Y31405D01*
X33706Y31390D01*
X33714Y31381D01*
X33716Y31377D01*
X33742Y31356D01*
X33769Y31339D01*
X33797Y31328D01*
X33825Y31320D01*
X33850Y31316D01*
X33869Y31313D01*
X33884Y31311D01*
X33888D01*
X33913Y31313D01*
X33939Y31318D01*
X33964Y31322D01*
X33988Y31330D01*
X34032Y31350D01*
X34073Y31373D01*
X34104Y31396D01*
X34117Y31407D01*
X34128Y31415D01*
X34136Y31424D01*
X34143Y31430D01*
X34147Y31432D01*
X34149Y31434D01*
X34293Y31297D01*
X34261Y31265D01*
X34227Y31235D01*
X34193Y31212D01*
X34157Y31190D01*
X34123Y31171D01*
X34089Y31157D01*
X34056Y31146D01*
X34024Y31135D01*
X33994Y31127D01*
X33966Y31123D01*
X33941Y31118D01*
X33920Y31114D01*
X33903D01*
X33890Y31112D01*
X33880D01*
X33827Y31114D01*
X33780Y31120D01*
X33735Y31129D01*
X33699Y31140D01*
X33670Y31150D01*
X33646Y31159D01*
X33638Y31163D01*
X33632Y31165D01*
X33629Y31167D01*
X33627D01*
X33589Y31190D01*
X33555Y31216D01*
X33525Y31244D01*
X33500Y31269D01*
X33483Y31292D01*
X33468Y31311D01*
X33460Y31324D01*
X33458Y31326D01*
Y31328D01*
X33437Y31369D01*
X33422Y31411D01*
X33411Y31451D01*
X33405Y31489D01*
X33398Y31521D01*
Y31536D01*
X33396Y31547D01*
Y31557D01*
Y31564D01*
Y31568D01*
Y31570D01*
X33398Y31617D01*
X33405Y31659D01*
X33411Y31697D01*
X33419Y31731D01*
X33430Y31759D01*
X33437Y31778D01*
X33443Y31791D01*
X33445Y31795D01*
X33464Y31829D01*
X33485Y31858D01*
X33509Y31884D01*
X33530Y31905D01*
X33549Y31922D01*
X33564Y31935D01*
X33574Y31941D01*
X33579Y31943D01*
X33610Y31960D01*
X33644Y31973D01*
X33676Y31983D01*
X33706Y31990D01*
X33733Y31994D01*
X33752Y31996D01*
X33771D01*
X33814Y31994D01*
X33852Y31988D01*
X33884Y31981D01*
X33911Y31973D01*
X33935Y31962D01*
X33952Y31956D01*
X33960Y31949D01*
X33964Y31947D01*
Y32270D01*
X33470D01*
X33441Y32462D01*
X34202D01*
Y31763D01*
D02*
G37*
G36*
X35113Y31135D02*
X34840D01*
X34424Y32462D01*
X34679D01*
X34973Y31379D01*
X35264Y32462D01*
X35529D01*
X35113Y31135D01*
D02*
G37*
%LPC*%
G36*
X26045Y32259D02*
X25918D01*
X25892Y32255D01*
X25844Y32244D01*
X25803Y32229D01*
X25767Y32212D01*
X25740Y32195D01*
X25721Y32181D01*
X25708Y32170D01*
X25704Y32168D01*
Y32166D01*
X25687Y32147D01*
X25674Y32123D01*
X25661Y32098D01*
X25651Y32070D01*
X25634Y32013D01*
X25623Y31952D01*
X25621Y31924D01*
X25617Y31896D01*
X25615Y31873D01*
Y31850D01*
X25613Y31833D01*
Y31820D01*
Y31809D01*
Y31807D01*
Y31765D01*
X25617Y31725D01*
X25621Y31687D01*
X25627Y31651D01*
X25634Y31619D01*
X25642Y31589D01*
X25653Y31559D01*
X25663Y31534D01*
X25689Y31487D01*
X25716Y31449D01*
X25746Y31420D01*
X25778Y31394D01*
X25810Y31375D01*
X25839Y31360D01*
X25867Y31350D01*
X25892Y31343D01*
X25914Y31339D01*
X25928Y31335D01*
X26045D01*
Y32259D01*
D02*
G37*
%LPD*%
D31*
X24500Y-23500D02*
D03*
Y-27500D02*
D03*
X106000Y-31500D02*
D03*
Y-27500D02*
D03*
X5500Y15000D02*
D03*
Y19000D02*
D03*
X87500Y-22000D02*
D03*
Y-18000D02*
D03*
X59000Y-22000D02*
D03*
Y-18000D02*
D03*
X35000Y14500D02*
D03*
Y10500D02*
D03*
X38500Y14500D02*
D03*
Y10500D02*
D03*
X55500Y-22000D02*
D03*
Y-18000D02*
D03*
X69500Y-22000D02*
D03*
Y-18000D02*
D03*
X62500Y-22000D02*
D03*
Y-18000D02*
D03*
X35000Y1500D02*
D03*
Y5500D02*
D03*
X38500Y1500D02*
D03*
Y5500D02*
D03*
X66000Y-22000D02*
D03*
Y-18000D02*
D03*
D32*
X45000Y34500D02*
D03*
X41000D02*
D03*
X48000D02*
D03*
X52000D02*
D03*
X88800D02*
D03*
X84800D02*
D03*
X42500Y5000D02*
D03*
X46500D02*
D03*
X84000Y-26000D02*
D03*
X88000D02*
D03*
X-2500Y-34000D02*
D03*
X1500D02*
D03*
X6500Y26000D02*
D03*
X10500D02*
D03*
X6500Y22500D02*
D03*
X10500D02*
D03*
X80500Y-26000D02*
D03*
X76500D02*
D03*
X31500Y14500D02*
D03*
X27500D02*
D03*
X-2500Y24000D02*
D03*
X1500D02*
D03*
X-2500Y20500D02*
D03*
X1500D02*
D03*
Y17000D02*
D03*
X-2500D02*
D03*
Y13500D02*
D03*
X1500D02*
D03*
X42500Y1500D02*
D03*
X46500D02*
D03*
X42500Y-2000D02*
D03*
X46500D02*
D03*
X76500Y-14000D02*
D03*
X80500D02*
D03*
X101000Y10000D02*
D03*
X97000D02*
D03*
X43500Y19500D02*
D03*
X47500D02*
D03*
X97000Y13500D02*
D03*
X101000D02*
D03*
X88000Y-14000D02*
D03*
X84000D02*
D03*
X97000Y6500D02*
D03*
X101000D02*
D03*
Y20500D02*
D03*
X97000D02*
D03*
X101000Y17000D02*
D03*
X97000D02*
D03*
Y24000D02*
D03*
X101000D02*
D03*
X42500Y-9000D02*
D03*
X46500D02*
D03*
X47500Y16000D02*
D03*
X43500D02*
D03*
X46500Y-5500D02*
D03*
X42500D02*
D03*
X59000Y34500D02*
D03*
X55000D02*
D03*
X47500Y23000D02*
D03*
X43500D02*
D03*
X62000Y34500D02*
D03*
X66000D02*
D03*
X47500Y26500D02*
D03*
X43500D02*
D03*
X42500Y-12500D02*
D03*
X46500D02*
D03*
X31500Y5000D02*
D03*
X27500D02*
D03*
Y1500D02*
D03*
X31500D02*
D03*
Y11000D02*
D03*
X27500D02*
D03*
D43*
X50000Y-31000D02*
D03*
X40000D02*
D03*
X60000Y-41000D02*
D03*
X70000D02*
D03*
X50000D02*
D03*
X10000D02*
D03*
X0D02*
D03*
X20000D02*
D03*
X40000D02*
D03*
X30000D02*
D03*
X80000D02*
D03*
X150000D02*
D03*
X160000D02*
D03*
X140000D02*
D03*
X100000D02*
D03*
X90000D02*
D03*
X110000D02*
D03*
X130000D02*
D03*
X120000D02*
D03*
X170000D02*
D03*
X60000Y41000D02*
D03*
X70000D02*
D03*
X50000D02*
D03*
X10000D02*
D03*
X0D02*
D03*
X20000D02*
D03*
X40000D02*
D03*
X30000D02*
D03*
X80000D02*
D03*
X150000D02*
D03*
X160000D02*
D03*
X140000D02*
D03*
X100000D02*
D03*
X90000D02*
D03*
X110000D02*
D03*
X130000D02*
D03*
X120000D02*
D03*
X170000D02*
D03*
D44*
X146114Y9646D02*
D03*
Y-9646D02*
D03*
D45*
X16827Y28028D02*
D03*
Y-6028D02*
D03*
D46*
X1079Y28028D02*
D03*
Y-6028D02*
D03*
D47*
X14858Y-378D02*
D03*
Y22378D02*
D03*
D48*
X150839Y-11677D02*
D03*
Y19740D02*
D03*
D76*
X27000Y29500D02*
D03*
X31000D02*
D03*
X35000D02*
D03*
X39000D02*
D03*
D77*
X16602Y11650D02*
D03*
D78*
X19752Y17752D02*
D03*
X18177D02*
D03*
X16602D02*
D03*
X15028D02*
D03*
X13453D02*
D03*
Y5547D02*
D03*
X15028D02*
D03*
X16602D02*
D03*
X18177D02*
D03*
X19752D02*
D03*
D79*
X10500Y14799D02*
D03*
Y13224D02*
D03*
Y11650D02*
D03*
Y10075D02*
D03*
Y8500D02*
D03*
X22705D02*
D03*
Y10075D02*
D03*
Y11650D02*
D03*
Y13224D02*
D03*
Y14799D02*
D03*
D80*
X6028Y7500D02*
D03*
X-3028D02*
D03*
X28472Y-5000D02*
D03*
X37528D02*
D03*
X28472Y21000D02*
D03*
X37528D02*
D03*
D81*
X-734Y0D02*
D03*
X9734D02*
D03*
D82*
X82240Y-20000D02*
D03*
X78500D02*
D03*
D83*
X74760Y-20000D02*
D03*
D84*
X16406Y-30650D02*
D03*
X14437D02*
D03*
X12468D02*
D03*
X10500D02*
D03*
X8531D02*
D03*
X6563D02*
D03*
X4594D02*
D03*
Y-12350D02*
D03*
X6563D02*
D03*
X8531D02*
D03*
X10500D02*
D03*
X12468D02*
D03*
X14437D02*
D03*
X16406D02*
D03*
D85*
X1350Y-27406D02*
D03*
Y-25437D02*
D03*
Y-23469D02*
D03*
Y-21500D02*
D03*
Y-19532D02*
D03*
Y-17563D02*
D03*
Y-15595D02*
D03*
X19650D02*
D03*
Y-17563D02*
D03*
Y-19532D02*
D03*
Y-21500D02*
D03*
Y-23469D02*
D03*
Y-25437D02*
D03*
Y-27406D02*
D03*
D86*
X10500Y-21500D02*
D03*
D87*
X108500Y-8331D02*
D03*
Y-4000D02*
D03*
Y331D02*
D03*
Y4661D02*
D03*
Y8992D02*
D03*
Y13323D02*
D03*
Y17653D02*
D03*
Y21984D02*
D03*
Y26315D02*
D03*
D88*
X111469Y-26638D02*
D03*
Y32039D02*
D03*
D89*
X149264Y-32181D02*
D03*
Y32039D02*
D03*
D90*
X72000Y10000D02*
D03*
D91*
X52807Y26535D02*
D03*
Y24961D02*
D03*
Y23386D02*
D03*
Y21811D02*
D03*
Y20236D02*
D03*
Y18661D02*
D03*
Y17087D02*
D03*
Y15512D02*
D03*
Y13937D02*
D03*
Y12362D02*
D03*
Y10787D02*
D03*
Y9213D02*
D03*
Y7638D02*
D03*
Y6063D02*
D03*
Y4488D02*
D03*
Y2913D02*
D03*
Y1339D02*
D03*
Y-236D02*
D03*
Y-1811D02*
D03*
Y-3386D02*
D03*
Y-4961D02*
D03*
Y-6535D02*
D03*
X91193D02*
D03*
Y-4961D02*
D03*
Y-3386D02*
D03*
X91193Y-1811D02*
D03*
Y-236D02*
D03*
X91193Y1339D02*
D03*
Y2913D02*
D03*
Y4488D02*
D03*
Y6063D02*
D03*
Y7638D02*
D03*
Y9213D02*
D03*
Y10787D02*
D03*
Y12362D02*
D03*
X91193Y13937D02*
D03*
X91193Y15512D02*
D03*
X91193Y17087D02*
D03*
X91193Y18661D02*
D03*
X91193Y20236D02*
D03*
X91193Y21811D02*
D03*
Y23386D02*
D03*
Y24961D02*
D03*
Y26535D02*
D03*
D92*
X55465Y-9193D02*
D03*
X57039D02*
D03*
X58614D02*
D03*
X60189D02*
D03*
X61764Y-9193D02*
D03*
X63339Y-9193D02*
D03*
X64913Y-9193D02*
D03*
X66488Y-9193D02*
D03*
X68063Y-9193D02*
D03*
X69638Y-9193D02*
D03*
X71213D02*
D03*
X72787D02*
D03*
X74362D02*
D03*
X75937D02*
D03*
X77512D02*
D03*
X79087D02*
D03*
X80661D02*
D03*
X82236Y-9193D02*
D03*
X83811D02*
D03*
X85386Y-9193D02*
D03*
X86961D02*
D03*
X88535D02*
D03*
Y29193D02*
D03*
X86961D02*
D03*
X85386D02*
D03*
X83811D02*
D03*
X82236D02*
D03*
X80661D02*
D03*
X79087D02*
D03*
X77512D02*
D03*
X75937D02*
D03*
X74362D02*
D03*
X72787D02*
D03*
X71213D02*
D03*
X69638D02*
D03*
X68063D02*
D03*
X66488D02*
D03*
X64913D02*
D03*
X63339D02*
D03*
X61764D02*
D03*
X60189D02*
D03*
X58614D02*
D03*
X57039D02*
D03*
X55465D02*
D03*
M02*
