G04*
G04 #@! TF.GenerationSoftware,Altium Limited,Altium Designer,22.2.1 (43)*
G04*
G04 Layer_Physical_Order=2*
G04 Layer_Color=16751052*
%FSLAX25Y25*%
%MOIN*%
G70*
G04*
G04 #@! TF.SameCoordinates,7C3657C9-3B13-42A6-83C1-8FEA204C8C57*
G04*
G04*
G04 #@! TF.FilePolarity,Positive*
G04*
G01*
G75*
%ADD10C,0.01000*%
%ADD12C,0.00400*%
%ADD49C,0.01500*%
%ADD51C,0.05000*%
%ADD53O,0.08268X0.03937*%
%ADD54O,0.06299X0.03937*%
%ADD56C,0.01800*%
G36*
X147433Y43872D02*
X147580Y43790D01*
X147762Y43718D01*
X147977Y43657D01*
X148226Y43605D01*
X148508Y43564D01*
X149174Y43512D01*
X149975Y43500D01*
X147500Y41025D01*
X147499Y41442D01*
X147436Y42492D01*
X147395Y42774D01*
X147343Y43023D01*
X147282Y43238D01*
X147210Y43420D01*
X147128Y43567D01*
X147036Y43681D01*
X147319Y43964D01*
X147433Y43872D01*
D02*
G37*
G36*
X171318Y45920D02*
X172547Y45411D01*
X173602Y44602D01*
X174411Y43547D01*
X174920Y42318D01*
X175089Y41034D01*
X175082Y41000D01*
Y-41000D01*
X175089Y-41034D01*
X174920Y-42318D01*
X174411Y-43547D01*
X173602Y-44602D01*
X172547Y-45411D01*
X171318Y-45920D01*
X170478Y-46031D01*
X170000Y-46082D01*
X169504Y-46082D01*
X169502Y-46082D01*
X496D01*
X0Y-46082D01*
X-478Y-46031D01*
X-1318Y-45920D01*
X-2547Y-45411D01*
X-3602Y-44602D01*
X-4411Y-43547D01*
X-4920Y-42318D01*
X-5089Y-41034D01*
X-5082Y-41000D01*
Y24239D01*
X-5049Y24264D01*
X-4582Y24357D01*
X-4502Y24164D01*
X-4136Y23798D01*
X-3659Y23600D01*
X-3490D01*
X-3477Y23590D01*
X-3470Y23583D01*
X-3466Y23582D01*
X-3460Y23577D01*
X-3444Y23573D01*
X-3429Y23565D01*
X-3402Y23549D01*
X-3373Y23528D01*
X-3206Y23385D01*
X-3145Y23325D01*
X-3109Y23311D01*
X-1649Y21851D01*
X-1351Y21652D01*
X-1000Y21582D01*
X3000D01*
X3351Y21652D01*
X3649Y21851D01*
X4380Y22582D01*
X8637D01*
X8844Y22082D01*
X8798Y22036D01*
X8600Y21559D01*
Y21041D01*
X8798Y20564D01*
X9164Y20198D01*
X9641Y20000D01*
X10159D01*
X10636Y20198D01*
X11002Y20564D01*
X11200Y21041D01*
Y21559D01*
X11002Y22036D01*
X10956Y22082D01*
X11163Y22582D01*
X11500D01*
X11851Y22652D01*
X12149Y22851D01*
X13068Y23771D01*
X13152Y23754D01*
X13237Y23627D01*
X13380Y23199D01*
X13179Y22712D01*
Y22044D01*
X13434Y21427D01*
X13907Y20954D01*
X14524Y20698D01*
X15192D01*
X15810Y20954D01*
X16282Y21427D01*
X16538Y22044D01*
Y22712D01*
X16282Y23329D01*
X16029Y23582D01*
X16236Y24082D01*
X23732D01*
X30903Y16911D01*
X30712Y16449D01*
X25737D01*
X25278Y16259D01*
X21841Y12822D01*
X21651Y12363D01*
Y5400D01*
X21841Y4941D01*
X39641Y-12859D01*
X40100Y-13049D01*
X51763D01*
X52222Y-12859D01*
X54759Y-10322D01*
X54949Y-9863D01*
Y-9668D01*
X55411Y-9477D01*
X57103Y-11169D01*
Y-26853D01*
X57293Y-27312D01*
X67241Y-37259D01*
X67700Y-37449D01*
X75531D01*
X76780Y-38699D01*
X76818Y-38766D01*
X76871Y-38901D01*
X76923Y-39081D01*
X76968Y-39301D01*
X77005Y-39553D01*
X77066Y-40571D01*
X77067Y-40976D01*
X77100Y-41055D01*
Y-41382D01*
X77298Y-42119D01*
X77679Y-42781D01*
X78219Y-43321D01*
X78881Y-43702D01*
X79618Y-43900D01*
X80382D01*
X81119Y-43702D01*
X81781Y-43321D01*
X82321Y-42781D01*
X82702Y-42119D01*
X82900Y-41382D01*
Y-40618D01*
X82702Y-39881D01*
X82321Y-39219D01*
X81781Y-38679D01*
X81119Y-38298D01*
X80382Y-38100D01*
X80057D01*
X79981Y-38067D01*
X79194Y-38056D01*
X78557Y-38006D01*
X78301Y-37968D01*
X78081Y-37923D01*
X77902Y-37871D01*
X77766Y-37818D01*
X77699Y-37780D01*
X77030Y-37111D01*
X77221Y-36649D01*
X84731D01*
X86781Y-38699D01*
X86818Y-38766D01*
X86871Y-38901D01*
X86923Y-39081D01*
X86968Y-39301D01*
X87005Y-39553D01*
X87066Y-40571D01*
X87067Y-40976D01*
X87100Y-41055D01*
Y-41382D01*
X87298Y-42119D01*
X87679Y-42781D01*
X88219Y-43321D01*
X88881Y-43702D01*
X89618Y-43900D01*
X90382D01*
X91119Y-43702D01*
X91781Y-43321D01*
X92321Y-42781D01*
X92702Y-42119D01*
X92900Y-41382D01*
Y-40618D01*
X92702Y-39881D01*
X92321Y-39219D01*
X91781Y-38679D01*
X91119Y-38298D01*
X90382Y-38100D01*
X90057D01*
X89981Y-38067D01*
X89194Y-38056D01*
X88557Y-38006D01*
X88301Y-37968D01*
X88081Y-37923D01*
X87902Y-37871D01*
X87766Y-37818D01*
X87699Y-37780D01*
X86230Y-36311D01*
X86421Y-35849D01*
X93931D01*
X96781Y-38699D01*
X96818Y-38766D01*
X96871Y-38901D01*
X96923Y-39081D01*
X96968Y-39301D01*
X97005Y-39553D01*
X97066Y-40571D01*
X97067Y-40976D01*
X97100Y-41055D01*
Y-41382D01*
X97298Y-42119D01*
X97679Y-42781D01*
X98219Y-43321D01*
X98881Y-43702D01*
X99618Y-43900D01*
X100382D01*
X101119Y-43702D01*
X101781Y-43321D01*
X102321Y-42781D01*
X102702Y-42119D01*
X102900Y-41382D01*
Y-40618D01*
X102702Y-39881D01*
X102321Y-39219D01*
X101781Y-38679D01*
X101119Y-38298D01*
X100382Y-38100D01*
X100057D01*
X99981Y-38067D01*
X99194Y-38056D01*
X98557Y-38006D01*
X98301Y-37968D01*
X98081Y-37923D01*
X97901Y-37871D01*
X97766Y-37818D01*
X97699Y-37780D01*
X95430Y-35511D01*
X95621Y-35049D01*
X103131D01*
X106781Y-38699D01*
X106818Y-38766D01*
X106871Y-38901D01*
X106923Y-39081D01*
X106968Y-39301D01*
X107005Y-39553D01*
X107067Y-40571D01*
X107067Y-40976D01*
X107100Y-41055D01*
Y-41382D01*
X107298Y-42119D01*
X107679Y-42781D01*
X108219Y-43321D01*
X108881Y-43702D01*
X109618Y-43900D01*
X110382D01*
X111119Y-43702D01*
X111781Y-43321D01*
X112321Y-42781D01*
X112702Y-42119D01*
X112900Y-41382D01*
Y-40618D01*
X112702Y-39881D01*
X112321Y-39219D01*
X111781Y-38679D01*
X111119Y-38298D01*
X110382Y-38100D01*
X110057D01*
X109981Y-38067D01*
X109194Y-38056D01*
X108557Y-38006D01*
X108301Y-37968D01*
X108081Y-37923D01*
X107902Y-37871D01*
X107766Y-37818D01*
X107699Y-37780D01*
X103859Y-33941D01*
X103400Y-33751D01*
X68963D01*
X61580Y-26367D01*
X61863Y-25943D01*
X62241Y-26100D01*
X62759D01*
X63236Y-25902D01*
X63602Y-25536D01*
X63800Y-25059D01*
Y-24541D01*
X63602Y-24064D01*
X63236Y-23698D01*
X62992Y-23597D01*
X62929Y-23538D01*
X62856Y-23511D01*
X62812Y-23490D01*
X62800Y-23483D01*
X62795Y-23290D01*
X62799Y-23245D01*
X62830Y-23117D01*
X63328Y-22947D01*
X64595Y-24213D01*
X64610Y-24249D01*
X64626Y-24297D01*
X64640Y-24355D01*
X64651Y-24417D01*
X64666Y-24595D01*
X64667Y-24696D01*
X64700Y-24773D01*
Y-24959D01*
X64898Y-25436D01*
X65264Y-25802D01*
X65741Y-26000D01*
X66259D01*
X66736Y-25802D01*
X67102Y-25436D01*
X67300Y-24959D01*
Y-24441D01*
X67102Y-23964D01*
X66736Y-23598D01*
X66259Y-23400D01*
X66073D01*
X65996Y-23367D01*
X65889Y-23366D01*
X65801Y-23361D01*
X65723Y-23352D01*
X65655Y-23340D01*
X65597Y-23326D01*
X65549Y-23310D01*
X65513Y-23294D01*
X63549Y-21331D01*
Y-11621D01*
X64011Y-11430D01*
X68041Y-15459D01*
X68500Y-15649D01*
X90723D01*
X90822Y-16149D01*
X90464Y-16298D01*
X90098Y-16664D01*
X90000Y-16900D01*
X89459D01*
X89402Y-16764D01*
X89036Y-16398D01*
X88559Y-16200D01*
X88041D01*
X87564Y-16398D01*
X87198Y-16764D01*
X87000Y-17241D01*
Y-17759D01*
X87128Y-18066D01*
Y-21314D01*
X81614Y-26827D01*
X77266D01*
X76959Y-26700D01*
X76441D01*
X75964Y-26898D01*
X75598Y-27264D01*
X75400Y-27741D01*
Y-28259D01*
X75598Y-28736D01*
X75964Y-29102D01*
X76441Y-29300D01*
X76959D01*
X77266Y-29173D01*
X82100D01*
X82549Y-29083D01*
X82929Y-28829D01*
X89129Y-22629D01*
X89383Y-22249D01*
X89473Y-21800D01*
Y-18066D01*
X89500Y-18000D01*
X90041D01*
X90098Y-18136D01*
X90229Y-18268D01*
X90260Y-18345D01*
X90335Y-18422D01*
X90394Y-18488D01*
X90443Y-18549D01*
X90482Y-18606D01*
X90513Y-18657D01*
X90536Y-18702D01*
X90551Y-18738D01*
Y-22531D01*
X83131Y-29951D01*
X71669D01*
X69705Y-27987D01*
X69690Y-27951D01*
X69674Y-27903D01*
X69660Y-27845D01*
X69649Y-27783D01*
X69634Y-27605D01*
X69633Y-27504D01*
X69600Y-27427D01*
Y-27241D01*
X69402Y-26764D01*
X69036Y-26398D01*
X68559Y-26200D01*
X68041D01*
X67564Y-26398D01*
X67198Y-26764D01*
X67000Y-27241D01*
Y-27759D01*
X67198Y-28236D01*
X67564Y-28602D01*
X68041Y-28800D01*
X68227D01*
X68304Y-28833D01*
X68411Y-28834D01*
X68499Y-28839D01*
X68577Y-28848D01*
X68645Y-28860D01*
X68703Y-28874D01*
X68751Y-28890D01*
X68787Y-28905D01*
X70941Y-31059D01*
X71400Y-31249D01*
X83400D01*
X83859Y-31059D01*
X88673Y-26245D01*
X89151Y-26475D01*
Y-28331D01*
X88663Y-28819D01*
X88627Y-28834D01*
X88579Y-28850D01*
X88521Y-28864D01*
X88459Y-28875D01*
X88281Y-28890D01*
X88179Y-28892D01*
X88103Y-28924D01*
X87917D01*
X87439Y-29122D01*
X87073Y-29488D01*
X86876Y-29966D01*
Y-30483D01*
X87073Y-30961D01*
X87439Y-31326D01*
X87917Y-31524D01*
X88434D01*
X88912Y-31326D01*
X89278Y-30961D01*
X89476Y-30483D01*
Y-30297D01*
X89508Y-30220D01*
X89510Y-30114D01*
X89515Y-30026D01*
X89524Y-29947D01*
X89536Y-29879D01*
X89550Y-29821D01*
X89566Y-29773D01*
X89581Y-29737D01*
X90259Y-29059D01*
X90449Y-28600D01*
Y-26569D01*
X91087Y-25931D01*
X91511Y-26214D01*
X91500Y-26241D01*
Y-26759D01*
X91698Y-27236D01*
X92064Y-27602D01*
X92541Y-27800D01*
X93059D01*
X93536Y-27602D01*
X93902Y-27236D01*
X94100Y-26759D01*
Y-26573D01*
X94133Y-26496D01*
X94134Y-26389D01*
X94139Y-26301D01*
X94148Y-26223D01*
X94160Y-26155D01*
X94174Y-26097D01*
X94190Y-26049D01*
X94205Y-26013D01*
X95193Y-25025D01*
X95384Y-24566D01*
Y-24129D01*
X95514Y-24017D01*
X95884Y-23852D01*
X96241Y-24000D01*
X96759D01*
X97236Y-23802D01*
X97602Y-23436D01*
X97730Y-23129D01*
X98786Y-22072D01*
X115882D01*
X116089Y-22572D01*
X116083Y-22579D01*
X115885Y-23057D01*
Y-23574D01*
X116083Y-24052D01*
X116448Y-24417D01*
X116926Y-24615D01*
X117443D01*
X117921Y-24417D01*
X118287Y-24052D01*
X118485Y-23574D01*
Y-23057D01*
X118287Y-22579D01*
X118280Y-22572D01*
X118488Y-22072D01*
X131000D01*
X131449Y-21983D01*
X131829Y-21729D01*
X140829Y-12729D01*
X140851Y-12697D01*
X141351Y-12849D01*
Y-13000D01*
X141541Y-13459D01*
X163141Y-35059D01*
X163141Y-35059D01*
X167141Y-39059D01*
X167141Y-39059D01*
X167245Y-39163D01*
X167260Y-39185D01*
X167296Y-39255D01*
X167322Y-39329D01*
X167338Y-39410D01*
X167345Y-39500D01*
X167342Y-39602D01*
X167325Y-39716D01*
X167295Y-39842D01*
X167245Y-39996D01*
X167249Y-40060D01*
X167245Y-40079D01*
X167223Y-40131D01*
X167227Y-40142D01*
X167100Y-40618D01*
Y-41382D01*
X167298Y-42119D01*
X167679Y-42781D01*
X168219Y-43321D01*
X168881Y-43702D01*
X169618Y-43900D01*
X170382D01*
X171119Y-43702D01*
X171781Y-43321D01*
X172321Y-42781D01*
X172702Y-42119D01*
X172900Y-41382D01*
Y-40618D01*
X172702Y-39881D01*
X172321Y-39219D01*
X171781Y-38679D01*
X171119Y-38298D01*
X170382Y-38100D01*
X169618D01*
X169142Y-38227D01*
X169131Y-38223D01*
X169079Y-38245D01*
X169061Y-38249D01*
X168996Y-38245D01*
X168842Y-38295D01*
X168716Y-38325D01*
X168602Y-38342D01*
X168500Y-38346D01*
X168410Y-38338D01*
X168329Y-38322D01*
X168255Y-38296D01*
X168185Y-38260D01*
X168163Y-38245D01*
X168059Y-38141D01*
X168059Y-38141D01*
X164059Y-34141D01*
X164059Y-34141D01*
X142649Y-12731D01*
Y20100D01*
X142459Y20559D01*
X136159Y26859D01*
X135700Y27049D01*
X107000D01*
X106541Y26859D01*
X102386Y22705D01*
X101998Y23023D01*
X102083Y23151D01*
X102173Y23600D01*
Y27834D01*
X102300Y28141D01*
Y28659D01*
X102173Y28966D01*
Y30034D01*
X102300Y30341D01*
Y30859D01*
X102102Y31336D01*
X101788Y31651D01*
X101823Y31892D01*
X101941Y32151D01*
X111800D01*
X112259Y32341D01*
X117699Y37780D01*
X117766Y37818D01*
X117902Y37871D01*
X118081Y37923D01*
X118301Y37968D01*
X118553Y38005D01*
X119571Y38066D01*
X119976Y38067D01*
X120055Y38100D01*
X120382D01*
X121119Y38298D01*
X121781Y38679D01*
X122321Y39219D01*
X122702Y39881D01*
X122900Y40618D01*
Y41382D01*
X122702Y42119D01*
X122321Y42781D01*
X121781Y43321D01*
X121119Y43702D01*
X120382Y43900D01*
X119618D01*
X118881Y43702D01*
X118219Y43321D01*
X117679Y42781D01*
X117298Y42119D01*
X117100Y41382D01*
Y41057D01*
X117067Y40981D01*
X117056Y40194D01*
X117006Y39557D01*
X116968Y39301D01*
X116923Y39081D01*
X116871Y38901D01*
X116818Y38766D01*
X116780Y38699D01*
X111874Y33792D01*
X111827Y33802D01*
X111663Y34344D01*
X115759Y38441D01*
X115949Y38900D01*
Y42031D01*
X118369Y44451D01*
X145631D01*
X146781Y43301D01*
X146818Y43234D01*
X146871Y43099D01*
X146923Y42919D01*
X146968Y42699D01*
X147005Y42447D01*
X147066Y41429D01*
X147067Y41024D01*
X147100Y40945D01*
Y40618D01*
X147298Y39881D01*
X147679Y39219D01*
X148219Y38679D01*
X148881Y38298D01*
X149618Y38100D01*
X150382D01*
X151119Y38298D01*
X151781Y38679D01*
X152321Y39219D01*
X152702Y39881D01*
X152900Y40618D01*
Y41382D01*
X152702Y42119D01*
X152321Y42781D01*
X151781Y43321D01*
X151119Y43702D01*
X150382Y43900D01*
X150057D01*
X149981Y43933D01*
X149194Y43944D01*
X148557Y43994D01*
X148301Y44032D01*
X148081Y44077D01*
X147901Y44129D01*
X147766Y44182D01*
X147699Y44219D01*
X146359Y45559D01*
X146303Y45582D01*
X146403Y46082D01*
X170000D01*
X170034Y46089D01*
X171318Y45920D01*
D02*
G37*
G36*
X119975Y38500D02*
X119558Y38499D01*
X118508Y38436D01*
X118226Y38395D01*
X117977Y38343D01*
X117762Y38282D01*
X117580Y38210D01*
X117433Y38128D01*
X117319Y38036D01*
X117036Y38319D01*
X117128Y38433D01*
X117210Y38580D01*
X117282Y38762D01*
X117343Y38977D01*
X117395Y39226D01*
X117436Y39508D01*
X117489Y40174D01*
X117500Y40975D01*
X119975Y38500D01*
D02*
G37*
G36*
X12501Y40558D02*
X12564Y39508D01*
X12605Y39226D01*
X12657Y38977D01*
X12718Y38762D01*
X12790Y38580D01*
X12872Y38433D01*
X12964Y38319D01*
X12681Y38036D01*
X12567Y38128D01*
X12420Y38210D01*
X12238Y38282D01*
X12023Y38343D01*
X11774Y38395D01*
X11492Y38436D01*
X10826Y38489D01*
X10025Y38500D01*
X12500Y40975D01*
X12501Y40558D01*
D02*
G37*
G36*
X2501D02*
X2564Y39508D01*
X2605Y39226D01*
X2657Y38977D01*
X2718Y38762D01*
X2790Y38580D01*
X2872Y38433D01*
X2964Y38319D01*
X2681Y38036D01*
X2567Y38128D01*
X2420Y38210D01*
X2238Y38282D01*
X2023Y38343D01*
X1774Y38395D01*
X1492Y38436D01*
X826Y38489D01*
X25Y38500D01*
X2500Y40975D01*
X2501Y40558D01*
D02*
G37*
G36*
X22152Y39666D02*
X22047Y39366D01*
X21968Y39086D01*
X21916Y38827D01*
X21892Y38588D01*
X21895Y38370D01*
X21925Y38173D01*
X21983Y37996D01*
X22067Y37839D01*
X22179Y37704D01*
X21774Y37543D01*
X19037Y38693D01*
X22286Y39987D01*
X22152Y39666D01*
D02*
G37*
G36*
X62531Y33096D02*
X62592Y33054D01*
X62659Y33017D01*
X62734Y32985D01*
X62816Y32958D01*
X62904Y32936D01*
X63000Y32919D01*
X63103Y32908D01*
X63213Y32901D01*
X63330Y32900D01*
X62439Y32009D01*
X62437Y32126D01*
X62419Y32339D01*
X62402Y32434D01*
X62381Y32523D01*
X62354Y32605D01*
X62322Y32679D01*
X62284Y32747D01*
X62242Y32807D01*
X62195Y32861D01*
X62478Y33144D01*
X62531Y33096D01*
D02*
G37*
G36*
X0Y46082D02*
X117597D01*
X117697Y45582D01*
X117641Y45559D01*
X114841Y42759D01*
X114651Y42300D01*
Y39169D01*
X110331Y34849D01*
X99100D01*
X98641Y34659D01*
X88487Y24506D01*
X88451Y24490D01*
X88403Y24474D01*
X88345Y24460D01*
X88283Y24449D01*
X88105Y24434D01*
X88004Y24433D01*
X87927Y24400D01*
X87741D01*
X87264Y24202D01*
X86898Y23836D01*
X86700Y23359D01*
Y22841D01*
X86898Y22364D01*
X87035Y22227D01*
X87211Y21900D01*
X87035Y21573D01*
X86898Y21436D01*
X86700Y20959D01*
Y20441D01*
X86898Y19964D01*
X87089Y19772D01*
X86882Y19273D01*
X52994D01*
X52895Y19772D01*
X53059Y19841D01*
X58059Y24841D01*
X58249Y25300D01*
Y30663D01*
X58059Y31122D01*
X53793Y35389D01*
X53984Y35851D01*
X58570D01*
X60220Y34200D01*
X60013Y33700D01*
X59941D01*
X59464Y33502D01*
X59098Y33136D01*
X58900Y32659D01*
Y32141D01*
X59098Y31664D01*
X59464Y31298D01*
X59941Y31100D01*
X60459D01*
X60936Y31298D01*
X61302Y31664D01*
X61332Y31736D01*
X61923Y31856D01*
X62039Y31741D01*
X62236Y31264D01*
X62602Y30898D01*
X63080Y30700D01*
X63597D01*
X64075Y30898D01*
X64441Y31264D01*
X64639Y31741D01*
Y32259D01*
X64441Y32736D01*
X64075Y33102D01*
X63597Y33300D01*
X63411D01*
X63335Y33333D01*
X63228Y33334D01*
X63140Y33339D01*
X63062Y33348D01*
X62993Y33360D01*
X62935Y33374D01*
X62887Y33390D01*
X62852Y33406D01*
X59298Y36959D01*
X58839Y37149D01*
X23369D01*
X22419Y38100D01*
X22382Y38167D01*
X22348Y38273D01*
X22328Y38406D01*
X22325Y38569D01*
X22345Y38763D01*
X22389Y38985D01*
X22459Y39235D01*
X22557Y39511D01*
X22685Y39821D01*
X22686Y39851D01*
X22702Y39881D01*
X22900Y40618D01*
Y41382D01*
X22702Y42119D01*
X22321Y42781D01*
X21781Y43321D01*
X21119Y43702D01*
X20382Y43900D01*
X19618D01*
X18881Y43702D01*
X18219Y43321D01*
X17679Y42781D01*
X17298Y42119D01*
X17100Y41382D01*
Y40618D01*
X17298Y39881D01*
X17679Y39219D01*
X18219Y38679D01*
X18841Y38321D01*
X18865Y38295D01*
X18867Y38295D01*
X18869Y38294D01*
X21488Y37194D01*
X21870Y36811D01*
X21679Y36349D01*
X15569D01*
X13219Y38699D01*
X13182Y38766D01*
X13129Y38901D01*
X13077Y39081D01*
X13032Y39301D01*
X12995Y39553D01*
X12934Y40571D01*
X12933Y40976D01*
X12900Y41055D01*
Y41382D01*
X12702Y42119D01*
X12321Y42781D01*
X11781Y43321D01*
X11119Y43702D01*
X10382Y43900D01*
X9618D01*
X8881Y43702D01*
X8219Y43321D01*
X7679Y42781D01*
X7298Y42119D01*
X7100Y41382D01*
Y40618D01*
X7298Y39881D01*
X7679Y39219D01*
X8219Y38679D01*
X8881Y38298D01*
X9618Y38100D01*
X9943D01*
X10019Y38067D01*
X10806Y38056D01*
X11443Y38006D01*
X11699Y37968D01*
X11919Y37923D01*
X12099Y37871D01*
X12234Y37818D01*
X12301Y37780D01*
X14070Y36011D01*
X13879Y35549D01*
X6369D01*
X3220Y38699D01*
X3182Y38766D01*
X3129Y38901D01*
X3077Y39081D01*
X3032Y39301D01*
X2995Y39553D01*
X2933Y40571D01*
X2933Y40976D01*
X2900Y41055D01*
Y41382D01*
X2702Y42119D01*
X2321Y42781D01*
X1781Y43321D01*
X1119Y43702D01*
X382Y43900D01*
X-382D01*
X-1119Y43702D01*
X-1781Y43321D01*
X-2321Y42781D01*
X-2702Y42119D01*
X-2900Y41382D01*
Y40618D01*
X-2702Y39881D01*
X-2321Y39219D01*
X-1781Y38679D01*
X-1119Y38298D01*
X-382Y38100D01*
X-57D01*
X19Y38067D01*
X806Y38056D01*
X1443Y38006D01*
X1699Y37968D01*
X1919Y37923D01*
X2098Y37871D01*
X2234Y37818D01*
X2301Y37780D01*
X5641Y34441D01*
X6100Y34251D01*
X51962D01*
X53601Y32611D01*
X53410Y32149D01*
X52200D01*
X51741Y31959D01*
X50541Y30759D01*
X50351Y30300D01*
Y30198D01*
X50339Y30167D01*
X50322Y30132D01*
X50299Y30094D01*
X50270Y30052D01*
X50233Y30009D01*
X50189Y29963D01*
X50126Y29906D01*
X50121Y29896D01*
X50111Y29891D01*
X50081Y29819D01*
X49898Y29636D01*
X49700Y29159D01*
Y28641D01*
X49898Y28164D01*
X50264Y27798D01*
X50741Y27600D01*
X51259D01*
X51736Y27798D01*
X52102Y28164D01*
X52179Y28350D01*
X52721D01*
X52798Y28164D01*
X53164Y27798D01*
X53641Y27600D01*
X54151D01*
Y26169D01*
X51430Y23449D01*
X51052Y23477D01*
X50908Y23889D01*
X50900Y23961D01*
X51102Y24164D01*
X51300Y24641D01*
Y25159D01*
X51102Y25636D01*
X50736Y26002D01*
X50259Y26200D01*
X49741D01*
X49264Y26002D01*
X48898Y25636D01*
X48700Y25159D01*
Y24641D01*
X48898Y24164D01*
X49180Y23881D01*
X49088Y23488D01*
X49027Y23381D01*
X37932D01*
X37473Y23191D01*
X34841Y20559D01*
X34651Y20100D01*
Y16413D01*
X34189Y16222D01*
X24761Y25649D01*
X24464Y25848D01*
X24113Y25918D01*
X13000D01*
X12649Y25848D01*
X12351Y25649D01*
X11120Y24418D01*
X10283D01*
X10162Y24815D01*
X10156Y24918D01*
X10502Y25264D01*
X10700Y25741D01*
Y26259D01*
X10502Y26736D01*
X10136Y27102D01*
X9659Y27300D01*
X9141D01*
X8664Y27102D01*
X8298Y26736D01*
X8100Y26259D01*
Y25741D01*
X8298Y25264D01*
X8644Y24918D01*
X8638Y24815D01*
X8517Y24418D01*
X4000D01*
X3649Y24348D01*
X3351Y24149D01*
X2620Y23418D01*
X-620D01*
X-1811Y24609D01*
X-1825Y24645D01*
X-1891Y24712D01*
X-1940Y24766D01*
X-2025Y24869D01*
X-2049Y24902D01*
X-2065Y24929D01*
X-2073Y24944D01*
X-2077Y24960D01*
X-2082Y24966D01*
X-2083Y24970D01*
X-2090Y24977D01*
X-2100Y24990D01*
Y25159D01*
X-2298Y25636D01*
X-2664Y26002D01*
X-2827Y26070D01*
Y26634D01*
X-2700Y26941D01*
Y27459D01*
X-2898Y27936D01*
X-3264Y28302D01*
X-3741Y28500D01*
X-4259D01*
X-4582Y28366D01*
X-5082Y28609D01*
Y41000D01*
X-5089Y41034D01*
X-4920Y42318D01*
X-4411Y43547D01*
X-3602Y44602D01*
X-2547Y45411D01*
X-1318Y45920D01*
X-34Y46089D01*
X0Y46082D01*
D02*
G37*
G36*
X51204Y30223D02*
X51215Y30147D01*
X51235Y30073D01*
X51261Y29999D01*
X51296Y29927D01*
X51338Y29856D01*
X51388Y29787D01*
X51445Y29718D01*
X51511Y29651D01*
X51583Y29585D01*
X50417D01*
X50489Y29651D01*
X50555Y29718D01*
X50612Y29787D01*
X50662Y29856D01*
X50704Y29927D01*
X50739Y29999D01*
X50766Y30073D01*
X50785Y30147D01*
X50796Y30223D01*
X50800Y30300D01*
X51200D01*
X51204Y30223D01*
D02*
G37*
G36*
X54753Y28599D02*
X54748Y28547D01*
X54749Y28496D01*
X54757Y28445D01*
X54772Y28394D01*
X54793Y28343D01*
X54820Y28293D01*
X54854Y28242D01*
X54894Y28192D01*
X54941Y28141D01*
X54659Y27859D01*
X54608Y27905D01*
X54558Y27946D01*
X54507Y27980D01*
X54457Y28007D01*
X54406Y28028D01*
X54355Y28043D01*
X54304Y28051D01*
X54252Y28052D01*
X54201Y28047D01*
X54150Y28035D01*
X54765Y28650D01*
X54753Y28599D01*
D02*
G37*
G36*
X-3249Y25539D02*
X-3241Y25514D01*
X-3230Y25488D01*
X-3215Y25459D01*
X-3196Y25429D01*
X-3174Y25398D01*
X-3118Y25329D01*
X-3084Y25292D01*
X-3046Y25254D01*
X-3754Y24546D01*
X-3792Y24584D01*
X-3897Y24674D01*
X-3929Y24696D01*
X-3959Y24715D01*
X-3988Y24730D01*
X-4014Y24741D01*
X-4039Y24749D01*
X-4063Y24753D01*
X-3253Y25563D01*
X-3249Y25539D01*
D02*
G37*
G36*
X-2497Y24853D02*
X-2486Y24811D01*
X-2468Y24765D01*
X-2443Y24716D01*
X-2410Y24663D01*
X-2370Y24606D01*
X-2267Y24482D01*
X-2205Y24414D01*
X-2135Y24343D01*
X-2843Y23636D01*
X-2914Y23705D01*
X-3106Y23870D01*
X-3163Y23910D01*
X-3216Y23943D01*
X-3265Y23968D01*
X-3311Y23986D01*
X-3353Y23997D01*
X-3391Y24000D01*
X-2500Y24891D01*
X-2497Y24853D01*
D02*
G37*
G36*
X89144Y23961D02*
X89096Y23907D01*
X89054Y23847D01*
X89017Y23779D01*
X88985Y23705D01*
X88958Y23623D01*
X88936Y23534D01*
X88919Y23439D01*
X88908Y23336D01*
X88901Y23226D01*
X88900Y23109D01*
X88009Y24000D01*
X88126Y24001D01*
X88339Y24019D01*
X88434Y24036D01*
X88523Y24058D01*
X88605Y24085D01*
X88679Y24117D01*
X88747Y24154D01*
X88807Y24196D01*
X88861Y24244D01*
X89144Y23961D01*
D02*
G37*
G36*
X114448Y22474D02*
X114311Y22310D01*
X114255Y22231D01*
X114207Y22153D01*
X114169Y22076D01*
X114139Y22001D01*
X114117Y21927D01*
X114104Y21854D01*
X114100Y21782D01*
X113700D01*
X113696Y21854D01*
X113683Y21927D01*
X113661Y22001D01*
X113631Y22076D01*
X113593Y22153D01*
X113545Y22231D01*
X113489Y22310D01*
X113425Y22391D01*
X113352Y22474D01*
X113270Y22557D01*
X114530D01*
X114448Y22474D01*
D02*
G37*
G36*
X88726Y21248D02*
X88889Y21111D01*
X88969Y21055D01*
X89047Y21008D01*
X89124Y20969D01*
X89199Y20939D01*
X89274Y20917D01*
X89346Y20904D01*
X89417Y20900D01*
Y20500D01*
X89346Y20496D01*
X89274Y20483D01*
X89199Y20461D01*
X89124Y20431D01*
X89047Y20392D01*
X88969Y20345D01*
X88889Y20289D01*
X88809Y20225D01*
X88726Y20152D01*
X88643Y20070D01*
Y21330D01*
X88726Y21248D01*
D02*
G37*
G36*
X99468Y30939D02*
X99700Y30774D01*
Y30341D01*
X99827Y30034D01*
Y28966D01*
X99700Y28659D01*
Y28141D01*
X99827Y27834D01*
Y24086D01*
X95014Y19273D01*
X89118D01*
X89031Y19432D01*
X88959Y19706D01*
X88958Y19761D01*
X89340Y20051D01*
X90600D01*
X91059Y20241D01*
X91959Y21141D01*
X92149Y21600D01*
Y23931D01*
X99238Y31020D01*
X99468Y30939D01*
D02*
G37*
G36*
X114748Y14674D02*
X114611Y14511D01*
X114555Y14431D01*
X114507Y14353D01*
X114469Y14276D01*
X114439Y14201D01*
X114417Y14127D01*
X114404Y14054D01*
X114400Y13983D01*
X114000D01*
X113996Y14054D01*
X113983Y14127D01*
X113961Y14201D01*
X113931Y14276D01*
X113892Y14353D01*
X113845Y14431D01*
X113789Y14511D01*
X113725Y14591D01*
X113652Y14674D01*
X113570Y14757D01*
X114830D01*
X114748Y14674D01*
D02*
G37*
G36*
X49244Y12361D02*
X49196Y12307D01*
X49154Y12247D01*
X49117Y12179D01*
X49085Y12105D01*
X49058Y12023D01*
X49036Y11934D01*
X49019Y11839D01*
X49008Y11736D01*
X49001Y11626D01*
X49000Y11509D01*
X48109Y12400D01*
X48226Y12401D01*
X48439Y12419D01*
X48534Y12436D01*
X48623Y12458D01*
X48705Y12485D01*
X48779Y12517D01*
X48847Y12554D01*
X48907Y12596D01*
X48961Y12644D01*
X49244Y12361D01*
D02*
G37*
G36*
X114257Y9170D02*
X114174Y9252D01*
X114011Y9389D01*
X113931Y9445D01*
X113853Y9493D01*
X113776Y9531D01*
X113701Y9561D01*
X113627Y9583D01*
X113554Y9596D01*
X113482Y9600D01*
Y10000D01*
X113554Y10004D01*
X113627Y10017D01*
X113701Y10039D01*
X113776Y10069D01*
X113853Y10108D01*
X113931Y10155D01*
X114011Y10211D01*
X114091Y10275D01*
X114174Y10348D01*
X114257Y10430D01*
Y9170D01*
D02*
G37*
G36*
X28644Y9361D02*
X28596Y9307D01*
X28554Y9247D01*
X28517Y9179D01*
X28485Y9105D01*
X28458Y9023D01*
X28436Y8934D01*
X28419Y8839D01*
X28408Y8736D01*
X28401Y8626D01*
X28400Y8509D01*
X27509Y9400D01*
X27626Y9401D01*
X27839Y9419D01*
X27934Y9436D01*
X28023Y9458D01*
X28105Y9485D01*
X28179Y9517D01*
X28247Y9554D01*
X28307Y9596D01*
X28361Y9644D01*
X28644Y9361D01*
D02*
G37*
G36*
X141351Y19831D02*
Y6249D01*
X140851Y6097D01*
X140829Y6129D01*
X138329Y8629D01*
X137949Y8883D01*
X137500Y8973D01*
X129500D01*
X129051Y8883D01*
X128671Y8629D01*
X127071Y7030D01*
X126934Y6972D01*
X122300D01*
X121851Y6883D01*
X121471Y6629D01*
X119471Y4630D01*
X119164Y4502D01*
X118798Y4136D01*
X118600Y3659D01*
Y3141D01*
X118798Y2664D01*
X119164Y2298D01*
X119641Y2100D01*
X120159D01*
X120636Y2298D01*
X121002Y2664D01*
X121130Y2971D01*
X122786Y4628D01*
X126934D01*
X127241Y4500D01*
X127759D01*
X128236Y4698D01*
X128602Y5064D01*
X128730Y5371D01*
X129986Y6628D01*
X137014D01*
X138828Y4814D01*
Y-11414D01*
X130514Y-19727D01*
X98300D01*
X97851Y-19817D01*
X97471Y-20071D01*
X96071Y-21470D01*
X95884Y-21548D01*
X95514Y-21383D01*
X95384Y-21271D01*
Y-17003D01*
X95193Y-16544D01*
X92391Y-13741D01*
X91931Y-13551D01*
X69206D01*
X67767Y-12111D01*
X67958Y-11649D01*
X86800D01*
X87259Y-11459D01*
X87938Y-10780D01*
X88168Y-10861D01*
X88400Y-11026D01*
Y-11459D01*
X88598Y-11936D01*
X88964Y-12302D01*
X89441Y-12500D01*
X89959D01*
X90436Y-12302D01*
X90802Y-11936D01*
X91000Y-11459D01*
Y-10941D01*
X90802Y-10464D01*
X90488Y-10149D01*
X90523Y-9908D01*
X90641Y-9649D01*
X103531D01*
X107641Y-13759D01*
X108100Y-13949D01*
X116900D01*
X117359Y-13759D01*
X126569Y-4549D01*
X134862D01*
X134898Y-4564D01*
X134943Y-4587D01*
X134994Y-4617D01*
X135046Y-4654D01*
X135182Y-4769D01*
X135255Y-4840D01*
X135332Y-4871D01*
X135464Y-5002D01*
X135941Y-5200D01*
X136459D01*
X136936Y-5002D01*
X137302Y-4636D01*
X137500Y-4159D01*
Y-3641D01*
X137302Y-3164D01*
X136936Y-2798D01*
X136459Y-2600D01*
X135941D01*
X135464Y-2798D01*
X135332Y-2929D01*
X135255Y-2960D01*
X135178Y-3035D01*
X135112Y-3094D01*
X135051Y-3143D01*
X134994Y-3182D01*
X134943Y-3213D01*
X134898Y-3236D01*
X134862Y-3251D01*
X126300D01*
X126087Y-3339D01*
X125803Y-2915D01*
X132069Y3351D01*
X134862D01*
X134898Y3336D01*
X134943Y3313D01*
X134994Y3283D01*
X135046Y3246D01*
X135182Y3131D01*
X135255Y3060D01*
X135332Y3029D01*
X135464Y2898D01*
X135941Y2700D01*
X136459D01*
X136936Y2898D01*
X137302Y3264D01*
X137500Y3741D01*
Y4259D01*
X137302Y4736D01*
X136936Y5102D01*
X136459Y5300D01*
X135941D01*
X135464Y5102D01*
X135332Y4971D01*
X135255Y4940D01*
X135178Y4865D01*
X135112Y4806D01*
X135051Y4757D01*
X134994Y4718D01*
X134943Y4687D01*
X134898Y4664D01*
X134862Y4649D01*
X131800D01*
X131341Y4459D01*
X117944Y-8938D01*
X117559Y-8659D01*
X117749Y-8200D01*
Y-3900D01*
X117559Y-3441D01*
X116405Y-2287D01*
X116390Y-2251D01*
X116374Y-2203D01*
X116360Y-2145D01*
X116349Y-2083D01*
X116334Y-1905D01*
X116333Y-1804D01*
X116300Y-1727D01*
Y-1541D01*
X116102Y-1064D01*
X115736Y-698D01*
X115259Y-500D01*
X114741D01*
X114264Y-698D01*
X113898Y-1064D01*
X113700Y-1541D01*
Y-2059D01*
X113898Y-2536D01*
X114264Y-2902D01*
X114741Y-3100D01*
X114927D01*
X115004Y-3133D01*
X115111Y-3134D01*
X115199Y-3139D01*
X115277Y-3148D01*
X115345Y-3160D01*
X115403Y-3174D01*
X115451Y-3190D01*
X115487Y-3206D01*
X116451Y-4169D01*
Y-5781D01*
X115951Y-5881D01*
X115902Y-5764D01*
X115536Y-5398D01*
X115059Y-5200D01*
X114541D01*
X114064Y-5398D01*
X113932Y-5529D01*
X113855Y-5560D01*
X113778Y-5635D01*
X113712Y-5694D01*
X113651Y-5743D01*
X113594Y-5782D01*
X113543Y-5813D01*
X113498Y-5836D01*
X113462Y-5851D01*
X107169D01*
X106659Y-5341D01*
X106200Y-5151D01*
X103969D01*
X101246Y-2427D01*
X101259Y-2359D01*
X112769Y9151D01*
X113562D01*
X113598Y9136D01*
X113643Y9113D01*
X113694Y9082D01*
X113746Y9046D01*
X113882Y8931D01*
X113955Y8860D01*
X114032Y8829D01*
X114164Y8698D01*
X114641Y8500D01*
X115159D01*
X115636Y8698D01*
X116002Y9064D01*
X116200Y9541D01*
Y10059D01*
X116002Y10536D01*
X115636Y10902D01*
X115159Y11100D01*
X114641D01*
X114164Y10902D01*
X114136Y10875D01*
X114060Y10865D01*
X113828Y11341D01*
X114659Y12172D01*
X114849Y12631D01*
Y14062D01*
X114864Y14098D01*
X114887Y14143D01*
X114918Y14194D01*
X114954Y14246D01*
X115069Y14382D01*
X115140Y14455D01*
X115171Y14532D01*
X115302Y14664D01*
X115500Y15141D01*
Y15659D01*
X115302Y16136D01*
X114936Y16502D01*
X114459Y16700D01*
X113941D01*
X113464Y16502D01*
X113098Y16136D01*
X112949Y15778D01*
X112449Y15877D01*
Y16731D01*
X114359Y18641D01*
X114549Y19100D01*
Y21862D01*
X114564Y21898D01*
X114587Y21943D01*
X114618Y21994D01*
X114654Y22046D01*
X114769Y22182D01*
X114840Y22255D01*
X114871Y22332D01*
X115002Y22464D01*
X115200Y22941D01*
Y23459D01*
X115002Y23936D01*
X114636Y24302D01*
X114159Y24500D01*
X113641D01*
X113164Y24302D01*
X112798Y23936D01*
X112600Y23459D01*
Y22941D01*
X112798Y22464D01*
X112929Y22332D01*
X112960Y22255D01*
X113035Y22178D01*
X113093Y22112D01*
X113143Y22051D01*
X113182Y21994D01*
X113213Y21943D01*
X113236Y21898D01*
X113251Y21862D01*
Y19369D01*
X111341Y17459D01*
X111151Y17000D01*
Y11769D01*
X99731Y349D01*
X72000D01*
X71541Y159D01*
X68000Y-3382D01*
X67548Y-3654D01*
X67448Y-3706D01*
X67444Y-3712D01*
X67437Y-3712D01*
X67404Y-3755D01*
X67327Y-3787D01*
X67249Y-3864D01*
X66749Y-3657D01*
Y-3500D01*
X66559Y-3041D01*
X60359Y3159D01*
X59900Y3349D01*
X54529D01*
X54449Y3469D01*
Y7431D01*
X54259Y7891D01*
X51691Y10459D01*
X51231Y10649D01*
X49696D01*
X49362Y11150D01*
X49400Y11241D01*
Y11427D01*
X49433Y11504D01*
X49434Y11611D01*
X49439Y11699D01*
X49448Y11777D01*
X49460Y11845D01*
X49474Y11903D01*
X49490Y11951D01*
X49505Y11987D01*
X52569Y15051D01*
X96300D01*
X96759Y15241D01*
X107269Y25751D01*
X135431D01*
X141351Y19831D01*
D02*
G37*
G36*
X30926Y8548D02*
X31089Y8411D01*
X31169Y8355D01*
X31247Y8308D01*
X31324Y8269D01*
X31399Y8239D01*
X31473Y8217D01*
X31546Y8204D01*
X31618Y8200D01*
Y7800D01*
X31546Y7796D01*
X31473Y7783D01*
X31399Y7761D01*
X31324Y7731D01*
X31247Y7693D01*
X31169Y7645D01*
X31089Y7589D01*
X31009Y7525D01*
X30926Y7452D01*
X30843Y7370D01*
Y8630D01*
X30926Y8548D01*
D02*
G37*
G36*
X45857Y5370D02*
X45828Y5395D01*
X45791Y5417D01*
X45746Y5436D01*
X45693Y5453D01*
X45632Y5468D01*
X45564Y5479D01*
X45403Y5495D01*
X45311Y5499D01*
X45212Y5500D01*
Y6500D01*
X45311Y6501D01*
X45564Y6521D01*
X45632Y6532D01*
X45693Y6547D01*
X45746Y6564D01*
X45791Y6583D01*
X45828Y6605D01*
X45857Y6630D01*
Y5370D01*
D02*
G37*
G36*
X135557Y3370D02*
X135474Y3452D01*
X135310Y3589D01*
X135231Y3645D01*
X135153Y3692D01*
X135076Y3731D01*
X135001Y3761D01*
X134926Y3783D01*
X134854Y3796D01*
X134783Y3800D01*
Y4200D01*
X134854Y4204D01*
X134926Y4217D01*
X135001Y4239D01*
X135076Y4269D01*
X135153Y4307D01*
X135231Y4355D01*
X135310Y4411D01*
X135391Y4475D01*
X135474Y4548D01*
X135557Y4630D01*
Y3370D01*
D02*
G37*
G36*
X115901Y-1926D02*
X115919Y-2139D01*
X115936Y-2234D01*
X115958Y-2323D01*
X115985Y-2405D01*
X116017Y-2479D01*
X116054Y-2547D01*
X116096Y-2607D01*
X116144Y-2661D01*
X115861Y-2944D01*
X115807Y-2896D01*
X115747Y-2854D01*
X115679Y-2817D01*
X115605Y-2785D01*
X115523Y-2758D01*
X115434Y-2736D01*
X115339Y-2719D01*
X115236Y-2708D01*
X115126Y-2701D01*
X115009Y-2700D01*
X115900Y-1809D01*
X115901Y-1926D01*
D02*
G37*
G36*
X71417Y-3543D02*
X71430Y-3616D01*
X71451Y-3690D01*
X71481Y-3765D01*
X71520Y-3842D01*
X71567Y-3920D01*
X71623Y-3999D01*
X71688Y-4080D01*
X71761Y-4163D01*
X71843Y-4246D01*
X70583D01*
X70664Y-4163D01*
X70802Y-3999D01*
X70858Y-3920D01*
X70905Y-3842D01*
X70944Y-3765D01*
X70974Y-3690D01*
X70995Y-3616D01*
X71008Y-3543D01*
X71013Y-3472D01*
X71413D01*
X71417Y-3543D01*
D02*
G37*
G36*
X68869Y-3714D02*
X68817Y-3773D01*
X68774Y-3835D01*
X68743Y-3900D01*
X68723Y-3966D01*
X68714Y-4036D01*
X68716Y-4108D01*
X68728Y-4182D01*
X68752Y-4259D01*
X68786Y-4338D01*
X68831Y-4420D01*
X67649Y-4090D01*
X67761Y-4031D01*
X68264Y-3728D01*
X68320Y-3686D01*
X68409Y-3608D01*
X68869Y-3714D01*
D02*
G37*
G36*
X50344Y-3639D02*
X50296Y-3693D01*
X50254Y-3753D01*
X50217Y-3821D01*
X50185Y-3895D01*
X50158Y-3977D01*
X50136Y-4066D01*
X50119Y-4161D01*
X50108Y-4264D01*
X50101Y-4374D01*
X50100Y-4491D01*
X49209Y-3600D01*
X49326Y-3599D01*
X49538Y-3581D01*
X49634Y-3564D01*
X49723Y-3542D01*
X49805Y-3515D01*
X49879Y-3483D01*
X49947Y-3446D01*
X50007Y-3404D01*
X50061Y-3356D01*
X50344Y-3639D01*
D02*
G37*
G36*
X135557Y-4530D02*
X135474Y-4448D01*
X135310Y-4311D01*
X135231Y-4255D01*
X135153Y-4208D01*
X135076Y-4169D01*
X135001Y-4139D01*
X134926Y-4117D01*
X134854Y-4104D01*
X134783Y-4100D01*
Y-3700D01*
X134854Y-3696D01*
X134926Y-3683D01*
X135001Y-3661D01*
X135076Y-3631D01*
X135153Y-3593D01*
X135231Y-3545D01*
X135310Y-3489D01*
X135391Y-3425D01*
X135474Y-3352D01*
X135557Y-3270D01*
Y-4530D01*
D02*
G37*
G36*
X56350Y-4599D02*
X56245Y-4596D01*
X56146Y-4599D01*
X56052Y-4608D01*
X55963Y-4623D01*
X55880Y-4644D01*
X55802Y-4672D01*
X55729Y-4705D01*
X55661Y-4744D01*
X55599Y-4790D01*
X55541Y-4841D01*
X55259Y-4559D01*
X55310Y-4501D01*
X55356Y-4439D01*
X55395Y-4371D01*
X55428Y-4298D01*
X55456Y-4220D01*
X55477Y-4137D01*
X55492Y-4048D01*
X55501Y-3954D01*
X55504Y-3855D01*
X55501Y-3750D01*
X56350Y-4599D01*
D02*
G37*
G36*
X75506Y-4028D02*
X75459Y-4082D01*
X75416Y-4142D01*
X75379Y-4210D01*
X75347Y-4284D01*
X75320Y-4366D01*
X75298Y-4455D01*
X75282Y-4550D01*
X75270Y-4653D01*
X75264Y-4763D01*
X75262Y-4880D01*
X74371Y-3989D01*
X74488Y-3988D01*
X74701Y-3970D01*
X74796Y-3953D01*
X74885Y-3931D01*
X74967Y-3904D01*
X75042Y-3872D01*
X75109Y-3835D01*
X75170Y-3793D01*
X75223Y-3745D01*
X75506Y-4028D01*
D02*
G37*
G36*
X48557Y-5130D02*
X48474Y-5048D01*
X48311Y-4911D01*
X48231Y-4855D01*
X48153Y-4808D01*
X48076Y-4769D01*
X48001Y-4739D01*
X47927Y-4717D01*
X47854Y-4704D01*
X47782Y-4700D01*
Y-4300D01*
X47854Y-4296D01*
X47927Y-4283D01*
X48001Y-4261D01*
X48076Y-4231D01*
X48153Y-4192D01*
X48231Y-4145D01*
X48311Y-4089D01*
X48391Y-4025D01*
X48474Y-3952D01*
X48557Y-3870D01*
Y-5130D01*
D02*
G37*
G36*
X69842Y-5190D02*
X69855Y-5263D01*
X69876Y-5337D01*
X69907Y-5412D01*
X69945Y-5489D01*
X69993Y-5567D01*
X70048Y-5647D01*
X70113Y-5728D01*
X70186Y-5810D01*
X70268Y-5894D01*
X69008D01*
X69090Y-5810D01*
X69227Y-5647D01*
X69283Y-5567D01*
X69330Y-5489D01*
X69369Y-5412D01*
X69399Y-5337D01*
X69421Y-5263D01*
X69433Y-5190D01*
X69438Y-5119D01*
X69838D01*
X69842Y-5190D01*
D02*
G37*
G36*
X59162Y-5615D02*
X59025Y-5779D01*
X58969Y-5858D01*
X58922Y-5936D01*
X58883Y-6013D01*
X58853Y-6088D01*
X58831Y-6162D01*
X58819Y-6235D01*
X58814Y-6306D01*
X58414D01*
X58410Y-6235D01*
X58397Y-6162D01*
X58376Y-6088D01*
X58345Y-6013D01*
X58307Y-5936D01*
X58259Y-5858D01*
X58204Y-5779D01*
X58139Y-5698D01*
X58066Y-5615D01*
X57984Y-5532D01*
X59244D01*
X59162Y-5615D01*
D02*
G37*
G36*
X114157Y-7130D02*
X114074Y-7048D01*
X113910Y-6911D01*
X113831Y-6855D01*
X113753Y-6808D01*
X113676Y-6769D01*
X113601Y-6739D01*
X113526Y-6717D01*
X113454Y-6704D01*
X113382Y-6700D01*
Y-6300D01*
X113454Y-6296D01*
X113526Y-6283D01*
X113601Y-6261D01*
X113676Y-6231D01*
X113753Y-6193D01*
X113831Y-6145D01*
X113910Y-6089D01*
X113991Y-6025D01*
X114074Y-5952D01*
X114157Y-5870D01*
Y-7130D01*
D02*
G37*
G36*
X76838Y-6662D02*
X76856Y-6875D01*
X76873Y-6971D01*
X76895Y-7059D01*
X76922Y-7141D01*
X76954Y-7215D01*
X76991Y-7283D01*
X77033Y-7344D01*
X77081Y-7397D01*
X76798Y-7680D01*
X76744Y-7633D01*
X76684Y-7590D01*
X76616Y-7553D01*
X76542Y-7521D01*
X76460Y-7494D01*
X76371Y-7472D01*
X76276Y-7456D01*
X76173Y-7444D01*
X76063Y-7438D01*
X75946Y-7436D01*
X76837Y-6545D01*
X76838Y-6662D01*
D02*
G37*
G36*
X73689D02*
X73707Y-6875D01*
X73724Y-6971D01*
X73745Y-7059D01*
X73772Y-7141D01*
X73804Y-7215D01*
X73841Y-7283D01*
X73884Y-7344D01*
X73931Y-7397D01*
X73648Y-7680D01*
X73595Y-7633D01*
X73534Y-7590D01*
X73467Y-7553D01*
X73392Y-7521D01*
X73310Y-7494D01*
X73222Y-7472D01*
X73126Y-7456D01*
X73023Y-7444D01*
X72913Y-7438D01*
X72796Y-7436D01*
X73687Y-6545D01*
X73689Y-6662D01*
D02*
G37*
G36*
X60737Y-7263D02*
X60600Y-7426D01*
X60544Y-7505D01*
X60496Y-7583D01*
X60458Y-7660D01*
X60428Y-7736D01*
X60406Y-7810D01*
X60393Y-7882D01*
X60389Y-7954D01*
X59989D01*
X59985Y-7882D01*
X59972Y-7810D01*
X59950Y-7736D01*
X59920Y-7660D01*
X59882Y-7583D01*
X59834Y-7505D01*
X59778Y-7426D01*
X59714Y-7345D01*
X59641Y-7263D01*
X59559Y-7179D01*
X60819D01*
X60737Y-7263D01*
D02*
G37*
G36*
X57588D02*
X57450Y-7426D01*
X57394Y-7505D01*
X57347Y-7583D01*
X57308Y-7660D01*
X57278Y-7736D01*
X57257Y-7810D01*
X57244Y-7882D01*
X57239Y-7954D01*
X56839D01*
X56835Y-7882D01*
X56822Y-7810D01*
X56801Y-7736D01*
X56771Y-7660D01*
X56732Y-7583D01*
X56685Y-7505D01*
X56629Y-7426D01*
X56564Y-7345D01*
X56491Y-7263D01*
X56409Y-7179D01*
X57669D01*
X57588Y-7263D01*
D02*
G37*
G36*
X48846Y-6759D02*
X48894Y-6795D01*
X48952Y-6834D01*
X49099Y-6918D01*
X49287Y-7012D01*
X49616Y-7156D01*
X49690Y-7179D01*
X49784Y-7199D01*
X49874Y-7211D01*
X49959Y-7215D01*
X50039Y-7209D01*
X50115Y-7193D01*
X50187Y-7169D01*
X50254Y-7136D01*
X50316Y-7094D01*
X50374Y-7043D01*
X50560Y-7423D01*
X50522Y-7466D01*
X50483Y-7518D01*
X50443Y-7580D01*
X50404Y-7651D01*
X50323Y-7821D01*
X50241Y-8029D01*
X50157Y-8274D01*
X49609Y-7183D01*
X48476Y-7638D01*
X48513Y-7546D01*
X48539Y-7457D01*
X48556Y-7372D01*
X48563Y-7291D01*
X48561Y-7213D01*
X48548Y-7140D01*
X48526Y-7070D01*
X48493Y-7004D01*
X48452Y-6941D01*
X48400Y-6882D01*
X48808Y-6725D01*
X48846Y-6759D01*
D02*
G37*
G36*
X32333Y10911D02*
X32142Y10449D01*
X28800D01*
X28341Y10259D01*
X27987Y9905D01*
X27951Y9890D01*
X27903Y9874D01*
X27845Y9860D01*
X27783Y9849D01*
X27605Y9834D01*
X27504Y9833D01*
X27427Y9800D01*
X27241D01*
X26764Y9602D01*
X26398Y9236D01*
X26200Y8759D01*
Y8241D01*
X26398Y7764D01*
X26764Y7398D01*
X27241Y7200D01*
X27759D01*
X28236Y7398D01*
X28438Y7600D01*
X28992Y7509D01*
X28998Y7506D01*
X29098Y7264D01*
X29464Y6898D01*
X29941Y6700D01*
X30459D01*
X30936Y6898D01*
X31068Y7029D01*
X31145Y7060D01*
X31222Y7135D01*
X31288Y7193D01*
X31349Y7243D01*
X31406Y7282D01*
X31457Y7313D01*
X31502Y7336D01*
X31538Y7351D01*
X33531D01*
X48127Y-7245D01*
X48129Y-7257D01*
X48130Y-7279D01*
X48127Y-7311D01*
X48119Y-7352D01*
X48103Y-7403D01*
X48073Y-7479D01*
X48075Y-7561D01*
X48000Y-7741D01*
Y-8259D01*
X48198Y-8736D01*
X48312Y-8851D01*
X48105Y-9351D01*
X41363D01*
X25349Y6663D01*
Y11100D01*
X27000Y12751D01*
X30494D01*
X32333Y10911D01*
D02*
G37*
G36*
X110557Y-10330D02*
X110474Y-10248D01*
X110310Y-10111D01*
X110231Y-10055D01*
X110153Y-10007D01*
X110076Y-9969D01*
X110001Y-9939D01*
X109926Y-9917D01*
X109854Y-9904D01*
X109783Y-9900D01*
Y-9500D01*
X109854Y-9496D01*
X109926Y-9483D01*
X110001Y-9461D01*
X110076Y-9431D01*
X110153Y-9392D01*
X110231Y-9345D01*
X110310Y-9289D01*
X110391Y-9225D01*
X110474Y-9152D01*
X110557Y-9070D01*
Y-10330D01*
D02*
G37*
G36*
X91748Y-18126D02*
X91611Y-18290D01*
X91555Y-18369D01*
X91508Y-18447D01*
X91469Y-18524D01*
X91439Y-18599D01*
X91417Y-18673D01*
X91404Y-18746D01*
X91400Y-18817D01*
X91000D01*
X90996Y-18746D01*
X90983Y-18673D01*
X90961Y-18599D01*
X90931Y-18524D01*
X90892Y-18447D01*
X90845Y-18369D01*
X90789Y-18290D01*
X90725Y-18209D01*
X90652Y-18126D01*
X90570Y-18043D01*
X91830D01*
X91748Y-18126D01*
D02*
G37*
G36*
X62305Y-23461D02*
X62319Y-23535D01*
X62343Y-23604D01*
X62377Y-23667D01*
X62420Y-23726D01*
X62472Y-23779D01*
X62535Y-23828D01*
X62606Y-23872D01*
X62688Y-23911D01*
X62779Y-23944D01*
X61656Y-24486D01*
X61703Y-24359D01*
X61878Y-23772D01*
X61890Y-23703D01*
X61898Y-23642D01*
X61900Y-23589D01*
X62300Y-23382D01*
X62305Y-23461D01*
D02*
G37*
G36*
X65193Y-23604D02*
X65253Y-23646D01*
X65321Y-23683D01*
X65395Y-23715D01*
X65477Y-23742D01*
X65566Y-23764D01*
X65662Y-23781D01*
X65764Y-23792D01*
X65874Y-23799D01*
X65991Y-23800D01*
X65100Y-24691D01*
X65099Y-24574D01*
X65081Y-24361D01*
X65064Y-24266D01*
X65042Y-24177D01*
X65015Y-24095D01*
X64983Y-24021D01*
X64946Y-23953D01*
X64904Y-23893D01*
X64856Y-23839D01*
X65139Y-23556D01*
X65193Y-23604D01*
D02*
G37*
G36*
X93944Y-25639D02*
X93896Y-25693D01*
X93854Y-25753D01*
X93817Y-25821D01*
X93785Y-25895D01*
X93758Y-25977D01*
X93736Y-26066D01*
X93719Y-26162D01*
X93708Y-26264D01*
X93701Y-26374D01*
X93700Y-26491D01*
X92809Y-25600D01*
X92926Y-25599D01*
X93138Y-25581D01*
X93234Y-25564D01*
X93323Y-25542D01*
X93405Y-25515D01*
X93479Y-25483D01*
X93547Y-25446D01*
X93607Y-25404D01*
X93661Y-25356D01*
X93944Y-25639D01*
D02*
G37*
G36*
X69201Y-27626D02*
X69219Y-27839D01*
X69236Y-27934D01*
X69258Y-28023D01*
X69285Y-28105D01*
X69317Y-28179D01*
X69354Y-28247D01*
X69396Y-28307D01*
X69444Y-28361D01*
X69161Y-28644D01*
X69107Y-28596D01*
X69047Y-28554D01*
X68979Y-28517D01*
X68905Y-28485D01*
X68823Y-28458D01*
X68734Y-28436D01*
X68638Y-28419D01*
X68536Y-28408D01*
X68426Y-28401D01*
X68309Y-28400D01*
X69200Y-27509D01*
X69201Y-27626D01*
D02*
G37*
G36*
X89319Y-29364D02*
X89272Y-29417D01*
X89230Y-29478D01*
X89192Y-29545D01*
X89160Y-29620D01*
X89134Y-29701D01*
X89112Y-29790D01*
X89095Y-29886D01*
X89083Y-29989D01*
X89077Y-30099D01*
X89075Y-30215D01*
X88185Y-29324D01*
X88301Y-29323D01*
X88514Y-29305D01*
X88610Y-29288D01*
X88699Y-29267D01*
X88780Y-29240D01*
X88855Y-29208D01*
X88923Y-29170D01*
X88983Y-29128D01*
X89037Y-29081D01*
X89319Y-29364D01*
D02*
G37*
G36*
X167849Y-38554D02*
X167963Y-38633D01*
X168085Y-38695D01*
X168213Y-38740D01*
X168349Y-38768D01*
X168491Y-38779D01*
X168641Y-38774D01*
X168797Y-38751D01*
X168961Y-38712D01*
X169131Y-38656D01*
X167656Y-40131D01*
X167712Y-39961D01*
X167751Y-39797D01*
X167773Y-39641D01*
X167779Y-39491D01*
X167768Y-39349D01*
X167740Y-39213D01*
X167695Y-39085D01*
X167633Y-38963D01*
X167554Y-38849D01*
X167459Y-38741D01*
X167741Y-38459D01*
X167849Y-38554D01*
D02*
G37*
G36*
X107433Y-38128D02*
X107580Y-38210D01*
X107762Y-38282D01*
X107977Y-38343D01*
X108226Y-38395D01*
X108508Y-38436D01*
X109174Y-38489D01*
X109975Y-38500D01*
X107500Y-40975D01*
X107499Y-40558D01*
X107436Y-39508D01*
X107395Y-39226D01*
X107343Y-38977D01*
X107282Y-38762D01*
X107210Y-38580D01*
X107128Y-38433D01*
X107036Y-38319D01*
X107319Y-38036D01*
X107433Y-38128D01*
D02*
G37*
G36*
X97433D02*
X97580Y-38210D01*
X97762Y-38282D01*
X97977Y-38343D01*
X98226Y-38395D01*
X98508Y-38436D01*
X99174Y-38489D01*
X99975Y-38500D01*
X97500Y-40975D01*
X97499Y-40558D01*
X97436Y-39508D01*
X97395Y-39226D01*
X97343Y-38977D01*
X97282Y-38762D01*
X97210Y-38580D01*
X97128Y-38433D01*
X97036Y-38319D01*
X97319Y-38036D01*
X97433Y-38128D01*
D02*
G37*
G36*
X87433D02*
X87580Y-38210D01*
X87762Y-38282D01*
X87977Y-38343D01*
X88226Y-38395D01*
X88508Y-38436D01*
X89174Y-38489D01*
X89975Y-38500D01*
X87500Y-40975D01*
X87499Y-40558D01*
X87436Y-39508D01*
X87395Y-39226D01*
X87343Y-38977D01*
X87282Y-38762D01*
X87210Y-38580D01*
X87128Y-38433D01*
X87036Y-38319D01*
X87319Y-38036D01*
X87433Y-38128D01*
D02*
G37*
G36*
X77433D02*
X77580Y-38210D01*
X77762Y-38282D01*
X77977Y-38343D01*
X78226Y-38395D01*
X78508Y-38436D01*
X79174Y-38489D01*
X79975Y-38500D01*
X77500Y-40975D01*
X77499Y-40558D01*
X77436Y-39508D01*
X77395Y-39226D01*
X77343Y-38977D01*
X77282Y-38762D01*
X77210Y-38580D01*
X77128Y-38433D01*
X77036Y-38319D01*
X77319Y-38036D01*
X77433Y-38128D01*
D02*
G37*
%LPC*%
G36*
X170382Y43900D02*
X169618D01*
X168881Y43702D01*
X168219Y43321D01*
X167679Y42781D01*
X167298Y42119D01*
X167100Y41382D01*
Y40618D01*
X167298Y39881D01*
X167679Y39219D01*
X168219Y38679D01*
X168881Y38298D01*
X169618Y38100D01*
X170382D01*
X171119Y38298D01*
X171781Y38679D01*
X172321Y39219D01*
X172702Y39881D01*
X172900Y40618D01*
Y41382D01*
X172702Y42119D01*
X172321Y42781D01*
X171781Y43321D01*
X171119Y43702D01*
X170382Y43900D01*
D02*
G37*
G36*
X160382D02*
X159618D01*
X158881Y43702D01*
X158219Y43321D01*
X157679Y42781D01*
X157298Y42119D01*
X157100Y41382D01*
Y40618D01*
X157298Y39881D01*
X157679Y39219D01*
X158219Y38679D01*
X158881Y38298D01*
X159618Y38100D01*
X160382D01*
X161119Y38298D01*
X161781Y38679D01*
X162321Y39219D01*
X162702Y39881D01*
X162900Y40618D01*
Y41382D01*
X162702Y42119D01*
X162321Y42781D01*
X161781Y43321D01*
X161119Y43702D01*
X160382Y43900D01*
D02*
G37*
G36*
X140382D02*
X139618D01*
X138881Y43702D01*
X138219Y43321D01*
X137679Y42781D01*
X137298Y42119D01*
X137100Y41382D01*
Y40618D01*
X137298Y39881D01*
X137679Y39219D01*
X138219Y38679D01*
X138881Y38298D01*
X139618Y38100D01*
X140382D01*
X141119Y38298D01*
X141781Y38679D01*
X142321Y39219D01*
X142702Y39881D01*
X142900Y40618D01*
Y41382D01*
X142702Y42119D01*
X142321Y42781D01*
X141781Y43321D01*
X141119Y43702D01*
X140382Y43900D01*
D02*
G37*
G36*
X130382D02*
X129618D01*
X128881Y43702D01*
X128219Y43321D01*
X127679Y42781D01*
X127298Y42119D01*
X127100Y41382D01*
Y40618D01*
X127298Y39881D01*
X127679Y39219D01*
X128219Y38679D01*
X128881Y38298D01*
X129618Y38100D01*
X130382D01*
X131119Y38298D01*
X131781Y38679D01*
X132321Y39219D01*
X132702Y39881D01*
X132900Y40618D01*
Y41382D01*
X132702Y42119D01*
X132321Y42781D01*
X131781Y43321D01*
X131119Y43702D01*
X130382Y43900D01*
D02*
G37*
G36*
X151310Y22109D02*
X150367D01*
X149497Y21748D01*
X148831Y21082D01*
X148470Y20211D01*
Y19269D01*
X148831Y18398D01*
X149497Y17732D01*
X150367Y17372D01*
X151310D01*
X152180Y17732D01*
X152847Y18398D01*
X153207Y19269D01*
Y20211D01*
X152847Y21082D01*
X152180Y21748D01*
X151310Y22109D01*
D02*
G37*
G36*
X146592Y12046D02*
X145637D01*
X144755Y11680D01*
X144079Y11005D01*
X143714Y10123D01*
Y9168D01*
X144079Y8286D01*
X144755Y7611D01*
X145637Y7246D01*
X146592D01*
X147474Y7611D01*
X148149Y8286D01*
X148514Y9168D01*
Y10123D01*
X148149Y11005D01*
X147474Y11680D01*
X146592Y12046D01*
D02*
G37*
G36*
X6659Y1300D02*
X6141D01*
X5664Y1102D01*
X5401Y839D01*
X5100Y777D01*
X4799Y839D01*
X4536Y1102D01*
X4059Y1300D01*
X3541D01*
X3064Y1102D01*
X2871Y910D01*
X2550Y791D01*
X2229Y910D01*
X2036Y1102D01*
X1559Y1300D01*
X1041D01*
X564Y1102D01*
X301Y839D01*
X0Y777D01*
X-301Y839D01*
X-564Y1102D01*
X-1041Y1300D01*
X-1559D01*
X-2036Y1102D01*
X-2402Y736D01*
X-2600Y259D01*
Y-259D01*
X-2402Y-736D01*
X-2036Y-1102D01*
X-1559Y-1300D01*
X-1041D01*
X-564Y-1102D01*
X-301Y-839D01*
X0Y-777D01*
X301Y-839D01*
X564Y-1102D01*
X1041Y-1300D01*
X1559D01*
X2036Y-1102D01*
X2229Y-910D01*
X2550Y-791D01*
X2871Y-910D01*
X3064Y-1102D01*
X3541Y-1300D01*
X4059D01*
X4536Y-1102D01*
X4799Y-839D01*
X5100Y-777D01*
X5401Y-839D01*
X5664Y-1102D01*
X6141Y-1300D01*
X6659D01*
X7136Y-1102D01*
X7502Y-736D01*
X7700Y-259D01*
Y259D01*
X7502Y736D01*
X7136Y1102D01*
X6659Y1300D01*
D02*
G37*
G36*
X15192Y1302D02*
X14524D01*
X13907Y1046D01*
X13434Y573D01*
X13179Y-44D01*
Y-712D01*
X13434Y-1329D01*
X13907Y-1802D01*
X14524Y-2057D01*
X15192D01*
X15810Y-1802D01*
X16282Y-1329D01*
X16538Y-712D01*
Y-44D01*
X16282Y573D01*
X15810Y1046D01*
X15192Y1302D01*
D02*
G37*
G36*
X146592Y-7246D02*
X145637D01*
X144755Y-7611D01*
X144079Y-8286D01*
X143714Y-9168D01*
Y-10123D01*
X144079Y-11005D01*
X144755Y-11680D01*
X145637Y-12046D01*
X146592D01*
X147474Y-11680D01*
X147986Y-11168D01*
X148470Y-11391D01*
Y-12148D01*
X148831Y-13019D01*
X149497Y-13685D01*
X150367Y-14046D01*
X151310D01*
X152180Y-13685D01*
X152847Y-13019D01*
X153207Y-12148D01*
Y-11206D01*
X152847Y-10335D01*
X152180Y-9669D01*
X151310Y-9309D01*
X150367D01*
X149497Y-9669D01*
X148994Y-10172D01*
X148514Y-9945D01*
Y-9168D01*
X148149Y-8286D01*
X147474Y-7611D01*
X146592Y-7246D01*
D02*
G37*
G36*
X44459Y-18200D02*
X43941D01*
X43464Y-18398D01*
X43345Y-18517D01*
X43328Y-18519D01*
X43319Y-18519D01*
X43314Y-18521D01*
X43307Y-18522D01*
X43293Y-18530D01*
X43277Y-18536D01*
X43246Y-18543D01*
X43210Y-18549D01*
X42992Y-18566D01*
X42906Y-18567D01*
X42870Y-18582D01*
X30430D01*
X30394Y-18567D01*
X30301Y-18566D01*
X30227Y-18563D01*
X30094Y-18550D01*
X30054Y-18543D01*
X30023Y-18536D01*
X30007Y-18530D01*
X29993Y-18522D01*
X29986Y-18521D01*
X29981Y-18519D01*
X29972Y-18519D01*
X29956Y-18517D01*
X29836Y-18398D01*
X29359Y-18200D01*
X28841D01*
X28364Y-18398D01*
X27998Y-18764D01*
X27800Y-19241D01*
Y-19759D01*
X27998Y-20236D01*
X28364Y-20602D01*
X28841Y-20800D01*
X29359D01*
X29836Y-20602D01*
X29956Y-20483D01*
X29972Y-20481D01*
X29981Y-20481D01*
X29986Y-20479D01*
X29993Y-20478D01*
X30007Y-20470D01*
X30023Y-20464D01*
X30054Y-20457D01*
X30090Y-20451D01*
X30308Y-20434D01*
X30394Y-20433D01*
X30430Y-20418D01*
X42870D01*
X42906Y-20433D01*
X42999Y-20434D01*
X43073Y-20437D01*
X43206Y-20450D01*
X43246Y-20457D01*
X43277Y-20464D01*
X43293Y-20470D01*
X43307Y-20478D01*
X43314Y-20479D01*
X43319Y-20481D01*
X43328Y-20481D01*
X43345Y-20483D01*
X43464Y-20602D01*
X43941Y-20800D01*
X44459D01*
X44936Y-20602D01*
X45055Y-20483D01*
X45072Y-20481D01*
X45081Y-20481D01*
X45086Y-20479D01*
X45093Y-20478D01*
X45107Y-20470D01*
X45123Y-20464D01*
X45154Y-20457D01*
X45190Y-20451D01*
X45408Y-20434D01*
X45494Y-20433D01*
X45530Y-20418D01*
X51620D01*
X53411Y-22209D01*
X53425Y-22245D01*
X53491Y-22312D01*
X53540Y-22366D01*
X53625Y-22469D01*
X53649Y-22502D01*
X53665Y-22529D01*
X53673Y-22544D01*
X53677Y-22560D01*
X53682Y-22566D01*
X53683Y-22570D01*
X53690Y-22577D01*
X53700Y-22590D01*
Y-22759D01*
X53898Y-23236D01*
X54264Y-23602D01*
X54741Y-23800D01*
X55259D01*
X55736Y-23602D01*
X56102Y-23236D01*
X56300Y-22759D01*
Y-22241D01*
X56102Y-21764D01*
X55736Y-21398D01*
X55259Y-21200D01*
X55090D01*
X55077Y-21190D01*
X55070Y-21183D01*
X55066Y-21182D01*
X55060Y-21177D01*
X55044Y-21173D01*
X55029Y-21165D01*
X55002Y-21149D01*
X54973Y-21128D01*
X54806Y-20985D01*
X54745Y-20925D01*
X54709Y-20911D01*
X52649Y-18851D01*
X52351Y-18652D01*
X52000Y-18582D01*
X45530D01*
X45494Y-18567D01*
X45401Y-18566D01*
X45327Y-18563D01*
X45194Y-18550D01*
X45154Y-18543D01*
X45123Y-18536D01*
X45107Y-18530D01*
X45093Y-18522D01*
X45086Y-18521D01*
X45081Y-18519D01*
X45072Y-18519D01*
X45055Y-18517D01*
X44936Y-18398D01*
X44459Y-18200D01*
D02*
G37*
G36*
X23259Y-19400D02*
X22741D01*
X22264Y-19598D01*
X21898Y-19964D01*
X21700Y-20441D01*
Y-20959D01*
X21898Y-21436D01*
X22264Y-21802D01*
X22741Y-22000D01*
X23259D01*
X23736Y-21802D01*
X24102Y-21436D01*
X24300Y-20959D01*
Y-20441D01*
X24102Y-19964D01*
X23736Y-19598D01*
X23259Y-19400D01*
D02*
G37*
G36*
X31359Y-21700D02*
X30841D01*
X30364Y-21898D01*
X29998Y-22264D01*
X29800Y-22741D01*
Y-23259D01*
X29998Y-23736D01*
X30364Y-24102D01*
X30841Y-24300D01*
X31359D01*
X31836Y-24102D01*
X32202Y-23736D01*
X32400Y-23259D01*
Y-22741D01*
X32202Y-22264D01*
X31836Y-21898D01*
X31359Y-21700D01*
D02*
G37*
G36*
X35659Y-23200D02*
X35141D01*
X34664Y-23398D01*
X34298Y-23764D01*
X34100Y-24241D01*
Y-24759D01*
X34298Y-25236D01*
X34664Y-25602D01*
X35141Y-25800D01*
X35659D01*
X36136Y-25602D01*
X36502Y-25236D01*
X36700Y-24759D01*
Y-24241D01*
X36502Y-23764D01*
X36136Y-23398D01*
X35659Y-23200D01*
D02*
G37*
G36*
X81059Y-23500D02*
X80541D01*
X80064Y-23698D01*
X79698Y-24064D01*
X79500Y-24541D01*
Y-25059D01*
X79698Y-25536D01*
X80064Y-25902D01*
X80541Y-26100D01*
X81059D01*
X81536Y-25902D01*
X81902Y-25536D01*
X82100Y-25059D01*
Y-24541D01*
X81902Y-24064D01*
X81536Y-23698D01*
X81059Y-23500D01*
D02*
G37*
G36*
X23659Y-26200D02*
X23141D01*
X22664Y-26398D01*
X22298Y-26764D01*
X22100Y-27241D01*
Y-27759D01*
X22298Y-28236D01*
X22664Y-28602D01*
X23141Y-28800D01*
X23659D01*
X24136Y-28602D01*
X24502Y-28236D01*
X24700Y-27759D01*
Y-27241D01*
X24502Y-26764D01*
X24136Y-26398D01*
X23659Y-26200D01*
D02*
G37*
G36*
X106259Y-27200D02*
X105741D01*
X105264Y-27398D01*
X104898Y-27764D01*
X104700Y-28241D01*
Y-28759D01*
X104898Y-29236D01*
X105264Y-29602D01*
X105741Y-29800D01*
X106259D01*
X106736Y-29602D01*
X107102Y-29236D01*
X107300Y-28759D01*
Y-28241D01*
X107102Y-27764D01*
X106736Y-27398D01*
X106259Y-27200D01*
D02*
G37*
G36*
X33759Y-27400D02*
X33241D01*
X32764Y-27598D01*
X32398Y-27964D01*
X32200Y-28441D01*
Y-28959D01*
X32398Y-29436D01*
X32764Y-29802D01*
X33241Y-30000D01*
X33759D01*
X34236Y-29802D01*
X34602Y-29436D01*
X34800Y-28959D01*
Y-28441D01*
X34602Y-27964D01*
X34236Y-27598D01*
X33759Y-27400D01*
D02*
G37*
G36*
X105159Y-30300D02*
X104641D01*
X104164Y-30498D01*
X103798Y-30864D01*
X103600Y-31341D01*
Y-31859D01*
X103798Y-32336D01*
X104164Y-32702D01*
X104641Y-32900D01*
X105159D01*
X105636Y-32702D01*
X106002Y-32336D01*
X106200Y-31859D01*
Y-31341D01*
X106002Y-30864D01*
X105636Y-30498D01*
X105159Y-30300D01*
D02*
G37*
G36*
X50382Y-28100D02*
X49618D01*
X48881Y-28298D01*
X48219Y-28679D01*
X47679Y-29219D01*
X47298Y-29881D01*
X47100Y-30618D01*
Y-31382D01*
X47298Y-32119D01*
X47679Y-32781D01*
X48219Y-33321D01*
X48881Y-33702D01*
X49618Y-33900D01*
X50382D01*
X51119Y-33702D01*
X51781Y-33321D01*
X52321Y-32781D01*
X52702Y-32119D01*
X52900Y-31382D01*
Y-30618D01*
X52702Y-29881D01*
X52321Y-29219D01*
X51781Y-28679D01*
X51119Y-28298D01*
X50382Y-28100D01*
D02*
G37*
G36*
X25259Y-32200D02*
X24741D01*
X24264Y-32398D01*
X23898Y-32764D01*
X23700Y-33241D01*
Y-33759D01*
X23898Y-34236D01*
X24264Y-34602D01*
X24741Y-34800D01*
X25259D01*
X25736Y-34602D01*
X26102Y-34236D01*
X26300Y-33759D01*
Y-33241D01*
X26102Y-32764D01*
X25736Y-32398D01*
X25259Y-32200D01*
D02*
G37*
G36*
X12659Y-34300D02*
X12141D01*
X11664Y-34498D01*
X11298Y-34864D01*
X11100Y-35341D01*
Y-35859D01*
X11298Y-36336D01*
X11664Y-36702D01*
X12141Y-36900D01*
X12659D01*
X13136Y-36702D01*
X13502Y-36336D01*
X13700Y-35859D01*
Y-35341D01*
X13502Y-34864D01*
X13136Y-34498D01*
X12659Y-34300D01*
D02*
G37*
G36*
X8790D02*
X8273D01*
X7795Y-34498D01*
X7429Y-34864D01*
X7231Y-35341D01*
Y-35859D01*
X7429Y-36336D01*
X7795Y-36702D01*
X8273Y-36900D01*
X8790D01*
X9268Y-36702D01*
X9634Y-36336D01*
X9832Y-35859D01*
Y-35341D01*
X9634Y-34864D01*
X9268Y-34498D01*
X8790Y-34300D01*
D02*
G37*
G36*
X160382Y-38100D02*
X159618D01*
X158881Y-38298D01*
X158219Y-38679D01*
X157679Y-39219D01*
X157298Y-39881D01*
X157100Y-40618D01*
Y-41382D01*
X157298Y-42119D01*
X157679Y-42781D01*
X158219Y-43321D01*
X158881Y-43702D01*
X159618Y-43900D01*
X160382D01*
X161119Y-43702D01*
X161781Y-43321D01*
X162321Y-42781D01*
X162702Y-42119D01*
X162900Y-41382D01*
Y-40618D01*
X162702Y-39881D01*
X162321Y-39219D01*
X161781Y-38679D01*
X161119Y-38298D01*
X160382Y-38100D01*
D02*
G37*
G36*
X150382D02*
X149618D01*
X148881Y-38298D01*
X148219Y-38679D01*
X147679Y-39219D01*
X147298Y-39881D01*
X147100Y-40618D01*
Y-41382D01*
X147298Y-42119D01*
X147679Y-42781D01*
X148219Y-43321D01*
X148881Y-43702D01*
X149618Y-43900D01*
X150382D01*
X151119Y-43702D01*
X151781Y-43321D01*
X152321Y-42781D01*
X152702Y-42119D01*
X152900Y-41382D01*
Y-40618D01*
X152702Y-39881D01*
X152321Y-39219D01*
X151781Y-38679D01*
X151119Y-38298D01*
X150382Y-38100D01*
D02*
G37*
G36*
X140382D02*
X139618D01*
X138881Y-38298D01*
X138219Y-38679D01*
X137679Y-39219D01*
X137298Y-39881D01*
X137100Y-40618D01*
Y-41382D01*
X137298Y-42119D01*
X137679Y-42781D01*
X138219Y-43321D01*
X138881Y-43702D01*
X139618Y-43900D01*
X140382D01*
X141119Y-43702D01*
X141781Y-43321D01*
X142321Y-42781D01*
X142702Y-42119D01*
X142900Y-41382D01*
Y-40618D01*
X142702Y-39881D01*
X142321Y-39219D01*
X141781Y-38679D01*
X141119Y-38298D01*
X140382Y-38100D01*
D02*
G37*
G36*
X130382D02*
X129618D01*
X128881Y-38298D01*
X128219Y-38679D01*
X127679Y-39219D01*
X127298Y-39881D01*
X127100Y-40618D01*
Y-41382D01*
X127298Y-42119D01*
X127679Y-42781D01*
X128219Y-43321D01*
X128881Y-43702D01*
X129618Y-43900D01*
X130382D01*
X131119Y-43702D01*
X131781Y-43321D01*
X132321Y-42781D01*
X132702Y-42119D01*
X132900Y-41382D01*
Y-40618D01*
X132702Y-39881D01*
X132321Y-39219D01*
X131781Y-38679D01*
X131119Y-38298D01*
X130382Y-38100D01*
D02*
G37*
G36*
X120382D02*
X119618D01*
X118881Y-38298D01*
X118219Y-38679D01*
X117679Y-39219D01*
X117298Y-39881D01*
X117100Y-40618D01*
Y-41382D01*
X117298Y-42119D01*
X117679Y-42781D01*
X118219Y-43321D01*
X118881Y-43702D01*
X119618Y-43900D01*
X120382D01*
X121119Y-43702D01*
X121781Y-43321D01*
X122321Y-42781D01*
X122702Y-42119D01*
X122900Y-41382D01*
Y-40618D01*
X122702Y-39881D01*
X122321Y-39219D01*
X121781Y-38679D01*
X121119Y-38298D01*
X120382Y-38100D01*
D02*
G37*
G36*
X70382D02*
X69618D01*
X68881Y-38298D01*
X68219Y-38679D01*
X67679Y-39219D01*
X67298Y-39881D01*
X67100Y-40618D01*
Y-41382D01*
X67298Y-42119D01*
X67679Y-42781D01*
X68219Y-43321D01*
X68881Y-43702D01*
X69618Y-43900D01*
X70382D01*
X71119Y-43702D01*
X71781Y-43321D01*
X72321Y-42781D01*
X72702Y-42119D01*
X72900Y-41382D01*
Y-40618D01*
X72702Y-39881D01*
X72321Y-39219D01*
X71781Y-38679D01*
X71119Y-38298D01*
X70382Y-38100D01*
D02*
G37*
G36*
X60382D02*
X59618D01*
X58881Y-38298D01*
X58219Y-38679D01*
X57679Y-39219D01*
X57298Y-39881D01*
X57100Y-40618D01*
Y-41382D01*
X57298Y-42119D01*
X57679Y-42781D01*
X58219Y-43321D01*
X58881Y-43702D01*
X59618Y-43900D01*
X60382D01*
X61119Y-43702D01*
X61781Y-43321D01*
X62321Y-42781D01*
X62702Y-42119D01*
X62900Y-41382D01*
Y-40618D01*
X62702Y-39881D01*
X62321Y-39219D01*
X61781Y-38679D01*
X61119Y-38298D01*
X60382Y-38100D01*
D02*
G37*
G36*
X50382D02*
X49618D01*
X48881Y-38298D01*
X48219Y-38679D01*
X47679Y-39219D01*
X47298Y-39881D01*
X47100Y-40618D01*
Y-41382D01*
X47298Y-42119D01*
X47679Y-42781D01*
X48219Y-43321D01*
X48881Y-43702D01*
X49618Y-43900D01*
X50382D01*
X51119Y-43702D01*
X51781Y-43321D01*
X52321Y-42781D01*
X52702Y-42119D01*
X52900Y-41382D01*
Y-40618D01*
X52702Y-39881D01*
X52321Y-39219D01*
X51781Y-38679D01*
X51119Y-38298D01*
X50382Y-38100D01*
D02*
G37*
G36*
X40382D02*
X39618D01*
X38881Y-38298D01*
X38219Y-38679D01*
X37679Y-39219D01*
X37298Y-39881D01*
X37100Y-40618D01*
Y-41382D01*
X37298Y-42119D01*
X37679Y-42781D01*
X38219Y-43321D01*
X38881Y-43702D01*
X39618Y-43900D01*
X40382D01*
X41119Y-43702D01*
X41781Y-43321D01*
X42321Y-42781D01*
X42702Y-42119D01*
X42900Y-41382D01*
Y-40618D01*
X42702Y-39881D01*
X42321Y-39219D01*
X41781Y-38679D01*
X41119Y-38298D01*
X40382Y-38100D01*
D02*
G37*
G36*
X30382D02*
X29618D01*
X28881Y-38298D01*
X28219Y-38679D01*
X27679Y-39219D01*
X27298Y-39881D01*
X27100Y-40618D01*
Y-41382D01*
X27298Y-42119D01*
X27679Y-42781D01*
X28219Y-43321D01*
X28881Y-43702D01*
X29618Y-43900D01*
X30382D01*
X31119Y-43702D01*
X31781Y-43321D01*
X32321Y-42781D01*
X32702Y-42119D01*
X32900Y-41382D01*
Y-40618D01*
X32702Y-39881D01*
X32321Y-39219D01*
X31781Y-38679D01*
X31119Y-38298D01*
X30382Y-38100D01*
D02*
G37*
G36*
X12659Y18700D02*
X12141D01*
X11664Y18502D01*
X11298Y18136D01*
X11100Y17659D01*
Y17141D01*
X11227Y16834D01*
Y6780D01*
X10911Y6649D01*
X10545Y6284D01*
X10347Y5806D01*
Y5805D01*
X9671Y5130D01*
X9364Y5002D01*
X8998Y4636D01*
X8800Y4159D01*
Y3641D01*
X8928Y3334D01*
Y-10000D01*
X9017Y-10449D01*
X9271Y-10829D01*
X18827Y-20386D01*
Y-37074D01*
X18817Y-37096D01*
X18808Y-37299D01*
X18784Y-37479D01*
X18742Y-37658D01*
X18684Y-37836D01*
X18609Y-38013D01*
X18515Y-38191D01*
X18402Y-38370D01*
X18270Y-38548D01*
X18119Y-38727D01*
X17938Y-38914D01*
X17908Y-38991D01*
X17679Y-39219D01*
X17298Y-39881D01*
X17100Y-40618D01*
Y-41382D01*
X17298Y-42119D01*
X17679Y-42781D01*
X18219Y-43321D01*
X18881Y-43702D01*
X19618Y-43900D01*
X20382D01*
X21119Y-43702D01*
X21781Y-43321D01*
X22321Y-42781D01*
X22702Y-42119D01*
X22900Y-41382D01*
Y-40618D01*
X22702Y-39881D01*
X22321Y-39219D01*
X22092Y-38991D01*
X22062Y-38914D01*
X21881Y-38727D01*
X21730Y-38548D01*
X21598Y-38369D01*
X21485Y-38191D01*
X21391Y-38014D01*
X21316Y-37836D01*
X21258Y-37658D01*
X21216Y-37479D01*
X21192Y-37299D01*
X21182Y-37096D01*
X21172Y-37074D01*
Y-19900D01*
X21083Y-19451D01*
X20829Y-19071D01*
X11272Y-9514D01*
Y3334D01*
X11330Y3471D01*
X12247Y4388D01*
X12384Y4445D01*
X12749Y4811D01*
X12806Y4948D01*
X13229Y5371D01*
X13483Y5751D01*
X13573Y6200D01*
Y16834D01*
X13700Y17141D01*
Y17659D01*
X13502Y18136D01*
X13136Y18502D01*
X12659Y18700D01*
D02*
G37*
%LPD*%
G36*
X44872Y-18895D02*
X44909Y-18917D01*
X44954Y-18936D01*
X45007Y-18953D01*
X45068Y-18968D01*
X45136Y-18979D01*
X45297Y-18995D01*
X45389Y-18999D01*
X45488Y-19000D01*
Y-20000D01*
X45389Y-20001D01*
X45136Y-20021D01*
X45068Y-20032D01*
X45007Y-20047D01*
X44954Y-20064D01*
X44909Y-20083D01*
X44872Y-20105D01*
X44843Y-20130D01*
Y-18870D01*
X44872Y-18895D01*
D02*
G37*
G36*
X43557Y-20130D02*
X43528Y-20105D01*
X43491Y-20083D01*
X43446Y-20064D01*
X43393Y-20047D01*
X43332Y-20032D01*
X43264Y-20021D01*
X43103Y-20005D01*
X43011Y-20001D01*
X42912Y-20000D01*
Y-19000D01*
X43011Y-18999D01*
X43264Y-18979D01*
X43332Y-18968D01*
X43393Y-18953D01*
X43446Y-18936D01*
X43491Y-18917D01*
X43528Y-18895D01*
X43557Y-18870D01*
Y-20130D01*
D02*
G37*
G36*
X29772Y-18895D02*
X29809Y-18917D01*
X29854Y-18936D01*
X29907Y-18953D01*
X29968Y-18968D01*
X30036Y-18979D01*
X30197Y-18995D01*
X30289Y-18999D01*
X30388Y-19000D01*
Y-20000D01*
X30289Y-20001D01*
X30036Y-20021D01*
X29968Y-20032D01*
X29907Y-20047D01*
X29854Y-20064D01*
X29809Y-20083D01*
X29772Y-20105D01*
X29743Y-20130D01*
Y-18870D01*
X29772Y-18895D01*
D02*
G37*
G36*
X54514Y-21305D02*
X54706Y-21470D01*
X54763Y-21510D01*
X54816Y-21543D01*
X54865Y-21568D01*
X54911Y-21586D01*
X54953Y-21597D01*
X54991Y-21600D01*
X54100Y-22491D01*
X54097Y-22453D01*
X54086Y-22411D01*
X54068Y-22365D01*
X54043Y-22316D01*
X54010Y-22263D01*
X53970Y-22206D01*
X53867Y-22082D01*
X53805Y-22014D01*
X53736Y-21943D01*
X54443Y-21236D01*
X54514Y-21305D01*
D02*
G37*
G36*
X20760Y-37338D02*
X20790Y-37557D01*
X20840Y-37774D01*
X20910Y-37988D01*
X21000Y-38200D01*
X21110Y-38408D01*
X21240Y-38614D01*
X21390Y-38817D01*
X21560Y-39017D01*
X21750Y-39215D01*
X18250D01*
X18440Y-39017D01*
X18610Y-38817D01*
X18760Y-38614D01*
X18890Y-38408D01*
X19000Y-38200D01*
X19090Y-37988D01*
X19160Y-37774D01*
X19210Y-37557D01*
X19240Y-37338D01*
X19250Y-37115D01*
X20750D01*
X20760Y-37338D01*
D02*
G37*
%LPC*%
G36*
X103959Y45100D02*
X103441D01*
X102964Y44902D01*
X102598Y44536D01*
X102400Y44059D01*
Y43541D01*
X102494Y43314D01*
X102070Y43031D01*
X101781Y43321D01*
X101119Y43702D01*
X100382Y43900D01*
X99618D01*
X98881Y43702D01*
X98219Y43321D01*
X97990Y43091D01*
X97913Y43061D01*
X97348Y42512D01*
X96862Y42097D01*
X96655Y41942D01*
X96467Y41819D01*
X96304Y41728D01*
X96170Y41671D01*
X96096Y41649D01*
X95600D01*
X95141Y41459D01*
X92894Y39212D01*
X92494Y39519D01*
X92702Y39881D01*
X92900Y40618D01*
Y41382D01*
X92702Y42119D01*
X92321Y42781D01*
X91781Y43321D01*
X91119Y43702D01*
X90382Y43900D01*
X89618D01*
X88881Y43702D01*
X88219Y43321D01*
X87679Y42781D01*
X87576Y42601D01*
X87548Y42590D01*
X87530Y42544D01*
X87489Y42516D01*
X87366Y42322D01*
X87248Y42161D01*
X87133Y42024D01*
X87019Y41910D01*
X86908Y41819D01*
X86802Y41748D01*
X86699Y41697D01*
X86600Y41661D01*
X86542Y41649D01*
X86400D01*
X85941Y41459D01*
X81141Y36659D01*
X80951Y36200D01*
Y35738D01*
X80936Y35702D01*
X80913Y35657D01*
X80883Y35606D01*
X80846Y35554D01*
X80731Y35418D01*
X80660Y35345D01*
X80629Y35268D01*
X80498Y35136D01*
X80300Y34659D01*
Y34141D01*
X80498Y33664D01*
X80864Y33298D01*
X81341Y33100D01*
X81859D01*
X82336Y33298D01*
X82702Y33664D01*
X82900Y34141D01*
Y34659D01*
X82702Y35136D01*
X82571Y35268D01*
X82540Y35345D01*
X82465Y35422D01*
X82407Y35488D01*
X82357Y35549D01*
X82318Y35606D01*
X82287Y35657D01*
X82264Y35702D01*
X82249Y35738D01*
Y35931D01*
X86597Y40279D01*
X87037Y40071D01*
X87133Y39976D01*
X87248Y39839D01*
X87366Y39678D01*
X87489Y39484D01*
X87530Y39456D01*
X87548Y39410D01*
X87576Y39399D01*
X87679Y39219D01*
X88219Y38679D01*
X88881Y38298D01*
X89618Y38100D01*
X90382D01*
X91119Y38298D01*
X91481Y38506D01*
X91788Y38106D01*
X87387Y33705D01*
X87351Y33690D01*
X87303Y33674D01*
X87245Y33660D01*
X87183Y33649D01*
X87005Y33634D01*
X86904Y33633D01*
X86827Y33600D01*
X86641D01*
X86164Y33402D01*
X85798Y33036D01*
X85600Y32559D01*
Y32041D01*
X85798Y31564D01*
X86164Y31198D01*
X86641Y31000D01*
X87159D01*
X87636Y31198D01*
X88002Y31564D01*
X88200Y32041D01*
Y32227D01*
X88233Y32304D01*
X88234Y32411D01*
X88239Y32499D01*
X88248Y32577D01*
X88260Y32645D01*
X88274Y32703D01*
X88290Y32751D01*
X88305Y32787D01*
X95869Y40350D01*
X96096D01*
X96170Y40330D01*
X96304Y40272D01*
X96467Y40181D01*
X96655Y40058D01*
X96859Y39906D01*
X97622Y39229D01*
X97909Y38943D01*
X97988Y38911D01*
X98219Y38679D01*
X98881Y38298D01*
X99618Y38100D01*
X100382D01*
X101119Y38298D01*
X101781Y38679D01*
X102321Y39219D01*
X102702Y39881D01*
X102900Y40618D01*
Y41382D01*
X102702Y42119D01*
X102521Y42433D01*
X102921Y42740D01*
X102964Y42698D01*
X103441Y42500D01*
X103959D01*
X104436Y42698D01*
X104568Y42829D01*
X104645Y42860D01*
X104722Y42935D01*
X104788Y42994D01*
X104849Y43043D01*
X104906Y43082D01*
X104957Y43113D01*
X105002Y43136D01*
X105038Y43151D01*
X106872D01*
X106906Y43067D01*
X106957Y42894D01*
X107001Y42684D01*
X107035Y42446D01*
X107077Y41480D01*
X107069Y41100D01*
X107071Y41095D01*
X107069Y41090D01*
X107100Y41014D01*
Y40618D01*
X107298Y39881D01*
X107679Y39219D01*
X108219Y38679D01*
X108881Y38298D01*
X109618Y38100D01*
X110382D01*
X111119Y38298D01*
X111781Y38679D01*
X112321Y39219D01*
X112702Y39881D01*
X112900Y40618D01*
Y41382D01*
X112702Y42119D01*
X112321Y42781D01*
X111781Y43321D01*
X111119Y43702D01*
X110382Y43900D01*
X109986D01*
X109910Y43931D01*
X109905Y43929D01*
X109900Y43931D01*
X109516Y43923D01*
X108842Y43940D01*
X108563Y43964D01*
X108316Y43999D01*
X108106Y44043D01*
X107933Y44093D01*
X107800Y44148D01*
X107730Y44188D01*
X107659Y44259D01*
X107200Y44449D01*
X105038D01*
X105002Y44464D01*
X104957Y44487D01*
X104906Y44517D01*
X104854Y44554D01*
X104718Y44669D01*
X104645Y44740D01*
X104568Y44771D01*
X104436Y44902D01*
X103959Y45100D01*
D02*
G37*
G36*
X80382Y43900D02*
X79618D01*
X78881Y43702D01*
X78219Y43321D01*
X77679Y42781D01*
X77298Y42119D01*
X77100Y41382D01*
Y40618D01*
X77298Y39881D01*
X77679Y39219D01*
X78219Y38679D01*
X78881Y38298D01*
X79618Y38100D01*
X80382D01*
X81119Y38298D01*
X81781Y38679D01*
X82321Y39219D01*
X82702Y39881D01*
X82900Y40618D01*
Y41382D01*
X82702Y42119D01*
X82321Y42781D01*
X81781Y43321D01*
X81119Y43702D01*
X80382Y43900D01*
D02*
G37*
G36*
X70382D02*
X69618D01*
X68881Y43702D01*
X68219Y43321D01*
X67679Y42781D01*
X67298Y42119D01*
X67100Y41382D01*
Y40618D01*
X67298Y39881D01*
X67679Y39219D01*
X68219Y38679D01*
X68881Y38298D01*
X69618Y38100D01*
X70382D01*
X71119Y38298D01*
X71781Y38679D01*
X72321Y39219D01*
X72702Y39881D01*
X72900Y40618D01*
Y41382D01*
X72702Y42119D01*
X72321Y42781D01*
X71781Y43321D01*
X71119Y43702D01*
X70382Y43900D01*
D02*
G37*
G36*
X60382D02*
X59618D01*
X58881Y43702D01*
X58219Y43321D01*
X57679Y42781D01*
X57298Y42119D01*
X57100Y41382D01*
Y40618D01*
X57298Y39881D01*
X57679Y39219D01*
X58219Y38679D01*
X58881Y38298D01*
X59618Y38100D01*
X60382D01*
X61119Y38298D01*
X61781Y38679D01*
X62321Y39219D01*
X62702Y39881D01*
X62900Y40618D01*
Y41382D01*
X62702Y42119D01*
X62321Y42781D01*
X61781Y43321D01*
X61119Y43702D01*
X60382Y43900D01*
D02*
G37*
G36*
X50382D02*
X49618D01*
X48881Y43702D01*
X48219Y43321D01*
X47679Y42781D01*
X47298Y42119D01*
X47100Y41382D01*
Y40618D01*
X47298Y39881D01*
X47679Y39219D01*
X48219Y38679D01*
X48881Y38298D01*
X49618Y38100D01*
X50382D01*
X51119Y38298D01*
X51781Y38679D01*
X52321Y39219D01*
X52702Y39881D01*
X52900Y40618D01*
Y41382D01*
X52702Y42119D01*
X52321Y42781D01*
X51781Y43321D01*
X51119Y43702D01*
X50382Y43900D01*
D02*
G37*
G36*
X40382D02*
X39618D01*
X38881Y43702D01*
X38219Y43321D01*
X37679Y42781D01*
X37298Y42119D01*
X37100Y41382D01*
Y40618D01*
X37298Y39881D01*
X37679Y39219D01*
X38219Y38679D01*
X38881Y38298D01*
X39618Y38100D01*
X40382D01*
X41119Y38298D01*
X41781Y38679D01*
X42321Y39219D01*
X42702Y39881D01*
X42900Y40618D01*
Y41382D01*
X42702Y42119D01*
X42321Y42781D01*
X41781Y43321D01*
X41119Y43702D01*
X40382Y43900D01*
D02*
G37*
G36*
X30382D02*
X29618D01*
X28881Y43702D01*
X28219Y43321D01*
X27679Y42781D01*
X27298Y42119D01*
X27100Y41382D01*
Y40618D01*
X27298Y39881D01*
X27679Y39219D01*
X28219Y38679D01*
X28881Y38298D01*
X29618Y38100D01*
X30382D01*
X31119Y38298D01*
X31781Y38679D01*
X32321Y39219D01*
X32702Y39881D01*
X32900Y40618D01*
Y41382D01*
X32702Y42119D01*
X32321Y42781D01*
X31781Y43321D01*
X31119Y43702D01*
X30382Y43900D01*
D02*
G37*
G36*
X40359Y27800D02*
X39841D01*
X39364Y27602D01*
X38998Y27236D01*
X38800Y26759D01*
Y26241D01*
X38998Y25764D01*
X39364Y25398D01*
X39841Y25200D01*
X40359D01*
X40836Y25398D01*
X41202Y25764D01*
X41400Y26241D01*
Y26759D01*
X41202Y27236D01*
X40836Y27602D01*
X40359Y27800D01*
D02*
G37*
%LPD*%
G36*
X104426Y44348D02*
X104589Y44211D01*
X104669Y44155D01*
X104747Y44107D01*
X104824Y44069D01*
X104899Y44039D01*
X104973Y44017D01*
X105046Y44004D01*
X105117Y44000D01*
Y43600D01*
X105046Y43596D01*
X104973Y43583D01*
X104899Y43561D01*
X104824Y43531D01*
X104747Y43492D01*
X104669Y43445D01*
X104589Y43389D01*
X104509Y43325D01*
X104426Y43252D01*
X104343Y43170D01*
Y44430D01*
X104426Y44348D01*
D02*
G37*
G36*
X107460Y43844D02*
X107609Y43758D01*
X107790Y43685D01*
X108001Y43622D01*
X108242Y43572D01*
X108514Y43534D01*
X108817Y43507D01*
X109515Y43490D01*
X109910Y43498D01*
X107502Y41090D01*
X107510Y41485D01*
X107466Y42486D01*
X107428Y42758D01*
X107378Y43000D01*
X107316Y43210D01*
X107242Y43390D01*
X107156Y43540D01*
X107059Y43659D01*
X107341Y43941D01*
X107460Y43844D01*
D02*
G37*
G36*
X87854Y39717D02*
X87723Y39922D01*
X87589Y40107D01*
X87451Y40269D01*
X87311Y40410D01*
X87167Y40529D01*
X87020Y40627D01*
X86870Y40703D01*
X86716Y40757D01*
X86560Y40789D01*
X86400Y40800D01*
Y41200D01*
X86560Y41211D01*
X86716Y41243D01*
X86870Y41298D01*
X87020Y41373D01*
X87167Y41471D01*
X87311Y41590D01*
X87451Y41731D01*
X87589Y41893D01*
X87723Y42077D01*
X87854Y42283D01*
Y39717D01*
D02*
G37*
G36*
X98215Y39250D02*
X97919Y39544D01*
X97132Y40242D01*
X96903Y40413D01*
X96691Y40552D01*
X96495Y40661D01*
X96316Y40738D01*
X96154Y40784D01*
X96008Y40800D01*
Y41200D01*
X96154Y41216D01*
X96316Y41262D01*
X96495Y41339D01*
X96691Y41448D01*
X96903Y41587D01*
X97132Y41758D01*
X97640Y42192D01*
X98215Y42750D01*
X98215Y39250D01*
D02*
G37*
G36*
X81804Y35746D02*
X81817Y35673D01*
X81839Y35599D01*
X81869Y35524D01*
X81907Y35447D01*
X81955Y35369D01*
X82011Y35289D01*
X82075Y35209D01*
X82148Y35126D01*
X82230Y35043D01*
X80970D01*
X81052Y35126D01*
X81189Y35289D01*
X81245Y35369D01*
X81292Y35447D01*
X81331Y35524D01*
X81361Y35599D01*
X81383Y35673D01*
X81396Y35746D01*
X81400Y35818D01*
X81800D01*
X81804Y35746D01*
D02*
G37*
G36*
X88044Y33161D02*
X87996Y33107D01*
X87954Y33047D01*
X87917Y32979D01*
X87885Y32905D01*
X87858Y32823D01*
X87836Y32734D01*
X87819Y32638D01*
X87808Y32536D01*
X87801Y32426D01*
X87800Y32309D01*
X86909Y33200D01*
X87026Y33201D01*
X87239Y33219D01*
X87334Y33236D01*
X87423Y33258D01*
X87505Y33285D01*
X87579Y33317D01*
X87647Y33354D01*
X87707Y33396D01*
X87761Y33444D01*
X88044Y33161D01*
D02*
G37*
%LPC*%
G36*
X87359Y9200D02*
X86841D01*
X86364Y9002D01*
X85998Y8636D01*
X85800Y8159D01*
Y7641D01*
X85998Y7164D01*
X86364Y6798D01*
X86430Y6771D01*
Y6229D01*
X86364Y6202D01*
X85998Y5836D01*
X85800Y5359D01*
Y4841D01*
X85998Y4364D01*
X86364Y3998D01*
X86841Y3800D01*
X87359D01*
X87836Y3998D01*
X88202Y4364D01*
X88400Y4841D01*
Y5359D01*
X88202Y5836D01*
X87836Y6202D01*
X87770Y6229D01*
Y6771D01*
X87836Y6798D01*
X88202Y7164D01*
X88400Y7641D01*
Y8159D01*
X88202Y8636D01*
X87836Y9002D01*
X87359Y9200D01*
D02*
G37*
G36*
X131759Y-11000D02*
X131241D01*
X130764Y-11198D01*
X130398Y-11564D01*
X130200Y-12041D01*
Y-12559D01*
X130327Y-12866D01*
Y-14634D01*
X130200Y-14941D01*
Y-15459D01*
X130398Y-15936D01*
X130764Y-16302D01*
X131241Y-16500D01*
X131759D01*
X132236Y-16302D01*
X132602Y-15936D01*
X132800Y-15459D01*
Y-14941D01*
X132673Y-14634D01*
Y-12866D01*
X132800Y-12559D01*
Y-12041D01*
X132602Y-11564D01*
X132236Y-11198D01*
X131759Y-11000D01*
D02*
G37*
G36*
X37759Y100D02*
X37241D01*
X36764Y-98D01*
X36398Y-464D01*
X36200Y-941D01*
Y-1459D01*
X36398Y-1936D01*
X36764Y-2302D01*
X37071Y-2430D01*
X38000Y-3358D01*
Y-3559D01*
X38198Y-4036D01*
X38564Y-4402D01*
X39041Y-4600D01*
X39559D01*
X40036Y-4402D01*
X40402Y-4036D01*
X40600Y-3559D01*
Y-3041D01*
X40402Y-2564D01*
X40370Y-2532D01*
X40129Y-2171D01*
X38730Y-771D01*
X38602Y-464D01*
X38236Y-98D01*
X37759Y100D01*
D02*
G37*
%LPD*%
D10*
X11500Y23500D02*
X13000Y25000D01*
X24113D02*
X43112Y6000D01*
X13000Y25000D02*
X24113D01*
X4000Y23500D02*
X11500D01*
X3000Y22500D02*
X4000Y23500D01*
X-1000Y22500D02*
X3000D01*
X-3400Y24900D02*
X-1000Y22500D01*
X43112Y6000D02*
X46500D01*
X29100Y-19500D02*
X44200D01*
X52000D02*
X55000Y-22500D01*
X44200Y-19500D02*
X52000D01*
X-4000Y25500D02*
X-3400Y24900D01*
D12*
X64500Y-9763D02*
X68937Y-14200D01*
X91600Y-15000D02*
X93400Y-16800D01*
X68937Y-14200D02*
X91931D01*
X94734Y-17003D01*
X63700Y-10200D02*
X68500Y-15000D01*
X91600D01*
X145900Y45100D02*
X150000Y41000D01*
X118100Y45100D02*
X145900D01*
X115300Y42300D02*
X118100Y45100D01*
X115300Y38900D02*
Y42300D01*
X110600Y34200D02*
X115300Y38900D01*
X99100Y34200D02*
X110600D01*
X88000Y23100D02*
X99100Y34200D01*
X91500Y21600D02*
Y24200D01*
X100100Y32800D02*
X111800D01*
X91500Y24200D02*
X100100Y32800D01*
X90600Y20700D02*
X91500Y21600D01*
X88000Y20700D02*
X90600D01*
X88469Y-8200D02*
X104131D01*
X87806Y-6600D02*
X105600D01*
X75651Y-9400D02*
X86137D01*
X88137Y-7400D01*
X85806Y-8600D02*
X87806Y-6600D01*
X88800Y-9000D02*
X103800D01*
X78001Y-8600D02*
X85806D01*
X66869Y-11000D02*
X86800D01*
X86469Y-10200D02*
X88469Y-8200D01*
X86800Y-11000D02*
X88800Y-9000D01*
X88137Y-7400D02*
X104463D01*
X67200Y-10200D02*
X86469D01*
X49300Y-8000D02*
Y-7500D01*
X30200Y8000D02*
X33800D01*
X49300Y-7500D01*
X33200Y9800D02*
X47500Y-4500D01*
X28800Y9800D02*
X33200D01*
X47500Y-4500D02*
X49200D01*
X43499Y8300D02*
X50669D01*
X36900Y16031D02*
X43831Y9100D01*
X44126Y2300D02*
X50169D01*
X36100Y15699D02*
Y19769D01*
X43994Y1300D02*
X50500D01*
X37700Y16362D02*
X44062Y10000D01*
X44457Y3100D02*
X49837D01*
X30763Y13400D02*
X43663Y500D01*
X31757Y15800D02*
X44457Y3100D01*
X36900Y16031D02*
Y19437D01*
X35300Y15368D02*
Y20100D01*
X31425Y15000D02*
X44126Y2300D01*
X43831Y9100D02*
X51000D01*
X44062Y10000D02*
X51231D01*
X43663Y500D02*
X50831D01*
X37700Y16362D02*
Y19106D01*
X43168Y7500D02*
X50100D01*
X35300Y15368D02*
X43168Y7500D01*
X36100Y15699D02*
X43499Y8300D01*
X31094Y14200D02*
X43994Y1300D01*
X25737Y15800D02*
X31757D01*
X26069Y15000D02*
X31425D01*
X26731Y13400D02*
X30763D01*
X26400Y14200D02*
X31094D01*
X71400Y-30600D02*
X83400D01*
X91200Y-22800D02*
Y-17400D01*
X83400Y-30600D02*
X91200Y-22800D01*
X93400Y-22700D02*
Y-16800D01*
X89800Y-28600D02*
Y-26300D01*
X93400Y-22700D01*
X51632Y22732D02*
X54800Y25900D01*
X53900Y28900D02*
X54800Y28000D01*
Y25900D02*
Y28000D01*
X56800Y25631D02*
Y30331D01*
X52563Y35700D02*
X57600Y30663D01*
X52200Y31500D02*
X54500D01*
X6100Y34900D02*
X52231D01*
X52269Y21100D02*
X56800Y25631D01*
X57600Y25300D02*
Y30663D01*
X56000Y25969D02*
Y30000D01*
X52600Y20300D02*
X57600Y25300D01*
X52231Y34900D02*
X56800Y30331D01*
X15300Y35700D02*
X52563D01*
X54500Y31500D02*
X56000Y30000D01*
X51000Y30300D02*
X52200Y31500D01*
X51000Y28900D02*
Y30300D01*
X37700Y19106D02*
X38894Y20300D01*
X35300Y20100D02*
X37932Y22732D01*
X36100Y19769D02*
X38263Y21932D01*
X36900Y19437D02*
X38563Y21100D01*
X38263Y21932D02*
X51963D01*
X38563Y21100D02*
X52269D01*
X38894Y20300D02*
X52600D01*
X37932Y22732D02*
X51632D01*
X58839Y36500D02*
X63339Y32000D01*
X0Y41000D02*
X6100Y34900D01*
X23100Y36500D02*
X58839D01*
X20500Y39100D02*
X23100Y36500D01*
X10000Y41000D02*
X15300Y35700D01*
X20000Y41000D02*
X20500Y40500D01*
Y39100D02*
Y40500D01*
X51963Y21932D02*
X56000Y25969D01*
X51100Y-6600D02*
Y-1494D01*
X49700Y-8000D02*
X51100Y-6600D01*
X49300Y-8000D02*
X49700D01*
X41094Y-10000D02*
X50769D01*
X51100Y-10800D02*
X52700Y-9200D01*
X40763Y-10800D02*
X51100D01*
X51763Y-12400D02*
X54300Y-9863D01*
X50769Y-10000D02*
X51900Y-8869D01*
X22300Y5400D02*
X40100Y-12400D01*
X23100Y5731D02*
X40431Y-11600D01*
X24700Y6394D02*
X41094Y-10000D01*
X40100Y-12400D02*
X51763D01*
X51431Y-11600D02*
X53500Y-9531D01*
X23900Y6063D02*
X40763Y-10800D01*
X40431Y-11600D02*
X51431D01*
X24700Y6394D02*
Y11369D01*
X22300Y5400D02*
Y12363D01*
X23100Y5731D02*
Y12031D01*
X23900Y6063D02*
Y11700D01*
X59389Y-26226D02*
Y-8789D01*
X58614Y-8014D02*
Y-4889D01*
Y-8014D02*
X59389Y-8789D01*
X58589Y-26558D02*
Y-9889D01*
X57039Y-8339D02*
Y-6536D01*
Y-8339D02*
X58589Y-9889D01*
X59389Y-26226D02*
X68363Y-35200D01*
X85000Y-36000D02*
X90000Y-41000D01*
X103400Y-34400D02*
X110000Y-41000D01*
X68363Y-35200D02*
X94200D01*
X57753Y-26853D02*
X67700Y-36800D01*
X94200Y-35200D02*
X100000Y-41000D01*
X60189Y-25895D02*
X68694Y-34400D01*
X103400D01*
X75800Y-36800D02*
X80000Y-41000D01*
X68031Y-36000D02*
X85000D01*
X58589Y-26558D02*
X68031Y-36000D01*
X67700Y-36800D02*
X75800D01*
X142000Y-13000D02*
Y20100D01*
Y-13000D02*
X163600Y-34600D01*
X167600Y-38600D01*
X170000Y-41000D01*
X135700Y26400D02*
X142000Y20100D01*
X107000Y26400D02*
X135700D01*
X96300Y15700D02*
X107000Y26400D01*
X111800Y32800D02*
X119600Y40600D01*
X120000Y41000D01*
X86900Y32300D02*
X95600Y41000D01*
X100000D01*
X81600Y34400D02*
Y36200D01*
X86400Y41000D02*
X90000D01*
X81600Y36200D02*
X86400Y41000D01*
X113600Y-11700D02*
X117100Y-8200D01*
X115000Y-1800D02*
X117100Y-3900D01*
Y-8200D02*
Y-3900D01*
X106900Y-6500D02*
X114800D01*
X106200Y-5800D02*
X106900Y-6500D01*
X103700Y-5800D02*
X106200D01*
X108700Y-9700D02*
X111200D01*
X105600Y-6600D02*
X108700Y-9700D01*
X76551Y-2700D02*
X100600D01*
X103700Y-5800D01*
X72663Y-1900D02*
X100800D01*
X112500Y9800D02*
X114900D01*
X114200Y12631D02*
Y15400D01*
X100469Y-1100D02*
X114200Y12631D01*
X100800Y-1900D02*
X112500Y9800D01*
X72331Y-1100D02*
X100469D01*
X100000Y-300D02*
X111800Y11500D01*
X72000Y-300D02*
X100000D01*
X111800Y11500D02*
Y17000D01*
X108763Y-11700D02*
X113600D01*
X104463Y-7400D02*
X108763Y-11700D01*
X104131Y-8200D02*
X108431Y-12500D01*
X103800Y-9000D02*
X108100Y-13300D01*
X108431Y-12500D02*
X115300D01*
X108100Y-13300D02*
X116900D01*
X69638Y-3794D02*
X72331Y-1100D01*
X68063Y-4237D02*
X72000Y-300D01*
X74362Y-4889D02*
X76551Y-2700D01*
X71213Y-3350D02*
X72663Y-1900D01*
X69638Y-6536D02*
Y-3794D01*
X68063Y-4889D02*
Y-4237D01*
X71213Y-4889D02*
Y-3350D01*
X65300Y-9431D02*
X66869Y-11000D01*
X66100Y-9100D02*
X67200Y-10200D01*
X75937Y-6536D02*
X78001Y-8600D01*
X72787Y-6536D02*
X75651Y-9400D01*
X62900Y-21600D02*
Y-4826D01*
X62100Y-24400D02*
Y-5157D01*
X62900Y-21600D02*
X66000Y-24700D01*
X62100Y-24400D02*
X62500Y-24800D01*
X60189Y-25895D02*
Y-6536D01*
X57753Y-26853D02*
Y-10900D01*
X58675Y-600D02*
X62900Y-4826D01*
X58343Y-1400D02*
X62100Y-5157D01*
X59900Y2700D02*
X66100Y-3500D01*
X59237Y1100D02*
X64500Y-4163D01*
X63700Y-10200D02*
Y-4494D01*
X66100Y-9100D02*
Y-3500D01*
X59006Y200D02*
X63700Y-4494D01*
X64500Y-9763D02*
Y-4163D01*
X65300Y-9431D02*
Y-3831D01*
X59569Y1900D02*
X65300Y-3831D01*
X55900Y-1400D02*
X58343D01*
X55100Y200D02*
X59006D01*
X54826Y1100D02*
X59237D01*
X54494Y1900D02*
X59569D01*
X55569Y-600D02*
X58675D01*
X54163Y2700D02*
X59900D01*
X53500Y-9531D02*
Y-2669D01*
X55569Y-600D01*
X54300Y-3000D02*
X55900Y-1400D01*
X52700Y-2200D02*
X55100Y200D01*
X49200Y-4500D02*
X50300Y-3400D01*
Y-1163D01*
X54163Y2700D01*
X51100Y-1494D02*
X54494Y1900D01*
X54300Y-9863D02*
Y-3000D01*
X51900Y-8869D02*
Y-1825D01*
X52700Y-9200D02*
Y-2200D01*
X51900Y-1825D02*
X54826Y1100D01*
X55400Y-8547D02*
Y-4700D01*
Y-8547D02*
X57753Y-10900D01*
X55400Y-4700D02*
X56400Y-3700D01*
X88176Y-30224D02*
X89800Y-28600D01*
X92800Y-26500D02*
X94734Y-24566D01*
Y-17003D01*
X24700Y11369D02*
X26731Y13400D01*
X23100Y12031D02*
X26069Y15000D01*
X22300Y12363D02*
X25737Y15800D01*
X23900Y11700D02*
X26400Y14200D01*
X53800Y3469D02*
Y7431D01*
X50100Y7500D02*
X51400Y6200D01*
X49837Y3100D02*
X51400Y4663D01*
Y6200D01*
X52200Y4331D02*
Y6769D01*
X50169Y2300D02*
X52200Y4331D01*
X50831Y500D02*
X53800Y3469D01*
X50669Y8300D02*
X52200Y6769D01*
X50500Y1300D02*
X53000Y3800D01*
X51231Y10000D02*
X53800Y7431D01*
X53000Y3800D02*
Y7100D01*
X51000Y9100D02*
X53000Y7100D01*
X27500Y8500D02*
X28800Y9800D01*
X107200Y43800D02*
X110000Y41000D01*
X103700Y43800D02*
X107200D01*
X52300Y15700D02*
X96300D01*
X48100Y11500D02*
X52300Y15700D01*
X115300Y-12500D02*
X131800Y4000D01*
X116900Y-13300D02*
X126300Y-3900D01*
X68300Y-27500D02*
X71400Y-30600D01*
X126300Y-3900D02*
X136200D01*
X131800Y4000D02*
X136200D01*
X111800Y17000D02*
X113900Y19100D01*
Y23200D01*
D49*
X76700Y-28000D02*
X82100D01*
X88300Y-21800D01*
X39300Y-3300D02*
Y-3000D01*
X37500Y-1200D02*
X39300Y-3000D01*
X20000Y-41000D02*
Y-19900D01*
X10100Y-10000D02*
X20000Y-19900D01*
X10100Y-10000D02*
Y3900D01*
X98300Y-20900D02*
X131000D01*
X96500Y-22700D02*
X98300Y-20900D01*
X101000Y23600D02*
Y28400D01*
X95500Y18100D02*
X101000Y23600D01*
X40500Y18100D02*
X95500D01*
X101000Y28400D02*
Y30600D01*
X40500Y15900D02*
Y18100D01*
X10100Y3900D02*
X12400Y6200D01*
X127500Y5800D02*
X129500Y7800D01*
X137500D01*
X140000Y5300D01*
Y-11900D02*
Y5300D01*
X131000Y-20900D02*
X140000Y-11900D01*
X131500Y-15200D02*
Y-12300D01*
X119900Y3400D02*
X122300Y5800D01*
X127500D01*
X-4000Y25500D02*
Y27200D01*
X88300Y-21800D02*
Y-17500D01*
X12400Y6200D02*
Y17400D01*
D51*
X40000Y-31000D02*
D03*
X10000Y-41000D02*
D03*
X0D02*
D03*
X20000D02*
D03*
X80000D02*
D03*
X100000D02*
D03*
X90000D02*
D03*
X110000D02*
D03*
X170000D02*
D03*
X10000Y41000D02*
D03*
X0D02*
D03*
X20000D02*
D03*
X150000D02*
D03*
X100000D02*
D03*
X90000D02*
D03*
X110000D02*
D03*
X120000D02*
D03*
D53*
X16827Y28028D02*
D03*
Y-6028D02*
D03*
D54*
X1079Y28028D02*
D03*
Y-6028D02*
D03*
D56*
X23200Y33300D02*
D03*
X98500Y-36500D02*
D03*
X65000Y-39500D02*
D03*
X74500Y-39000D02*
D03*
X94500Y-38500D02*
D03*
X84500D02*
D03*
X96500Y2000D02*
D03*
X15000Y41000D02*
D03*
Y44000D02*
D03*
X5000Y41000D02*
D03*
Y44000D02*
D03*
X35000Y26500D02*
D03*
X32000D02*
D03*
X29000D02*
D03*
X32000Y23000D02*
D03*
X34000Y-22000D02*
D03*
X26500Y-10500D02*
D03*
X37000Y-13000D02*
D03*
X33500D02*
D03*
X30000D02*
D03*
X87700Y-12500D02*
D03*
X-3500Y2500D02*
D03*
X0Y3000D02*
D03*
X2000Y5500D02*
D03*
Y8000D02*
D03*
Y10500D02*
D03*
X17500Y-2000D02*
D03*
X22500Y-3000D02*
D03*
X23500Y-5500D02*
D03*
X15500Y14000D02*
D03*
Y11500D02*
D03*
Y9000D02*
D03*
X-3500Y13100D02*
D03*
X98200Y28100D02*
D03*
X88000Y23100D02*
D03*
X97000Y24000D02*
D03*
X42300Y-7900D02*
D03*
X46600Y-17300D02*
D03*
X47800Y-15100D02*
D03*
X66800Y-29700D02*
D03*
X76700Y-28000D02*
D03*
X47300Y29400D02*
D03*
X56100Y34700D02*
D03*
X66000Y35000D02*
D03*
X95000Y36000D02*
D03*
X91000Y31000D02*
D03*
X88000Y37000D02*
D03*
X76000Y34000D02*
D03*
Y37000D02*
D03*
X62000Y8000D02*
D03*
X67000D02*
D03*
X72000D02*
D03*
X77000D02*
D03*
X82000D02*
D03*
Y13000D02*
D03*
X77000D02*
D03*
X72000D02*
D03*
X67000D02*
D03*
X62000D02*
D03*
X82000Y21000D02*
D03*
X77000D02*
D03*
X72000D02*
D03*
X67000D02*
D03*
X62000D02*
D03*
X35500Y4000D02*
D03*
X30500Y4500D02*
D03*
X22500Y-13000D02*
D03*
X19500D02*
D03*
X0D02*
D03*
X8000Y-24500D02*
D03*
X12500D02*
D03*
Y-19000D02*
D03*
X8000D02*
D03*
X16500Y-37000D02*
D03*
X24500Y-37500D02*
D03*
X36000Y-35500D02*
D03*
X55000D02*
D03*
X90000Y-32500D02*
D03*
X97000Y-32000D02*
D03*
X96000Y-26000D02*
D03*
X97000Y-11000D02*
D03*
X104500Y-13000D02*
D03*
X121500D02*
D03*
X125500Y-16500D02*
D03*
X121500D02*
D03*
X117500D02*
D03*
X113500D02*
D03*
Y-26500D02*
D03*
Y-24000D02*
D03*
X117000Y-31500D02*
D03*
X113500D02*
D03*
X131000Y-30000D02*
D03*
Y-25000D02*
D03*
X160000Y-35000D02*
D03*
X157000Y-32000D02*
D03*
X153000D02*
D03*
X139000Y-28000D02*
D03*
Y-24000D02*
D03*
X143000D02*
D03*
Y-20000D02*
D03*
X139000D02*
D03*
X167000Y-21000D02*
D03*
Y-14857D02*
D03*
Y-8714D02*
D03*
Y-2572D02*
D03*
Y3571D02*
D03*
Y9714D02*
D03*
Y15857D02*
D03*
Y22000D02*
D03*
X140000Y11000D02*
D03*
Y15000D02*
D03*
X135000Y17000D02*
D03*
X131000D02*
D03*
Y20000D02*
D03*
X135000D02*
D03*
Y23000D02*
D03*
X131000D02*
D03*
X145000Y30000D02*
D03*
Y33000D02*
D03*
X137000Y30000D02*
D03*
Y33000D02*
D03*
X133000D02*
D03*
Y30000D02*
D03*
X129000D02*
D03*
Y33000D02*
D03*
X125000Y30000D02*
D03*
Y33000D02*
D03*
X121000D02*
D03*
X117000D02*
D03*
X121000Y30000D02*
D03*
X117000D02*
D03*
X113000D02*
D03*
X109000D02*
D03*
X105000D02*
D03*
X39300Y-3300D02*
D03*
X37500Y-1200D02*
D03*
X55000Y-22500D02*
D03*
X44200Y-19500D02*
D03*
X88176Y-30224D02*
D03*
X92800Y-26500D02*
D03*
X103700Y43800D02*
D03*
X88000Y20700D02*
D03*
X63339Y32000D02*
D03*
X48100Y11500D02*
D03*
X111200Y-9700D02*
D03*
X81600Y34400D02*
D03*
X86900Y32300D02*
D03*
X56400Y-3700D02*
D03*
X57039Y-6536D02*
D03*
X60189D02*
D03*
X58614Y-4889D02*
D03*
X101000Y30600D02*
D03*
Y28400D02*
D03*
X40500Y18100D02*
D03*
Y15900D02*
D03*
X51000Y28900D02*
D03*
X53900D02*
D03*
X29100Y-19500D02*
D03*
X46500Y6000D02*
D03*
X136200Y-3900D02*
D03*
Y4000D02*
D03*
X49300Y-8000D02*
D03*
X49200Y-4500D02*
D03*
X62500Y-24800D02*
D03*
X66000Y-24700D02*
D03*
X96500Y-22700D02*
D03*
X88300Y-17500D02*
D03*
X91200Y-17400D02*
D03*
X68300Y-27500D02*
D03*
X114800Y-6500D02*
D03*
X115000Y-1800D02*
D03*
X114900Y9800D02*
D03*
X114200Y15400D02*
D03*
X113900Y23200D02*
D03*
X68063Y-4889D02*
D03*
X69638Y-6536D02*
D03*
X71213Y-4889D02*
D03*
X72787Y-6536D02*
D03*
X74362Y-4889D02*
D03*
X75937Y-6536D02*
D03*
X131500Y-15200D02*
D03*
Y-12300D02*
D03*
X127500Y5800D02*
D03*
X119900Y3400D02*
D03*
X30200Y8000D02*
D03*
X27500Y8500D02*
D03*
X-4000Y27200D02*
D03*
X-3400Y24900D02*
D03*
X12400Y17400D02*
D03*
X11647Y5547D02*
D03*
X10100Y3900D02*
D03*
M02*
