G04*
G04 #@! TF.GenerationSoftware,Altium Limited,Altium Designer,22.2.1 (43)*
G04*
G04 Layer_Color=8388736*
%FSLAX25Y25*%
%MOIN*%
G70*
G04*
G04 #@! TF.SameCoordinates,7C3657C9-3B13-42A6-83C1-8FEA204C8C57*
G04*
G04*
G04 #@! TF.FilePolarity,Negative*
G04*
G01*
G75*
G04:AMPARAMS|DCode=30|XSize=86mil|YSize=86mil|CornerRadius=23mil|HoleSize=0mil|Usage=FLASHONLY|Rotation=90.000|XOffset=0mil|YOffset=0mil|HoleType=Round|Shape=RoundedRectangle|*
%AMROUNDEDRECTD30*
21,1,0.08600,0.04000,0,0,90.0*
21,1,0.04000,0.08600,0,0,90.0*
1,1,0.04600,0.02000,0.02000*
1,1,0.04600,0.02000,-0.02000*
1,1,0.04600,-0.02000,-0.02000*
1,1,0.04600,-0.02000,0.02000*
%
%ADD30ROUNDEDRECTD30*%
G04:AMPARAMS|DCode=31|XSize=26mil|YSize=26mil|CornerRadius=8mil|HoleSize=0mil|Usage=FLASHONLY|Rotation=0.000|XOffset=0mil|YOffset=0mil|HoleType=Round|Shape=RoundedRectangle|*
%AMROUNDEDRECTD31*
21,1,0.02600,0.01000,0,0,0.0*
21,1,0.01000,0.02600,0,0,0.0*
1,1,0.01600,0.00500,-0.00500*
1,1,0.01600,-0.00500,-0.00500*
1,1,0.01600,-0.00500,0.00500*
1,1,0.01600,0.00500,0.00500*
%
%ADD31ROUNDEDRECTD31*%
G04:AMPARAMS|DCode=32|XSize=26mil|YSize=26mil|CornerRadius=8mil|HoleSize=0mil|Usage=FLASHONLY|Rotation=90.000|XOffset=0mil|YOffset=0mil|HoleType=Round|Shape=RoundedRectangle|*
%AMROUNDEDRECTD32*
21,1,0.02600,0.01000,0,0,90.0*
21,1,0.01000,0.02600,0,0,90.0*
1,1,0.01600,0.00500,0.00500*
1,1,0.01600,0.00500,-0.00500*
1,1,0.01600,-0.00500,-0.00500*
1,1,0.01600,-0.00500,0.00500*
%
%ADD32ROUNDEDRECTD32*%
G04:AMPARAMS|DCode=33|XSize=56mil|YSize=76.87mil|CornerRadius=15.5mil|HoleSize=0mil|Usage=FLASHONLY|Rotation=90.000|XOffset=0mil|YOffset=0mil|HoleType=Round|Shape=RoundedRectangle|*
%AMROUNDEDRECTD33*
21,1,0.05600,0.04587,0,0,90.0*
21,1,0.02500,0.07687,0,0,90.0*
1,1,0.03100,0.02293,0.01250*
1,1,0.03100,0.02293,-0.01250*
1,1,0.03100,-0.02293,-0.01250*
1,1,0.03100,-0.02293,0.01250*
%
%ADD33ROUNDEDRECTD33*%
G04:AMPARAMS|DCode=34|XSize=23.72mil|YSize=35.53mil|CornerRadius=7.43mil|HoleSize=0mil|Usage=FLASHONLY|Rotation=180.000|XOffset=0mil|YOffset=0mil|HoleType=Round|Shape=RoundedRectangle|*
%AMROUNDEDRECTD34*
21,1,0.02372,0.02067,0,0,180.0*
21,1,0.00886,0.03553,0,0,180.0*
1,1,0.01486,-0.00443,0.01034*
1,1,0.01486,0.00443,0.01034*
1,1,0.01486,0.00443,-0.01034*
1,1,0.01486,-0.00443,-0.01034*
%
%ADD34ROUNDEDRECTD34*%
G04:AMPARAMS|DCode=35|XSize=23.72mil|YSize=35.53mil|CornerRadius=7.43mil|HoleSize=0mil|Usage=FLASHONLY|Rotation=90.000|XOffset=0mil|YOffset=0mil|HoleType=Round|Shape=RoundedRectangle|*
%AMROUNDEDRECTD35*
21,1,0.02372,0.02067,0,0,90.0*
21,1,0.00886,0.03553,0,0,90.0*
1,1,0.01486,0.01034,0.00443*
1,1,0.01486,0.01034,-0.00443*
1,1,0.01486,-0.01034,-0.00443*
1,1,0.01486,-0.01034,0.00443*
%
%ADD35ROUNDEDRECTD35*%
%ADD36C,0.04143*%
G04:AMPARAMS|DCode=37|XSize=29.62mil|YSize=45.37mil|CornerRadius=8.91mil|HoleSize=0mil|Usage=FLASHONLY|Rotation=180.000|XOffset=0mil|YOffset=0mil|HoleType=Round|Shape=RoundedRectangle|*
%AMROUNDEDRECTD37*
21,1,0.02962,0.02756,0,0,180.0*
21,1,0.01181,0.04537,0,0,180.0*
1,1,0.01781,-0.00591,0.01378*
1,1,0.01781,0.00591,0.01378*
1,1,0.01781,0.00591,-0.01378*
1,1,0.01781,-0.00591,-0.01378*
%
%ADD37ROUNDEDRECTD37*%
G04:AMPARAMS|DCode=38|XSize=33.56mil|YSize=57.18mil|CornerRadius=9.89mil|HoleSize=0mil|Usage=FLASHONLY|Rotation=0.000|XOffset=0mil|YOffset=0mil|HoleType=Round|Shape=RoundedRectangle|*
%AMROUNDEDRECTD38*
21,1,0.03356,0.03740,0,0,0.0*
21,1,0.01378,0.05718,0,0,0.0*
1,1,0.01978,0.00689,-0.01870*
1,1,0.01978,-0.00689,-0.01870*
1,1,0.01978,-0.00689,0.01870*
1,1,0.01978,0.00689,0.01870*
%
%ADD38ROUNDEDRECTD38*%
G04:AMPARAMS|DCode=39|XSize=46mil|YSize=80mil|CornerRadius=13mil|HoleSize=0mil|Usage=FLASHONLY|Rotation=270.000|XOffset=0mil|YOffset=0mil|HoleType=Round|Shape=RoundedRectangle|*
%AMROUNDEDRECTD39*
21,1,0.04600,0.05400,0,0,270.0*
21,1,0.02000,0.08000,0,0,270.0*
1,1,0.02600,-0.02700,-0.01000*
1,1,0.02600,-0.02700,0.01000*
1,1,0.02600,0.02700,0.01000*
1,1,0.02600,0.02700,-0.01000*
%
%ADD39ROUNDEDRECTD39*%
G04:AMPARAMS|DCode=40|XSize=65.06mil|YSize=17.81mil|CornerRadius=5.95mil|HoleSize=0mil|Usage=FLASHONLY|Rotation=0.000|XOffset=0mil|YOffset=0mil|HoleType=Round|Shape=RoundedRectangle|*
%AMROUNDEDRECTD40*
21,1,0.06506,0.00591,0,0,0.0*
21,1,0.05315,0.01781,0,0,0.0*
1,1,0.01191,0.02657,-0.00295*
1,1,0.01191,-0.02657,-0.00295*
1,1,0.01191,-0.02657,0.00295*
1,1,0.01191,0.02657,0.00295*
%
%ADD40ROUNDEDRECTD40*%
G04:AMPARAMS|DCode=41|XSize=21.75mil|YSize=143.79mil|CornerRadius=6.94mil|HoleSize=0mil|Usage=FLASHONLY|Rotation=90.000|XOffset=0mil|YOffset=0mil|HoleType=Round|Shape=RoundedRectangle|*
%AMROUNDEDRECTD41*
21,1,0.02175,0.12992,0,0,90.0*
21,1,0.00787,0.14379,0,0,90.0*
1,1,0.01387,0.06496,0.00394*
1,1,0.01387,0.06496,-0.00394*
1,1,0.01387,-0.06496,-0.00394*
1,1,0.01387,-0.06496,0.00394*
%
%ADD41ROUNDEDRECTD41*%
%ADD42R,0.02568X0.02568*%
%ADD43C,0.05600*%
%ADD44C,0.02962*%
%ADD45O,0.08868X0.04537*%
%ADD46O,0.06899X0.04537*%
%ADD47C,0.03159*%
%ADD48C,0.04537*%
D30*
X166831Y-30020D02*
D03*
X144783D02*
D03*
X166831Y30020D02*
D03*
X144783D02*
D03*
D31*
X106000Y-24000D02*
D03*
Y-20000D02*
D03*
Y-31500D02*
D03*
Y-27500D02*
D03*
X110000Y-31500D02*
D03*
Y-27500D02*
D03*
Y-20000D02*
D03*
Y-24000D02*
D03*
X73000Y-31500D02*
D03*
Y-27500D02*
D03*
Y-20000D02*
D03*
Y-24000D02*
D03*
X69500Y-20000D02*
D03*
Y-24000D02*
D03*
Y-31500D02*
D03*
Y-27500D02*
D03*
D32*
X123500Y7500D02*
D03*
X127500D02*
D03*
Y14500D02*
D03*
X123500D02*
D03*
Y11000D02*
D03*
X127500D02*
D03*
Y500D02*
D03*
X123500D02*
D03*
Y4000D02*
D03*
X127500D02*
D03*
X123500Y25000D02*
D03*
X127500D02*
D03*
X123500Y21500D02*
D03*
X127500D02*
D03*
X123500Y18000D02*
D03*
X127500D02*
D03*
X30000Y-33500D02*
D03*
X26000D02*
D03*
X123500Y-13000D02*
D03*
X127500D02*
D03*
X26000Y-26500D02*
D03*
X30000D02*
D03*
X26000Y-30000D02*
D03*
X30000D02*
D03*
X26000Y-23000D02*
D03*
X30000D02*
D03*
X26000Y-19500D02*
D03*
X30000D02*
D03*
D33*
X134004Y-13780D02*
D03*
Y-3937D02*
D03*
Y3937D02*
D03*
Y13780D02*
D03*
D34*
X117185Y-26000D02*
D03*
X126815D02*
D03*
D35*
X122000Y-30815D02*
D03*
Y-21185D02*
D03*
D36*
X122000Y-26000D02*
D03*
D37*
X92760Y-30906D02*
D03*
X100240D02*
D03*
X96500Y-21094D02*
D03*
D38*
X85240Y-20776D02*
D03*
X81500D02*
D03*
X77760D02*
D03*
Y-30224D02*
D03*
X81500D02*
D03*
X85240D02*
D03*
D39*
X1500Y-29800D02*
D03*
Y-14200D02*
D03*
X15000Y-29800D02*
D03*
Y-14200D02*
D03*
D40*
X20921Y24189D02*
D03*
Y23008D02*
D03*
Y21039D02*
D03*
Y19858D02*
D03*
Y17890D02*
D03*
Y15921D02*
D03*
Y13953D02*
D03*
Y11984D02*
D03*
Y10016D02*
D03*
Y8047D02*
D03*
Y6079D02*
D03*
Y4110D02*
D03*
Y2142D02*
D03*
Y961D02*
D03*
Y-1008D02*
D03*
Y-2189D02*
D03*
D41*
X105000Y-2024D02*
D03*
Y-4780D02*
D03*
Y6244D02*
D03*
Y3488D02*
D03*
Y14512D02*
D03*
Y11756D02*
D03*
Y22780D02*
D03*
Y20024D02*
D03*
Y-7535D02*
D03*
Y25535D02*
D03*
Y17268D02*
D03*
Y9000D02*
D03*
Y732D02*
D03*
D42*
X94600Y21000D02*
D03*
X91200D02*
D03*
X94600Y17000D02*
D03*
X91200D02*
D03*
D43*
X50000Y-31000D02*
D03*
X40000D02*
D03*
X60000Y-41000D02*
D03*
X70000D02*
D03*
X50000D02*
D03*
X10000D02*
D03*
X0D02*
D03*
X20000D02*
D03*
X40000D02*
D03*
X30000D02*
D03*
X80000D02*
D03*
X150000D02*
D03*
X160000D02*
D03*
X140000D02*
D03*
X100000D02*
D03*
X90000D02*
D03*
X110000D02*
D03*
X130000D02*
D03*
X120000D02*
D03*
X170000D02*
D03*
X60000Y41000D02*
D03*
X70000D02*
D03*
X50000D02*
D03*
X10000D02*
D03*
X0D02*
D03*
X20000D02*
D03*
X40000D02*
D03*
X30000D02*
D03*
X80000D02*
D03*
X150000D02*
D03*
X160000D02*
D03*
X140000D02*
D03*
X100000D02*
D03*
X90000D02*
D03*
X110000D02*
D03*
X130000D02*
D03*
X120000D02*
D03*
X170000D02*
D03*
D44*
X146114Y9646D02*
D03*
Y-9646D02*
D03*
D45*
X16827Y28028D02*
D03*
Y-6028D02*
D03*
D46*
X1079Y28028D02*
D03*
Y-6028D02*
D03*
D47*
X14858Y-378D02*
D03*
Y22378D02*
D03*
D48*
X150839Y-11677D02*
D03*
Y19740D02*
D03*
M02*
