G04*
G04 #@! TF.GenerationSoftware,Altium Limited,Altium Designer,22.2.1 (43)*
G04*
G04 Layer_Color=255*
%FSLAX25Y25*%
%MOIN*%
G70*
G04*
G04 #@! TF.SameCoordinates,5BB0EFD5-3206-4E1C-A6FC-55E40B3CF44B*
G04*
G04*
G04 #@! TF.FilePolarity,Positive*
G04*
G01*
G75*
G04:AMPARAMS|DCode=17|XSize=80mil|YSize=80mil|CornerRadius=20mil|HoleSize=0mil|Usage=FLASHONLY|Rotation=90.000|XOffset=0mil|YOffset=0mil|HoleType=Round|Shape=RoundedRectangle|*
%AMROUNDEDRECTD17*
21,1,0.08000,0.04000,0,0,90.0*
21,1,0.04000,0.08000,0,0,90.0*
1,1,0.04000,0.02000,0.02000*
1,1,0.04000,0.02000,-0.02000*
1,1,0.04000,-0.02000,-0.02000*
1,1,0.04000,-0.02000,0.02000*
%
%ADD17ROUNDEDRECTD17*%
G04:AMPARAMS|DCode=18|XSize=20mil|YSize=20mil|CornerRadius=5mil|HoleSize=0mil|Usage=FLASHONLY|Rotation=0.000|XOffset=0mil|YOffset=0mil|HoleType=Round|Shape=RoundedRectangle|*
%AMROUNDEDRECTD18*
21,1,0.02000,0.01000,0,0,0.0*
21,1,0.01000,0.02000,0,0,0.0*
1,1,0.01000,0.00500,-0.00500*
1,1,0.01000,-0.00500,-0.00500*
1,1,0.01000,-0.00500,0.00500*
1,1,0.01000,0.00500,0.00500*
%
%ADD18ROUNDEDRECTD18*%
G04:AMPARAMS|DCode=19|XSize=20mil|YSize=20mil|CornerRadius=5mil|HoleSize=0mil|Usage=FLASHONLY|Rotation=90.000|XOffset=0mil|YOffset=0mil|HoleType=Round|Shape=RoundedRectangle|*
%AMROUNDEDRECTD19*
21,1,0.02000,0.01000,0,0,90.0*
21,1,0.01000,0.02000,0,0,90.0*
1,1,0.01000,0.00500,0.00500*
1,1,0.01000,0.00500,-0.00500*
1,1,0.01000,-0.00500,-0.00500*
1,1,0.01000,-0.00500,0.00500*
%
%ADD19ROUNDEDRECTD19*%
G04:AMPARAMS|DCode=20|XSize=50mil|YSize=70.87mil|CornerRadius=12.5mil|HoleSize=0mil|Usage=FLASHONLY|Rotation=90.000|XOffset=0mil|YOffset=0mil|HoleType=Round|Shape=RoundedRectangle|*
%AMROUNDEDRECTD20*
21,1,0.05000,0.04587,0,0,90.0*
21,1,0.02500,0.07087,0,0,90.0*
1,1,0.02500,0.02293,0.01250*
1,1,0.02500,0.02293,-0.01250*
1,1,0.02500,-0.02293,-0.01250*
1,1,0.02500,-0.02293,0.01250*
%
%ADD20ROUNDEDRECTD20*%
G04:AMPARAMS|DCode=21|XSize=17.72mil|YSize=29.53mil|CornerRadius=4.43mil|HoleSize=0mil|Usage=FLASHONLY|Rotation=180.000|XOffset=0mil|YOffset=0mil|HoleType=Round|Shape=RoundedRectangle|*
%AMROUNDEDRECTD21*
21,1,0.01772,0.02067,0,0,180.0*
21,1,0.00886,0.02953,0,0,180.0*
1,1,0.00886,-0.00443,0.01034*
1,1,0.00886,0.00443,0.01034*
1,1,0.00886,0.00443,-0.01034*
1,1,0.00886,-0.00443,-0.01034*
%
%ADD21ROUNDEDRECTD21*%
G04:AMPARAMS|DCode=22|XSize=17.72mil|YSize=29.53mil|CornerRadius=4.43mil|HoleSize=0mil|Usage=FLASHONLY|Rotation=90.000|XOffset=0mil|YOffset=0mil|HoleType=Round|Shape=RoundedRectangle|*
%AMROUNDEDRECTD22*
21,1,0.01772,0.02067,0,0,90.0*
21,1,0.00886,0.02953,0,0,90.0*
1,1,0.00886,0.01034,0.00443*
1,1,0.00886,0.01034,-0.00443*
1,1,0.00886,-0.01034,-0.00443*
1,1,0.00886,-0.01034,0.00443*
%
%ADD22ROUNDEDRECTD22*%
%ADD23C,0.03543*%
G04:AMPARAMS|DCode=24|XSize=23.62mil|YSize=39.37mil|CornerRadius=5.91mil|HoleSize=0mil|Usage=FLASHONLY|Rotation=180.000|XOffset=0mil|YOffset=0mil|HoleType=Round|Shape=RoundedRectangle|*
%AMROUNDEDRECTD24*
21,1,0.02362,0.02756,0,0,180.0*
21,1,0.01181,0.03937,0,0,180.0*
1,1,0.01181,-0.00591,0.01378*
1,1,0.01181,0.00591,0.01378*
1,1,0.01181,0.00591,-0.01378*
1,1,0.01181,-0.00591,-0.01378*
%
%ADD24ROUNDEDRECTD24*%
G04:AMPARAMS|DCode=25|XSize=27.56mil|YSize=51.18mil|CornerRadius=6.89mil|HoleSize=0mil|Usage=FLASHONLY|Rotation=0.000|XOffset=0mil|YOffset=0mil|HoleType=Round|Shape=RoundedRectangle|*
%AMROUNDEDRECTD25*
21,1,0.02756,0.03740,0,0,0.0*
21,1,0.01378,0.05118,0,0,0.0*
1,1,0.01378,0.00689,-0.01870*
1,1,0.01378,-0.00689,-0.01870*
1,1,0.01378,-0.00689,0.01870*
1,1,0.01378,0.00689,0.01870*
%
%ADD25ROUNDEDRECTD25*%
G04:AMPARAMS|DCode=26|XSize=40mil|YSize=74mil|CornerRadius=10mil|HoleSize=0mil|Usage=FLASHONLY|Rotation=270.000|XOffset=0mil|YOffset=0mil|HoleType=Round|Shape=RoundedRectangle|*
%AMROUNDEDRECTD26*
21,1,0.04000,0.05400,0,0,270.0*
21,1,0.02000,0.07400,0,0,270.0*
1,1,0.02000,-0.02700,-0.01000*
1,1,0.02000,-0.02700,0.01000*
1,1,0.02000,0.02700,0.01000*
1,1,0.02000,0.02700,-0.01000*
%
%ADD26ROUNDEDRECTD26*%
G04:AMPARAMS|DCode=27|XSize=59.06mil|YSize=11.81mil|CornerRadius=2.95mil|HoleSize=0mil|Usage=FLASHONLY|Rotation=0.000|XOffset=0mil|YOffset=0mil|HoleType=Round|Shape=RoundedRectangle|*
%AMROUNDEDRECTD27*
21,1,0.05906,0.00591,0,0,0.0*
21,1,0.05315,0.01181,0,0,0.0*
1,1,0.00591,0.02657,-0.00295*
1,1,0.00591,-0.02657,-0.00295*
1,1,0.00591,-0.02657,0.00295*
1,1,0.00591,0.02657,0.00295*
%
%ADD27ROUNDEDRECTD27*%
G04:AMPARAMS|DCode=28|XSize=15.75mil|YSize=137.8mil|CornerRadius=3.94mil|HoleSize=0mil|Usage=FLASHONLY|Rotation=90.000|XOffset=0mil|YOffset=0mil|HoleType=Round|Shape=RoundedRectangle|*
%AMROUNDEDRECTD28*
21,1,0.01575,0.12992,0,0,90.0*
21,1,0.00787,0.13780,0,0,90.0*
1,1,0.00787,0.06496,0.00394*
1,1,0.00787,0.06496,-0.00394*
1,1,0.00787,-0.06496,-0.00394*
1,1,0.00787,-0.06496,0.00394*
%
%ADD28ROUNDEDRECTD28*%
%ADD29R,0.01968X0.01968*%
%ADD51C,0.05000*%
%ADD52C,0.02362*%
%ADD53O,0.08268X0.03937*%
%ADD54O,0.06299X0.03937*%
%ADD55C,0.02559*%
D17*
X166831Y-30020D02*
D03*
X144783D02*
D03*
X166831Y30020D02*
D03*
X144783D02*
D03*
D18*
X106000Y-24000D02*
D03*
Y-20000D02*
D03*
Y-31500D02*
D03*
Y-27500D02*
D03*
X110000Y-31500D02*
D03*
Y-27500D02*
D03*
Y-20000D02*
D03*
Y-24000D02*
D03*
X73000Y-31500D02*
D03*
Y-27500D02*
D03*
Y-20000D02*
D03*
Y-24000D02*
D03*
X69500Y-20000D02*
D03*
Y-24000D02*
D03*
Y-31500D02*
D03*
Y-27500D02*
D03*
D19*
X123500Y7500D02*
D03*
X127500D02*
D03*
Y14500D02*
D03*
X123500D02*
D03*
Y11000D02*
D03*
X127500D02*
D03*
Y500D02*
D03*
X123500D02*
D03*
Y4000D02*
D03*
X127500D02*
D03*
X123500Y25000D02*
D03*
X127500D02*
D03*
X123500Y21500D02*
D03*
X127500D02*
D03*
X123500Y18000D02*
D03*
X127500D02*
D03*
X30000Y-33500D02*
D03*
X26000D02*
D03*
X123500Y-13000D02*
D03*
X127500D02*
D03*
X26000Y-26500D02*
D03*
X30000D02*
D03*
X26000Y-30000D02*
D03*
X30000D02*
D03*
X26000Y-23000D02*
D03*
X30000D02*
D03*
X26000Y-19500D02*
D03*
X30000D02*
D03*
D20*
X134004Y-13780D02*
D03*
Y-3937D02*
D03*
Y3937D02*
D03*
Y13780D02*
D03*
D21*
X117185Y-26000D02*
D03*
X126815D02*
D03*
D22*
X122000Y-30815D02*
D03*
Y-21185D02*
D03*
D23*
X122000Y-26000D02*
D03*
D24*
X92760Y-30906D02*
D03*
X100240D02*
D03*
X96500Y-21094D02*
D03*
D25*
X85240Y-20776D02*
D03*
X81500D02*
D03*
X77760D02*
D03*
Y-30224D02*
D03*
X81500D02*
D03*
X85240D02*
D03*
D26*
X1500Y-29800D02*
D03*
Y-14200D02*
D03*
X15000Y-29800D02*
D03*
Y-14200D02*
D03*
D27*
X20921Y24189D02*
D03*
Y23008D02*
D03*
Y21039D02*
D03*
Y19858D02*
D03*
Y17890D02*
D03*
Y15921D02*
D03*
Y13953D02*
D03*
Y11984D02*
D03*
Y10016D02*
D03*
Y8047D02*
D03*
Y6079D02*
D03*
Y4110D02*
D03*
Y2142D02*
D03*
Y961D02*
D03*
Y-1008D02*
D03*
Y-2189D02*
D03*
D28*
X105000Y-2024D02*
D03*
Y-4780D02*
D03*
Y6244D02*
D03*
Y3488D02*
D03*
Y14512D02*
D03*
Y11756D02*
D03*
Y22780D02*
D03*
Y20024D02*
D03*
Y-7535D02*
D03*
Y25535D02*
D03*
Y17268D02*
D03*
Y9000D02*
D03*
Y732D02*
D03*
D29*
X94600Y21000D02*
D03*
X91200D02*
D03*
X94600Y17000D02*
D03*
X91200D02*
D03*
D51*
X50000Y-31000D02*
D03*
X40000D02*
D03*
X60000Y-41000D02*
D03*
X70000D02*
D03*
X50000D02*
D03*
X10000D02*
D03*
X0D02*
D03*
X20000D02*
D03*
X40000D02*
D03*
X30000D02*
D03*
X80000D02*
D03*
X150000D02*
D03*
X160000D02*
D03*
X140000D02*
D03*
X100000D02*
D03*
X90000D02*
D03*
X110000D02*
D03*
X130000D02*
D03*
X120000D02*
D03*
X170000D02*
D03*
X60000Y41000D02*
D03*
X70000D02*
D03*
X50000D02*
D03*
X10000D02*
D03*
X0D02*
D03*
X20000D02*
D03*
X40000D02*
D03*
X30000D02*
D03*
X80000D02*
D03*
X150000D02*
D03*
X160000D02*
D03*
X140000D02*
D03*
X100000D02*
D03*
X90000D02*
D03*
X110000D02*
D03*
X130000D02*
D03*
X120000D02*
D03*
X170000D02*
D03*
D52*
X146114Y9646D02*
D03*
Y-9646D02*
D03*
D53*
X16827Y28028D02*
D03*
Y-6028D02*
D03*
D54*
X1079Y28028D02*
D03*
Y-6028D02*
D03*
D55*
X14858Y-378D02*
D03*
Y22378D02*
D03*
M02*
