G04*
G04 #@! TF.GenerationSoftware,Altium Limited,Altium Designer,22.2.1 (43)*
G04*
G04 Layer_Color=32768*
%FSLAX25Y25*%
%MOIN*%
G70*
G04*
G04 #@! TF.SameCoordinates,5BB0EFD5-3206-4E1C-A6FC-55E40B3CF44B*
G04*
G04*
G04 #@! TF.FilePolarity,Positive*
G04*
G01*
G75*
%ADD97C,0.00394*%
%ADD98C,0.00197*%
D97*
X16602Y9681D02*
Y13618D01*
X14634Y11650D02*
X18571D01*
X89413Y-34000D02*
X103587D01*
X89413Y-18000D02*
X103587D01*
X89413Y-34000D02*
Y-18000D01*
X103587Y-34000D02*
Y-18000D01*
X96500Y-27968D02*
Y-24032D01*
X94532Y-26000D02*
X98469D01*
X73429Y-16248D02*
X89571D01*
X73429Y-34752D02*
X89571D01*
Y-16248D01*
X73429Y-34752D02*
Y-16248D01*
X81500Y-27468D02*
Y-23531D01*
X79532Y-25500D02*
X83469D01*
X70031Y10000D02*
X73968D01*
X72000Y8032D02*
Y11969D01*
X96200Y19200D02*
Y22800D01*
X89600D02*
X96200D01*
X89600Y19200D02*
X96200D01*
X89600D02*
Y22800D01*
X96200Y15200D02*
Y18800D01*
X89600D02*
X96200D01*
X89600Y15200D02*
X96200D01*
X89600D02*
Y18800D01*
D98*
X8335Y3382D02*
X24870D01*
X8335Y19917D02*
X24870D01*
X8335Y3382D02*
Y19917D01*
X24870Y3382D02*
Y19917D01*
X94047Y-12047D02*
Y32047D01*
X49953Y-12047D02*
Y32047D01*
Y-12047D02*
X94047D01*
X49953Y32047D02*
X94047D01*
M02*
