G04*
G04 #@! TF.GenerationSoftware,Altium Limited,Altium Designer,22.2.1 (43)*
G04*
G04 Layer_Color=128*
%FSLAX25Y25*%
%MOIN*%
G70*
G04*
G04 #@! TF.SameCoordinates,7C3657C9-3B13-42A6-83C1-8FEA204C8C57*
G04*
G04*
G04 #@! TF.FilePolarity,Positive*
G04*
G01*
G75*
%ADD96C,0.00200*%
D96*
X48400Y-31000D02*
X51600D01*
X50000Y-32600D02*
Y-29400D01*
X38400Y-31000D02*
X41600D01*
X40000Y-32600D02*
Y-29400D01*
X144114Y9646D02*
X148114D01*
X146114Y7646D02*
Y11646D01*
X144114Y-9646D02*
X148114D01*
X146114Y-11646D02*
Y-7646D01*
X15646Y28028D02*
X18008D01*
X16827Y26847D02*
Y29209D01*
X15646Y-6028D02*
X18008D01*
X16827Y-7209D02*
Y-4846D01*
X-102Y28028D02*
X2260D01*
X1079Y26847D02*
Y29209D01*
X-102Y-6028D02*
X2260D01*
X1079Y-7209D02*
Y-4846D01*
X13579Y-378D02*
X16138D01*
X14858Y-1657D02*
Y902D01*
X13579Y22378D02*
X16138D01*
X14858Y21098D02*
Y23658D01*
X58400Y-41000D02*
X61600D01*
X60000Y-42600D02*
Y-39400D01*
X68400Y-41000D02*
X71600D01*
X70000Y-42600D02*
Y-39400D01*
X48400Y-41000D02*
X51600D01*
X50000Y-42600D02*
Y-39400D01*
X8400Y-41000D02*
X11600D01*
X10000Y-42600D02*
Y-39400D01*
X-1600Y-41000D02*
X1600D01*
X0Y-42600D02*
Y-39400D01*
X18400Y-41000D02*
X21600D01*
X20000Y-42600D02*
Y-39400D01*
X38400Y-41000D02*
X41600D01*
X40000Y-42600D02*
Y-39400D01*
X28400Y-41000D02*
X31600D01*
X30000Y-42600D02*
Y-39400D01*
X78400Y-41000D02*
X81600D01*
X80000Y-42600D02*
Y-39400D01*
X148400Y-41000D02*
X151600D01*
X150000Y-42600D02*
Y-39400D01*
X158400Y-41000D02*
X161600D01*
X160000Y-42600D02*
Y-39400D01*
X138400Y-41000D02*
X141600D01*
X140000Y-42600D02*
Y-39400D01*
X98400Y-41000D02*
X101600D01*
X100000Y-42600D02*
Y-39400D01*
X88400Y-41000D02*
X91600D01*
X90000Y-42600D02*
Y-39400D01*
X108400Y-41000D02*
X111600D01*
X110000Y-42600D02*
Y-39400D01*
X128400Y-41000D02*
X131600D01*
X130000Y-42600D02*
Y-39400D01*
X118400Y-41000D02*
X121600D01*
X120000Y-42600D02*
Y-39400D01*
X168400Y-41000D02*
X171600D01*
X170000Y-42600D02*
Y-39400D01*
X58400Y41000D02*
X61600D01*
X60000Y39400D02*
Y42600D01*
X68400Y41000D02*
X71600D01*
X70000Y39400D02*
Y42600D01*
X48400Y41000D02*
X51600D01*
X50000Y39400D02*
Y42600D01*
X8400Y41000D02*
X11600D01*
X10000Y39400D02*
Y42600D01*
X-1600Y41000D02*
X1600D01*
X0Y39400D02*
Y42600D01*
X18400Y41000D02*
X21600D01*
X20000Y39400D02*
Y42600D01*
X38400Y41000D02*
X41600D01*
X40000Y39400D02*
Y42600D01*
X28400Y41000D02*
X31600D01*
X30000Y39400D02*
Y42600D01*
X78400Y41000D02*
X81600D01*
X80000Y39400D02*
Y42600D01*
X148400Y41000D02*
X151600D01*
X150000Y39400D02*
Y42600D01*
X158400Y41000D02*
X161600D01*
X160000Y39400D02*
Y42600D01*
X138400Y41000D02*
X141600D01*
X140000Y39400D02*
Y42600D01*
X98400Y41000D02*
X101600D01*
X100000Y39400D02*
Y42600D01*
X88400Y41000D02*
X91600D01*
X90000Y39400D02*
Y42600D01*
X108400Y41000D02*
X111600D01*
X110000Y39400D02*
Y42600D01*
X128400Y41000D02*
X131600D01*
X130000Y39400D02*
Y42600D01*
X118400Y41000D02*
X121600D01*
X120000Y39400D02*
Y42600D01*
X168400Y41000D02*
X171600D01*
X170000Y39400D02*
Y42600D01*
X22700Y33300D02*
X23700D01*
X23200Y32800D02*
Y33800D01*
X98000Y-36500D02*
X99000D01*
X98500Y-37000D02*
Y-36000D01*
X64500Y-39500D02*
X65500D01*
X65000Y-40000D02*
Y-39000D01*
X74000D02*
X75000D01*
X74500Y-39500D02*
Y-38500D01*
X94000D02*
X95000D01*
X94500Y-39000D02*
Y-38000D01*
X84000Y-38500D02*
X85000D01*
X84500Y-39000D02*
Y-38000D01*
X96000Y2000D02*
X97000D01*
X96500Y1500D02*
Y2500D01*
X14500Y41000D02*
X15500D01*
X15000Y40500D02*
Y41500D01*
X14500Y44000D02*
X15500D01*
X15000Y43500D02*
Y44500D01*
X4500Y41000D02*
X5500D01*
X5000Y40500D02*
Y41500D01*
X4500Y44000D02*
X5500D01*
X5000Y43500D02*
Y44500D01*
X34500Y26500D02*
X35500D01*
X35000Y26000D02*
Y27000D01*
X31500Y26500D02*
X32500D01*
X32000Y26000D02*
Y27000D01*
X28500Y26500D02*
X29500D01*
X29000Y26000D02*
Y27000D01*
X31500Y23000D02*
X32500D01*
X32000Y22500D02*
Y23500D01*
X33500Y-22000D02*
X34500D01*
X34000Y-22500D02*
Y-21500D01*
X26000Y-10500D02*
X27000D01*
X26500Y-11000D02*
Y-10000D01*
X36500Y-13000D02*
X37500D01*
X37000Y-13500D02*
Y-12500D01*
X33000Y-13000D02*
X34000D01*
X33500Y-13500D02*
Y-12500D01*
X29500Y-13000D02*
X30500D01*
X30000Y-13500D02*
Y-12500D01*
X87200D02*
X88200D01*
X87700Y-13000D02*
Y-12000D01*
X-4000Y2500D02*
X-3000D01*
X-3500Y2000D02*
Y3000D01*
X-500D02*
X500D01*
X0Y2500D02*
Y3500D01*
X1500Y5500D02*
X2500D01*
X2000Y5000D02*
Y6000D01*
X1500Y8000D02*
X2500D01*
X2000Y7500D02*
Y8500D01*
X1500Y10500D02*
X2500D01*
X2000Y10000D02*
Y11000D01*
X17000Y-2000D02*
X18000D01*
X17500Y-2500D02*
Y-1500D01*
X22000Y-3000D02*
X23000D01*
X22500Y-3500D02*
Y-2500D01*
X23000Y-5500D02*
X24000D01*
X23500Y-6000D02*
Y-5000D01*
X15000Y14000D02*
X16000D01*
X15500Y13500D02*
Y14500D01*
X15000Y11500D02*
X16000D01*
X15500Y11000D02*
Y12000D01*
X15000Y9000D02*
X16000D01*
X15500Y8500D02*
Y9500D01*
X-4000Y13100D02*
X-3000D01*
X-3500Y12600D02*
Y13600D01*
X97700Y28100D02*
X98700D01*
X98200Y27600D02*
Y28600D01*
X87500Y23100D02*
X88500D01*
X88000Y22600D02*
Y23600D01*
X96500Y24000D02*
X97500D01*
X97000Y23500D02*
Y24500D01*
X41800Y-7900D02*
X42800D01*
X42300Y-8400D02*
Y-7400D01*
X46100Y-17300D02*
X47100D01*
X46600Y-17800D02*
Y-16800D01*
X47300Y-15100D02*
X48300D01*
X47800Y-15600D02*
Y-14600D01*
X66300Y-29700D02*
X67300D01*
X66800Y-30200D02*
Y-29200D01*
X76200Y-28000D02*
X77200D01*
X76700Y-28500D02*
Y-27500D01*
X78500Y-4900D02*
X79500D01*
X79000Y-5400D02*
Y-4400D01*
X46800Y29400D02*
X47800D01*
X47300Y28900D02*
Y29900D01*
X55600Y34700D02*
X56600D01*
X56100Y34200D02*
Y35200D01*
X65500Y35000D02*
X66500D01*
X66000Y34500D02*
Y35500D01*
X94500Y36000D02*
X95500D01*
X95000Y35500D02*
Y36500D01*
X90500Y31000D02*
X91500D01*
X91000Y30500D02*
Y31500D01*
X87500Y37000D02*
X88500D01*
X88000Y36500D02*
Y37500D01*
X75500Y34000D02*
X76500D01*
X76000Y33500D02*
Y34500D01*
X75500Y37000D02*
X76500D01*
X76000Y36500D02*
Y37500D01*
X61500Y8000D02*
X62500D01*
X62000Y7500D02*
Y8500D01*
X66500Y8000D02*
X67500D01*
X67000Y7500D02*
Y8500D01*
X71500Y8000D02*
X72500D01*
X72000Y7500D02*
Y8500D01*
X76500Y8000D02*
X77500D01*
X77000Y7500D02*
Y8500D01*
X81500Y8000D02*
X82500D01*
X82000Y7500D02*
Y8500D01*
X81500Y13000D02*
X82500D01*
X82000Y12500D02*
Y13500D01*
X76500Y13000D02*
X77500D01*
X77000Y12500D02*
Y13500D01*
X71500Y13000D02*
X72500D01*
X72000Y12500D02*
Y13500D01*
X66500Y13000D02*
X67500D01*
X67000Y12500D02*
Y13500D01*
X61500Y13000D02*
X62500D01*
X62000Y12500D02*
Y13500D01*
X81500Y21000D02*
X82500D01*
X82000Y20500D02*
Y21500D01*
X76500Y21000D02*
X77500D01*
X77000Y20500D02*
Y21500D01*
X71500Y21000D02*
X72500D01*
X72000Y20500D02*
Y21500D01*
X66500Y21000D02*
X67500D01*
X67000Y20500D02*
Y21500D01*
X61500Y21000D02*
X62500D01*
X62000Y20500D02*
Y21500D01*
X35000Y4000D02*
X36000D01*
X35500Y3500D02*
Y4500D01*
X30000D02*
X31000D01*
X30500Y4000D02*
Y5000D01*
X22000Y-13000D02*
X23000D01*
X22500Y-13500D02*
Y-12500D01*
X19000Y-13000D02*
X20000D01*
X19500Y-13500D02*
Y-12500D01*
X-500Y-13000D02*
X500D01*
X0Y-13500D02*
Y-12500D01*
X7500Y-24500D02*
X8500D01*
X8000Y-25000D02*
Y-24000D01*
X12000Y-24500D02*
X13000D01*
X12500Y-25000D02*
Y-24000D01*
X12000Y-19000D02*
X13000D01*
X12500Y-19500D02*
Y-18500D01*
X7500Y-19000D02*
X8500D01*
X8000Y-19500D02*
Y-18500D01*
X16000Y-37000D02*
X17000D01*
X16500Y-37500D02*
Y-36500D01*
X24000Y-37500D02*
X25000D01*
X24500Y-38000D02*
Y-37000D01*
X35500Y-35500D02*
X36500D01*
X36000Y-36000D02*
Y-35000D01*
X54500Y-35500D02*
X55500D01*
X55000Y-36000D02*
Y-35000D01*
X89500Y-32500D02*
X90500D01*
X90000Y-33000D02*
Y-32000D01*
X96500D02*
X97500D01*
X97000Y-32500D02*
Y-31500D01*
X95500Y-26000D02*
X96500D01*
X96000Y-26500D02*
Y-25500D01*
X96500Y-11000D02*
X97500D01*
X97000Y-11500D02*
Y-10500D01*
X104000Y-13000D02*
X105000D01*
X104500Y-13500D02*
Y-12500D01*
X121000Y-13000D02*
X122000D01*
X121500Y-13500D02*
Y-12500D01*
X125000Y-16500D02*
X126000D01*
X125500Y-17000D02*
Y-16000D01*
X121000Y-16500D02*
X122000D01*
X121500Y-17000D02*
Y-16000D01*
X117000Y-16500D02*
X118000D01*
X117500Y-17000D02*
Y-16000D01*
X113000Y-16500D02*
X114000D01*
X113500Y-17000D02*
Y-16000D01*
X113000Y-26500D02*
X114000D01*
X113500Y-27000D02*
Y-26000D01*
X113000Y-24000D02*
X114000D01*
X113500Y-24500D02*
Y-23500D01*
X116500Y-31500D02*
X117500D01*
X117000Y-32000D02*
Y-31000D01*
X113000Y-31500D02*
X114000D01*
X113500Y-32000D02*
Y-31000D01*
X130500Y-30000D02*
X131500D01*
X131000Y-30500D02*
Y-29500D01*
X130500Y-25000D02*
X131500D01*
X131000Y-25500D02*
Y-24500D01*
X159500Y-35000D02*
X160500D01*
X160000Y-35500D02*
Y-34500D01*
X156500Y-32000D02*
X157500D01*
X157000Y-32500D02*
Y-31500D01*
X152500Y-32000D02*
X153500D01*
X153000Y-32500D02*
Y-31500D01*
X138500Y-28000D02*
X139500D01*
X139000Y-28500D02*
Y-27500D01*
X138500Y-24000D02*
X139500D01*
X139000Y-24500D02*
Y-23500D01*
X142500Y-24000D02*
X143500D01*
X143000Y-24500D02*
Y-23500D01*
X142500Y-20000D02*
X143500D01*
X143000Y-20500D02*
Y-19500D01*
X138500Y-20000D02*
X139500D01*
X139000Y-20500D02*
Y-19500D01*
X166500Y-21000D02*
X167500D01*
X167000Y-21500D02*
Y-20500D01*
X166500Y-14857D02*
X167500D01*
X167000Y-15357D02*
Y-14357D01*
X166500Y-8714D02*
X167500D01*
X167000Y-9214D02*
Y-8214D01*
X166500Y-2572D02*
X167500D01*
X167000Y-3071D02*
Y-2072D01*
X166500Y3571D02*
X167500D01*
X167000Y3071D02*
Y4071D01*
X166500Y9714D02*
X167500D01*
X167000Y9214D02*
Y10214D01*
X166500Y15857D02*
X167500D01*
X167000Y15357D02*
Y16357D01*
X166500Y22000D02*
X167500D01*
X167000Y21500D02*
Y22500D01*
X139500Y11000D02*
X140500D01*
X140000Y10500D02*
Y11500D01*
X139500Y15000D02*
X140500D01*
X140000Y14500D02*
Y15500D01*
X134500Y17000D02*
X135500D01*
X135000Y16500D02*
Y17500D01*
X130500Y17000D02*
X131500D01*
X131000Y16500D02*
Y17500D01*
X130500Y20000D02*
X131500D01*
X131000Y19500D02*
Y20500D01*
X134500Y20000D02*
X135500D01*
X135000Y19500D02*
Y20500D01*
X134500Y23000D02*
X135500D01*
X135000Y22500D02*
Y23500D01*
X130500Y23000D02*
X131500D01*
X131000Y22500D02*
Y23500D01*
X144500Y30000D02*
X145500D01*
X145000Y29500D02*
Y30500D01*
X144500Y33000D02*
X145500D01*
X145000Y32500D02*
Y33500D01*
X136500Y30000D02*
X137500D01*
X137000Y29500D02*
Y30500D01*
X136500Y33000D02*
X137500D01*
X137000Y32500D02*
Y33500D01*
X132500Y33000D02*
X133500D01*
X133000Y32500D02*
Y33500D01*
X132500Y30000D02*
X133500D01*
X133000Y29500D02*
Y30500D01*
X128500Y30000D02*
X129500D01*
X129000Y29500D02*
Y30500D01*
X128500Y33000D02*
X129500D01*
X129000Y32500D02*
Y33500D01*
X124500Y30000D02*
X125500D01*
X125000Y29500D02*
Y30500D01*
X124500Y33000D02*
X125500D01*
X125000Y32500D02*
Y33500D01*
X120500Y33000D02*
X121500D01*
X121000Y32500D02*
Y33500D01*
X116500Y33000D02*
X117500D01*
X117000Y32500D02*
Y33500D01*
X120500Y30000D02*
X121500D01*
X121000Y29500D02*
Y30500D01*
X116500Y30000D02*
X117500D01*
X117000Y29500D02*
Y30500D01*
X112500Y30000D02*
X113500D01*
X113000Y29500D02*
Y30500D01*
X108500Y30000D02*
X109500D01*
X109000Y29500D02*
Y30500D01*
X104500Y30000D02*
X105500D01*
X105000Y29500D02*
Y30500D01*
X38800Y-3300D02*
X39800D01*
X39300Y-3800D02*
Y-2800D01*
X37000Y-1200D02*
X38000D01*
X37500Y-1700D02*
Y-700D01*
X39600Y26500D02*
X40600D01*
X40100Y26000D02*
Y27000D01*
X59700Y32400D02*
X60700D01*
X60200Y31900D02*
Y32900D01*
X54500Y-22500D02*
X55500D01*
X55000Y-23000D02*
Y-22000D01*
X43700Y-19500D02*
X44700D01*
X44200Y-20000D02*
Y-19000D01*
X87676Y-30224D02*
X88676D01*
X88176Y-30724D02*
Y-29724D01*
X92300Y-26500D02*
X93300D01*
X92800Y-27000D02*
Y-26000D01*
X103200Y43800D02*
X104200D01*
X103700Y43300D02*
Y44300D01*
X87500Y20700D02*
X88500D01*
X88000Y20200D02*
Y21200D01*
X62839Y32000D02*
X63839D01*
X63339Y31500D02*
Y32500D01*
X47600Y11500D02*
X48600D01*
X48100Y11000D02*
Y12000D01*
X89200Y-11200D02*
X90200D01*
X89700Y-11700D02*
Y-10700D01*
X110700Y-9700D02*
X111700D01*
X111200Y-10200D02*
Y-9200D01*
X81100Y34400D02*
X82100D01*
X81600Y33900D02*
Y34900D01*
X86400Y32300D02*
X87400D01*
X86900Y31800D02*
Y32800D01*
X55900Y-3700D02*
X56900D01*
X56400Y-4200D02*
Y-3200D01*
X56539Y-6536D02*
X57539D01*
X57039Y-7036D02*
Y-6036D01*
X59689Y-6536D02*
X60689D01*
X60189Y-7036D02*
Y-6036D01*
X58114Y-4889D02*
X59114D01*
X58614Y-5389D02*
Y-4389D01*
X104400Y-31600D02*
X105400D01*
X104900Y-32100D02*
Y-31100D01*
X100500Y30600D02*
X101500D01*
X101000Y30100D02*
Y31100D01*
X100500Y28400D02*
X101500D01*
X101000Y27900D02*
Y28900D01*
X40000Y18100D02*
X41000D01*
X40500Y17600D02*
Y18600D01*
X40000Y15900D02*
X41000D01*
X40500Y15400D02*
Y16400D01*
X50500Y28900D02*
X51500D01*
X51000Y28400D02*
Y29400D01*
X53400Y28900D02*
X54400D01*
X53900Y28400D02*
Y29400D01*
X45600Y13100D02*
X46600D01*
X46100Y12600D02*
Y13600D01*
X49500Y24900D02*
X50500D01*
X50000Y24400D02*
Y25400D01*
X48700Y5400D02*
X49700D01*
X49200Y4900D02*
Y5900D01*
X28600Y-19500D02*
X29600D01*
X29100Y-20000D02*
Y-19000D01*
X46000Y6000D02*
X47000D01*
X46500Y5500D02*
Y6500D01*
X86600Y7900D02*
X87600D01*
X87100Y7400D02*
Y8400D01*
X86600Y5100D02*
X87600D01*
X87100Y4600D02*
Y5600D01*
X135700Y-3900D02*
X136700D01*
X136200Y-4400D02*
Y-3400D01*
X135700Y4000D02*
X136700D01*
X136200Y3500D02*
Y4500D01*
X48800Y-8000D02*
X49800D01*
X49300Y-8500D02*
Y-7500D01*
X48700Y-4500D02*
X49700D01*
X49200Y-5000D02*
Y-4000D01*
X62000Y-24800D02*
X63000D01*
X62500Y-25300D02*
Y-24300D01*
X65500Y-24700D02*
X66500D01*
X66000Y-25200D02*
Y-24200D01*
X96000Y-22700D02*
X97000D01*
X96500Y-23200D02*
Y-22200D01*
X87800Y-17500D02*
X88800D01*
X88300Y-18000D02*
Y-17000D01*
X90700Y-17400D02*
X91700D01*
X91200Y-17900D02*
Y-16900D01*
X67800Y-27500D02*
X68800D01*
X68300Y-28000D02*
Y-27000D01*
X114300Y-6500D02*
X115300D01*
X114800Y-7000D02*
Y-6000D01*
X114500Y-1800D02*
X115500D01*
X115000Y-2300D02*
Y-1300D01*
X114400Y9800D02*
X115400D01*
X114900Y9300D02*
Y10300D01*
X113700Y15400D02*
X114700D01*
X114200Y14900D02*
Y15900D01*
X113400Y23200D02*
X114400D01*
X113900Y22700D02*
Y23700D01*
X67563Y-4889D02*
X68563D01*
X68063Y-5389D02*
Y-4389D01*
X69138Y-6536D02*
X70138D01*
X69638Y-7036D02*
Y-6036D01*
X70713Y-4889D02*
X71713D01*
X71213Y-5389D02*
Y-4389D01*
X72287Y-6536D02*
X73287D01*
X72787Y-7036D02*
Y-6036D01*
X73862Y-4889D02*
X74862D01*
X74362Y-5389D02*
Y-4389D01*
X75437Y-6536D02*
X76437D01*
X75937Y-7036D02*
Y-6036D01*
X131000Y-15200D02*
X132000D01*
X131500Y-15700D02*
Y-14700D01*
X131000Y-12300D02*
X132000D01*
X131500Y-12800D02*
Y-11800D01*
X47100Y-2300D02*
X48100D01*
X47600Y-2800D02*
Y-1800D01*
X22900Y-27500D02*
X23900D01*
X23400Y-28000D02*
Y-27000D01*
X22500Y-20700D02*
X23500D01*
X23000Y-21200D02*
Y-20200D01*
X24500Y-33500D02*
X25500D01*
X25000Y-34000D02*
Y-33000D01*
X34900Y-24500D02*
X35900D01*
X35400Y-25000D02*
Y-24000D01*
X30600Y-23000D02*
X31600D01*
X31100Y-23500D02*
Y-22500D01*
X33000Y-28700D02*
X34000D01*
X33500Y-29200D02*
Y-28200D01*
X116685Y-23315D02*
X117685D01*
X117185Y-23815D02*
Y-22815D01*
X105500Y-28500D02*
X106500D01*
X106000Y-29000D02*
Y-28000D01*
X127000Y5800D02*
X128000D01*
X127500Y5300D02*
Y6300D01*
X119400Y3400D02*
X120400D01*
X119900Y2900D02*
Y3900D01*
X29700Y8000D02*
X30700D01*
X30200Y7500D02*
Y8500D01*
X27000D02*
X28000D01*
X27500Y8000D02*
Y9000D01*
X11900Y-35600D02*
X12900D01*
X12400Y-36100D02*
Y-35100D01*
X8032Y-35600D02*
X9031D01*
X8531Y-36100D02*
Y-35100D01*
X86461Y-4889D02*
X87461D01*
X86961Y-5389D02*
Y-4389D01*
X84886Y-6536D02*
X85886D01*
X85386Y-7036D02*
Y-6036D01*
X83311Y-4889D02*
X84311D01*
X83811Y-5389D02*
Y-4389D01*
X81736Y-6536D02*
X82736D01*
X82236Y-7036D02*
Y-6036D01*
X80300Y-24800D02*
X81300D01*
X80800Y-25300D02*
Y-24300D01*
X9400Y21300D02*
X10400D01*
X9900Y20800D02*
Y21800D01*
X8900Y26000D02*
X9900D01*
X9400Y25500D02*
Y26500D01*
X-4500Y27200D02*
X-3500D01*
X-4000Y26700D02*
Y27700D01*
X-3900Y24900D02*
X-2900D01*
X-3400Y24400D02*
Y25400D01*
X11900Y17400D02*
X12900D01*
X12400Y16900D02*
Y17900D01*
X11147Y5547D02*
X12147D01*
X11647Y5047D02*
Y6047D01*
X9600Y3900D02*
X10600D01*
X10100Y3400D02*
Y4400D01*
X5900Y0D02*
X6900D01*
X6400Y-500D02*
Y500D01*
X3300Y0D02*
X4300D01*
X3800Y-500D02*
Y500D01*
X800Y0D02*
X1800D01*
X1300Y-500D02*
Y500D01*
X-1800Y0D02*
X-800D01*
X-1300Y-500D02*
Y500D01*
X148870Y-11677D02*
X152807D01*
X150839Y-13646D02*
Y-9709D01*
X148870Y19740D02*
X152807D01*
X150839Y17772D02*
Y21709D01*
M02*
