G04*
G04 #@! TF.GenerationSoftware,Altium Limited,Altium Designer,22.2.1 (43)*
G04*
G04 Layer_Color=16711935*
%FSLAX25Y25*%
%MOIN*%
G70*
G04*
G04 #@! TF.SameCoordinates,7C3657C9-3B13-42A6-83C1-8FEA204C8C57*
G04*
G04*
G04 #@! TF.FilePolarity,Positive*
G04*
G01*
G75*
%ADD96C,0.00200*%
%ADD97C,0.00394*%
D96*
X42400Y34500D02*
X43600D01*
X43000Y33900D02*
Y35100D01*
X41032Y33516D02*
X44969D01*
X41032Y35484D02*
X44969D01*
X41032Y33516D02*
Y35484D01*
X44969Y33516D02*
Y35484D01*
X49400Y34500D02*
X50600D01*
X50000Y33900D02*
Y35100D01*
X48031Y35484D02*
X51968D01*
X48031Y33516D02*
X51968D01*
Y33516D02*
Y35484D01*
X48031Y33516D02*
Y35484D01*
X86200Y34500D02*
X87400D01*
X86800Y33900D02*
Y35100D01*
X84832Y33516D02*
X88769D01*
X84832Y35484D02*
X88769D01*
X84832Y33516D02*
Y35484D01*
X88769Y33516D02*
Y35484D01*
X43900Y5000D02*
X45100D01*
X44500Y4400D02*
Y5600D01*
X42531Y5984D02*
X46468D01*
X42531Y4016D02*
X46468D01*
Y4016D02*
Y5984D01*
X42531Y4016D02*
Y5984D01*
X85400Y-26000D02*
X86600D01*
X86000Y-26600D02*
Y-25400D01*
X84031Y-25016D02*
X87968D01*
X84031Y-26984D02*
X87968D01*
Y-26984D02*
Y-25016D01*
X84031Y-26984D02*
Y-25016D01*
X1469Y-34984D02*
Y-33016D01*
X-2468Y-34984D02*
Y-33016D01*
Y-33016D02*
X1469D01*
X-2468Y-34984D02*
X1469D01*
X-500Y-34600D02*
Y-33400D01*
X-1100Y-34000D02*
X100D01*
X10469Y25016D02*
Y26984D01*
X6532Y25016D02*
Y26984D01*
Y26984D02*
X10469D01*
X6532Y25016D02*
X10469D01*
X8500Y25400D02*
Y26600D01*
X7900Y26000D02*
X9100D01*
X10469Y21516D02*
Y23484D01*
X6532Y21516D02*
Y23484D01*
Y23484D02*
X10469D01*
X6532Y21516D02*
X10469D01*
X8500Y21900D02*
Y23100D01*
X7900Y22500D02*
X9100D01*
X23516Y-27468D02*
X25484D01*
X23516Y-23531D02*
X25484D01*
X25484Y-27468D02*
Y-23531D01*
X23516Y-27468D02*
Y-23531D01*
X23900Y-25500D02*
X25100D01*
X24500Y-26100D02*
Y-24900D01*
X76531Y-26984D02*
Y-25016D01*
X80468Y-26984D02*
Y-25016D01*
X76531Y-26984D02*
X80468D01*
X76531Y-25016D02*
X80468D01*
X78500Y-26600D02*
Y-25400D01*
X77900Y-26000D02*
X79100D01*
X105016Y-27531D02*
X106984D01*
X105016Y-31468D02*
X106984D01*
X105016D02*
Y-27531D01*
X106984Y-31468D02*
Y-27531D01*
X105400Y-29500D02*
X106600D01*
X106000Y-30100D02*
Y-28900D01*
X105016Y-20031D02*
X106984D01*
X105016Y-23968D02*
X106984D01*
X106984D02*
Y-20031D01*
X105016Y-23968D02*
Y-20031D01*
X105400Y-22000D02*
X106600D01*
X106000Y-22600D02*
Y-21400D01*
X105016Y-27531D02*
X106984D01*
X105016Y-31468D02*
X106984D01*
X106984D02*
Y-27531D01*
X105016Y-31468D02*
Y-27531D01*
X105400Y-29500D02*
X106600D01*
X106000Y-30100D02*
Y-28900D01*
X27531Y13516D02*
Y15484D01*
X31468Y13516D02*
Y15484D01*
X27531Y13516D02*
X31468D01*
X27531Y15484D02*
X31468D01*
X29500Y13900D02*
Y15100D01*
X28900Y14500D02*
X30100D01*
X-1100Y24000D02*
X100D01*
X-500Y23400D02*
Y24600D01*
X-2468Y24984D02*
X1469D01*
X-2468Y23016D02*
X1469D01*
Y23016D02*
Y24984D01*
X-2468Y23016D02*
Y24984D01*
X-1100Y20500D02*
X100D01*
X-500Y19900D02*
Y21100D01*
X-2468Y21484D02*
X1469D01*
X-2468Y19516D02*
X1469D01*
Y19516D02*
Y21484D01*
X-2468Y19516D02*
Y21484D01*
X5500Y16400D02*
Y17600D01*
X4900Y17000D02*
X6100D01*
X4516Y15032D02*
Y18969D01*
X6484Y15032D02*
Y18969D01*
X4516D02*
X6484D01*
X4516Y15032D02*
X6484D01*
X-1100Y17000D02*
X100D01*
X-500Y16400D02*
Y17600D01*
X-2468Y16016D02*
X1469D01*
X-2468Y17984D02*
X1469D01*
X-2468Y16016D02*
Y17984D01*
X1469Y16016D02*
Y17984D01*
X-1100Y13500D02*
X100D01*
X-500Y12900D02*
Y14100D01*
X-2468Y14484D02*
X1469D01*
X-2468Y12516D02*
X1469D01*
Y12516D02*
Y14484D01*
X-2468Y12516D02*
Y14484D01*
X124900Y7500D02*
X126100D01*
X125500Y6900D02*
Y8100D01*
X123531Y6516D02*
X127469D01*
X123531Y8484D02*
X127469D01*
Y6516D02*
Y8484D01*
X123531Y6516D02*
Y8484D01*
X124900Y14500D02*
X126100D01*
X125500Y13900D02*
Y15100D01*
X123531Y15484D02*
X127469D01*
X123531Y13516D02*
X127469D01*
X123531Y13516D02*
Y15484D01*
X127469Y13516D02*
Y15484D01*
X124900Y11000D02*
X126100D01*
X125500Y10400D02*
Y11600D01*
X123531Y10016D02*
X127469D01*
X123531Y11984D02*
X127469D01*
Y10016D02*
Y11984D01*
X123531Y10016D02*
Y11984D01*
X124900Y500D02*
X126100D01*
X125500Y-100D02*
Y1100D01*
X123531Y1484D02*
X127469D01*
X123531Y-484D02*
X127469D01*
X123531Y-484D02*
Y1484D01*
X127469Y-484D02*
Y1484D01*
X124900Y4000D02*
X126100D01*
X125500Y3400D02*
Y4600D01*
X123531Y3016D02*
X127469D01*
X123531Y4984D02*
X127469D01*
Y3016D02*
Y4984D01*
X123531Y3016D02*
Y4984D01*
X124900Y25000D02*
X126100D01*
X125500Y24400D02*
Y25600D01*
X123531Y24016D02*
X127469D01*
X123531Y25984D02*
X127469D01*
Y24016D02*
Y25984D01*
X123531Y24016D02*
Y25984D01*
X124900Y21500D02*
X126100D01*
X125500Y20900D02*
Y22100D01*
X123531Y20516D02*
X127469D01*
X123531Y22484D02*
X127469D01*
Y20516D02*
Y22484D01*
X123531Y20516D02*
Y22484D01*
X124900Y18000D02*
X126100D01*
X125500Y17400D02*
Y18600D01*
X123531Y17016D02*
X127469D01*
X123531Y18984D02*
X127469D01*
Y17016D02*
Y18984D01*
X123531Y17016D02*
Y18984D01*
X27400Y-33500D02*
X28600D01*
X28000Y-34100D02*
Y-32900D01*
X26032Y-32516D02*
X29969D01*
X26032Y-34484D02*
X29969D01*
X26032Y-34484D02*
Y-32516D01*
X29969Y-34484D02*
Y-32516D01*
X110000Y-30100D02*
Y-28900D01*
X109400Y-29500D02*
X110600D01*
X110984Y-31468D02*
Y-27531D01*
X109016Y-31468D02*
Y-27531D01*
X109016D02*
X110984D01*
X109016Y-31468D02*
X110984D01*
X110000Y-22600D02*
Y-21400D01*
X109400Y-22000D02*
X110600D01*
X109016Y-23968D02*
Y-20031D01*
X110984Y-23968D02*
Y-20031D01*
X109016Y-23968D02*
X110984D01*
X109016Y-20031D02*
X110984D01*
X73000Y-30100D02*
Y-28900D01*
X72400Y-29500D02*
X73600D01*
X73984Y-31468D02*
Y-27531D01*
X72016Y-31468D02*
Y-27531D01*
X72016D02*
X73984D01*
X72016Y-31468D02*
X73984D01*
X73000Y-22600D02*
Y-21400D01*
X72400Y-22000D02*
X73600D01*
X72016Y-23968D02*
Y-20031D01*
X73984Y-23968D02*
Y-20031D01*
X72016Y-23968D02*
X73984D01*
X72016Y-20031D02*
X73984D01*
X69500Y-22600D02*
Y-21400D01*
X68900Y-22000D02*
X70100D01*
X68516Y-23968D02*
Y-20031D01*
X70484Y-23968D02*
Y-20031D01*
X68516Y-23968D02*
X70484D01*
X68516Y-20031D02*
X70484D01*
X69500Y-30100D02*
Y-28900D01*
X68900Y-29500D02*
X70100D01*
X70484Y-31468D02*
Y-27531D01*
X68516Y-31468D02*
Y-27531D01*
X68516D02*
X70484D01*
X68516Y-31468D02*
X70484D01*
X124900Y-13000D02*
X126100D01*
X125500Y-13600D02*
Y-12400D01*
X123531Y-13984D02*
X127469D01*
X123531Y-12016D02*
X127469D01*
Y-13984D02*
Y-12016D01*
X123531Y-13984D02*
Y-12016D01*
X35000Y-36000D02*
Y-26000D01*
Y-36000D02*
X55000D01*
Y-26000D01*
X35000D02*
X55000D01*
X26032Y-27484D02*
Y-25516D01*
X29969Y-27484D02*
Y-25516D01*
X26032Y-25516D02*
X29969D01*
X26032Y-27484D02*
X29969D01*
X28000Y-27100D02*
Y-25900D01*
X27400Y-26500D02*
X28600D01*
X27400Y-30000D02*
X28600D01*
X28000Y-30600D02*
Y-29400D01*
X26032Y-30984D02*
X29969D01*
X26032Y-29016D02*
X29969D01*
Y-30984D02*
Y-29016D01*
X26032Y-30984D02*
Y-29016D01*
Y-23984D02*
Y-22016D01*
X29969Y-23984D02*
Y-22016D01*
X26032Y-22016D02*
X29969D01*
X26032Y-23984D02*
X29969D01*
X28000Y-23600D02*
Y-22400D01*
X27400Y-23000D02*
X28600D01*
X27400Y-19500D02*
X28600D01*
X28000Y-20100D02*
Y-18900D01*
X26032Y-20484D02*
X29969D01*
X26032Y-18516D02*
X29969D01*
Y-20484D02*
Y-18516D01*
X26032Y-20484D02*
Y-18516D01*
X46468Y516D02*
Y2484D01*
X42531Y516D02*
Y2484D01*
Y2484D02*
X46468D01*
X42531Y516D02*
X46468D01*
X44500Y900D02*
Y2100D01*
X43900Y1500D02*
X45100D01*
X46468Y-2984D02*
Y-1016D01*
X42531Y-2984D02*
Y-1016D01*
Y-1016D02*
X46468D01*
X42531Y-2984D02*
X46468D01*
X44500Y-2600D02*
Y-1400D01*
X43900Y-2000D02*
X45100D01*
X80468Y-14984D02*
Y-13016D01*
X76531Y-14984D02*
Y-13016D01*
Y-13016D02*
X80468D01*
X76531Y-14984D02*
X80468D01*
X78500Y-14600D02*
Y-13400D01*
X77900Y-14000D02*
X79100D01*
X97031Y9016D02*
Y10984D01*
X100969Y9016D02*
Y10984D01*
X97031Y9016D02*
X100969D01*
X97031Y10984D02*
X100969D01*
X99000Y9400D02*
Y10600D01*
X98400Y10000D02*
X99600D01*
X47469Y18516D02*
Y20484D01*
X43532Y18516D02*
Y20484D01*
Y20484D02*
X47469D01*
X43532Y18516D02*
X47469D01*
X45500Y18900D02*
Y20100D01*
X44900Y19500D02*
X46100D01*
X100969Y12516D02*
Y14484D01*
X97031Y12516D02*
Y14484D01*
Y14484D02*
X100969D01*
X97031Y12516D02*
X100969D01*
X99000Y12900D02*
Y14100D01*
X98400Y13500D02*
X99600D01*
X84031Y-14984D02*
Y-13016D01*
X87968Y-14984D02*
Y-13016D01*
X84031Y-14984D02*
X87968D01*
X84031Y-13016D02*
X87968D01*
X86000Y-14600D02*
Y-13400D01*
X85400Y-14000D02*
X86600D01*
X100969Y5516D02*
Y7484D01*
X97031Y5516D02*
Y7484D01*
Y7484D02*
X100969D01*
X97031Y5516D02*
X100969D01*
X99000Y5900D02*
Y7100D01*
X98400Y6500D02*
X99600D01*
X97031Y19516D02*
Y21484D01*
X100969Y19516D02*
Y21484D01*
X97031Y19516D02*
X100969D01*
X97031Y21484D02*
X100969D01*
X99000Y19900D02*
Y21100D01*
X98400Y20500D02*
X99600D01*
X86516Y-18032D02*
X88484D01*
X86516Y-21969D02*
X88484D01*
X86516D02*
Y-18032D01*
X88484Y-21969D02*
Y-18032D01*
X86900Y-20000D02*
X88100D01*
X87500Y-20600D02*
Y-19400D01*
X97031Y16016D02*
Y17984D01*
X100969Y16016D02*
Y17984D01*
X97031Y16016D02*
X100969D01*
X97031Y17984D02*
X100969D01*
X99000Y16400D02*
Y17600D01*
X98400Y17000D02*
X99600D01*
X100969Y23016D02*
Y24984D01*
X97031Y23016D02*
Y24984D01*
Y24984D02*
X100969D01*
X97031Y23016D02*
X100969D01*
X99000Y23400D02*
Y24600D01*
X98400Y24000D02*
X99600D01*
X46468Y-9984D02*
Y-8016D01*
X42531Y-9984D02*
Y-8016D01*
Y-8016D02*
X46468D01*
X42531Y-9984D02*
X46468D01*
X44500Y-9600D02*
Y-8400D01*
X43900Y-9000D02*
X45100D01*
X43532Y15016D02*
Y16984D01*
X47469Y15016D02*
Y16984D01*
X43532Y15016D02*
X47469D01*
X43532Y16984D02*
X47469D01*
X45500Y15400D02*
Y16600D01*
X44900Y16000D02*
X46100D01*
X42531Y-6484D02*
Y-4516D01*
X46468Y-6484D02*
Y-4516D01*
X42531Y-6484D02*
X46468D01*
X42531Y-4516D02*
X46468D01*
X44500Y-6100D02*
Y-4900D01*
X43900Y-5500D02*
X45100D01*
X55032Y33516D02*
Y35484D01*
X58969Y33516D02*
Y35484D01*
X55032Y33516D02*
X58969D01*
X55032Y35484D02*
X58969D01*
X57000Y33900D02*
Y35100D01*
X56400Y34500D02*
X57600D01*
X43532Y22016D02*
Y23984D01*
X47469Y22016D02*
Y23984D01*
X43532Y22016D02*
X47469D01*
X43532Y23984D02*
X47469D01*
X45500Y22400D02*
Y23600D01*
X44900Y23000D02*
X46100D01*
X65969Y33516D02*
Y35484D01*
X62032Y33516D02*
Y35484D01*
Y35484D02*
X65969D01*
X62032Y33516D02*
X65969D01*
X64000Y33900D02*
Y35100D01*
X63400Y34500D02*
X64600D01*
X43532Y25516D02*
Y27484D01*
X47469Y25516D02*
Y27484D01*
X43532Y25516D02*
X47469D01*
X43532Y27484D02*
X47469D01*
X45500Y25900D02*
Y27100D01*
X44900Y26500D02*
X46100D01*
X46468Y-13484D02*
Y-11516D01*
X42531Y-13484D02*
Y-11516D01*
Y-11516D02*
X46468D01*
X42531Y-13484D02*
X46468D01*
X44500Y-13100D02*
Y-11900D01*
X43900Y-12500D02*
X45100D01*
X59000Y-20600D02*
Y-19400D01*
X58400Y-20000D02*
X59600D01*
X58016Y-21969D02*
Y-18032D01*
X59984Y-21969D02*
Y-18032D01*
X58016D02*
X59984D01*
X58016Y-21969D02*
X59984D01*
X35000Y11900D02*
Y13100D01*
X34400Y12500D02*
X35600D01*
X35984Y10531D02*
Y14469D01*
X34016Y10531D02*
Y14469D01*
X34016Y10531D02*
X35984D01*
X34016Y14469D02*
X35984D01*
X38500Y11900D02*
Y13100D01*
X37900Y12500D02*
X39100D01*
X39484Y10531D02*
Y14469D01*
X37516Y10531D02*
Y14469D01*
X37516Y10531D02*
X39484D01*
X37516Y14469D02*
X39484D01*
X55500Y-20600D02*
Y-19400D01*
X54900Y-20000D02*
X56100D01*
X54516Y-21969D02*
Y-18032D01*
X56484Y-21969D02*
Y-18032D01*
X54516D02*
X56484D01*
X54516Y-21969D02*
X56484D01*
X69500Y-20600D02*
Y-19400D01*
X68900Y-20000D02*
X70100D01*
X68516Y-21969D02*
Y-18032D01*
X70484Y-21969D02*
Y-18032D01*
X68516D02*
X70484D01*
X68516Y-21969D02*
X70484D01*
X62500Y-20600D02*
Y-19400D01*
X61900Y-20000D02*
X63100D01*
X61516Y-21969D02*
Y-18032D01*
X63484Y-21969D02*
Y-18032D01*
X61516D02*
X63484D01*
X61516Y-21969D02*
X63484D01*
X28900Y5000D02*
X30100D01*
X29500Y4400D02*
Y5600D01*
X27531Y4016D02*
X31468D01*
X27531Y5984D02*
X31468D01*
X27531Y4016D02*
Y5984D01*
X31468Y4016D02*
Y5984D01*
X35000Y2900D02*
Y4100D01*
X34400Y3500D02*
X35600D01*
X34016Y1531D02*
Y5469D01*
X35984Y1531D02*
Y5469D01*
X34016D02*
X35984D01*
X34016Y1531D02*
X35984D01*
X38500Y2900D02*
Y4100D01*
X37900Y3500D02*
X39100D01*
X37516Y1531D02*
Y5469D01*
X39484Y1531D02*
Y5469D01*
X37516D02*
X39484D01*
X37516Y1531D02*
X39484D01*
X66000Y-20600D02*
Y-19400D01*
X65400Y-20000D02*
X66600D01*
X65016Y-21969D02*
Y-18032D01*
X66984Y-21969D02*
Y-18032D01*
X65016D02*
X66984D01*
X65016Y-21969D02*
X66984D01*
X28900Y1500D02*
X30100D01*
X29500Y900D02*
Y2100D01*
X27531Y2484D02*
X31468D01*
X27531Y516D02*
X31468D01*
Y516D02*
Y2484D01*
X27531Y516D02*
Y2484D01*
X28900Y11000D02*
X30100D01*
X29500Y10400D02*
Y11600D01*
X27531Y10016D02*
X31468D01*
X27531Y11984D02*
X31468D01*
X27531Y10016D02*
Y11984D01*
X31468Y10016D02*
Y11984D01*
X-4405Y-14126D02*
X7406D01*
Y-29874D02*
Y-14126D01*
X-4405Y-29875D02*
Y-14127D01*
Y-29875D02*
X7406D01*
X-5000Y-46000D02*
Y-36000D01*
Y-46000D02*
X85000D01*
Y-36000D01*
X-5000D02*
X85000D01*
Y-46000D02*
Y-36000D01*
Y-46000D02*
X175000D01*
Y-36000D01*
X85000D02*
X175000D01*
X-5000Y36000D02*
Y46000D01*
Y36000D02*
X85000D01*
Y46000D01*
X-5000D02*
X85000D01*
Y36000D02*
Y46000D01*
Y36000D02*
X175000D01*
Y46000D01*
X85000D02*
X175000D01*
X9094Y-14126D02*
X20906D01*
Y-29874D02*
Y-14126D01*
X9095Y-29875D02*
Y-14127D01*
Y-29875D02*
X20906D01*
D97*
X90398Y-29543D02*
X102602D01*
X90398Y-22457D02*
X102602D01*
X90398Y-29543D02*
Y-22457D01*
X102602Y-29543D02*
Y-22457D01*
X87602Y-29043D02*
Y-21957D01*
X75398D02*
X87602D01*
X75398Y-29043D02*
X87602D01*
X75398D02*
Y-21957D01*
X91882Y-9882D02*
Y29882D01*
X52118Y-9882D02*
Y29882D01*
Y-9882D02*
X91882D01*
X52118Y29882D02*
X91882D01*
M02*
